<svg id="Layer_1" data-name="Layer 1" xmlns="http://www.w3.org/2000/svg" viewBox="0 0 227.98 223.08"><defs><style>.cls-1{fill:#00b390;}.cls-2{fill:#b62028;}.cls-3{fill:#ca3940;}.cls-4{fill:#fefefe;}.cls-5{fill:#fff;}.cls-6{fill:#ca3c41;}.cls-7{fill:#b52028;}.cls-8{fill:#c0383d;}.cls-9{fill:#020403;}.cls-10{fill:#010101;}.cls-11{fill:#fdfdfd;}.cls-12{fill:#fcfcfc;}.cls-13{fill:#f6ed58;}.cls-14{fill:#fbee59;}</style></defs><title>Kitten 01 114x111</title><path d="M135.15,87.8C134,86.86,132.75,86,131.7,85a28.53,28.53,0,0,1-10.37-20.26,70.44,70.44,0,0,1,1.73-20.62,12.43,12.43,0,0,1,.44-1.8,12.94,12.94,0,0,0,0-8.16A147.25,147.25,0,0,1,120,14.29a27,27,0,0,1,0-6.84,6.38,6.38,0,0,1,6.81-5.93h.51a25.38,25.38,0,0,1,10.44,3.24l9.61,5.16a22.88,22.88,0,0,0,3,1.2h.89a56.27,56.27,0,0,1,21.61-3,37.71,37.71,0,0,1,11,2.23,1.09,1.09,0,0,0,1.51-.27l0,0h0a37.64,37.64,0,0,1,11.16-8.3A17.82,17.82,0,0,1,200.42.32a7.05,7.05,0,0,1,8.69,4.24,23.71,23.71,0,0,1,1.78,8.22,42.29,42.29,0,0,1-1.54,14.59c-.43,1.27-.67,2.62-1,3.94a.93.93,0,0,0,0,.86h0a5.24,5.24,0,0,0,4,3.51,7.75,7.75,0,0,1,4.8,4.51,47,47,0,0,1,3.5,8.79,28.06,28.06,0,0,0,3,7.2,5.35,5.35,0,0,0,1.08,1.34,1.51,1.51,0,0,1,.54,2h0a5.17,5.17,0,0,1-1.76,1.75c1,1.13,1.9,2.24,2.77,3.41a9.75,9.75,0,0,1,1.7,4c0,.64,0,1.17-.77,1.27a49.8,49.8,0,0,0-9.12,2.71,3.06,3.06,0,0,0-2.28,2.23,25.75,25.75,0,0,1-10.68,13.28,46,46,0,0,1-9,4.8c-.58.24-.77.34-.44,1a20.91,20.91,0,0,1,2.41,5.5,24.41,24.41,0,0,0,2.18,4.8,60.18,60.18,0,0,1,3.05,7.66,78.92,78.92,0,0,0,9,16.06,38.62,38.62,0,0,1,4.41,8.11,16.06,16.06,0,0,1,1,4.32,10.48,10.48,0,0,1-6.07,10.85,14.26,14.26,0,0,1-13.3.34c-.72-.34-.87,0-1.11.46a80.35,80.35,0,0,1-13.68,24.77,1,1,0,0,0,0,1.23c2.71,5.33,4.8,10.82,7.42,16.3,1.2,2.66,2.4,5.37,3.48,8.06,0,.39.36.43.79.43a7,7,0,0,1,4.8,1.35,4.81,4.81,0,0,1,.91,6.36,41.29,41.29,0,0,1-4.8,3.75,75.83,75.83,0,0,1-7.2,3.91,26.8,26.8,0,0,0-4.8,3,10.3,10.3,0,0,1-6.89,1.8,4.78,4.78,0,0,1-3.56-1.7,23.44,23.44,0,0,1-1.67-2.19A12.49,12.49,0,0,0,168,215.2a67.55,67.55,0,0,1-10.54-9.07,59,59,0,0,0-4.81-4.28c0,.46-.86.84-1.44,1.32a45.56,45.56,0,0,0-4.8,4.08,2.09,2.09,0,0,0-.65,2.24,20.46,20.46,0,0,0,.85,2.76,4.81,4.81,0,0,1-3.13,6h-.28a10,10,0,0,1-7.81-1.25,15.54,15.54,0,0,1-4-3.84c-2.4-3-4.8-5.81-7-8.83a19.38,19.38,0,0,1-2.61-5,8.78,8.78,0,0,1,2.28-8.45,30.74,30.74,0,0,1,4.51-4.47,105.73,105.73,0,0,1,8.19-7.35c.43-.28,0-.57,0-.81a79.21,79.21,0,0,1-3.39-7.8l-.64-1.8c0-.34,0-.53-.58-.29a9.44,9.44,0,0,1-6.15.91,19.1,19.1,0,0,1-9.6-3.79,24.23,24.23,0,0,1-6.67-7.37,2,2,0,0,0-1.23-1,12.52,12.52,0,0,0-6.26,0,29.6,29.6,0,0,0-13.28,6.55,51.65,51.65,0,0,1-7.66,5.57,15.08,15.08,0,0,1-14.4,0,36.11,36.11,0,0,1-12-10,84.7,84.7,0,0,0-11.72-11,26.6,26.6,0,0,0-20.41-5.64,80.05,80.05,0,0,0-21.6,5.81c-.29,0-.67.34-1,0s0-.62,0-1a3.5,3.5,0,0,1,.38-.94A44.31,44.31,0,0,1,14.79,129.3,32.79,32.79,0,0,1,27.32,124a45.21,45.21,0,0,1,8-.72,194.81,194.81,0,0,0,25.28-2.4A141.69,141.69,0,0,0,92.06,112a129.7,129.7,0,0,0,25.88-14.38,114.39,114.39,0,0,1,10-6.89A28.93,28.93,0,0,1,135.15,87.8Z"/><path class="cls-1" d="M129.3,67.63a9.74,9.74,0,0,0,1.48-3.38c0-.58.39-.77,1-.77h10a55.16,55.16,0,0,0,6.55-.24,9.3,9.3,0,0,0,2.14-.41,3.07,3.07,0,0,0,2.4-2.76,27.48,27.48,0,0,0,0-7.47l-.48-1A3.45,3.45,0,0,0,148.81,49H133c-.56,0-.65,0-.6-.67a6.11,6.11,0,0,1,5-5.62,99.34,99.34,0,0,1,13.28-2.4c9.17-1.18,18.63-1.66,28-2.14,7.2-.36,14.62-.5,21.94-.65,3.6,0,7.2.39,10.93.6a3.32,3.32,0,0,1,2.23,2.14,42.27,42.27,0,0,1,4,9.6,29.12,29.12,0,0,0,3.29,7.8,7.93,7.93,0,0,0,1.66,1.76c.38.38.48.67,0,1L222,61c-.82.34-.62.87-.24,1.45l2.4,3.4c.34.48.65,1,.94,1.49s0,.53-.29.6a71.06,71.06,0,0,0-8.36,2.24c-2.13.67-4.12,1.53-6.07,2.25a44,44,0,0,1-8.88,2.19,14.68,14.68,0,0,1-5.91-.87A5.56,5.56,0,0,1,192,69a24.25,24.25,0,0,0-2.09-5.9,6.15,6.15,0,0,0-8.14-2.84l-.43.24A10.2,10.2,0,0,0,177,64.92a27.17,27.17,0,0,1-6.6,7.87A19.18,19.18,0,0,1,155,76.87c-4.8-.64-9.12-1.8-13.82-2.54a22.48,22.48,0,0,0-9.17,0l-1.71.65a6.06,6.06,0,0,1,.89-2,9.56,9.56,0,0,0,1.25-2.85,1.94,1.94,0,0,0-.92-2.58h0a1.61,1.61,0,0,0-1.06,0Z"/><path class="cls-2" d="M2.23,145.77l1.1-1.7a42.17,42.17,0,0,1,16.35-14.26,33.55,33.55,0,0,1,17.86-3.17,150.92,150.92,0,0,1,19,3.17,113.32,113.32,0,0,0,17.47,3,35.85,35.85,0,0,0,18.1-3,49.73,49.73,0,0,0,11.41-7.59c2.61-2.18,5.18-4.42,7.56-6.84h.48a49.83,49.83,0,0,0-2.86,5.09A35.94,35.94,0,0,0,105,135.86a42.32,42.32,0,0,0,.84,11.45c.53,1.85,1.25,3.65,1.85,5.45,0,.43.24.62-.32.62a29.43,29.43,0,0,0-18.43,6.8,88.82,88.82,0,0,1-8.19,5.71,12.5,12.5,0,0,1-12,.74,31.67,31.67,0,0,1-11.5-8.88A112.35,112.35,0,0,0,47.34,148a32.44,32.44,0,0,0-14.19-7.61A31.51,31.51,0,0,0,23,140a66.34,66.34,0,0,0-18.1,4.8A24.62,24.62,0,0,0,2.23,145.77Z"/><path class="cls-3" d="M138,90a21.86,21.86,0,0,0-4,2.4,95.12,95.12,0,0,0-9.79,8c-2.4,2.4-5.14,4-7.68,6.09s-4.9,4.06-7.3,6.29-5.67,5.6-8.79,8.17a37.47,37.47,0,0,1-18.24,8.52A46,46,0,0,1,68.73,129c-6.22-1-12.34-2.56-18.58-3.81l-3-.6c.29-.34.58-.24.84-.24a137,137,0,0,0,33.27-6.1,145.4,145.4,0,0,0,19.8-7.86,100,100,0,0,0,20.45-13.27,45.45,45.45,0,0,1,9.8-6.29,18.69,18.69,0,0,1,4.08-1.18,2.89,2.89,0,0,0,1.1-.38C137.31,89.14,137.7,89.33,138,90Z"/><path class="cls-4" d="M127.26,190.79a28.84,28.84,0,0,1,2.8-3c2.41-2.4,4.81-4.8,6.8-7,.69-.69.69-.69,1.13,0,1.2,2.24,13.49,18.49,14,19.5a41.92,41.92,0,0,0-7,4.46,4.79,4.79,0,0,0-1.94,5c0,.62,1.75,3.05,1.25,4.2.14,1.15-1.11,1.8-1.11,1.8.67-2.09-.17-4.58-1.61-4.8-.91.29-.36,1.08-.26,1.37,1.34,2.71,1.27,4.8-3,3.14-.55.2.55-3.93.45-4.2s0-1.1-.72-.62-1.41,4.13-2,3.48c-1-.94-10.32-13.59-10.32-13.59-3.07-6.62-.5-7.78,1.54-9.6Z"/><path class="cls-4" d="M174.48,11a1.66,1.66,0,0,1,2,1.06,30.43,30.43,0,0,1,2.4,6.55A15.58,15.58,0,0,0,180,22a2.62,2.62,0,0,0,2.72,1.63,2.25,2.25,0,0,0,2-2.4,10.68,10.68,0,0,0-.82-4.8c-.48-1.35-1-2.67-1.56-4.08a38.34,38.34,0,0,1,14.26,8.88,68.5,68.5,0,0,1,10.48,13.54c-1.56,0-3.05-.24-4.32-.24-9.8,0-19.57,0-29.36.58-7.2.41-14.26.93-21.61,1.75a131.47,131.47,0,0,0-14.88,2.71,9.18,9.18,0,0,0-7.61,7.88c-.29,1.63-.29,1.63-2,1.73h-1c-.89,0-.89,0-.75-1,.46-2.62.94-5.24,1.61-7.81a5.83,5.83,0,0,0,0-3.6,66.26,66.26,0,0,1-1.75-8.26,117.39,117.39,0,0,1-2.57-17.4,12.78,12.78,0,0,1,.53-4.8,3.06,3.06,0,0,1,3-2.19,19.17,19.17,0,0,1,7,1.8c3.72,1.59,7.2,3.82,10.65,5.67,1.76.94,3.56,1.8,5.36,2.57a1.89,1.89,0,0,0,1,0,55,55,0,0,1,8.25-2.62c.72,0,1,0,1.16.67.65,2.6,1.17,5.21,1.75,7.88a6.55,6.55,0,0,0,1.18,2.81,2.84,2.84,0,0,0,4,.24l.43-.48a3.68,3.68,0,0,0,.7-2.24,19.24,19.24,0,0,0-1.66-7c-.34-.77-.63-1.56-1-2.4s0-.48.29-.53a1.35,1.35,0,0,1,1.7.82h0a31.93,31.93,0,0,1,2.4,7.94,28.05,28.05,0,0,0,.67,3.75,3.44,3.44,0,0,0,3.59,3.27H174a3.85,3.85,0,0,0,3.45-3.72,17.19,17.19,0,0,0-1-6.74A23,23,0,0,0,174.48,11Z"/><path class="cls-4" d="M211.69,75.12a23.06,23.06,0,0,1-6.36,8.19,42.76,42.76,0,0,1-12.85,6.84A68.07,68.07,0,0,1,179.57,93a71.61,71.61,0,0,1-16.81,0,94.59,94.59,0,0,1-21.94-5.93,18.81,18.81,0,0,1-3.94-2.66,40.1,40.1,0,0,1-6.1-5.69c-.6-.77-.6-.77.34-1.11a17.13,17.13,0,0,1,9.12-.38c4,.72,7.9,1.77,12,2.4a28.07,28.07,0,0,0,10.92.29,21.83,21.83,0,0,0,14.26-10.21c1.06-1.58,1.9-3.29,3-4.8a6,6,0,0,1,4.08-2.4,2.63,2.63,0,0,1,2.62,1,9.64,9.64,0,0,1,1.7,3.44l1.2,4.08a8.28,8.28,0,0,0,7.2,6.07A25.08,25.08,0,0,0,208.33,76,12.8,12.8,0,0,0,211.69,75.12Z"/><path class="cls-4" d="M187.06,11.17a45.41,45.41,0,0,1,10.69-7.64,15.73,15.73,0,0,1,3.48-1.13A3.81,3.81,0,0,1,206,4.49a14.8,14.8,0,0,1,1.61,5.6,44.23,44.23,0,0,1-.72,15.43,19.1,19.1,0,0,1-.53,2.91l-2-2.52v-.77a37.49,37.49,0,0,0,1.1-4.8,21.56,21.56,0,0,0-.21-8.69A6.67,6.67,0,0,0,204.6,10a3.88,3.88,0,0,0-4.8-1.87,17.11,17.11,0,0,0-7.54,4.8,1.13,1.13,0,0,1-1.56.33h0A16,16,0,0,0,187.06,11.17Z"/><path class="cls-4" d="M127.93,74.93a28.58,28.58,0,0,1-3.19-12.15,3.54,3.54,0,0,0,2.8.65c.39,0,.39,0,.34.43a22.07,22.07,0,0,1-1,4.47,1.22,1.22,0,0,0,0,1.39c.43.36.86,0,1.27,0a4.12,4.12,0,0,1,1.54-.43c.48,0,.69,0,.48.57A47,47,0,0,1,127.93,74.93Z"/><path class="cls-5" d="M188.62,210c-.32,0-.75-.41-1,0s0,.62.36.77c1.13.79,1.87,3.14,1.54,3.58a3.26,3.26,0,0,1-1.21,1c-2.25,1.37-9.6,5.57-11.35,4.8a63.68,63.68,0,0,1-7.37-6.65l-15.2-14.69a108.84,108.84,0,0,1-14.57-20.38c-2-3.51-3.36-6.29-5.11-9.8a3.66,3.66,0,0,1,1.25-4.41c2-2.67,2.11-8.91,1.84-13.21-.28-2.57-.69-5.18-.93-7.73a21.78,21.78,0,0,1,3.07-12.75,70,70,0,0,1,7-10.1,15.13,15.13,0,0,0,1.29-1.87c0-.25.39-.51,0-.8s-.57,0-.76.29a30.34,30.34,0,0,0-3,3l-4.41,5.09a28.26,28.26,0,0,0-6.15,14.19c-.67,4.8.63,7.2,1.06,11.12.24,1.56-.22,9.79-1.25,10.58a13,13,0,0,0-3.29-6.36c-1.27-.55-1,.72-.29,1.51a15.44,15.44,0,0,1,2.4,5.93c.29.82,0,.89-.67,1.4a6.77,6.77,0,0,1-4.66,1.32c-1.53,0-1.34-4.81-2.57-6.53-.24-.65-1.39-1.83-1.65-1.35s0,.65,0,1a8.31,8.31,0,0,1,.69,1.66c1.21,2.93,2.12,6.48-.45,5.09a32,32,0,0,1-3.77-1.83,26,26,0,0,1-8.21-9.09c-2.09-3.13-3.79-13.66-3.82-14.65a51.66,51.66,0,0,1,0-5.28c0-1.51.31-3,.41-4.8a27.62,27.62,0,0,1,2.66-8.79A55.43,55.43,0,0,1,122,105.67c4.41-4.41,9.12-8.54,13.87-12.55.31-.31,3.56-2.74,3.87-2.4l1.68.69c4.2,2.19,7.66,2.93,11.86,5.36a132.46,132.46,0,0,1,12.41,4.8,42.76,42.76,0,0,0-6.92,14.83c-.24,1.06-.38,2-.57,3.1a1.23,1.23,0,0,0,.76,1.56h0a1.27,1.27,0,0,0,.86,0c1.32-.38,2.81-.33,4.18-.69a15.77,15.77,0,0,0,10.78-9.85,30.67,30.67,0,0,0,1.63-7.2c0-.29,0-.67.31-.62s0,.43,0,.62a18.32,18.32,0,0,0,0,7,12.87,12.87,0,0,0,4.47,7.21,14,14,0,0,0,2.4,1.85,1.35,1.35,0,0,0,1.73,0v-.6a18.66,18.66,0,0,0,.36-11.79,17.92,17.92,0,0,0-3.46-6.75c-.38-.41-.24-.55,0-.74a36.55,36.55,0,0,0,7-4.32,7.08,7.08,0,0,1,2.62-1.44c.6-.24.74,0,.94.48a77.79,77.79,0,0,1,4,10,53.69,53.69,0,0,1,1.6,12.87,96.82,96.82,0,0,1-1.1,20.62,86.87,86.87,0,0,1-5.31,18.49,65.53,65.53,0,0,1-4.41,8.93L183,173c-1.64,2.19-2.81.41-1.64-4a5.33,5.33,0,0,1,2.26-3.1,23.65,23.65,0,0,1,2.76-2,.73.73,0,0,0,.34-.81.6.6,0,0,0-.68-.39h0a9.29,9.29,0,0,0-7.46,10.47,29.8,29.8,0,0,0,2.66,7c3.34,6.53,6.1,13.37,8.93,20q.54,1.23,1.2,2.4a4.48,4.48,0,0,0,4.25,2.5,4.73,4.73,0,0,1,2.4.65,2.07,2.07,0,0,1,1.11,2s-2.23,3-2.71,2.23a17.43,17.43,0,0,0-2.41-3.12.78.78,0,0,0-1.05,0c-.29.29,0,.63.29.84a33,33,0,0,1,1.92,3.07c.64.49-3.82,2.67-4.25,2.81C191.31,213.93,189.77,210.4,188.62,210Z"/><path class="cls-5" d="M200.76,139.51A112.83,112.83,0,0,0,202,121v-7.53a10.1,10.1,0,0,0,.67,2.08,49.83,49.83,0,0,0,7.2,13.4,41.11,41.11,0,0,1,4.32,7.68,13.39,13.39,0,0,1,.87,5.28c-.22,3.75-4.42,9.61-15.51,7.64C198.44,148.29,200.67,140.18,200.76,139.51Z"/><path class="cls-6" d="M175.06,101a27.3,27.3,0,0,1-2.4,10.93A13.53,13.53,0,0,1,162,119.48c-1.85.34-1.85,0-1.44-1.61a34.87,34.87,0,0,1,5.24-12.17,21,21,0,0,1,4.8-4.8,5.5,5.5,0,0,1,4-.72C175.06,100.26,175.2,100.5,175.06,101Z"/><path class="cls-6" d="M178.94,99.56a11.63,11.63,0,0,1,3.58,3.74,18.09,18.09,0,0,1,2.09,14.26c0,.63-.34.58-.77.29a12.61,12.61,0,0,1-5.55-10.51v-4.61a2.36,2.36,0,0,1,0-.75A3.72,3.72,0,0,0,178.94,99.56Z"/><path class="cls-7" d="M155.44,95.45a84.76,84.76,0,0,0,15.24,1.78A63.17,63.17,0,0,0,186,95.74c0,.39-.34.43-.5.53l-2.76,1.51a2.57,2.57,0,0,1-3.05,0c-1.13-.74-2.57,0-3.84,0h0c-.63,1-1.49.77-2.41.58a4.81,4.81,0,0,0-3.52.91,1.87,1.87,0,0,1-1.47.29,62.06,62.06,0,0,1-12.77-4Z"/><path class="cls-8" d="M177.38,100.3v.58a.74.74,0,0,1-.62.67c-.29,0-.29-.43-.34-.67a13.22,13.22,0,0,0-.65-1.37c-.28-.43,0-.57.34-.62a1.35,1.35,0,0,1,1.27,1.37Z"/><path class="cls-9" d="M210.37,40.14a3.46,3.46,0,0,1,3.26,2.4,58.73,58.73,0,0,1,3.05,12.18,51.87,51.87,0,0,1,.34,11,3.5,3.5,0,0,1-2.4,3A63.76,63.76,0,0,0,210.37,40.14Z"/><path d="M167.54,59.16a5.54,5.54,0,0,1-.94,3,4,4,0,0,1-5.47,1.44h0a4.27,4.27,0,0,1-.89-.75,5.19,5.19,0,0,1,.2-7.35h0a3.54,3.54,0,0,1,.63-.53,4.36,4.36,0,0,1,5.9,1.56,4.62,4.62,0,0,1,.55,1.92Z"/><path d="M197.81,57.45a5.38,5.38,0,0,1-.57,2.23,3.49,3.49,0,0,1-4.4,2.23h-.05a3.5,3.5,0,0,1-2.06-1.82,6.07,6.07,0,0,1-.58-4.8,3.19,3.19,0,0,1,2.62-2.57,3.76,3.76,0,0,1,4.2,1.46A4.86,4.86,0,0,1,197.81,57.45Z"/><path d="M162.88,43.82a6.75,6.75,0,0,1,4.42,1.8,1.34,1.34,0,0,1,.48,1.51c0,.62-.79.62-1.37.62a12.79,12.79,0,0,1-4.18-1,28.46,28.46,0,0,0-2.81-1c-.28,0-.72,0-.76-.53s.43-.43.67-.6A7,7,0,0,1,162.88,43.82Z"/><path class="cls-10" d="M196.54,44.2a58.5,58.5,0,0,0-5.57,3c-.58.29-1.08.44-1.51,0a1.26,1.26,0,0,1,0-1.7,5.4,5.4,0,0,1,4.8-1.85A7.84,7.84,0,0,1,196.54,44.2Z"/><path d="M127.26,16.11a7.93,7.93,0,0,1,.43-3.38,3,3,0,0,1,3.09-2A11.4,11.4,0,0,1,136.21,12l3.34,1.76c1.41.86,2.83,1.56,4.32,2.28a3.6,3.6,0,0,1,2.19,4.59v.16a3.57,3.57,0,0,1-1,1.42c-2.4,2.66-4.8,5.28-7.2,7.94a11,11,0,0,1-2.66,2.14,5.53,5.53,0,0,1-1.51.57,3,3,0,0,1-3.65-2,34.9,34.9,0,0,1-1.25-5.23A56.64,56.64,0,0,1,127.26,16.11Z"/><path d="M184.46,68.66a2.65,2.65,0,0,1,2.9,2.36h0a2.77,2.77,0,0,1-.29,1.52c-.58,1-1.2,2-1.85,3s-.33.58,0,.87h0c1.47,1.75,2.74.79,3.75-.38a11.86,11.86,0,0,0,.91-1.49.5.5,0,0,1,.59-.4h.11a.81.81,0,0,1,.48.74,5,5,0,0,1-4,4.42,3.15,3.15,0,0,1-2.9-1.47c-.34-.43-.48-.43-.87,0a5.82,5.82,0,0,1-2.4,1.76,4.8,4.8,0,0,1-6.29-2.4V77a3.21,3.21,0,0,1,0-1.51.54.54,0,0,1,.46-.49h0c.34,0,.44.24.53.43v.34a3.32,3.32,0,0,0,4,2.4h0a2.65,2.65,0,0,0,1.15-.57A6.51,6.51,0,0,0,182.4,76c.24-.34.29-.48,0-.77l-2.4-2a2.7,2.7,0,0,1-.82-3,2.39,2.39,0,0,1,2.4-1.56A7.35,7.35,0,0,0,184.46,68.66Z"/><path class="cls-11" d="M162.59,58a1.53,1.53,0,0,1-1.44,1.6h0a1.57,1.57,0,0,1-1.61-1.51h0A1.6,1.6,0,0,1,161,56.5h0A1.55,1.55,0,0,1,162.6,58h0Z"/><path class="cls-12" d="M192.06,54.93a1.53,1.53,0,0,1,1.47,1.51h0A1.53,1.53,0,0,1,192.06,58h0a1.63,1.63,0,0,1-1.1-2,1.67,1.67,0,0,1,1.1-1.11Z"/><path class="cls-13" d="M137.7,61.44h-8.55a10.07,10.07,0,0,1-3.05-.29A1.31,1.31,0,0,1,125,59.88a27.39,27.39,0,0,1,0-6.27,1.89,1.89,0,0,1,1.76-1.94h0c4.8-.39,9.12-.58,13.58-.68h7.7a1.82,1.82,0,0,1,1.75,1.32,8.67,8.67,0,0,1,.53,2.41,26.7,26.7,0,0,1,0,4c0,1.53-.53,2-2,2.4H146.8A81.23,81.23,0,0,0,137.7,61.44Z"/><path class="cls-14" d="M203.14,24.18a17,17,0,0,1-1.7-2.09,40.6,40.6,0,0,0-8.33-7.2c-.48-.29-.58-.43,0-.87a26.23,26.23,0,0,1,5.47-3.74l1.22-.48c2-.58,3,0,3.63,2a19.29,19.29,0,0,1,.48,8C203.67,21.15,203.33,22.74,203.14,24.18Z"/><path class="cls-14" d="M131.14,12.27a11,11,0,0,1,4.42,1.42c2,1,4,2.18,5.91,3.19a17.08,17.08,0,0,0,2.09.94,1.26,1.26,0,0,1,.69,1.39,3.39,3.39,0,0,1-1,2,88.92,88.92,0,0,0-6.8,7.2,10,10,0,0,1-2.4,2.14,1.86,1.86,0,0,1-2.61-.24h0a2,2,0,0,1-.44-1c-.6-3-1.17-5.83-1.6-8.79a23,23,0,0,1-.44-6.36C129.06,12.82,129.68,12.22,131.14,12.27Z"/><path class="cls-10" d="M142.45,56.18a3.31,3.31,0,0,1-3,3.55h-.74a3.46,3.46,0,0,1-3.6-3.31v-.24h0a3.59,3.59,0,0,1,3.62-3.31,3.24,3.24,0,0,1,3.75,2.61h0C142.48,55.71,142.47,56,142.45,56.18Z"/><path class="cls-1" d="M138.66,54.4a1.84,1.84,0,0,1,2,1.59.55.55,0,0,1,0,.31,2,2,0,0,1-1.94,1.92h0a1.88,1.88,0,0,1-1.64-2.06h0a1.88,1.88,0,0,1,1.61-1.68Z"/></svg>