<svg id="Layer_1" data-name="Layer 1" xmlns="http://www.w3.org/2000/svg" xmlns:xlink="http://www.w3.org/1999/xlink" viewBox="0 0 200 200"><defs><style>.cls-1{fill:none;}.cls-2{fill:#010101;}.cls-3{fill:#fefefe;}.cls-4{fill:#fbee59;}.cls-5{fill:#b62428;}.cls-6{fill:#00b390;}.cls-7{fill:#ca3940;}.cls-8{fill:#ca3c41;}.cls-9{fill:#b52028;}.cls-10{fill:#c1383d;}.cls-11{fill:#fff;}.cls-12{fill:#000100;}.cls-13{fill:#fdfdfd;}.cls-14{fill:#fcfcfc;}.cls-15{fill:#f6ed58;}.cls-16{clip-path:url(#clip-path);}.cls-17{fill:#030504;}</style><clipPath id="clip-path"><path class="cls-1" d="M171.52,96.7c1.9,13.7,4.9,26.11,3,40.71,12.81-.7,18.71-6.5,10.41-20.6C181.13,111.4,176.22,103.7,171.52,96.7Z"/></clipPath></defs><title>Costume1 100x99 1</title><path class="cls-2" d="M118.31,76.79c-1.3-1-2.51-1.9-3.61-2.9a25.21,25.21,0,0,1-8.3-17.1A59.16,59.16,0,0,1,107.9,39c.3-1.4.8-2.9,1.1-4.2a2.05,2.05,0,0,0,0-1.1,143,143,0,0,1-4-22.51,20.13,20.13,0,0,1,.3-4.9,5.26,5.26,0,0,1,5.7-4.2,20.72,20.72,0,0,1,9,2.5c3,1.5,6,3.4,9.1,5a27.31,27.31,0,0,0,2.6,1,.85.85,0,0,0,.7,0A49,49,0,0,1,149,8a34.17,34.17,0,0,1,11.8,2.1.78.78,0,0,0,1-.2.74.74,0,0,0,.1-.5,33.47,33.47,0,0,1,9.8-7.3A12.5,12.5,0,0,1,174.9,1a6.22,6.22,0,0,1,7.81,3.7,20.37,20.37,0,0,1,1.6,7.3,36.81,36.81,0,0,1-1.1,12.41c-.4,1.1-.6,2.2-.9,3.3a1.1,1.1,0,0,0,0,.8,16.78,16.78,0,0,1,1.3,2.3.88.88,0,0,0,.8.5,7.33,7.33,0,0,1,5.9,4.4,40,40,0,0,1,3.1,8.2,22.6,22.6,0,0,0,2.6,5.7,3.1,3.1,0,0,0,.9,1.1,1.45,1.45,0,0,1,.4,1.91h0a4,4,0,0,1-1.3,1.3c-.3.2-.3.3,0,.6a17.44,17.44,0,0,1,2.1,2.6,8.3,8.3,0,0,1,1.3,3.4c0,.7,0,1-.8,1.1a51,51,0,0,0-9.1,2.9c-.2.1-.4.2-.4.4a24,24,0,0,1-12.81,14.4,54.4,54.4,0,0,1-8.6,3.5c-.8.2-1.2.91-1.8,1.21s0,.3,0,.5c1.9,4,4.6,8.2,5.8,12.7.3.7,7.3,26.61,4,40-.9,5.5-5.7,29-26.4,42.21-.2,0-.3,1.61-.3,1.81a20.59,20.59,0,0,1-.3,3.5c0,.4,0,.5.4.7a6.82,6.82,0,0,1,4.4,6.8,4.15,4.15,0,0,1-1.6,3.1,7.71,7.71,0,0,1-3.91,1.5c-4.2.8-8.6,1.4-13,2.1a16.69,16.69,0,0,1-6.3,0,5.68,5.68,0,0,1-5-5.4v-.8a10,10,0,0,0-1.2-4.7,46.9,46.9,0,0,1-2.8-9.71,168.82,168.82,0,0,1-3.61-21.2,44.39,44.39,0,0,1-.5-9.7c0-.41,0-.51-.5-.51a8.13,8.13,0,0,1-3.8,0,16.15,16.15,0,0,1-7.3-3,18,18,0,0,1-2.4-2.3,37.81,37.81,0,0,0-4.2-3.8,8.39,8.39,0,0,0-7-1.5,24.67,24.67,0,0,0-11.31,5.3,74.48,74.48,0,0,1-7.2,5.3,13.41,13.41,0,0,1-13.3.51A32.12,32.12,0,0,1,48,139.11a71.82,71.82,0,0,0-10.4-10.3,23.34,23.34,0,0,0-17.31-4.7,68.82,68.82,0,0,0-18.9,5.1c-.2,0-.6.3-.8,0s0-.6,0-.9l.3-.9a39.34,39.34,0,0,1,12.4-15,29.67,29.67,0,0,1,11-4.6,35.41,35.41,0,0,1,6.5-.6,165.63,165.63,0,0,0,23.31-2.4,127.11,127.11,0,0,0,29-8.6,112.09,112.09,0,0,0,19.81-11c2.6-1.8,5.1-3.81,8-5.51a32.85,32.85,0,0,1,6-2.9Z"/><path class="cls-3" d="M180.22,25.48c-.5-.7-1-1.4-1.5-2s0-.5,0-.9a32.19,32.19,0,0,0,1-4.21,18.46,18.46,0,0,0-.3-7.4,4.77,4.77,0,0,0-.6-1.5,3.39,3.39,0,0,0-4.3-1.5,14.28,14.28,0,0,0-6.5,4.3,1,1,0,0,1-1.3.3h0c-1-.6-2-1.1-3.1-1.7a59.32,59.32,0,0,1,6.3-5,17.07,17.07,0,0,1,5.3-2.5,3.6,3.6,0,0,1,4.7,1.7v.5a16.16,16.16,0,0,1,1.21,5.3,42.38,42.38,0,0,1-.7,12.31C180.32,24.08,180.32,24.78,180.22,25.48Z"/><path class="cls-4" d="M177.52,21.68a.83.83,0,0,1-.5-.5,31.68,31.68,0,0,0-8.3-7.61c-.4-.3-.4-.4,0-.7a22.24,22.24,0,0,1,4.7-3.3l1.1-.5a2,2,0,0,1,2.73.76s.05.09.07.14h0a1.86,1.86,0,0,1,.2.8,15.23,15.23,0,0,1,.6,6A44.77,44.77,0,0,1,177.52,21.68Z"/><path class="cls-5" d="M112.2,85.1l-2.7,3.8a67.69,67.69,0,0,0-7.3,14.8,79.8,79.8,0,0,0-4.8,17.91A29.43,29.43,0,0,0,98.6,136a15.26,15.26,0,0,1,.8,2.3c-.5-.9-1-1.7-1.5-2.7a2.71,2.71,0,0,0-2.3-1.7,10.64,10.64,0,0,0-5.6,0,27,27,0,0,0-12,5.5,68.61,68.61,0,0,1-6.9,5.1,11.06,11.06,0,0,1-10.3.7,29,29,0,0,1-10.41-7.6,108.33,108.33,0,0,0-8.3-8.3,29.56,29.56,0,0,0-12.4-6.7,25.31,25.31,0,0,0-9.1-.3,60.64,60.64,0,0,0-15.71,4.2l-2.4,1.1,1-1.4a36.64,36.64,0,0,1,14.3-12.41,28.26,28.26,0,0,1,15.41-2.7,132.94,132.94,0,0,1,16.6,2.6A96.75,96.75,0,0,0,65,116.31a31.5,31.5,0,0,0,19.6-4.81A76.59,76.59,0,0,0,96.2,102c4.2-3.7,7.3-8,11.1-11.9l.3-.5a30.26,30.26,0,0,0-3.1,1.6,64.28,64.28,0,0,1,4.8-5.5A3.53,3.53,0,0,1,112.2,85.1Z"/><path class="cls-6" d="M114.4,66.39a5.1,5.1,0,0,1,.8-1.7,8.52,8.52,0,0,0,1.1-2.6c.51-1.4-.4-2.2-1.6-2.3h-1.1a9.41,9.41,0,0,0,1.3-3.3c0-.6.3-.8.9-.8h8.71l5.7-.2a6.51,6.51,0,0,0,1.9-.4,2.57,2.57,0,0,0,2.1-2.4,23.66,23.66,0,0,0,0-6.51v-.8A3,3,0,0,0,131,43H116.9c-.6,0-.71-.2-.6-.7a4.91,4.91,0,0,1,3.6-4.2,46.68,46.68,0,0,1,7.4-1.6,188.49,188.49,0,0,1,21.21-2.1c6.9-.5,13.8-.7,20.7-.9,2.9,0,5.7-.2,8.5,0l7.21.5a2.74,2.74,0,0,1,2.1,1.5,37.32,37.32,0,0,1,3.5,8.5,24.79,24.79,0,0,0,2.9,6.9,4.93,4.93,0,0,0,1.4,1.51c.4.3.5.6,0,.9s-.3.3-.4.4a1,1,0,0,0-.31,1.38v.22l2.3,3.2c.7,1.1.9,1.3-.6,1.6a69.32,69.32,0,0,0-9.9,2.9,45.09,45.09,0,0,1-9.61,2.6,13.85,13.85,0,0,1-5-.5,4.92,4.92,0,0,1-3.2-4.2,17.49,17.49,0,0,0-1.8-5.3,5.46,5.46,0,0,0-7.1-2.5h-.1l-.3.2a8.49,8.49,0,0,0-3.8,3.9,22.57,22.57,0,0,1-6.81,7.6,16.5,16.5,0,0,1-12.4,2.6c-4.2-.5-8-1.6-12.1-2.2a21.52,21.52,0,0,0-8,0A14.56,14.56,0,0,0,114.4,66.39Z"/><path class="cls-7" d="M112.2,85.1a4.37,4.37,0,0,0-3.7,1.4c-1.3,1.4-2.6,3-3.8,4.5-1.7,1.4-3.6,2.6-5.3,4.2-2.9,2.4-5.5,5-8.3,7.6a39.73,39.73,0,0,1-14.31,9.1,30.44,30.44,0,0,1-12.4,1.2,118.51,118.51,0,0,1-16.61-3l-5.3-1.2a.83.83,0,0,1-.6-.3h2.8A120.81,120.81,0,0,0,83.49,99a95.46,95.46,0,0,0,17.71-9.7c2.6-1.7,4.9-3.9,7.5-5.7a38.52,38.52,0,0,1,6.2-3.71,10.69,10.69,0,0,1,3.51-.9l-1,.9a38.6,38.6,0,0,0-4.61,4.61Z"/><path class="cls-3" d="M144.51,10.27c1.5-.2,1.5,0,2.1,1.2a30,30,0,0,1,1.81,7.1,11,11,0,0,0,.7,3,2.94,2.94,0,0,0,2.6,1.9,3.25,3.25,0,0,0,3.1-1.7,6.37,6.37,0,0,0,.1-4.51,19.62,19.62,0,0,0-2.2-6.3v-.4a1.31,1.31,0,0,1,1.67.8l0,.1h0a39.29,39.29,0,0,1,2,5.7,14.3,14.3,0,0,0,1,2.91,2.09,2.09,0,0,0,2.4,1.3c1,0,1.5-.6,1.7-1.8a10,10,0,0,0-.6-4.21c-.4-1.1-.8-2.1-1.3-3.4A32.94,32.94,0,0,1,172,19.78a53.73,53.73,0,0,1,8.91,11.7H178.7c-3.7-.3-7.4,0-11.1,0-9.5,0-19.1.6-28.51,1.3a124.63,124.63,0,0,0-19.1,3,8.07,8.07,0,0,0-6.91,6.8c0,.8-.4,1.1-1.2,1a4.85,4.85,0,0,0-1.7,0c-.5,0-.6,0-.5-.5.4-2.2.8-4.4,1.4-6.6a6.16,6.16,0,0,0,0-3.3,46.5,46.5,0,0,1-1.5-7.2,96.22,96.22,0,0,1-2.2-15.11,10.15,10.15,0,0,1,.5-4.2,2.47,2.47,0,0,1,2.6-1.9,14.92,14.92,0,0,1,5.5,1.3,66,66,0,0,1,8.31,4.5c1.92,1.07,3.89,2,5.9,2.9a1.39,1.39,0,0,0,.9,0,47.62,47.62,0,0,1,7.4-2.1c.7,0,.9,0,1,.7.5,2.2,1,4.4,1.5,6.7a6.31,6.31,0,0,0,1,2.41,2.5,2.5,0,0,0,3.4.3,2.62,2.62,0,0,0,.5-.6,3.64,3.64,0,0,0,.6-2,14.79,14.79,0,0,0-1.1-6.2C145,11.77,144.81,11,144.51,10.27Z"/><path class="cls-3" d="M185,67.59a21,21,0,0,1-6.61,7.3,37,37,0,0,1-10,4.8,56.58,56.58,0,0,1-21.61,2.1,80.64,80.64,0,0,1-24.6-6.4c-.6-.4-1.2-1-1.8-1.5a43.62,43.62,0,0,1-6-6c-.5-.7-.5-.7.3-.9a15.75,15.75,0,0,1,8.61.2c3.7.9,7.4,2,11.1,2.7a19.17,19.17,0,0,0,20.71-8,37.91,37.91,0,0,1,2.9-4.1,4.91,4.91,0,0,1,3.6-2.3,2,2,0,0,1,2.2,1,10.71,10.71,0,0,1,1.4,3.1c.2,1.2.5,2.4.8,3.6a7.22,7.22,0,0,0,6.1,5.8,22.28,22.28,0,0,0,9.61-.4Z"/><path class="cls-3" d="M112,65.79a26.28,26.28,0,0,1-2.7-11,2.83,2.83,0,0,0,2.5.6c.4,0,.4.2.3.5a15.23,15.23,0,0,1-1,4.2.85.85,0,0,0,0,.7c0,.6.4.8,1,.5a5.37,5.37,0,0,1,1.7-.5c.4,0,.5,0,.4.5a11.48,11.48,0,0,1-1,1.9Z"/><path class="cls-8" d="M153,88.5a25.57,25.57,0,0,1-2.1,9.4,12,12,0,0,1-9.21,6.6h-.3c-1.2,0-1.2,0-.9-1.1a31.48,31.48,0,0,1,4.6-11,13.83,13.83,0,0,1,4.21-4.2,4.85,4.85,0,0,1,3.3-.7c.4.1.5.5.4.9Z"/><path class="cls-8" d="M156.52,87.1a11.81,11.81,0,0,1,3,3.3,15.46,15.46,0,0,1,1.8,12.4c0,.5-.2.5-.7.2a10.88,10.88,0,0,1-4.8-9.1V89.3A3.42,3.42,0,0,0,156.52,87.1Z"/><path class="cls-9" d="M135.91,83.5a65.75,65.75,0,0,0,26.51.3,28.13,28.13,0,0,1-4.2,2.4c-.2,0-.5,0-.6-.2a3.42,3.42,0,0,0-2.6-.5h-.9a1.4,1.4,0,0,0-.9.3c-.4.6-.9.5-1.5.3a3.69,3.69,0,0,0-3.2.7,2,2,0,0,1-1.31.2A62.73,62.73,0,0,1,136,83.6Z"/><path class="cls-10" d="M155,87.8v.4s-.3.7-.6.7,0-.5-.3-.7l-.3-1.1c-.3-.5,0-.6.3-.6a1.11,1.11,0,0,1,1.1,1.1h0Z"/><path class="cls-11" d="M148.82,192.13a4.18,4.18,0,0,0-2.31-2.7.85.85,0,0,0-.7,0c-.3.2-.4.6,0,.8.9.3,1.7,2.1,1.8,3.1,0,.2.2,1-.2.9-1.4.4-3.1.6-4.5.9-.2.1-.4-.9-.5-1a4,4,0,0,0-1.6-2.2.78.78,0,0,0-1.1,0c-.4.4.3.7.5,1,.4.5.8,1,1.2,1.6s-.8.6-1,.7c-2.7.6-7.7,1.2-7.7,1.2a10.19,10.19,0,0,1-5.2-.8,2.67,2.67,0,0,1-2-2.3c-1.9-9.7-5.2-21.41-6.3-32.21-.6-4.4-.9-8.8-1.1-13.3,0-.4-.1-1.41.3-1.71,2.6-1.2,4.9-5.8,5.2-8.9a41.42,41.42,0,0,0,.2-6.1c0-5.1-.2-10.2,0-15.3a74.21,74.21,0,0,1,1.3-11.61,37.54,37.54,0,0,1,3.3-9s.2-1,0-1.2a.49.49,0,0,0-.68,0l0,0a6.68,6.68,0,0,0-1.4,1.9,28.65,28.65,0,0,0-2.6,6.3,38.24,38.24,0,0,0-2.4,10.5c-.5,2.2,0,22.81-.2,23.51a9.53,9.53,0,0,1-2.6,6.8c-1.5,1.6-.1-4.1-2.1-4.7a.43.43,0,0,0-.41.4h0c-.2,1.7,1.51,5.8-1.3,5.7a13.41,13.41,0,0,1-4,0c-.8,0,.3-3.1.3-4V139c0-.3-.3-.7-.7-.5a1.56,1.56,0,0,0-.6.8l-.8,3.1c-.2,1.1-.2,1.4-1.3.7a22.15,22.15,0,0,1-3.7-3.2c-7.7-9.3-2.6-24.61-2.5-24.81a18.13,18.13,0,0,1,.9-3.4,138.53,138.53,0,0,1,11.5-25.4,16.24,16.24,0,0,1,4.41-4.71c.2-.4,3.3-3,5-2.1,1.5,1.2,22.1,9,22.1,9,.4,0,.3.3,0,.7a37.32,37.32,0,0,0-6.9,15h0c-.4,2,0,2.2,1.9,2a15.58,15.58,0,0,0,6.3-2,13.29,13.29,0,0,0,6.61-8.9,34.46,34.46,0,0,0,.9-4.5c0-.2,0-.5.3-.4s0,.3,0,.5a16.17,16.17,0,0,0,0,6.2,10.44,10.44,0,0,0,2.6,5,13.08,13.08,0,0,0,3.4,2.8,1.1,1.1,0,0,0,1.5-.3h0v-.3a12.18,12.18,0,0,0,1-4.2,16.74,16.74,0,0,0-3.5-12c-.3-.4-.3-.5,0-.7a18.52,18.52,0,0,0,3.9-2.2c.4-.2.8-.2.9.2,2.6,1.9,8.4,19,9.3,25.5.9,7.51.6,14.81.3,22.41-2.4,24.11-19.5,40.41-24.9,44a16.33,16.33,0,0,1,.2-5.4c.7-4.7,2.3-11.7,3.5-16.7.2-.9.9-2.8,1.1-3.6.5-1.2,8.6-6,9.2-6.91a1.09,1.09,0,0,0,.3-1.3c-.2-.5-1-.1-1-.1-.7.4-10.1,5.61-13,6.81.7.7,1.5.4,2.3.5a6.52,6.52,0,0,1-.4,1.3,128.41,128.41,0,0,0-3.61,15,154.47,154.47,0,0,0-2.1,16.61c-.1,1.2-.2,2.3-.2,3.5a1.22,1.22,0,0,0,.8.9l1.5.6a5,5,0,0,1,2.31,4.2c0,.4-.1.8-.4.9S149,192.53,148.82,192.13Z"/><path d="M161.12,60.59a2.19,2.19,0,0,1,2.6,1.69h0a2.2,2.2,0,0,1-.3,1.6,16.07,16.07,0,0,1-1.5,2.4.67.67,0,0,0,0,.95s0,0,0,.05h0a2,2,0,0,0,2.82.27l.08-.07h.1a2.62,2.62,0,0,0,.5-.6,8,8,0,0,1,.7-1.2c.2-.4.3-.4.5-.3s.5.4.4.6a4.41,4.41,0,0,1-2.6,3.7,2.82,2.82,0,0,1-3.4-1.1c0-.3-.3-.3-.6,0a5.41,5.41,0,0,1-2.1,1.6,4.17,4.17,0,0,1-5.5-2V68a3.3,3.3,0,0,1,0-1.4.43.43,0,0,1,.4-.4c.3,0,.3,0,.4.4v.3a3,3,0,0,0,3.6,2.1h0a4.4,4.4,0,0,0,.9-.5c.6-.4,1.4-1,1.4-1.7s-.9-.9-1.3-1.3a19.87,19.87,0,0,1-1.5-1.4,2.08,2.08,0,0,1,.5-2.9h0a2.8,2.8,0,0,1,1.2-.4Z"/><path d="M146.61,52a5.5,5.5,0,0,1-.7,2.8,3.47,3.47,0,0,1-4.7,1.36l-.1-.06H141a5.57,5.57,0,0,1-.9-.7,4.67,4.67,0,0,1,.3-6.41h0c.1-.2.3-.3.4-.4a3.73,3.73,0,0,1,5.1,1.2h0a3.37,3.37,0,0,1,.5,1.71Z"/><path d="M166.32,50.38a2.85,2.85,0,0,1,0-1.3,3,3,0,0,1,2.3-2.2,3.23,3.23,0,0,1,3.7,1.4,4.68,4.68,0,0,1,0,5.31,3.22,3.22,0,0,1-4.2,1.2,3.45,3.45,0,0,1-1.2-1.2A5.92,5.92,0,0,1,166.32,50.38Z"/><path class="cls-12" d="M142.61,38.78a5.22,5.22,0,0,1,3.7,1.6,1.31,1.31,0,0,1,.5,1.3c-.2.5-.7.5-1.2.5a10.06,10.06,0,0,1-3.8-1l-2.4-.9c-.2,0-.5-.2-.5-.4h0c0-.3.3-.3.5-.4A5.94,5.94,0,0,1,142.61,38.78Z"/><path class="cls-2" d="M171.92,39.08l-1,.5a36.61,36.61,0,0,0-3.9,2.1c-.4.2-.9.4-1.3,0a1.36,1.36,0,0,1,0-1.5,5,5,0,0,1,4.2-1.7C170.52,38.68,171.22,38.88,171.92,39.08Z"/><path class="cls-13" d="M142.31,51.08a1.36,1.36,0,1,1-2.6.81h0v-.1a.88.88,0,0,1,0-.71,1.38,1.38,0,0,1,1.7-.8h0A1.22,1.22,0,0,1,142.31,51.08Z"/><path class="cls-14" d="M166.62,49.68a1.32,1.32,0,0,1,1.3-1.3h0a1.35,1.35,0,0,1,.1,2.7,1.37,1.37,0,0,1-1.4-1.34v-.06Z"/><path class="cls-15" d="M120.71,53.69H113.2a12.28,12.28,0,0,1-2.7-.3,1.42,1.42,0,0,1-1-1.2,23.57,23.57,0,0,1,0-5.31,1.69,1.69,0,0,1,1.68-1.7h0c3.9-.4,7.81-.5,11.71-.6h6.7a1.62,1.62,0,0,1,1.6,1.1,7.88,7.88,0,0,1,.4,2.1,20.45,20.45,0,0,1,0,3.5c0,1.41-.4,1.71-1.7,2a2.85,2.85,0,0,1-1.3,0A69.44,69.44,0,0,0,120.71,53.69Z"/><path class="cls-2" d="M124.81,49a2.85,2.85,0,0,1-2.55,3.11h-.55a3.19,3.19,0,0,1-3.2-3v-.2a3.13,3.13,0,0,1,3-2.9,2.87,2.87,0,0,1,3.2,2.3A.84.84,0,0,1,124.81,49Z"/><path class="cls-6" d="M121.61,47.48a1.55,1.55,0,0,1,1.7,1.3h0v.4a1.54,1.54,0,0,1-1.55,1.51h-.45a1.66,1.66,0,0,1-1.7-1.5,1.51,1.51,0,0,1,1.3-1.69h.7Z"/><path class="cls-1" d="M173.62,136.51c2-12.9-1.9-35.61-5-50.31l31.71-24.61c-2.1-10-11-36.71-19.2-61.62Q118.7-2.28,92.6,4.57L111.2,80C110.2,77-1.43,110.9.47,122.31c-.4.7.2,20.9.2,20.9,65.72,24.11,91.83,62.72,138.54,55.32,27.11,0,24.51-23.91,33.81-51.72Z"/><g class="cls-16"><path class="cls-2" d="M121.21,76.49c-1.3-1-2.6-1.9-3.7-2.9a24.93,24.93,0,0,1-8.41-17.4,64.45,64.45,0,0,1,1.4-18.11c.3-1.5.8-2.9,1.1-4.3a2.05,2.05,0,0,0,0-1.1,147,147,0,0,1-4-22.81,16.79,16.79,0,0,1,.3-5,5.35,5.35,0,0,1,5.8-4.2,20,20,0,0,1,9.21,2.6c3.1,1.5,6.1,3.4,9.2,5,.9.4,1.8.7,2.7,1a.85.85,0,0,0,.7,0,50.54,50.54,0,0,1,16.81-2.6,38,38,0,0,1,12,2.1.78.78,0,0,0,1-.2h0a.74.74,0,0,0,.1-.5,33.72,33.72,0,0,1,10-7.5,16.1,16.1,0,0,1,3.1-1.1,6.15,6.15,0,0,1,7.81,3.8,20.52,20.52,0,0,1,1.6,7.4,38.52,38.52,0,0,1-1.1,12.61c-.4,1.1-.6,2.3-.9,3.4a1.1,1.1,0,0,0,0,.8,16.78,16.78,0,0,1,1.3,2.3,1,1,0,0,0,.8.5,7.56,7.56,0,0,1,6.1,4.5,42.89,42.89,0,0,1,3.2,8.4A20.49,20.49,0,0,0,200,49a2.65,2.65,0,0,0,1,1.1,1.43,1.43,0,0,1,.4,1.91h0a4,4,0,0,1-1.3,1.3c-.3.2-.3.3,0,.6a18.85,18.85,0,0,1,2,2.7,8.79,8.79,0,0,1,1.3,3.5c0,.7,0,1-.8,1.1a58.13,58.13,0,0,0-9.2,2.9c-.2.1-.4.2-.4.5a24.61,24.61,0,0,1-13,14.6,54.16,54.16,0,0,1-8.7,3.5c-.8.2-1.2.91-1.9,1.31s0,.3,0,.5a49.18,49.18,0,0,1,4.2,13,6.92,6.92,0,0,0,1.1,2.1,145.31,145.31,0,0,0,10.21,16.81,28.18,28.18,0,0,1,4.3,9.5,11.36,11.36,0,0,1,0,4.5,7.53,7.53,0,0,1-6.7,6.4c-1.7,0-3.41.4-5.21.4-.5,0-.6,0-.6.5A99.62,99.62,0,0,1,174.6,151a51.74,51.74,0,0,1-6.3,16.3,43.42,43.42,0,0,1-11,12,22.19,22.19,0,0,1-4.6,3c-.2,0-.3.3-.3.6a20.59,20.59,0,0,1-.3,3.5c0,.4,0,.5.4.6a7,7,0,0,1,4.5,7,4.18,4.18,0,0,1-1.6,3.2,7.87,7.87,0,0,1-3.9,1.6c-4.31.8-8.81,1.5-13.11,2.1a17.22,17.22,0,0,1-6.4,0,5.79,5.79,0,0,1-5-5.5v-.8a9.67,9.67,0,0,0-1.2-4.7,58.37,58.37,0,0,1-2.9-9.8,176.1,176.1,0,0,1-3.7-21.51,45.27,45.27,0,0,1-.5-9.8c0-.4,0-.5-.5-.5a12.82,12.82,0,0,1-3.91,0,16.76,16.76,0,0,1-7.4-3.11,13.63,13.63,0,0,1-2.4-2.4,39.72,39.72,0,0,0-4.3-3.9,8.25,8.25,0,0,0-7.1-1.6,26.49,26.49,0,0,0-11.61,5.4,82,82,0,0,1-7.3,5.41,13.54,13.54,0,0,1-13.5.5,32.13,32.13,0,0,1-10.81-8.51,80.13,80.13,0,0,0-10.5-10.5,23.92,23.92,0,0,0-17.5-4.7A72.39,72.39,0,0,0,2.57,130c-.3,0-.6.3-.8,0s0-.6,0-.9l.3-.9a39.37,39.37,0,0,1,12.6-15.11,29,29,0,0,1,11.21-4.6,36.58,36.58,0,0,1,6.6-.6,157.2,157.2,0,0,0,23.71-2.4A123.64,123.64,0,0,0,85.7,96.7a109.83,109.83,0,0,0,20.1-11.2c2.7-1.9,5.2-3.91,8.1-5.61a31.49,31.49,0,0,1,6.11-3Z"/><path class="cls-5" d="M114.9,84.9l-2.7,3.9a77.74,77.74,0,0,0-7.4,15,80.54,80.54,0,0,0-4.8,18.11,30.15,30.15,0,0,0,1.2,14.6,20.86,20.86,0,0,1,.8,2.3l-1.5-2.7a3,3,0,0,0-2.3-1.8,11,11,0,0,0-5.7,0,27.36,27.36,0,0,0-12.21,5.6,69.7,69.7,0,0,1-7,5.2,11.47,11.47,0,0,1-10.5.7,28.42,28.42,0,0,1-10.51-7.7,95.13,95.13,0,0,0-8.4-8.4,29.31,29.31,0,0,0-12.6-6.8,25.87,25.87,0,0,0-9.2-.3,59.23,59.23,0,0,0-16,4.3L3.67,128l1-1.5a37.65,37.65,0,0,1,14.5-12.61,29.31,29.31,0,0,1,15.61-2.8,117.8,117.8,0,0,1,16.8,2.7A90.35,90.35,0,0,0,67,116.41a31.76,31.76,0,0,0,19.9-4.91,82.35,82.35,0,0,0,11.8-9.6c4.3-3.8,7.4-8.1,11.2-12.1l.3-.5a30.26,30.26,0,0,0-3.1,1.6,52.11,52.11,0,0,1,4.9-5.6A5.24,5.24,0,0,1,114.9,84.9Z"/><path class="cls-6" d="M117.21,66a7.07,7.07,0,0,1,.8-1.8,8.52,8.52,0,0,0,1.1-2.6c.6-1.4-.4-2.3-1.6-2.4h-1.1a9.41,9.41,0,0,0,1.3-3.3c0-.6.3-.8.9-.8h8.9l5.8-.2a5.92,5.92,0,0,0,1.9-.4,2.65,2.65,0,0,0,2.1-2.4,24.39,24.39,0,0,0,0-6.61v-.8a3,3,0,0,0-3.2-2.4h-14.3c-.6,0-.7-.2-.6-.7a5.16,5.16,0,0,1,3.6-4.3,45.72,45.72,0,0,1,7.5-1.6,194,194,0,0,1,21.51-2.1c7.1-.5,14-.7,21-.9a84.35,84.35,0,0,1,8.71,0l7.3.5a2.74,2.74,0,0,1,2.1,1.5,37.59,37.59,0,0,1,3.6,8.7,25.27,25.27,0,0,0,2.9,7,6.93,6.93,0,0,0,1.4,1.51c.4.4.5.6,0,.9s-.3.3-.5.4a1.12,1.12,0,0,0-.4,1.4h0v.2l2.4,3.2c.7,1.1.9,1.3-.6,1.7a71,71,0,0,0-10,2.9A40.88,40.88,0,0,1,180,65.2a14.4,14.4,0,0,1-5.1-.5,4.74,4.74,0,0,1-3.2-4.2,17.3,17.3,0,0,0-1.9-5.4,5.37,5.37,0,0,0-7.15-2.53l0,0h-.1l-.3.2a9.17,9.17,0,0,0-3.9,3.9,23.48,23.48,0,0,1-6.9,7.8,17.11,17.11,0,0,1-12.61,2.7c-4.3-.5-8.1-1.6-12.3-2.3a22.06,22.06,0,0,0-8.1,0A12.52,12.52,0,0,0,117.21,66Z"/><path class="cls-7" d="M114.9,84.9a4.25,4.25,0,0,0-3.7,1.4,53.93,53.93,0,0,0-3.8,4.6c-1.8,1.4-3.6,2.7-5.4,4.3-3,2.4-5.6,5-8.4,7.7a40.27,40.27,0,0,1-14.51,9.2,31.81,31.81,0,0,1-12.6,1.3,135.07,135.07,0,0,1-16.81-3.1l-5.4-1.1a.71.71,0,0,1-.6-.3h2.9A124.09,124.09,0,0,0,85.9,99.1a94.8,94.8,0,0,0,18-9.8c2.7-1.8,5-4,7.6-5.8a48.07,48.07,0,0,1,6.31-3.81,8.68,8.68,0,0,1,3.5-.9l-1,.9a34.94,34.94,0,0,0-4.71,4.71Z"/><path class="cls-3" d="M148.11,8.67c1.51-.2,1.51,0,2.11,1.2a30.39,30.39,0,0,1,1.8,7.2,16.33,16.33,0,0,0,.7,3,2.9,2.9,0,0,0,2.6,1.9,3.17,3.17,0,0,0,3.1-1.8,6.65,6.65,0,0,0,.1-4.61,20.28,20.28,0,0,0-2.3-6.4v-.4a1.46,1.46,0,0,1,1.8.9h0a39.74,39.74,0,0,1,2,5.8,14.21,14.21,0,0,0,1,2.9,2.11,2.11,0,0,0,2.4,1.31c1,0,1.6-.71,1.8-1.91a9.06,9.06,0,0,0-.7-4.3c-.4-1.1-.8-2.1-1.3-3.4a32.86,32.86,0,0,1,12.5,7.9,56.43,56.43,0,0,1,9.11,11.91h-2.2c-3.81-.3-7.61,0-11.31,0-9.7,0-19.4.6-29,1.3a128.48,128.48,0,0,0-19.4,3,8.29,8.29,0,0,0-7,7c0,.8-.4,1.1-1.2,1a4.85,4.85,0,0,0-1.7,0c-.5,0-.6,0-.5-.5.4-2.2.8-4.5,1.4-6.7a6.16,6.16,0,0,0,0-3.3,45.46,45.46,0,0,1-1.5-7.3,114.48,114.48,0,0,1-2.3-15.31,12.47,12.47,0,0,1,.4-4.3,2.51,2.51,0,0,1,2.7-1.9,16,16,0,0,1,5.61,1.3,69.11,69.11,0,0,1,8.4,4.6c2,1.1,4,2.1,6.1,3a1.39,1.39,0,0,0,.9,0,46.66,46.66,0,0,1,7.5-2.1c.7,0,.9,0,1,.7.5,2.3,1,4.5,1.5,6.8a7.81,7.81,0,0,0,1,2.51,2.41,2.41,0,0,0,3.39.31h0a2.43,2.43,0,0,0,.5-.61,3.64,3.64,0,0,0,.6-2,15.39,15.39,0,0,0-1.1-6.4C148.52,10.17,148.21,9.47,148.11,8.67Z"/><path class="cls-3" d="M188.83,65.49a21.4,21.4,0,0,1-6.3,7.7,38.32,38.32,0,0,1-9.91,5.4,58,58,0,0,1-21.9,3.2,81,81,0,0,1-25.21-5.3,6.52,6.52,0,0,1-1.8-1.5,36.17,36.17,0,0,1-6.4-5.9c-.6-.6-.6-.6.3-.9a15.25,15.25,0,0,1,8.7-.2c3.8.7,7.6,1.7,11.4,2.3a19.54,19.54,0,0,0,20.61-9.1,38.28,38.28,0,0,1,2.7-4.3,5.53,5.53,0,0,1,3.5-2.6,2.1,2.1,0,0,1,2.3.9,10.7,10.7,0,0,1,1.6,3c.3,1.2.7,2.4,1,3.6a7.33,7.33,0,0,0,6.5,5.6,21.17,21.17,0,0,0,9.71-.8Z"/><path class="cls-3" d="M184,24.48a13.92,13.92,0,0,0-1.5-2c-.6-.6,0-.5,0-.9a30.27,30.27,0,0,0,1-4.31,19,19,0,0,0-.3-7.5,4.77,4.77,0,0,0-.6-1.5,3.32,3.32,0,0,0-4.31-1.6,14.35,14.35,0,0,0-6.7,4.4,1,1,0,0,1-1.3.3h0c-1-.6-2-1.1-3.1-1.7a60.48,60.48,0,0,1,6.4-5,20,20,0,0,1,5.3-2.5,3.77,3.77,0,0,1,4.81,1.7v.5a16.42,16.42,0,0,1,1.2,5.4,43.76,43.76,0,0,1-.7,12.51A14.75,14.75,0,0,1,184,24.48Z"/><path class="cls-3" d="M114.8,65.29a24.9,24.9,0,0,1-2.7-11.1,2.83,2.83,0,0,0,2.5.6c.4,0,.4.2.3.5a15.92,15.92,0,0,1-1,4.3,1.1,1.1,0,0,0,0,.8c0,.6.4.8,1,.5a5.94,5.94,0,0,1,1.81-.5c.4,0,.5,0,.4.5a11.32,11.32,0,0,1-1,2Z"/><path class="cls-8" d="M156.42,88.4a23.94,23.94,0,0,1-2.1,9.5,12.13,12.13,0,0,1-9.31,6.6h-.3c-1.2,0-1.2,0-.9-1.1a30.19,30.19,0,0,1,4.71-11.1,14.69,14.69,0,0,1,4.3-4.3,4.85,4.85,0,0,1,3.3-.7,1,1,0,0,1,.3,1.1Z"/><path class="cls-8" d="M159.92,87a11.81,11.81,0,0,1,3,3.3,15.77,15.77,0,0,1,1.8,12.7c0,.5-.3.5-.7.2a11,11,0,0,1-4.9-9.2V89.3A3,3,0,0,0,159.92,87Z"/><path class="cls-9" d="M139.11,83.29a66.2,66.2,0,0,0,27,.31,35.46,35.46,0,0,1-4.3,2.4c-.2,0-.5,0-.6-.2a3.57,3.57,0,0,0-2.7-.5h-.9a1.4,1.4,0,0,0-.9.3c-.4.6-.9.5-1.5.3a4,4,0,0,0-3.3.7,2,2,0,0,1-1.3.2,56.83,56.83,0,0,1-11.41-3.51Z"/><path class="cls-10" d="M158.52,87.7v.4s-.3.7-.6.7,0-.5-.3-.7l-.3-1.1c-.3-.5,0-.6.3-.6a1.11,1.11,0,0,1,1.1,1.1h0Z"/><path class="cls-11" d="M152.22,193.73a4.41,4.41,0,0,0-2.4-2.8,1.1,1.1,0,0,0-.8,0c-.3.2-.4.6,0,.8.9.2,1.7,2.1,1.8,3.1,0,.2.2,1-.2,1a36.44,36.44,0,0,1-4.61.9c-.2.1-.4-.9-.5-1a4.6,4.6,0,0,0-1.6-2.3.78.78,0,0,0-1.1,0h0c-.4.4.3.7.5,1.1.4.5.8,1,1.2,1.6s-.8.6-1,.7c-2.8.6-7.8,1.2-7.8,1.2a9.75,9.75,0,0,1-5.3-.8,2.68,2.68,0,0,1-2-2.4c-1.9-9.9-5.3-21.71-6.4-32.71q-.9-6.75-1.2-13.5c0-.4-.1-1.41.3-1.71,2.7-1.3,5-5.9,5.3-9,.2-2.1.3-4.1.3-6.2,0-5.2-.3-10.4,0-15.5A79.31,79.31,0,0,1,128,104.3a43.53,43.53,0,0,1,3.3-9.2s.2-1,0-1.2a.49.49,0,0,0-.68,0l0,0a6.68,6.68,0,0,0-1.4,1.9,36,36,0,0,0-2.7,6.4,38.89,38.89,0,0,0-2.4,10.7c-.5,2.3,0,23.21-.2,23.81a9.25,9.25,0,0,1-2.7,6.9c-1.5,1.7-.1-4.1-2.1-4.8a.43.43,0,0,0-.4.4h0c-.2,1.8,1.5,5.9-1.3,5.8a13.41,13.41,0,0,1-4,0c-.8,0,.3-3.2.3-4v-1.4c0-.3-.3-.7-.7-.5a1.56,1.56,0,0,0-.6.8l-.9,3.1c-.2,1.1-.3,1.4-1.3.7a23.26,23.26,0,0,1-3.8-3.2c-7.8-9.4-2.7-24.9-2.5-25.21a23.34,23.34,0,0,1,.9-3.5A135.65,135.65,0,0,1,116.51,86a18.5,18.5,0,0,1,4.4-4.81c.3-.4,3.3-3,5.1-2.1,1.6,1.2,22.51,9.11,22.51,9.11.4,0,.3.3,0,.7a39,39,0,0,0-7,15.2h0c-.4,2,0,2.3,2,2a16.12,16.12,0,0,0,6.41-2,13.61,13.61,0,0,0,6.7-9.1,32.8,32.8,0,0,0,.9-4.6c0-.2,0-.5.3-.4s0,.3,0,.5a16.69,16.69,0,0,0,0,6.3,10.44,10.44,0,0,0,2.6,5,16.53,16.53,0,0,0,3.5,2.9,1.1,1.1,0,0,0,1.5-.3h0v-.3a12.73,12.73,0,0,0,1-4.3,17.07,17.07,0,0,0-3.6-12.1c-.3-.4-.3-.5,0-.7a25.5,25.5,0,0,0,4-2.2c.4-.2.5-.2.6.3.5,2.4.9,4.8,1.5,7.2a163,163,0,0,1,3.9,19.7,126.29,126.29,0,0,1,.9,23,80.4,80.4,0,0,1-4.7,23.31,45.58,45.58,0,0,1-10.1,15.5,13.51,13.51,0,0,1-2.3,1.9c-.2,0-4.1,3.4-4.3,2.9a19.17,19.17,0,0,1,.2-5.4c.7-4.8,2.3-11.9,3.5-17,.2-.9.9-2.8,1.1-3.7.5-1.3,8.7-6.11,9.3-7a1.2,1.2,0,0,0,.3-1.4c-.3-.5-1-.1-1-.1-.7.4-10.2,5.71-13.2,6.91.7.7,1.6.4,2.3.5a4.9,4.9,0,0,1-.4,1.3,101.75,101.75,0,0,0-3.6,15.2,158.16,158.16,0,0,0-2.1,16.81c-.1,1.2-.2,2.4-.2,3.5a1.22,1.22,0,0,0,.8.9l1.5.6a5.22,5.22,0,0,1,2.3,4.3c0,.5-.1.8-.4.9S152.32,194,152.22,193.73Z"/><path class="cls-3" d="M176.42,114.7l-1-7.6a22.47,22.47,0,0,0-1.1-3.4l2.1,3.4c1.6,3.3,3.7,6.4,5.41,9.41a35.71,35.71,0,0,1,4.3,9.5,8.54,8.54,0,0,1-.3,5,2.11,2.11,0,0,1-.8,1.1c-.1.6-5.91,3.1-8,2a30.85,30.85,0,0,1,0-4.3V121C176.92,119,176.72,116.81,176.42,114.7Z"/><path class="cls-17" d="M191.33,60.09c0-1.5.3-3,.3-4.4a52.88,52.88,0,0,0-2-14.31c-.6-2-1.2-4-2-6,0-.4,0-.5.4-.5a3,3,0,0,1,2.4,2.1,48.33,48.33,0,0,1,2.8,10.7,51.42,51.42,0,0,1,0,9.61A2.83,2.83,0,0,1,191.33,60.09Z"/><path class="cls-2" d="M114.2,13.47a8.36,8.36,0,0,1,.4-3.1,2.82,2.82,0,0,1,2.61-1.8,11.39,11.39,0,0,1,5.4,1.3c1.2.6,2.3,1.3,3.5,2l2.7,1.4a3.18,3.18,0,0,1,1.91,4.07v0h0a3.89,3.89,0,0,1-.9,1.3l-6.3,6.71a7.93,7.93,0,0,1-3.1,2.3,2.72,2.72,0,0,1-3.7-.8h0a2.86,2.86,0,0,1-.3-.8,63.53,63.53,0,0,1-1.71-7.71C114.5,16.77,114.3,15.17,114.2,13.47Z"/><path d="M164.72,60.09a2.27,2.27,0,0,1,2.7,1.7h0a2.1,2.1,0,0,1-.3,1.6,9.78,9.78,0,0,1-1.5,2.4.67.67,0,0,0-.05.95l.05.05h0a2.1,2.1,0,0,0,2.95.25l.05-.05h0a2.62,2.62,0,0,0,.5-.6,8,8,0,0,1,.7-1.2c.2-.4.3-.4.6-.3a.58.58,0,0,1,.4.7h0a4.47,4.47,0,0,1-2.6,3.7,2.82,2.82,0,0,1-3.4-1.1c0-.3-.3-.3-.6,0a6.78,6.78,0,0,1-2.1,1.7,4.3,4.3,0,0,1-5.6-2v-.2a3.79,3.79,0,0,1,0-1.5.43.43,0,0,1,.4-.4c.3,0,.3,0,.4.4v.3a3,3,0,0,0,3.6,2.2h0a2.37,2.37,0,0,0,.9-.6c.6-.4,1.4-1,1.5-1.7s-.9-.9-1.4-1.3a19.87,19.87,0,0,1-1.5-1.4,2.18,2.18,0,0,1,.4-3h.1a2.8,2.8,0,0,1,1.2-.4Z"/><path d="M149.92,51.38a4.59,4.59,0,0,1-.8,2.81,3.6,3.6,0,0,1-4.81,1.4h-.1c-.3-.2-.6-.5-.9-.7a4.71,4.71,0,0,1,.3-6.51h0a1,1,0,0,1,.5-.4,3.84,3.84,0,0,1,5.21,1.2h0a3.47,3.47,0,0,1,.5,1.8Z"/><path d="M169.92,49.68a2.85,2.85,0,0,1,0-1.3,3.13,3.13,0,0,1,2.4-2.3,3.23,3.23,0,0,1,3.7,1.4,4.85,4.85,0,0,1,0,5.41,3.21,3.21,0,0,1-4.3,1.2,3.45,3.45,0,0,1-1.2-1.2A6,6,0,0,1,169.92,49.68Z"/><path class="cls-12" d="M145.91,37.88a5.49,5.49,0,0,1,3.81,1.6,1.31,1.31,0,0,1,.5,1.3c-.2.5-.7.5-1.2.5a10.66,10.66,0,0,1-3.91-1l-2.5-.9a.46.46,0,0,1-.5-.4h0c0-.3.3-.3.5-.4A6.11,6.11,0,0,1,145.91,37.88Z"/><path class="cls-2" d="M175.62,38.28l-1,.5a30.48,30.48,0,0,0-4,2.2c-.4.2-.9.4-1.3,0a1.36,1.36,0,0,1,0-1.5A5.5,5.5,0,0,1,175.62,38.28Z"/><path class="cls-13" d="M145.51,50.38a1.47,1.47,0,0,1-.9,1.81h0a1.55,1.55,0,0,1-1.8-.91h0v-.1a.85.85,0,0,1,0-.7,1.4,1.4,0,0,1,1.8-.8h0A.88.88,0,0,1,145.51,50.38Z"/><path class="cls-14" d="M170.22,49a1.32,1.32,0,0,1,1.3-1.3h0a1.35,1.35,0,0,1,1.4,1.3h0a1.36,1.36,0,0,1-1.43,1.3h-.07A1.31,1.31,0,0,1,170.22,49Z"/><path class="cls-15" d="M123.61,53H116a12.28,12.28,0,0,1-2.7-.3,1.42,1.42,0,0,1-1-1.2,24.47,24.47,0,0,1,0-5.41,1.7,1.7,0,0,1,1.72-1.7h.08c4-.4,7.91-.5,11.91-.6h6.8a1.62,1.62,0,0,1,1.6,1.1,7.88,7.88,0,0,1,.4,2.1,20.45,20.45,0,0,1,0,3.5c0,1.41-.4,1.81-1.7,2a3.3,3.3,0,0,1-1.4,0C129,52.59,126.31,52.79,123.61,53Z"/><path class="cls-4" d="M181.33,20.48a1.21,1.21,0,0,1-.5-.5,32.74,32.74,0,0,0-8.41-7.81c-.4-.3-.4-.4,0-.7a31.56,31.56,0,0,1,4.8-3.4l1.1-.5a2.1,2.1,0,0,1,2.86.8l0,.1h0a1.86,1.86,0,0,1,.2.8,15.94,15.94,0,0,1,.6,6.1C181.93,17.27,181.53,18.87,181.33,20.48Z"/><path class="cls-4" d="M115.5,13v-.7c.3-2.1.91-2.5,3-2.1a13.33,13.33,0,0,1,4.3,1.7,64.05,64.05,0,0,0,5.9,3c.8.3,1,.7.7,1.6a2.73,2.73,0,0,1-.8,1.5q-3.3,3.16-6.3,6.61a9.06,9.06,0,0,1-2.1,1.8,1.57,1.57,0,0,1-2.2,0h0a1.81,1.81,0,0,1-.4-1,80.37,80.37,0,0,1-1.91-11.11A5.17,5.17,0,0,0,115.5,13Z"/><path class="cls-2" d="M127.81,48.28a2.82,2.82,0,0,1-2.54,3.09h-.56a3.18,3.18,0,0,1-3.2-3v-.2a3.13,3.13,0,0,1,3-2.9,2.83,2.83,0,0,1,3.2,2.38v0C127.71,47.78,127.81,48.08,127.81,48.28Z"/><path class="cls-6" d="M124.51,46.68a1.55,1.55,0,0,1,1.7,1.3h0v.4a1.67,1.67,0,0,1-1.7,1.6h-.3a1.59,1.59,0,0,1-1.7-1.47v0a1.66,1.66,0,0,1,1.5-1.8Z"/></g><path class="cls-2" d="M111.4,15.07a6.14,6.14,0,0,1,.4-3,2.58,2.58,0,0,1,2.6-1.7,10.71,10.71,0,0,1,5.31,1.3c1.2.6,2.3,1.3,3.5,1.9l2.6,1.4a3.18,3.18,0,0,1,1.8,4.1h0a2.7,2.7,0,0,1-.9,1.21l-6.2,6.7a7.93,7.93,0,0,1-3.1,2.3,2.62,2.62,0,0,1-3.61-.8h0a6,6,0,0,1-.3-.8,63.75,63.75,0,0,1-1.6-7.6C111.7,18.27,111.5,16.67,111.4,15.07Z"/><path class="cls-4" d="M112.7,14.47v-.7c.2-2.1.9-2.5,2.9-2.1a12.86,12.86,0,0,1,4.21,1.7,63.61,63.61,0,0,0,5.8,3c.8.3.9.7.7,1.5a2.86,2.86,0,0,1-.8,1.4,63.67,63.67,0,0,0-6.1,6.51,6.78,6.78,0,0,1-2.1,1.7,1.58,1.58,0,0,1-2.21,0h0a1.88,1.88,0,0,1-.4-.9,67.12,67.12,0,0,1-1.8-10.91A7,7,0,0,0,112.7,14.47Z"/><path class="cls-17" d="M187.73,60.69c0-1.5.3-3,.3-4.4A57.52,57.52,0,0,0,186,42c-.5-2-1.2-4-1.9-6,0-.4,0-.5.4-.5a3,3,0,0,1,2.4,2.1,49.46,49.46,0,0,1,2.8,10.7,51.42,51.42,0,0,1,0,9.61A3.19,3.19,0,0,1,187.73,60.69Z"/></svg>