<svg id="Layer_1" data-name="Layer 1" xmlns="http://www.w3.org/2000/svg" xmlns:xlink="http://www.w3.org/1999/xlink" viewBox="0 0 198.89 197.83"><defs><style>.cls-1{fill:none;}.cls-2{fill:#010101;}.cls-3{fill:#fefefe;}.cls-4{fill:#00b390;}.cls-5{fill:#030504;}.cls-6{fill:#000100;}.cls-7{fill:#fdfdfd;}.cls-8{fill:#fcfcfc;}.cls-9{fill:#f6ed58;}.cls-10{fill:#fbee59;}.cls-11{fill:#b52028;}.cls-12{fill:#fff;}.cls-13{fill:#ca3940;}.cls-14{fill:#b62428;}.cls-15{fill:#ca3c41;}.cls-16{fill:#c2383d;}.cls-17{clip-path:url(#clip-path);}.cls-18{fill:#c1383d;}</style><clipPath id="clip-path"><path class="cls-1" d="M178.69,109.87a52,52,0,0,0-4.89-14.45c-2.1-9.1-13.13-16.58-3.05-17.67,1.67.87,10,15.59,9.06,27.17a6.14,6.14,0,0,0-.07,2.18A17.15,17.15,0,0,1,178.69,109.87Z"/></clipPath></defs><path class="cls-2" d="M165.72,5.44h.15a.54.54,0,0,0-.05-.11Z"/><path class="cls-3" d="M151.3,4.24h-1.61c0,.46.06.93.07,1.39l1.74-.12c-.05-.33-.11-.66-.16-1C151.33,4.43,151.31,4.34,151.3,4.24Z"/><path class="cls-2" d="M197.35,55.44a25.94,25.94,0,0,0-2.12-2.56c-.3-.25-.34-.35,0-.55A4.68,4.68,0,0,0,196.56,51a1.32,1.32,0,0,0-.4-1.79,3.17,3.17,0,0,1-1-1.12,20,20,0,0,1-2.63-5.61,41.16,41.16,0,0,0-3.18-8.07,7.47,7.47,0,0,0-5.95-4.34.92.92,0,0,1-.81-.49,18.87,18.87,0,0,0-1.29-2.22.83.83,0,0,1,0-.78c.28-1.09.5-2.18.88-3.27a35.49,35.49,0,0,0,1.13-12.18A18.63,18.63,0,0,0,181.74,4,6.2,6.2,0,0,0,173.93.33a17.28,17.28,0,0,0-3.13,1,33.81,33.81,0,0,0-7.87,5.31v.12h-.16c-.61.56-1.22,1.14-1.79,1.75-.16.25-.74.87-1.08.67a37.08,37.08,0,0,0-11.9-2,52.21,52.21,0,0,0-16.68,2.55,1.54,1.54,0,0,1-.74,0,21.91,21.91,0,0,1-2.63-1c-3.06-1.56-6.08-3.36-9.15-4.87a21.74,21.74,0,0,0-9.17-2.44,5.34,5.34,0,0,0-5.77,4.14,15,15,0,0,0-.35,4.77,140.6,140.6,0,0,0,3.93,22.12,1.46,1.46,0,0,1,0,1c-.35,1.38-.78,2.76-1.12,4.15-.16.7-.31,1.4-.45,2.11a3.5,3.5,0,0,1,0,1.76,3.61,3.61,0,0,1-.61,1.85,61.53,61.53,0,0,0-.41,11.75A24.2,24.2,0,0,0,113.28,72c4.83,7.17,41.31,15.72,53.42,8.62a43.94,43.94,0,0,0,8.68-3.4,24.39,24.39,0,0,0,6.78-4.53l.33-.38,1-1.08c.36-.42.72-.8,1.1-1.17a23.36,23.36,0,0,0,3.77-6.91.63.63,0,0,1,.41-.44l10-3.87A8.65,8.65,0,0,0,197.35,55.44Z"/><path class="cls-4" d="M193.19,53.56a1,1,0,0,1,.31-1.38h0c.15-.12,0-.13.44-.41s.39-.52,0-.85a6.78,6.78,0,0,1-1.42-1.51,21.72,21.72,0,0,1-2.84-6.73,36.71,36.71,0,0,0-3.52-8.29,2.69,2.69,0,0,0-2.11-1.48l-7.28-.46c-2.85-.25-5.69,0-8.54,0-6.94.15-13.9.4-20.88.84A203.73,203.73,0,0,0,126,35.35a42.71,42.71,0,0,0-7.42,1.54A4.87,4.87,0,0,0,114.94,41c-.09.47,0,.68.58.68h14.23A3,3,0,0,1,133,44a5,5,0,0,1,0,.77,22.73,22.73,0,0,1,0,6.38,2.62,2.62,0,0,1-2.12,2.35,7.55,7.55,0,0,1-1.88.37l-5.69.18h-8.78c-.58,0-.92.17-.92.75a8.56,8.56,0,0,1-1.3,3.15,5.34,5.34,0,0,1,1.13,0c1.13.12,2.14.9,1.59,2.28a8,8,0,0,1-1.12,2.56,5.43,5.43,0,0,0-.79,1.71,9.43,9.43,0,0,1,1.11-1.33,21.52,21.52,0,0,1,8,0c4.2.65,7.94,1.67,12.21,2.19A17.11,17.11,0,0,0,147,62.8a22.43,22.43,0,0,0,6.88-7.49,8.59,8.59,0,0,1,3.83-3.78l.34-.2a5.43,5.43,0,0,1,7.12,2.4A17.15,17.15,0,0,1,167,58.92,4.65,4.65,0,0,0,170.14,63a13.63,13.63,0,0,0,5.08.54,41.37,41.37,0,0,0,9.66-2.5,72.23,72.23,0,0,1,10-2.76c1.52-.33,1.34-.54.64-1.59Z"/><path class="cls-3" d="M158.78,10.68c.47,1.26.91,2.23,1.31,3.32a8.89,8.89,0,0,1,.64,4.14C160.53,19.32,160,20,159,20a2.11,2.11,0,0,1-2.38-1.29,12.77,12.77,0,0,1-1-2.77,32,32,0,0,0-2-5.64A1.44,1.44,0,0,0,152,9.42a.55.55,0,0,1,0,.36A19.44,19.44,0,0,1,154.21,16a6.46,6.46,0,0,1-.13,4.4,3.35,3.35,0,0,1-3.14,1.71,2.83,2.83,0,0,1-2.63-1.84,10.76,10.76,0,0,1-.74-2.9,29.2,29.2,0,0,0-1.81-7c-.58-1.17-.68-1.39-2.11-1.17a14.38,14.38,0,0,0,.87,2.2,15.69,15.69,0,0,1,1,6.14,2.93,2.93,0,0,1-.57,1.92,2.42,2.42,0,0,1-.51.55,2.5,2.5,0,0,1-3.4-.3,6.15,6.15,0,0,1-1-2.39c-.44-2.21-.95-4.36-1.42-6.54-.16-.65-.36-.65-1-.65a56.18,56.18,0,0,0-7.43,2,1,1,0,0,1-.88,0,60.75,60.75,0,0,1-6-2.83A69.5,69.5,0,0,0,115,4.88a15.42,15.42,0,0,0-5.55-1.26,2.65,2.65,0,0,0-2.64,1.88,11.42,11.42,0,0,0-.47,4.15,99.66,99.66,0,0,0,2.28,14.77A45.77,45.77,0,0,0,110,31.48a5.66,5.66,0,0,1,0,3.21c-.6,2.14-1,4.28-1.42,6.46-.06.47,0,.47.52.47a5.2,5.2,0,0,1,1.67,0c.8,0,1.22-.25,1.22-1a8,8,0,0,1,7-6.7A122,122,0,0,1,138.19,31c9.51-.74,19.11-1.3,28.72-1.3,3.71,0,7.47-.29,11.21,0h2.14a56.49,56.49,0,0,0-9-11.43A33.09,33.09,0,0,0,158.78,10.68Z"/><path class="cls-3" d="M180.85,65.2a22.26,22.26,0,0,1-9.66.85,7.33,7.33,0,0,1-6.4-5.43c-.35-1.19-.7-2.35-1-3.48a9.17,9.17,0,0,0-1.49-3,2.19,2.19,0,0,0-2.25-.86,5.39,5.39,0,0,0-3.52,2.43,43.06,43.06,0,0,0-2.67,4.15,19.63,19.63,0,0,1-20.47,8.76c-3.85-.54-7.58-1.5-11.38-2.19a16.16,16.16,0,0,0-8.67.19c-.87.29-.87.29-.3.91a37.62,37.62,0,0,0,6.37,5.65,9,9,0,0,0,1.85,1.39,83.61,83.61,0,0,0,25,5.19,58.32,58.32,0,0,0,21.69-3,35.69,35.69,0,0,0,9.85-5.17A20.36,20.36,0,0,0,184,64.14Z"/><path class="cls-3" d="M179,4.61a3.71,3.71,0,0,0-4.72-1.8A19,19,0,0,0,169,5.28a54.66,54.66,0,0,0-6.37,4.86c1.09.58,2.13,1,3.11,1.63h0a.94.94,0,0,0,1.26-.33,14.48,14.48,0,0,1,6.61-4.15,3.33,3.33,0,0,1,4.27,1.57,5.12,5.12,0,0,1,.58,1.46,17.77,17.77,0,0,1,.33,7.26,26.85,26.85,0,0,1-1,4.14c0,.34-.62.29,0,.86a18.54,18.54,0,0,1,1.5,1.91,12.31,12.31,0,0,0,.17-2.1,39.47,39.47,0,0,0,.75-12.07A14.38,14.38,0,0,0,179,4.61Z"/><path class="cls-3" d="M112.57,59.25a7.12,7.12,0,0,0-1.75.49c-.64.25-1,0-1-.53a1.26,1.26,0,0,1,0-.72,16,16,0,0,0,1-4.14c0-.29.07-.52-.34-.52a3.12,3.12,0,0,1-2.5-.63,24,24,0,0,0,2.67,10.72L112,61.6a15.53,15.53,0,0,0,1-1.89C113.07,59.25,112.94,59.25,112.57,59.25Z"/><path class="cls-5" d="M185.68,36.57a3,3,0,0,0-2.38-2.07c-.38-.07-.38.09-.38.47.74,1.89,1.38,3.82,1.93,5.77a53,53,0,0,1,2,13.83c0,1.38-.3,2.8-.3,4.27a2.77,2.77,0,0,0,2-2.68,43.71,43.71,0,0,0,0-9.29A50.31,50.31,0,0,0,185.68,36.57Z"/><path class="cls-2" d="M124.6,13.79,122,12.41c-1.18-.6-2.31-1.27-3.52-1.9a10.84,10.84,0,0,0-5.35-1.25A2.73,2.73,0,0,0,110.5,11a6.67,6.67,0,0,0-.4,3,41.06,41.06,0,0,0,.61,4.81,65.39,65.39,0,0,0,1.64,7.44,1.63,1.63,0,0,0,.27.8,2.68,2.68,0,0,0,3.63.8,8.15,8.15,0,0,0,3.13-2.25l6.2-6.54a2.85,2.85,0,0,0,.89-1.22,3.08,3.08,0,0,0-1.8-4Z"/><path d="M165.73,63.52c-.26-.08-.35,0-.56.34s-.43.76-.67,1.13a2.32,2.32,0,0,1-.47.61,2.2,2.2,0,0,1-3-.18h0a.66.66,0,0,1,0-.93h0a14.89,14.89,0,0,0,1.43-2.35,2,2,0,0,0,.34-1.59,2.23,2.23,0,0,0-2.63-1.68l-2.74.23a2.28,2.28,0,0,0-1.21.38h0a2,2,0,0,0-.56,2.77.86.86,0,0,0,.07.1,7.73,7.73,0,0,0,1.42,1.38c.45.4,1.34.58,1.34,1.26s-.83,1.2-1.43,1.65a3.78,3.78,0,0,1-.88.54,3,3,0,0,1-3.61-2.08.32.32,0,0,0,0-.27c0-.38-.12-.38-.37-.38a.43.43,0,0,0-.44.38,2.93,2.93,0,0,0,0,1.38.54.54,0,0,1,0,.18,4.33,4.33,0,0,0,5.56,1.93,5.63,5.63,0,0,0,2.19-1.61c.26-.28.6-.28.6,0a2.89,2.89,0,0,0,3.41,1.09,4.41,4.41,0,0,0,2.64-3.61A.56.56,0,0,0,165.73,63.52Z"/><path d="M145,48.29h0a3.81,3.81,0,0,0-5.15-1.17,1.39,1.39,0,0,0-.44.36,4.39,4.39,0,0,0-.38,6.2l.11.12a5,5,0,0,0,.87.72h0a3.56,3.56,0,0,0,4.78-1.3,4.53,4.53,0,0,0,.74-2.77V50A3.34,3.34,0,0,0,145,48.29Z"/><path d="M167.65,45.4a2.94,2.94,0,0,0-2.34,2.19,5.23,5.23,0,0,0,0,1.25,5.43,5.43,0,0,0,.57,3.14,3.59,3.59,0,0,0,1.21,1.18A3.28,3.28,0,0,0,171.36,52a4.58,4.58,0,0,0,0-5.2A3.33,3.33,0,0,0,167.65,45.4Z"/><path class="cls-6" d="M141.52,37.43a6.64,6.64,0,0,0-3.33.77c-.17.13-.47.13-.47.42a.47.47,0,0,0,.51.38l2.46.86a11.37,11.37,0,0,0,3.85.93c.48,0,1,0,1.21-.49a1.24,1.24,0,0,0-.47-1.3A5.56,5.56,0,0,0,141.52,37.43Z"/><path class="cls-2" d="M164.73,38.91a1.19,1.19,0,0,0,0,1.45c.45.4.88.25,1.34,0A32.79,32.79,0,0,1,170,38.28l1-.49a9.82,9.82,0,0,0-1.93-.52A5,5,0,0,0,164.73,38.91Z"/><path class="cls-7" d="M140.3,48.73a1.45,1.45,0,0,0-1.75.76,1.11,1.11,0,0,0,0,.72v.14a1.43,1.43,0,0,0,1.76.86,1.38,1.38,0,0,0,.88-1.7A1.27,1.27,0,0,0,140.3,48.73Z"/><path class="cls-8" d="M167,46.88a1.32,1.32,0,0,0-1.34,1.3h0v.16a1.42,1.42,0,0,0,2.84-.16h0A1.41,1.41,0,0,0,167,46.88Z"/><path class="cls-9" d="M130.08,44.24a1.61,1.61,0,0,0-1.6-1.09H121.7c-4,.1-7.9.21-11.82.58a1.74,1.74,0,0,0-1.76,1.71,26.57,26.57,0,0,0,0,5.2,1.4,1.4,0,0,0,1,1.12,10.87,10.87,0,0,0,2.67.29h7.62a66.86,66.86,0,0,1,8-.39,4.94,4.94,0,0,0,1.33,0c1.3-.23,1.71-.55,1.71-1.93a19.53,19.53,0,0,0,0-3.42A7.7,7.7,0,0,0,130.08,44.24Z"/><path class="cls-10" d="M176.5,9.1a2.18,2.18,0,0,0-2.85-.85l-1.12.51A25,25,0,0,0,167.75,12c-.4.33-.44.43,0,.72a33.22,33.22,0,0,1,8.35,7.51.83.83,0,0,0,.53.44c.2-1.6.62-3.15.68-4.89a16,16,0,0,0-.6-5.91A1.74,1.74,0,0,0,176.5,9.1Z"/><path class="cls-10" d="M124.27,15.28a63.08,63.08,0,0,1-5.8-2.94,15.55,15.55,0,0,0-4.27-1.67c-1.92-.36-2.59,0-2.85,2.06v.66a3.24,3.24,0,0,1,.19,1.27,75.44,75.44,0,0,0,1.85,10.66,1.51,1.51,0,0,0,.42.92,1.61,1.61,0,0,0,2.25,0,7.78,7.78,0,0,0,2-1.75,73.39,73.39,0,0,1,6.15-6.32,3,3,0,0,0,.78-1.38C125.23,16,125.05,15.61,124.27,15.28Z"/><path class="cls-2" d="M120.29,44.56a3.11,3.11,0,0,0-3.05,2.76v.27a3.1,3.1,0,0,0,3.2,2.9,1.14,1.14,0,0,0,.52,0h0a2.79,2.79,0,0,0,2.56-3,1.83,1.83,0,0,0-.11-.61A2.85,2.85,0,0,0,120.29,44.56Z"/><path class="cls-4" d="M120.33,45.94h-.57a1.58,1.58,0,0,0-1.42,1.71,1.61,1.61,0,0,0,1.71,1.49h.27a1.61,1.61,0,0,0,1.7-1.51h0a.81.81,0,0,0,0-.38A1.51,1.51,0,0,0,120.33,45.94Z"/><path class="cls-11" d="M145,85.23a1.72,1.72,0,0,0,1.23-.23,3.6,3.6,0,0,1,3-.59c.51.14.92.25,1.32-.29a.91.91,0,0,1,.82-.31,3.75,3.75,0,0,0,.82,0,2.89,2.89,0,0,1,2.43.5.69.69,0,0,0,.58.19,25.29,25.29,0,0,0,4-2.16,61.24,61.24,0,0,1-24.75-.57l.19.12A53.06,53.06,0,0,0,145,85.23Z"/><path class="cls-12" d="M122.71,78.7c2,3,32,7.58,36.83,5.35C155.11,85,125.1,80.23,122.71,78.7Z"/><path class="cls-12" d="M160.09,83.68a1.49,1.49,0,0,1-.55.37C159.92,84,160.12,83.85,160.09,83.68Z"/><path class="cls-12" d="M122.6,78.45c-.09.07,0,.15.11.25A.57.57,0,0,1,122.6,78.45Z"/><polygon class="cls-13" points="37.04 108.94 38.13 108.94 38.07 108.93 37.04 108.94"/><path class="cls-12" d="M115.38,186a1.28,1.28,0,0,1,.7-.93,18,18,0,0,1,2.5-1.4,47.59,47.59,0,0,0,17-12.48c.17-.21.45-.32.45-.67l-1.06.81c-5.18,3.12-10.31,5.82-15.44,8.68-1.88,1.06-3.63,2-5.39,3.16a2.27,2.27,0,0,0-1.11,2.64C113.57,187.07,115.36,186.5,115.38,186Z"/><path class="cls-14" d="M53.87,107.71c-3.39-.66-6.82-1.17-10.26-1.5A25.16,25.16,0,0,0,30,108.57a32.25,32.25,0,0,0-12.71,10.91l-.85,1.25,2.12-.94a51,51,0,0,1,13.87-3.67,23.14,23.14,0,0,1,8,.41,25,25,0,0,1,10.91,6l.19.17a43.43,43.43,0,0,1,2.56-4.93A33,33,0,0,1,53.87,107.71Z"/><path class="cls-14" d="M58.5,129.82a38.43,38.43,0,0,1-4.4-12,43.43,43.43,0,0,0-2.56,4.93A87.63,87.63,0,0,1,58.5,129.82Z"/><path class="cls-14" d="M58.21,108.64c-1.44-.34-2.89-.65-4.34-.93a33,33,0,0,0,.23,10.06,77.62,77.62,0,0,1,6.07-8.65C59.52,109,58.86,108.81,58.21,108.64Z"/><path class="cls-14" d="M90.73,106.91c-.8-.34-1.6-.68-2.42-1l-.17.12a27.57,27.57,0,0,1-17.33,4,84.65,84.65,0,0,1-11.39-2,80,80,0,0,0-6.17,8.58,38.68,38.68,0,0,0,4.28,12.1l.11.12a25,25,0,0,0,9,6.9,9.72,9.72,0,0,0,8.12.05,24.46,24.46,0,0,0-5.8,0,24.46,24.46,0,0,1,5.8,0c.34-.16.66-.32,1-.51a65.57,65.57,0,0,0,6.15-4.47A22.91,22.91,0,0,1,92.6,126a10.32,10.32,0,0,1,5,.09,2.48,2.48,0,0,1,2,1.59,26.58,26.58,0,0,0,1.21,2.38,19.4,19.4,0,0,0-.64-2A27.16,27.16,0,0,1,99,120a95.45,95.45,0,0,0-32.28-6.11A95.16,95.16,0,0,1,99,120a27,27,0,0,1,.41-4.67A43.84,43.84,0,0,1,90.73,106.91Z"/><path class="cls-14" d="M100,112.12a48.76,48.76,0,0,0-9.23-5.21,44,44,0,0,0,8.63,8.39.09.09,0,0,1,0-.07A28,28,0,0,1,100,112.12Z"/><path class="cls-14" d="M112.29,86.62l2.37-3.38a3.6,3.6,0,0,0-2.67.56,51.92,51.92,0,0,0-4.26,4.87,26.09,26.09,0,0,1,2.74-1.39l-.23.41c-1.91,2-3.63,4.1-5.45,6.12.86.61,1.73,1.21,2.6,1.8A66.84,66.84,0,0,1,112.29,86.62Z"/><path class="cls-14" d="M103,93.44a46.32,46.32,0,0,1-4.42,4.33,74.87,74.87,0,0,1-9.17,7.39c.43.59.86,1.18,1.31,1.75a48.76,48.76,0,0,1,9.23,5.21,74,74,0,0,1,3.89-12.76c.53-1.39,1.12-2.75,1.73-4.1Z"/><path class="cls-14" d="M88.31,105.93c.82.3,1.62.64,2.42,1-.45-.57-.88-1.16-1.31-1.75C89.05,105.41,88.69,105.68,88.31,105.93Z"/><path class="cls-13" d="M53.1,102.92H50.6a1,1,0,0,0,.54.27l4.72,1.13c1.83.5,3.67.93,5.52,1.33h0c3,.65,6,1.2,9.05,1.61a27.27,27.27,0,0,0,11-.91A35.09,35.09,0,0,0,85,104.83a45.16,45.16,0,0,0-25.4-.18,45.16,45.16,0,0,1,25.4.18,33.83,33.83,0,0,0,3-1.68,61.75,61.75,0,0,1-3.84-6.94A105.75,105.75,0,0,1,53.1,102.92Z"/><path class="cls-13" d="M103.34,92.19c1.54-1.42,3.18-2.47,4.73-3.71a46,46,0,0,1,3.37-4,3.74,3.74,0,0,1,3.22-1.23l.43-.43a34,34,0,0,1,4.13-4.09l.92-.76a8.51,8.51,0,0,0-3.09.8A40.19,40.19,0,0,0,111.57,82c-2.23,1.55-4.32,3.44-6.64,5-1.68,1.13-3.39,2.21-5.14,3.22,1.06.77,2.12,1.54,3.19,2.3Z"/><path class="cls-13" d="M99,89.88A88.24,88.24,0,0,1,88.41,95c-1.06.44-2.13.85-3.2,1.26a61.75,61.75,0,0,0,3.84,6.94,33.76,33.76,0,0,0,6.08-4.69c2.41-2.16,4.67-4.33,7.06-6.33Z"/><path class="cls-15" d="M139.41,100.69h.27a10.57,10.57,0,0,0,8.23-5.7,21.05,21.05,0,0,0,2-8.32.41.41,0,0,0,.05-.09.62.62,0,0,0-.3-.81,4.15,4.15,0,0,0-2.92.56,13.43,13.43,0,0,0-3.8,3.71,26.29,26.29,0,0,0-4.26,9.68C138.36,100.67,138.36,100.67,139.41,100.69Z"/><path class="cls-15" d="M156.39,99.7c.35.24.58.22.59-.22a14,14,0,0,0-1.38-11.07,9.63,9.63,0,0,0-2.61-3,3.22,3.22,0,0,1-.67,2l-.07,4.11A9.73,9.73,0,0,0,156.39,99.7Z"/><path class="cls-12" d="M117.16,134.61a7.89,7.89,0,0,0,.65-.76,22.64,22.64,0,0,0-1.58-2.2C116.6,133.25,116.18,135.66,117.16,134.61Z"/><path class="cls-12" d="M100.9,120.78a18,18,0,0,0,3.56,11,19.31,19.31,0,0,0,3.2,2.86c.88.68,1,.42,1.12-.57l.74-2.78a1,1,0,0,1,.52-.72c.31-.14.57.24.56.48a4.36,4.36,0,0,1,0,1.25c0,.76-1,3.53-.32,3.54a13.14,13.14,0,0,0,1.54.13,18.49,18.49,0,0,0-.77-9.3A47.63,47.63,0,0,0,100.9,120.78Z"/><path class="cls-12" d="M115,130.78a.38.38,0,0,1,.21-.32,32.89,32.89,0,0,0-4.18-3.82,18.49,18.49,0,0,1,.77,9.3,14.8,14.8,0,0,0,2-.07C116.23,136,114.82,132.32,115,130.78Z"/><path class="cls-12" d="M118.93,135.78a6,6,0,0,1-1.9,1.54c-.37.23-.28,1.15-.29,1.49a116.43,116.43,0,0,0,.73,11.81c0,.39.09.79.12,1.18a35.14,35.14,0,0,0,3.5-1.55A23.35,23.35,0,0,0,118.93,135.78Z"/><path class="cls-3" d="M165.81,109.94l-.76-6.65a19,19,0,0,0-.42-3l1.33,3c1.38,2.95,3.12,5.66,4.54,8.33a30.14,30.14,0,0,1,3.6,8.34,7.67,7.67,0,0,1-.38,4.42,2.25,2.25,0,0,1-.66,1c-.19.49-5.21,2.62-7,1.62a20.54,20.54,0,0,1,.06-3.76l.13-7.71A45.44,45.44,0,0,0,165.81,109.94Z"/><path d="M82.9,93.26h0c-1.51.71-3,1.4-4.58,2-8,3.2-25.92,7-26.49,7.08a155.48,155.48,0,0,1-21.33,1.77,37.5,37.5,0,0,0-6.77.56,27.28,27.28,0,0,0-10.79,4.65A38.75,38.75,0,0,0,.48,124.59c-.13.21-.33.33-.34.62s-.31.61,0,.89.62,0,.87,0a63,63,0,0,1,18.48-4.86,21.43,21.43,0,0,1,16.83,5.16,76.45,76.45,0,0,1,10,10.51,31.62,31.62,0,0,0,10.1,8.73l.21.11a12.25,12.25,0,0,0,4.2,1.44A14.34,14.34,0,0,0,63,147a40.37,40.37,0,0,0,7.46-2.34c.26-.19.53-.36.8-.54,1.78-1.26,3.51-2.59,5.17-4a23.22,23.22,0,0,1,12.77-5.24,8.61,8.61,0,0,1,6.09,2c1.39,1.07,2.66,2.37,4.18,3.41a12,12,0,0,0,3,1.74c.46.08.92.16,1.39.26a18.79,18.79,0,0,1,2,.54,11.52,11.52,0,0,0,2.69-.08,12,12,0,0,0,4.67-1.68c.06,2.59.41,5.07.36,7.7a23.92,23.92,0,0,1-.52,4.46c-1.78,8.32-7.71,14.23-11.34,17.28a75.58,75.58,0,0,1,2.55,10.38c1.36,6.74,7.68,8.05,13.4,7.86a5.3,5.3,0,0,0-1-1.74l-.39-.52a48,48,0,0,0,30.81-31v1.14c1,5.83,1.87,12.13,3.88,17.68a46.66,46.66,0,0,0,12.71,20.13,15.78,15.78,0,0,0,2.58,2.25c.26.08,3.17,1.15,3.22,1.17a15.42,15.42,0,0,0,6.37-1.7c2.54-1.25,4.66-3.14,7.1-4.66a24.76,24.76,0,0,0,4.75-5.31c.6-.94.32-1.75.47-2.85a4.48,4.48,0,0,0-4.14-4.52l-3.56-.77c-1.43.11-2.3-2.46-2.76-4.39a6.49,6.49,0,0,1-.74-3.06c-1-3.88-2.38-18.07-2.13-18.59,12.23-27.75,4.79-60.19-8.32-71.89-7.36,1.23-24.43,6.47-49.09-4.82a25.75,25.75,0,0,0-8.06,2.93c-2.15,1.36-7.85,4.78-8.6,5.36"/><path class="cls-15" d="M138.7,102.85a12,12,0,0,0,10.12-8.62,31.29,31.29,0,0,0,1.29-6.92c.12-1.45.16-1.45-1.22-1.48a3.31,3.31,0,0,0-2.39.54,16.61,16.61,0,0,0-4.15,4.21,32.17,32.17,0,0,0-4.64,11.07C137.39,102.82,137.39,102.82,138.7,102.85Z"/><path class="cls-15" d="M157.61,101.69c.66.36.66.14.67-.33a16.94,16.94,0,0,0-.27-9.72,12.54,12.54,0,0,0-4.28-6.25c.22,1.08-.38,1.81-.59,2.62a34.13,34.13,0,0,0-.08,4.29A11.31,11.31,0,0,0,157.61,101.69Z"/><path class="cls-16" d="M151.46,86.43c.39.27.11.69.38.7a.85.85,0,0,0,.55-.6V86a1.47,1.47,0,0,0-1.16-1.37c-.28,0-.57.16-.29.6A5.81,5.81,0,0,1,151.46,86.43Z"/><path d="M104.48,180.88a75.19,75.19,0,0,0-2.66-10.35c-.74.63-1.38,1.14-1.87,1.53a4.2,4.2,0,0,0-2,3.05,12,12,0,0,0,0,5.66,19.64,19.64,0,0,0,6.64,10.93,13.65,13.65,0,0,0,8.1,3.9,4.81,4.81,0,0,0,4.09-1.34c1.53-1.52,1.58-3.95.9-5.87C111.87,188.63,105.91,187.61,104.48,180.88Z"/><path class="cls-12" d="M184.13,182a26.15,26.15,0,0,0-4.87-1,4.39,4.39,0,0,1-3-3c-.47-1.54-1.71-8-2.07-9.87-.3-3.52-2.8-17.54-1-20.59,14.88-34.36-4.2-67.07-10.6-65.26-.45-.26-2.09.94-2.51,1.21a23,23,0,0,1-4.35,2.18c-.2.16-.29.26,0,.6a16.49,16.49,0,0,1,2.86,6,17.67,17.67,0,0,1-.57,10.83v.47a1,1,0,0,1-1.39.28l-.07,0a12.53,12.53,0,0,1-2.1-1.67,11.77,11.77,0,0,1-3.94-7.32,18.5,18.5,0,0,1,.34-5.3c0-.21.31-.61,0-.61s-.3.34-.31.56a26.58,26.58,0,0,1-1.2,4.64,15.26,15.26,0,0,1-3.41,6.5,13.45,13.45,0,0,1-8.8,4.27,2.88,2.88,0,0,1-1.35-.31c3.35,6.44,2.9,3.67,6.73,13.33.78,2.37,5.83,20.08-.07,24.83-3.64,2.68-10.19,1.52-14.19-2a24.87,24.87,0,0,1-6.85-9.28,37.66,37.66,0,0,1-2.83-8.9c-.78-2.08-1.5-1.71-2.19-.26-.31,2.26-.53,5.33-.66,8.78,1.14,12.21.11,24.9-1.53,27.8A29.74,29.74,0,0,1,103,171.33c-.26.15-.5.33-.75.5-4.77,3.81-2,8.76-1.06,11.61,2.09,4.65,8.13,9.3,11.57,9.75,1.2.15.9-.44.85-.86a11,11,0,0,0-1-2.61c0-.42-.34-.6-.16-.85s.2-.14.44-.13A2.35,2.35,0,0,1,114,190c.13.29.4,1.1.71,1.77,1-.76.48-3.3.39-3.1a9.43,9.43,0,0,0-.41-1.56.89.89,0,0,1-1-.39c-.38-.82.27-1.29.64-1.56,2.22-1,15.36-7.58,21-15.11a40.17,40.17,0,0,0,5.11-7.16,59,59,0,0,0,3.89-9.11,7.23,7.23,0,0,1,6.42-4.76,3.83,3.83,0,0,1,2,.37,1.52,1.52,0,0,1,.86,1.36c-.16,1.12-1.81,1.46-2.2,1.63-.94.2-3.18.12-3.24.6-.52,2.72,6.12,27,11.28,33.05a71.12,71.12,0,0,0,5.16,6.08,14.54,14.54,0,0,0,4,2.77c3.1,2,13.89-5.26,13.93-7.9-2.28-2-3.54.49-3.91-.95,0-.41.72-1.08,1.76-1.19,1.9.07,2.13.12,3.41,1,.65,0,1.22-1.74,1.17-2.33A1.36,1.36,0,0,0,184.13,182Z"/><path class="cls-12" d="M120.46,122.28c1.84,7.43,4.92,14.55,9.91,17.41,1.1,1,6,2.83,6.06,2.24a16.34,16.34,0,0,0-.87-3.78c-.1-.32-.19-.71.29-.88s.64.22.87.52.88,4.3,1.41,4.31c1-.14,3.21-1.1,3.23-2.08.46-.92-1.09-3.56-1.18-3.79s-.28-.46,0-.75a.6.6,0,0,1,.72,0c.37.27,1.09,1.79,1.42,1.8,1.52-.28.27-13.25-1.28-19.42A43.87,43.87,0,0,1,120.46,122.28Z"/><path class="cls-12" d="M118.07,100.55c0-4.63,3.42-17.08,6.57-19.4.77-.7,1.46-.81,2.8-.06a55.31,55.31,0,0,0,15,5.36c.13,0-2.88,3.25-3,3.37a34.21,34.21,0,0,0-4.6,12.39c0,.28-.16,1.71.6,2,.11,0,5.05,10,5.58,13.7-.12,3.53-20.63,7.27-20.59,4.41C118.37,116,118.11,108.33,118.07,100.55Z"/><path d="M178.69,109.87a52,52,0,0,0-4.89-14.45c-2.1-9.1-13.13-16.58-3.05-17.67,1.67.87,10,15.59,9.06,27.17a6.14,6.14,0,0,0-.07,2.18A17.15,17.15,0,0,1,178.69,109.87Z"/><g class="cls-17"><path d="M104.59,10.11a3.66,3.66,0,0,0-.55.63,4.08,4.08,0,0,1,1.67-.75,10.51,10.51,0,0,1,1.35-.21,4.57,4.57,0,0,1-1-.47,4.53,4.53,0,0,1-1.12.45A2.89,2.89,0,0,1,104.59,10.11Z"/><path d="M111.6,9.49c-.12-.08-.24-.14-.35-.23h0a4.24,4.24,0,0,1-1.26.58,15.06,15.06,0,0,1,2.49.6A4.18,4.18,0,0,1,111.6,9.49Z"/><path d="M156.33,13.64a4.61,4.61,0,0,1-.72.46,4.8,4.8,0,0,1-.76.8c.89,0,1.79.07,2.69.15-.48-.92,0-1.84.46-2.77A13.59,13.59,0,0,0,156.33,13.64Z"/><path d="M155.61,14.1a4.61,4.61,0,0,0,.72-.46A13.59,13.59,0,0,1,158,12.28a6.23,6.23,0,0,0,.59-1.44c-.64.22-1.27.42-1.92.61A5,5,0,0,1,155.61,14.1Z"/><path d="M133.3,14.85a11.5,11.5,0,0,1-1.3.26,4,4,0,0,1-1.62,1c5.46-.21,10.7-.81,16-1.11a4.34,4.34,0,0,1-1.35-.89C141.34,13.75,137.17,14.35,133.3,14.85Z"/><path d="M123.19,14.87a4.49,4.49,0,0,1-1.43-1.24,4,4,0,0,1-2.14-1.27,3.78,3.78,0,0,1-.74-.17h-.11a5.06,5.06,0,0,1-2-.39,4.81,4.81,0,0,1-1.86-.46h-.17c3.59,1.64,6.93,4,10.63,4.68-.38-.15-.76-.32-1.12-.49A7.22,7.22,0,0,1,123.19,14.87Z"/><path d="M164.38,7.67a3.78,3.78,0,0,1-1.59,1.48,42.32,42.32,0,0,1-4.2,1.69,6.23,6.23,0,0,1-.59,1.44c2.52-1.76,5.79-3,8.95-4.36H165.7A4.6,4.6,0,0,1,164.38,7.67Z"/><path d="M145.2,167.79a5.43,5.43,0,0,1,3.47-.18c-.63-2.34-1.18-4.73-1.62-7.17A14.87,14.87,0,0,1,145.2,167.79Z"/><path d="M178.2,166.48a4.41,4.41,0,0,1,0-.89,6.91,6.91,0,0,1,.11-.9c-.09-.29-.18-.58-.26-.87A6.63,6.63,0,0,0,178.2,166.48Z"/><path d="M46.2,120.25a163.68,163.68,0,0,1-17.14,6.45A7.9,7.9,0,0,1,33,131.35v.08a71.31,71.31,0,0,1,6.52,6.83A5.1,5.1,0,0,1,43,140.34,18.57,18.57,0,0,0,44.26,142c-.11-.37-.22-.74-.32-1.12C41.51,133.38,43,126.53,46.2,120.25Z"/><path d="M58.44,147c3.13-.49,5.91-1.73,8.87-2.72a54.79,54.79,0,0,1-9.17-7.75c-4.36-5.45-7.71-11.21-9.3-17.44-.87.41-1.76.78-2.64,1.17-3.23,6.28-4.69,13.13-2.26,20.58.1.38.21.75.32,1.12A14.69,14.69,0,0,0,58.44,147Z"/><path d="M100.27,117.72a44.3,44.3,0,0,1-12.89-10.86,52.88,52.88,0,0,0-12.29-3.4,147.11,147.11,0,0,1-16.61,10.8q-4.74,2.58-9.64,4.82c1.59,6.23,4.94,12,9.3,17.44a54.79,54.79,0,0,0,9.17,7.75h.12c1.94-.65,5.07-.59,6.64-1.82,1.31-1,1.76-2.89,3.31-3.94a14.25,14.25,0,0,1,8.42-2c5.81.24,9.68,4,14.47,6.64.54.3,1.13.59,1.73.89l.44.07a23,23,0,0,1,2.32.54c.45-.6.88-1.19,1.29-1.79,5.8-6.75,4.16-15.68-1-22.85A40,40,0,0,1,100.27,117.72Z"/><path d="M99,113.56a50.8,50.8,0,0,0-11.66-6.7,44.3,44.3,0,0,0,12.89,10.86,40.14,40.14,0,0,0,4.81,2.2A31.68,31.68,0,0,0,99,113.56Z"/><path d="M75.09,103.46a52.88,52.88,0,0,1,12.29,3.4,55.5,55.5,0,0,1-5.71-8.62Q78.46,100.94,75.09,103.46Z"/><path d="M111,196.63c5.09,1.19,4.62-5.21,6.35-8-1,.07-1.92.11-2.9.11a10.64,10.64,0,0,1-1.53,3.27,33.42,33.42,0,0,1-3.37,4.48A5.45,5.45,0,0,1,111,196.63Z"/><path d="M190,177.28a4.88,4.88,0,0,1-4.88-.37,5,5,0,0,1-1.09-.21c1.19,1.36,4,1.43,6.51,1.69Z"/><path d="M113.53,158.92l-.26-1.88c-.16-1.46-.28-2.92-.37-4.39-1,.28-1.9.53-2.86.74.41,3.61-1,6.47-3.1,9a18.69,18.69,0,0,0,5.48-1.51C113.7,160.18,113.72,160.31,113.53,158.92Z"/><path d="M99,113.56a50.49,50.49,0,0,0-11.13-6.46,1.54,1.54,0,0,1-.17.19,44.31,44.31,0,0,0,12.53,10.43,42.2,42.2,0,0,0,4.79,2.19A31.79,31.79,0,0,0,99,113.56Z"/><path d="M87.74,107.29q-2.05,2.37-4.26,4.62a29.46,29.46,0,0,0-3.18,3.78c10.24,1.88,20.76,5.36,28.31,11a26.45,26.45,0,0,0-3.55-6.73,42.2,42.2,0,0,1-4.79-2.19A44.35,44.35,0,0,1,87.74,107.29Z"/><path d="M113.27,87.15a.57.57,0,0,0-.46.49l-.66.09a66.76,66.76,0,0,0-10.68,6.55c2.58,1.76,5.2,3.44,7.9,5A24,24,0,0,1,113.27,87.15Z"/><path d="M109.33,100.32V99.25c-2.7-1.53-5.32-3.21-7.9-5-1,.76-2,1.54-3,2.35a95.41,95.41,0,0,0-7.92,7.26c-.87,1.09-1.77,2.16-2.69,3.21A51,51,0,0,1,99,113.56a32,32,0,0,1,6,6.35,39.64,39.64,0,0,0,5.34,1.63q-.57-3.06-1-6.15A92.47,92.47,0,0,1,109.33,100.32Z"/><path d="M108.61,126.64a34.59,34.59,0,0,1,3.61,3c-.72-2.69-1.32-5.41-1.82-8.15a39.64,39.64,0,0,1-5.34-1.63A26.44,26.44,0,0,1,108.61,126.64Z"/><path d="M80.3,115.69c-.09.11-.18.22-.26.34a102,102,0,0,1-13.79,14.31,41.41,41.41,0,0,1-8.7,5.42l.59.76a54.72,54.72,0,0,0,9.16,7.75h.13c1.94-.65,5.07-.59,6.64-1.82,1.31-1,1.76-2.89,3.31-3.94a14.25,14.25,0,0,1,8.42-2c5.81.24,9.68,4,14.47,6.64,1.25.69,2.7,1.34,4.06,2.08.6-.78,1.17-1.58,1.72-2.37,4.08-4.76,4.48-10.59,2.56-16.13C101.06,121.05,90.54,117.57,80.3,115.69Z"/><path d="M113,139a21.18,21.18,0,0,0-.28-7.53c-.17-.59-.32-1.19-.47-1.78a34.59,34.59,0,0,0-3.61-3c1.92,5.54,1.52,11.37-2.56,16.13-.55.79-1.12,1.59-1.72,2.37,2.2,1.21,4.15,2.67,4.59,5a7.14,7.14,0,0,1,1.06,2.73,1.78,1.78,0,0,0,.06.56c1-.21,1.91-.46,2.86-.74A98.44,98.44,0,0,1,113,139Z"/><path d="M43.54,139.48l-1.22.1a4.92,4.92,0,0,1,.68.76A18.57,18.57,0,0,0,44.26,142c-.11-.37-.22-.74-.32-1.12S43.66,139.93,43.54,139.48Z"/><path d="M58.44,147c3.12-.49,5.91-1.72,8.86-2.72a54.72,54.72,0,0,1-9.16-7.75l-.59-.76a42,42,0,0,1-14,3.72c.12.45.25.9.4,1.35s.21.75.32,1.12A14.67,14.67,0,0,0,58.44,147Z"/><path d="M194.44,48.6c-2.52,1.47-6.37.95-7-2.44-.75-3.94-1.89-6.72-5-9.41-.43-.37-.83-.74-1.22-1.12-2.6.39-5.47-1-5.36-4.28a32.11,32.11,0,0,1,.92-5.77,61.5,61.5,0,0,1-.51-9c-2.77.23-5.54.47-8.31.83-7.29,1.21-14.69,2.22-22.08,3.53C134.94,23,123.8,25,113.16,27.84c-2.5.55-5,1.21-7.42,1.95a36.43,36.43,0,0,1,.54,7.52l7.77-1a4,4,0,0,1,4.44,2.34,6.4,6.4,0,0,1,.5,1.25,29.39,29.39,0,0,1,1.09,7.85,3.63,3.63,0,0,1-2.24,3.59,12.19,12.19,0,0,1-3.33,1l-10.1,1.58c-.09,1.08-.18,2.17-.22,3.25-.06,1.32-.65,6-.07,8.51a28.5,28.5,0,0,1,4.71-.14c5.61.18,10.7.86,16.23.82a22.5,22.5,0,0,0,16.25-6.23,30.71,30.71,0,0,0,6.69-10,11.05,11.05,0,0,1,4.27-5.51A7.12,7.12,0,0,1,162,45.8a9.49,9.49,0,0,1,1.71,2.5,45.49,45.49,0,0,1,2,4.31,6.23,6.23,0,0,0,4.85,4.77,16.83,16.83,0,0,0,6.67-.16,45.24,45.24,0,0,0,9.73-3.69c2.47-1.33,5-2.57,7.55-3.71,0-.37.05-.74.07-1.12Z"/><path d="M44.39,124.37c-1.94.84-3.89,1.65-5.87,2.41-2.2.83-4.43,1.59-6.67,2.31A9.63,9.63,0,0,1,33,131.35v.08c1.45,1.3,2.8,2.68,4.12,4.12h3.66a16.77,16.77,0,0,0,2-.12A25.43,25.43,0,0,1,44.39,124.37Z"/><path d="M49.69,122c-1.75.84-3.52,1.64-5.3,2.42a25.32,25.32,0,0,0-1.56,11.07,42.39,42.39,0,0,0,12.35-2.92A44.81,44.81,0,0,1,49.69,122Z"/><path d="M64.61,113.93A112,112,0,0,1,76.32,115c1.88-2.25,3.77-4.48,5.74-6.66.78-.94,1.59-1.77,2.39-2.61a54.32,54.32,0,0,0-5.61-1.59A131.94,131.94,0,0,1,64.61,113.93Z"/><path d="M78.84,104.17a54.32,54.32,0,0,1,5.61,1.59c.38-.4.77-.81,1.14-1.24q-1.34-1.86-2.52-3.83C81.68,101.88,80.28,103,78.84,104.17Z"/><path d="M111,84.13l-4.25-1.32a.55.55,0,0,0-.47,0,3.46,3.46,0,0,1-1.75.92,22.82,22.82,0,0,0-5.93,3c-1.3.94-2.55,1.93-3.78,2.94L98,91.94A64.9,64.9,0,0,1,111,84.13Z"/><path d="M94.84,89.66c-.77.63-1.54,1.27-2.29,1.93-3,2.7-5.51,5.73-8.6,8.35l-.88.75q1.19,2,2.52,3.83c.26-.29.51-.58.76-.89a64.21,64.21,0,0,1,11.71-11.7Z"/><path d="M62.25,115.3q-6.12,3.6-12.56,6.65a44.81,44.81,0,0,0,5.49,10.57l1.56-.67a47.31,47.31,0,0,0,15.67-12.11L76.32,115a112,112,0,0,0-11.71-1.1C63.83,114.39,63.05,114.85,62.25,115.3Z"/><path d="M155.61,14.1a4.61,4.61,0,0,0,.72-.46A13.59,13.59,0,0,1,158,12.28a6.23,6.23,0,0,0,.59-1.44c-.64.22-1.27.42-1.92.61A5,5,0,0,1,155.61,14.1Z"/><path d="M156.33,13.64a4.61,4.61,0,0,1-.72.46,4.8,4.8,0,0,1-.76.8c.89,0,1.79.07,2.69.15-.48-.92,0-1.84.46-2.77A13.59,13.59,0,0,0,156.33,13.64Z"/><path d="M111.6,9.49c-.12-.08-.24-.14-.35-.23h0a4.24,4.24,0,0,1-1.26.58,15.06,15.06,0,0,1,2.49.6A4.18,4.18,0,0,1,111.6,9.49Z"/><path d="M104.59,10.11a3.66,3.66,0,0,0-.55.63,4.08,4.08,0,0,1,1.67-.75,10.51,10.51,0,0,1,1.35-.21,4.57,4.57,0,0,1-1-.47,4.53,4.53,0,0,1-1.12.45A2.89,2.89,0,0,1,104.59,10.11Z"/><path d="M133.3,14.85a11.5,11.5,0,0,1-1.3.26,4,4,0,0,1-1.62,1c5.46-.21,10.7-.81,16-1.11a4.34,4.34,0,0,1-1.35-.89C141.34,13.75,137.17,14.35,133.3,14.85Z"/><path d="M123.19,14.87a4.49,4.49,0,0,1-1.43-1.24,4,4,0,0,1-2.14-1.27,3.78,3.78,0,0,1-.74-.17h-.11a5.06,5.06,0,0,1-2-.39,4.81,4.81,0,0,1-1.86-.46h-.17c3.59,1.64,6.93,4,10.63,4.68-.38-.15-.76-.32-1.12-.49A7.22,7.22,0,0,1,123.19,14.87Z"/><path d="M164.38,7.67a3.78,3.78,0,0,1-1.59,1.48,42.32,42.32,0,0,1-4.2,1.69,6.23,6.23,0,0,1-.59,1.44c2.52-1.76,5.79-3,8.95-4.36H165.7A4.6,4.6,0,0,1,164.38,7.67Z"/><path d="M172.85,8.23c-2-.12-4-.26-5.9-.31-3.16,1.39-6.43,2.6-8.95,4.36-.47.93-.94,1.85-.46,2.77-.9-.08-1.8-.12-2.69-.15a4.38,4.38,0,0,1-2.79,1,20,20,0,0,1-4.87-.59,7.47,7.47,0,0,1-.79-.29c-5.32.3-10.56.9-16,1.11a5.15,5.15,0,0,1-1.6.26h-.32a5.89,5.89,0,0,1-2-.05,6.44,6.44,0,0,1-1.06-.31c-3.7-.68-7-3-10.63-4.68a4.38,4.38,0,0,1-2.24-.88,15.06,15.06,0,0,0-2.49-.6,5,5,0,0,1-2.93-.06,10.51,10.51,0,0,0-1.35.21,4.08,4.08,0,0,0-1.67.75c-1.83,2.61-.86,8-.21,10.57.39,1.55.79,3.14,1.15,4.76a157.49,157.49,0,0,1,18-4.79c12.23-2.48,24.47-4.83,36.91-6.44,4.86-.61,9.58-1.6,14.48-1.85l1.92-.26V11.61A17.05,17.05,0,0,0,172.85,8.23Z"/><path d="M185.84,57.53a31.78,31.78,0,0,1-13.37,3.16A9.67,9.67,0,0,1,163.32,55c-.63-1.44-1.35-2.89-2-4.27a11.07,11.07,0,0,0-2.47-3.55,3,3,0,0,0-2.36-.87,7.43,7.43,0,0,0-2.89,1.16,9,9,0,0,0-2.92,3.88,64.73,64.73,0,0,1-3.06,6.47,24.56,24.56,0,0,1-20.17,12.23,79.51,79.51,0,0,1-12.15-.36c-2.51-.27-5-.44-7.54-.49a4.87,4.87,0,0,1-2.07,6.58,4.38,4.38,0,0,1-1.11.42c-.07.19-.14.38-.23.57.3.16.6.34.9.49a17.32,17.32,0,0,0,4.29,2.12,52.73,52.73,0,0,0,12.65,2.06c2,0,3.74.65,5.63.78a79.53,79.53,0,0,0,15.35-.2,72.1,72.1,0,0,0,31.14-9.35A35.16,35.16,0,0,0,187,61.1a22.26,22.26,0,0,0,2.19-5Z"/><path d="M138.67,112.12a15.53,15.53,0,0,0,11.88-12.56,36.3,36.3,0,0,0,.39-8.71c-.06-1.8,0-1.81-1.87-1.57a4.6,4.6,0,0,0-3.17,1.24,21.07,21.07,0,0,0-4.72,5.94,37.89,37.89,0,0,0-4.07,14.42C136.93,112.35,136.93,112.35,138.67,112.12Z"/><path d="M162.29,94.63a15.72,15.72,0,0,0-6.79-6.83c.45,1.29-.23,2.29-.42,3.3a42.2,42.2,0,0,0,.72,5.25,13.35,13.35,0,0,0,2.53,6.22,35.88,35.88,0,0,0,3.56-7.48,35.88,35.88,0,0,1-3.56,7.48,14.07,14.07,0,0,0,5.36,4.37c.94.32.9.06.81-.52A19.49,19.49,0,0,0,162.29,94.63Z"/><path d="M146.16,86.56a96.4,96.4,0,0,1-17.49.14.39.39,0,0,0,0,.26,72.69,72.69,0,0,0,15,2.51,2.31,2.31,0,0,0,1.72-.58,5.6,5.6,0,0,1,4.88-1.29c.41.1.71-.09.7-.36a1.88,1.88,0,0,1,1.91-1h.54a4,4,0,0,1,3.57.23,1.26,1.26,0,0,0,.87-.11,30.35,30.35,0,0,0,5-3.65A82.43,82.43,0,0,1,146.16,86.56Z"/><path d="M152.61,89.52c.59.24.29.77.67.77a1.08,1.08,0,0,0,.6-.83l-.08-.63a1.9,1.9,0,0,0-1.8-1.44c-.38.1-.74.3-.28.78A6.44,6.44,0,0,1,152.61,89.52Z"/><path d="M117.34,188.64l-.68.05a27.85,27.85,0,0,1-4.7,8.08C116,196.94,115.73,191.23,117.34,188.64Z"/><path d="M119.38,144.72q-1.5-2.08-3.19-4h-.43a81.13,81.13,0,0,0,.52,10.8c1-.38,1.9-.78,2.82-1.23A24.74,24.74,0,0,0,119.38,144.72Z"/><path d="M118.39,172.69a38.22,38.22,0,0,1-.57,12.07,25.67,25.67,0,0,1-1.16,3.93l.68-.05h0c1.38-2.18,3.34-3.33,5.51-4.63,5.46-3.28,13.24-6.36,15.81-12.5a4.85,4.85,0,0,1,4.84-3,12.08,12.08,0,0,1,1.26-.85,3.42,3.42,0,0,1,.43-.21,15,15,0,0,0,1.71-5.27,20.57,20.57,0,0,1-13.29-2.39,31.87,31.87,0,0,1-11-10,54.49,54.49,0,0,0-3.27-5.1,25,25,0,0,1-.28,5.53c-.92.45-1.87.85-2.82,1.23.12,1,.25,2,.4,3S117.7,167.67,118.39,172.69Z"/><path d="M178.2,166.48a4.41,4.41,0,0,1,0-.89,6.91,6.91,0,0,1,.11-.9c-.09-.29-.18-.58-.26-.87A6.63,6.63,0,0,0,178.2,166.48Z"/><path d="M166.91,169.94c.49-.27,2.58-1,2.57-2.41a1.9,1.9,0,0,0-1.41-1.49l-.48-.1c-1.6,2.13-3,3.85-3.81,4.76C164.72,170.43,166.15,170.2,166.91,169.94Z"/><path d="M157.15,104.35a14.23,14.23,0,0,1-2.39-4.5,21.24,21.24,0,0,1-.57-6.55c-.09-.26.29-.8-.1-.75s-.29.48-.29.74a29.84,29.84,0,0,1-.73,5.88,18,18,0,0,1-3.27,8.57,18.62,18.62,0,0,1-11,7c-.54.12-.54,0-.54.54.77.94,1.52,1.9,2.25,2.86A42.61,42.61,0,0,0,157.15,104.35Z"/><path d="M182.77,131.13a13.74,13.74,0,0,1,.21-1.81v-.45a4.82,4.82,0,0,1-.14-1c0-.26,0-.51,0-.77-1.43-4.36-2.92-8.67-4.4-12.71-2.59-7.06-5.07-14.22-8-21.17A64.83,64.83,0,0,0,166,83.84c-.36-.58-.56-.54-1.07-.13a32,32,0,0,1-5,3.82c-.24.24-.34.37.1.73a20.48,20.48,0,0,1,6.38,20.17v.66a1.53,1.53,0,0,1-1.91.55,17.43,17.43,0,0,1-3.11-1.64,14.43,14.43,0,0,1-4.24-3.65,42.62,42.62,0,0,1-16.61,13.74A91.45,91.45,0,0,1,151.94,138c2.87,6.5,5,18.18,1.17,21.83a11.68,11.68,0,0,1-5.45,2.55c.36,1.74.75,3.46,1.21,5.15a3.91,3.91,0,0,1,2.54,2c1.83,3.81,2.38,8,3.8,11.85l.24.24a68,68,0,0,0,2.23-8.55,9.54,9.54,0,0,1,7.63-7,5.83,5.83,0,0,1,2.28,0c5.26-7,13-18.25,13.15-18.71l1.45-8.69a13.38,13.38,0,0,0,.17-2,20.23,20.23,0,0,1,.42-5.15C182.77,131.33,182.77,131.23,182.77,131.13Z"/><path d="M162.87,171.26c0,.32.32.07.91-.56C163.21,170.87,162.81,171.05,162.87,171.26Z"/><path d="M190,177.28a4.88,4.88,0,0,1-4.88-.37,5,5,0,0,1-1.09-.21c1.19,1.36,4,1.43,6.51,1.69Z"/><path d="M146.92,162.53a15.07,15.07,0,0,1-1.72,5.26,5.43,5.43,0,0,1,3.47-.18q-.69-2.55-1.21-5.18Z"/><path d="M138.35,114.38a12.41,12.41,0,0,1-1.82.23c-1.05-.17-1.17-1.93-1.17-2.27a39.56,39.56,0,0,1,3.77-16c.11-.17,3.47-4.7,3.32-4.69s-4-.56-4.3-.55a165.46,165.46,0,0,1-19.56-5.25,2.57,2.57,0,0,0-1.89,0c-1.94,1.16-4.47,10-4.37,10.66-.23,1.36-.4,2.73-.53,4.1a49.17,49.17,0,0,0,19.75,5.84,49.17,49.17,0,0,1-19.75-5.84,53.88,53.88,0,0,0,.42,13,49.49,49.49,0,0,0,1.59,8.63,46.88,46.88,0,0,0,26.92-4.2,1.74,1.74,0,0,0-.47-.38C139.67,116.89,139.54,115.2,138.35,114.38Z"/><path d="M113.81,122.2c3.07,12.17,10.6,32.41,22.8,36.66,1.6,1,8.61,2.28,8.51,1.58a18.63,18.63,0,0,0-1.87-4.41c-.19-.36-.33-.86.22-1.14s.9.14,1.22.48,1.94,5.09,2.64,5c1.3-.35,4-1.92,3.87-3.17.48-1.13-2.15-4.06-2.27-4.33s-.46-.5-.12-.91a.83.83,0,0,1,1-.12c.54.22,1.79,1.88,2.23,1.87,3.1-1-7.53-31.79-11.28-35.71A46.9,46.9,0,0,1,113.81,122.2Z"/><path d="M178.5,102.55c-1-2.5-2.06-4.77-3.16-7.11A54.14,54.14,0,0,0,168.1,83c-.78-.86-.25-1.83.58-2.51s1.5-.69,2.28.51a44.8,44.8,0,0,1,4,8.51A62.14,62.14,0,0,1,178.4,101l.21,1.47Z"/><path d="M136,42.58a5.14,5.14,0,0,0-7-.94,2.91,2.91,0,0,1-.69.57,5.7,5.7,0,0,0,.57,8l.19.15.56.41h0a4.65,4.65,0,0,0,6.24-1.54,6.43,6.43,0,0,0,.83-4.16,3.73,3.73,0,0,1,.09-.67A4.9,4.9,0,0,0,136,42.58Z"/><path d="M169.12,35.69a4.42,4.42,0,0,0-5-1,3.63,3.63,0,0,0-2.57,3.13A6.58,6.58,0,0,0,162.94,43a4.09,4.09,0,0,0,7.32-1.37,5.88,5.88,0,0,0,.24-2.7A5.36,5.36,0,0,0,169.12,35.69Z"/><path d="M134.23,30.49A7.77,7.77,0,0,0,129,29.17a8.25,8.25,0,0,0-4,1.47c-.25.21-.54.25-.54.67a.67.67,0,0,0,.81.45,36.69,36.69,0,0,1,3.61.75,15,15,0,0,0,4.67.52c.56-.13,1.29-.11,1.46-.83A1.65,1.65,0,0,0,134.23,30.49Z"/><path d="M164.91,24.6a6.22,6.22,0,0,0-5.18,2.55,1.45,1.45,0,0,0-.14,1.76,1.33,1.33,0,0,0,1.74-.23A53.47,53.47,0,0,1,166,25.42l1.16-.79A9.41,9.41,0,0,0,164.91,24.6Z"/><path d="M164.74,58.75a.67.67,0,0,0-.69.59,9.71,9.71,0,0,1-.77,1.63c-.82,1.44-2.23,2.82-4.22,1-.38-.32-.41-.58-.15-1.09a24.67,24.67,0,0,0,1.64-3.54,2.62,2.62,0,0,0,.11-2A2.93,2.93,0,0,0,157,53.49l-3.2.7a2.78,2.78,0,0,0-1.53.73h0a2.58,2.58,0,0,0-.14,3.65l.09.09a9.12,9.12,0,0,0,2.05,1.49c.7.43,2,.4,2,1.37s-.9,1.79-1.69,2.45a4.1,4.1,0,0,1-5.5.2,4.61,4.61,0,0,1-1.08-1.7c-.15-.25-.24-.46-.59-.46a.69.69,0,0,0-.41.63,2.67,2.67,0,0,0,.25,1.84,5.59,5.59,0,0,0,7.48,1.7,6.38,6.38,0,0,0,2.44-2.34c.3-.49.43-.45.81-.1a3.65,3.65,0,0,0,4.7.73,6,6,0,0,0,2.76-5A.76.76,0,0,0,164.74,58.75Z"/><path d="M130.7,44.65a1.65,1.65,0,0,0-1.91-1.29,1.77,1.77,0,0,0-1.54,2v0a1.8,1.8,0,0,0,2,1.48,1.75,1.75,0,0,0,1.53-1.94Z"/><path d="M163.91,37.18a1.62,1.62,0,1,0,0,3.24h.19a1.72,1.72,0,0,0,1.57-1.86v-.1A1.67,1.67,0,0,0,163.91,37.18Z"/><path d="M117.35,47.1a25.17,25.17,0,0,0-.58-4.23,10,10,0,0,0-1-3.19,2.17,2.17,0,0,0-2.27-1.17l-7.37.93c-.08.8-.16,1.61-.25,2.41a5.5,5.5,0,0,1,.9,1.71,3.47,3.47,0,0,1,0,1.81,3.31,3.31,0,0,1-.59,1.68A3.48,3.48,0,0,1,105,48.27c-.13,1-.26,2-.38,3a81.59,81.59,0,0,1,9.06-1.4,10.1,10.1,0,0,0,2.1-.53,1.91,1.91,0,0,0,1.58-2.19Z"/><path d="M106.77,43.56a3.47,3.47,0,0,1,0,1.81,3.31,3.31,0,0,1-.59,1.68A3.53,3.53,0,0,1,105,48.27c0,.35-.09.69-.14,1a3.77,3.77,0,0,0,3-4.24,2.3,2.3,0,0,0-.19-.68V44.2a3.57,3.57,0,0,0-1.51-2A5.2,5.2,0,0,1,106.77,43.56Z"/></g><path class="cls-12" d="M178.74,102c-1.07-2.38-1.8-5.7-2.91-7.88a55.33,55.33,0,0,0-7.05-11.53,1.68,1.68,0,0,1,.24-2.35l.07,0c.65-.66,1.22-.74,2,.37a47.1,47.1,0,0,1,4.11,7.91,67.38,67.38,0,0,1,3.73,10.87l.37,2A1,1,0,0,1,178.74,102Z"/><path class="cls-13" d="M109.52,84.42a4.4,4.4,0,0,0-3.76,1.23c-1.36,1.34-7.71,6.76-9.49,8.28-3,2.26-5.72,4.74-8.63,7.21a39.83,39.83,0,0,1-14.7,8.44,30.57,30.57,0,0,1-12.45.63,117.13,117.13,0,0,1-16.44-3.75L38.81,105a.86.86,0,0,1-.59-.33l2.8.13A120.87,120.87,0,0,0,80.22,97a94.85,94.85,0,0,0,18.12-8.89c2.68-1.57,5.07-3.67,7.75-5.35a39.37,39.37,0,0,1,6.37-3.41,10.41,10.41,0,0,1,3.53-.74l-1,.85C113.19,80.78,109.52,84.42,109.52,84.42Z"/><path class="cls-18" d="M151.3,86.46c.28.21,0,.63.27.63s.59-.66.59-.66V86l.2-.15a1,1,0,0,0-1-1c-.32,0-.62.15-.32.59Z"/><path class="cls-11" d="M147.16,83.14a68.33,68.33,0,0,1-13.58-1.88.24.24,0,0,0,0,.23,53.6,53.6,0,0,0,11.36,3.86,1.7,1.7,0,0,0,1.4-.29,4.11,4.11,0,0,1,3.95-.51c.31.14.58,0,.59-.22a1.44,1.44,0,0,1,1.6-.6h.43a3,3,0,0,1,2.78.61.89.89,0,0,0,.68,0,24.15,24.15,0,0,0,4.32-2.5A59.19,59.19,0,0,1,147.16,83.14Z"/><path class="cls-14" d="M121,80.94c-1.81,3.88-8.52,29.66-7.62,56.88-10.86,8.15-15.53-5.6-22.24-6.29a9.06,9.06,0,0,0-5.21-.09,23.92,23.92,0,0,0-11.25,5.49,63.44,63.44,0,0,1-6.5,5.16,9.41,9.41,0,0,1-9.59.56,27,27,0,0,1-9.53-8,108.06,108.06,0,0,0-7.57-8.71,26.64,26.64,0,0,0-11.41-7.12,21.12,21.12,0,0,0-8.45-.45A52,52,0,0,0,7,122.43l-2.25,1.1,1-1.43a35.29,35.29,0,0,1,13.51-12.58A23.87,23.87,0,0,1,33.54,107a111.73,111.73,0,0,1,15.38,3A82.32,82.32,0,0,0,63,112.86a27,27,0,0,0,18.3-4.65,72.52,72.52,0,0,0,11-9.63c4-3.75,20.06-15.82,25.48-18.66C120.43,78.14,121.49,79.07,121,80.94Z"/></svg>