<svg id="Layer_1" data-name="Layer 1" xmlns="http://www.w3.org/2000/svg" viewBox="0 0 222.08 228.06"><defs><style>.cls-1{fill:#b62028;}.cls-2{fill:#00b390;}.cls-3{fill:#ca3940;}.cls-4{fill:#fefefe;}.cls-5{fill:#fff;}.cls-6{fill:#ca3c41;}.cls-7{fill:#b52028;}.cls-8{fill:#c2383d;}.cls-9{fill:#020403;}.cls-10{fill:#010101;}.cls-11{fill:#fdfdfd;}.cls-12{fill:#fcfcfc;}.cls-13{fill:#f6ed58;}.cls-14{fill:#fbee59;}.cls-15{fill:#010100;}.cls-16{stroke:#000;stroke-linecap:round;stroke-linejoin:round;stroke-width:0.98px;}</style></defs><title>Kitten béo 110x113</title><path d="M129.46,164.38a13.87,13.87,0,0,1-15.8-.62c-1.76-1.14-3.22-2.59-4.82-3.78a9.84,9.84,0,0,0-7-2.15A26.36,26.36,0,0,0,87.41,164a81.07,81.07,0,0,1-8,6.15,14.15,14.15,0,0,1-14.72.53A35.92,35.92,0,0,1,53,161a85.87,85.87,0,0,0-11.58-11.69,24.52,24.52,0,0,0-19.3-5.52,72.35,72.35,0,0,0-21,5.86c-.28,0-.65.31-1,0s0-.68,0-1,.23-.48.37-.72A44.13,44.13,0,0,1,14.4,130.4a31.1,31.1,0,0,1,12.21-5.47,44.5,44.5,0,0,1,7.72-.77,178.43,178.43,0,0,0,24.29-2.42,131.53,131.53,0,0,0,30.09-8.59A123.37,123.37,0,0,0,113.8,98.62a117.84,117.84,0,0,1,9.65-6.94,24.79,24.79,0,0,1,6.94-3.08,2.49,2.49,0,0,0-.71-.77,29.28,29.28,0,0,1-10.52-13.2,37.9,37.9,0,0,1-2.32-14.52,81.88,81.88,0,0,1,3-20.18,3.33,3.33,0,0,0,0-1.6,169,169,0,0,1-4.27-25.9,18,18,0,0,1,.43-5.9,6,6,0,0,1,6.32-4.84,23.58,23.58,0,0,1,10.35,3c3.38,1.76,6.6,3.82,10,5.67,1,.45,1.93.84,3,1.23a1.13,1.13,0,0,0,.81,0A53.41,53.41,0,0,1,164.77,8.5a38.63,38.63,0,0,1,13.13,2.42,1,1,0,0,0,1.16-.6,37.41,37.41,0,0,1,11-8.4A15.91,15.91,0,0,1,194.23.17,6.71,6.71,0,0,1,202,4.64a23.61,23.61,0,0,1,1.69,8.4,43.55,43.55,0,0,1-1.36,14.38c-.38,1.3-.65,2.63-1,4a.8.8,0,0,0,0,.82,2.16,2.16,0,0,1,0,.36,5,5,0,0,0,3.91,3.42A7.21,7.21,0,0,1,210,40.6a45.67,45.67,0,0,1,3.24,8.6,27,27,0,0,0,3,7.26,3.88,3.88,0,0,0,1,1.33,1.61,1.61,0,0,1,.52,2.11h0a3.92,3.92,0,0,1-.8,1l-.89.82,2.1,2.73A9.59,9.59,0,0,1,220,68.87c0,.63,0,1.21-.69,1.31a53.45,53.45,0,0,0-8.81,2.73,3.38,3.38,0,0,0-2.31,2.42,26.47,26.47,0,0,1-10.62,14.12c-3.11,1.83-1.87,2.19-5.19,3.58,12.66,19,21.4,47.64,9.36,85.91-2.7,6.87.92,16.69,1.81,20.55.53,2.2,1.61,5.58,3.37,5.41l3.85.59a4.73,4.73,0,0,1,4.64,4.82v0a8.81,8.81,0,0,1-1.23,3.53,17.62,17.62,0,0,1-5.23,5.23c-2.76,1.75-5.37,3.7-8.25,5.17a12,12,0,0,1-5.56,1.56,8.78,8.78,0,0,1-6.2-2.89,52.69,52.69,0,0,1-15.1-22.35,107.74,107.74,0,0,1-5.51-19.25V180h0a54.5,54.5,0,0,1-34.49,35.68l.46.59a6.09,6.09,0,0,1-.24,8.35,5.51,5.51,0,0,1-4.67,1.55,15.67,15.67,0,0,1-9.26-4.34,22.26,22.26,0,0,1-7.67-12.32,13.7,13.7,0,0,1,0-6.43,4.81,4.81,0,0,1,2.32-3.46c3.74-2.93,15.26-12.39,15.26-26.48C130,170.11,129.59,167.3,129.46,164.38Z"/><path class="cls-1" d="M137.78,95a23.25,23.25,0,0,0-4.83,11.5,91.54,91.54,0,0,0-1.6,13.72,101.33,101.33,0,0,0,.86,15c.17,2.32-1,4.66-1.59,6.9a93.39,93.39,0,0,0-1.33,16l-.14,2.2c0,1.29-.45,1.19-1.61,1.67-5.11,1.66-9.66.47-13.74-3.16a36.28,36.28,0,0,0-5.1-3.54,11.78,11.78,0,0,0-6.68-.82,28.78,28.78,0,0,0-12.8,4.84c-2.75,1.86-5.23,4.14-7.9,6.19A20.51,20.51,0,0,1,75.2,169a11.8,11.8,0,0,1-8.42-.72,30.86,30.86,0,0,1-11.58-8.94,121,121,0,0,0-9.26-9.68A31.46,31.46,0,0,0,32,141.93,30,30,0,0,0,22,141.51a61.72,61.72,0,0,0-17.37,4.84l-2.41,1.14,1.93-2.92a41.28,41.28,0,0,1,15.19-13.68,30.82,30.82,0,0,1,17.21-3,124.46,124.46,0,0,1,18.34,3.34,100.12,100.12,0,0,0,16.9,3,33.62,33.62,0,0,0,21.64-5.55,89.72,89.72,0,0,0,13.2-11.38,25.86,25.86,0,0,1,3.36-3.34,93.5,93.5,0,0,0,6.94-6.43,81.66,81.66,0,0,1,7.48-5.67,54.83,54.83,0,0,1,12.46-6.46h.56A.5.5,0,0,1,137.78,95Z"/><path class="cls-2" d="M126,75.82A10.84,10.84,0,0,1,127.31,73a11.48,11.48,0,0,0,.76-2.08,2,2,0,0,0-.9-2.54h0a1.3,1.3,0,0,0-.73,0h-1.39a13,13,0,0,0,1.47-4.16c0-.44.38-.39.7-.44h5.67l9.94-.24a9.9,9.9,0,0,0,2.9-.48A3.27,3.27,0,0,0,148,60a29.39,29.39,0,0,0,0-7.26,5.59,5.59,0,0,0-.28-1.21,3.38,3.38,0,0,0-3.45-2.64H128.87c-1,0-1,0-.74-.94a5.93,5.93,0,0,1,4.64-4.84,81,81,0,0,1,11.76-2c9.26-1.28,18.83-1.81,28.23-2.42,6.34-.29,12.67-.38,19-.62,4.13,0,8.23.33,12.35.52a3.06,3.06,0,0,1,2.66,1.82,48.19,48.19,0,0,1,3.86,9.9,26.94,26.94,0,0,0,3.17,7.77A6.84,6.84,0,0,0,215.41,60c.32.34.36.64,0,.92l-.6.58c-.84.68-.89.78-.28,1.72s1.75,2.42,2.57,3.8,1,1.43-.63,1.76A90.62,90.62,0,0,0,203.38,73a36.11,36.11,0,0,1-8.58,2.21,13.19,13.19,0,0,1-5.61-.64,5.57,5.57,0,0,1-3.49-4.84c-.32-1.4-.7-2.78-1.14-4.13a8.45,8.45,0,0,0-1.16-2.42,5.73,5.73,0,0,0-8-2.21,9.87,9.87,0,0,0-4.22,4.51,28,28,0,0,1-6.75,8.25,18.05,18.05,0,0,1-14.36,3.75c-4.63-.63-8.82-1.82-13.51-2.63a22.25,22.25,0,0,0-8.83,0A17.9,17.9,0,0,0,126,75.82Z"/><path class="cls-3" d="M45.94,125.65h2.89a121.93,121.93,0,0,0,21.71-3.44,135,135,0,0,0,21.23-7.69,109.49,109.49,0,0,0,20-11.41c2.9-2,5.38-4.48,8.17-6.57a67.13,67.13,0,0,1,5.66-3.71,18.33,18.33,0,0,1,5.33-2,2.81,2.81,0,0,0,1.57-.63.39.39,0,0,1,.39,0l3.41,1.7h0a54.88,54.88,0,0,0-23,14.9c-1.34,1.41-2.76,2.42-4.15,3.8-3.21,3-6.25,6-9.39,9.15A40.29,40.29,0,0,1,85.21,129a33,33,0,0,1-13.78,1.5A136.54,136.54,0,0,1,53.1,127l-6-1.3Z"/><path class="cls-4" d="M121.33,49.37a11.05,11.05,0,0,1,.42-2.42c.41-2,.71-3.92,1.22-5.91a6.54,6.54,0,0,0,0-3.77,66.9,66.9,0,0,1-1.69-8.43,125.8,125.8,0,0,1-2.48-17.62,14.12,14.12,0,0,1,.42-4.84A3,3,0,0,1,122.46,4a17.66,17.66,0,0,1,6.63,1.77c3.36,1.5,6.37,3.56,9.58,5.32a48.43,48.43,0,0,0,5.89,3.27,1.08,1.08,0,0,0,1,0,64.93,64.93,0,0,1,8-2.42c.81,0,1.05,0,1.18.83.51,2.54,1.11,5.13,1.65,7.67a6.52,6.52,0,0,0,1.11,2.83,2.65,2.65,0,0,0,3.85.29h0l.43-.58a3.53,3.53,0,0,0,.66-2.25A20.1,20.1,0,0,0,161,13.42l-.87-2.1c-.28-.72,0-.48.37-.58a1.24,1.24,0,0,1,1.55.78h0a34.09,34.09,0,0,1,2.11,7.91c.16,1.21.38,2.41.65,3.6a3.42,3.42,0,0,0,3.68,3.08h0a4,4,0,0,0,3.41-3.8,18.81,18.81,0,0,0-1.15-6.9,22.47,22.47,0,0,0-1.93-4.57,1.59,1.59,0,0,1,1.87,1,30.72,30.72,0,0,1,2.2,6.63,19.28,19.28,0,0,0,1,3.25,2.51,2.51,0,0,0,2.68,1.7c1.18,0,1.77-.88,1.93-2.43a11.27,11.27,0,0,0-.79-4.84c-.42-1.24-.9-2.42-1.32-3.78,6.46.66,19.73,13.24,23.55,22.42h-2.32c-4.14-.34-8.22,0-12.36,0-10.61,0-21.12.66-31.69,1.52a126.46,126.46,0,0,0-21.14,3.46,9.55,9.55,0,0,0-7.32,8.43c0,.8-.35,1.13-1.18,1a5.23,5.23,0,0,0-1.25,0A7.1,7.1,0,0,0,121.33,49.37Z"/><path class="cls-4" d="M125.73,78.83a14.44,14.44,0,0,1,7-1.14,72.35,72.35,0,0,1,8.85,1.71,60.25,60.25,0,0,0,10.14,1.75A20.34,20.34,0,0,0,170,72.41a54.82,54.82,0,0,0,3.31-5.52,8.21,8.21,0,0,1,2.9-3.17,5.94,5.94,0,0,1,2.57-.72,2.48,2.48,0,0,1,1.87,1.06,10.72,10.72,0,0,1,1.67,3.51c.35,1.34.76,2.74,1.14,4.12a8.25,8.25,0,0,0,7.06,6.19,25,25,0,0,0,11.58-1.3l2.94-1a21.23,21.23,0,0,1-2.43,4.31A30.05,30.05,0,0,1,190.7,89a57,57,0,0,1-27.21,4.84,61.71,61.71,0,0,1-12.9-1.61c-1.57-.34-2.94-1.12-4.63-1.36a42,42,0,0,1-10.38-3.36,14,14,0,0,1-3.33-2.42A35.18,35.18,0,0,1,125.73,78.83Z"/><path class="cls-4" d="M199.36,28.65l-1.61-2.42c-.23-.29,0-.54,0-.87a41.82,41.82,0,0,0,1.09-4.84,22.55,22.55,0,0,0-.4-8.62,5.08,5.08,0,0,0-.66-1.72,3.68,3.68,0,0,0-4.64-1.84,16.89,16.89,0,0,0-7.39,4.84.94.94,0,0,1-1.33.3h0c-1.11-.69-2.31-1.33-3.59-2,1.93-1.62,3.86-3.35,5.93-4.84a24.68,24.68,0,0,1,7.34-3.89,4,4,0,0,1,5.33,2.2h0a2.58,2.58,0,0,1,0,.68,26.32,26.32,0,0,1,1.22,6.3,57.17,57.17,0,0,1-1.16,15.93A2.55,2.55,0,0,0,199.36,28.65Z"/><path class="cls-4" d="M124,75.72a30.21,30.21,0,0,1-3.18-13,3.3,3.3,0,0,0,3,1c.38,0,.23.35.23.54a21,21,0,0,1-1,4.84,1.42,1.42,0,0,0,0,.91c0,.61.46.85,1.11.61a7.3,7.3,0,0,1,1.87-.55c.56,0,.65,0,.42.6A15.84,15.84,0,0,0,124,75.72Z"/><path class="cls-5" d="M128,214.42a2.57,2.57,0,0,1,1.24-3c2-1.34,4-2.4,6.13-3.62,5.83-3.29,11.67-6.38,17.54-10l1.22-.92c0,.39-.32.53-.51.77a54.42,54.42,0,0,1-19.28,14.31,22.4,22.4,0,0,0-2.92,1.6,1.42,1.42,0,0,0-.78,1.06C130.64,215.17,128.58,215.83,128,214.42Z"/><path class="cls-6" d="M167.55,101.09h0c1.59,0,1.54,0,1.39,1.65a35.43,35.43,0,0,1-1.34,7.86,13.59,13.59,0,0,1-11.41,10c-1.49,0-1.49,0-1.16-1.33a36.23,36.23,0,0,1,5.08-12.62,18.92,18.92,0,0,1,4.64-4.84A3.76,3.76,0,0,1,167.55,101.09Z"/><path class="cls-6" d="M173.07,100.49a14.19,14.19,0,0,1,5,7,19,19,0,0,1,.5,11c0,.53,0,.78-.75.38a12.76,12.76,0,0,1-5.37-10.55,39.08,39.08,0,0,1,0-4.84C172.66,102.55,173.34,101.72,173.07,100.49Z"/><path class="cls-7" d="M179.91,96.74a25.21,25.21,0,0,1-4.64,2.73,1,1,0,0,1-.74,0,3.25,3.25,0,0,0-3-.62h-.46a1.55,1.55,0,0,0-1.72.67c0,.24-.3.38-.63.24a4.48,4.48,0,0,0-4.24.58,1.83,1.83,0,0,1-1.5.32,58.26,58.26,0,0,1-12.3-4,.25.25,0,0,1,0-.24,76.4,76.4,0,0,0,14.68,1.86A64.44,64.44,0,0,0,179.91,96.74Z"/><path class="cls-8" d="M171.57,101.24v.58a1,1,0,0,1-.61.68c-.32,0,0-.49-.46-.78a6.15,6.15,0,0,0-.6-1.33c-.33-.49,0-.63.32-.68A1.68,1.68,0,0,1,171.57,101.24Z"/><path class="cls-5" d="M173.07,176.49c.44-.2,2.32-.63,2.47-1.89a1.7,1.7,0,0,0-1-1.52,4.39,4.39,0,0,0-2.31-.39,8.26,8.26,0,0,0-7.25,5.52,67.38,67.38,0,0,1-4.22,10.38,45.11,45.11,0,0,1-5.64,8.21c-6.22,8.62-21.09,16.31-23.61,17.52-.41.31-1.15.85-.69,1.77a1,1,0,0,0,1.09.43,9.6,9.6,0,0,1,.67,4.41,1.86,1.86,0,0,1-.55.87l-.84-2c0-.26-1-1.67-1.56-1.35s0,.77,0,1.11a12.44,12.44,0,0,1,1.24,3.46c0,.58-.7.56-1.39.41a11,11,0,0,1-3.51-1.21,21.79,21.79,0,0,1-8.05-6.92c-5.8-8.91-2.76-14-1.95-14.52a9.36,9.36,0,0,1,2.31-1.85,32.5,32.5,0,0,0,11.87-14.52,38.89,38.89,0,0,0,2.08-10.89c-.58-13-.56-30.1,1-34.09.11-.8.86-.75,1.18.14a42.9,42.9,0,0,0,4,13.69,28.3,28.3,0,0,0,8,10.37c4.63,3.91,12.12,5.1,16.21,2,3.62-2.88,3.23-13.77,1.56-20a87.45,87.45,0,0,0-8.85-22.34h0c0-.48,0-.38.51-.43a15.38,15.38,0,0,0,10-5,17.25,17.25,0,0,0,3.76-7.43,29.81,29.81,0,0,0,1.29-5.27c0-.24,0-.64.33-.64s0,.45,0,.69a20.81,20.81,0,0,0-.28,6,13.22,13.22,0,0,0,4.63,8.21,14.44,14.44,0,0,0,2.43,1.85,1.22,1.22,0,0,0,1.67-.28v-.44a19.87,19.87,0,0,0,.44-12.27,19,19,0,0,0-3.38-6.68c-.33-.38-.23-.49,0-.68a25.63,25.63,0,0,0,4.63-2.83c.46-.31,6.34-2.74,6.57-2.19,7.26-2.18,25.32,41,12.05,79.56-2,3.5-1,14.5-.59,18.47.46,2.09,2,9.39,2.56,11.13a5,5,0,0,0,3.53,3.34,29.44,29.44,0,0,1,5.56,1,1.53,1.53,0,0,1,1,1.73c.07.67-.68,2-1.45,2a8.94,8.94,0,0,0-4.58-1.53c-1.19.14-1.93.85-1.89,1.33.45,1.62,1.63-1.28,4.34.94,0,3-11.27,11-14.83,8.86a13.47,13.47,0,0,1-4.33-2.62,73.53,73.53,0,0,1-5.64-6.32c-6-6.71-14.75-33.41-14.17-36.49C169.45,176.69,172,176.73,173.07,176.49Z"/><path class="cls-5" d="M162.56,159.94c-.38,0-1.23-1.7-1.65-2a.68.68,0,0,0-.83,0c-.33.34-.12.59,0,.85S162,162,161.48,163c0,1.11-2.51,2.25-3.65,2.42-.6,0-1.41-4.5-1.69-4.85s-.46-.76-1-.57-.43.65-.32,1a18,18,0,0,1,1.07,4.21c0,.66-5.73-1.35-6.95-2.42-13-7.06-15.73-39-15.22-44a53.09,53.09,0,0,1,2.07-15.51c0-.6,3.14-8.33,4.9-9.15a2,2,0,0,1,1.58.22,135.28,135.28,0,0,0,15.88,7c.24,0,3.41,1,3.55,1s-3.22,3.73-3.33,3.87a38.44,38.44,0,0,0-5,14.12c0,.31-.14,1.93.72,2.2a8.13,8.13,0,0,0,1.56,0c.89.89.83,2.43,1.22,3.17C159.43,127.46,165.4,159.37,162.56,159.94Z"/><path class="cls-9" d="M210,63.29a9.32,9.32,0,0,1-.46,4.32A3.59,3.59,0,0,1,208,69.39h-.43v-.54a42.77,42.77,0,0,0,0-6.6,73,73,0,0,0-4-21.18c0-.48,0-.64.41-.52A3.37,3.37,0,0,1,206.63,43a62,62,0,0,1,2.94,12.27A58.66,58.66,0,0,1,210,63.29Z"/><path d="M162.29,59.56a6.32,6.32,0,0,1-1.17,3.68,3.75,3.75,0,0,1-5.42.66l0,0-.43-.43a5.52,5.52,0,0,1,.31-7.52h0a2,2,0,0,0,.65-.44,4.17,4.17,0,0,1,5.72,1.67,4.78,4.78,0,0,1,.5,1.79A3.5,3.5,0,0,0,162.29,59.56Z"/><path d="M191.34,57.89a6.07,6.07,0,0,1-.51,2.42,3.39,3.39,0,0,1-4.36,2.21,3.47,3.47,0,0,1-2-1.82,6.42,6.42,0,0,1-.55-4.84,3.2,3.2,0,0,1,2.52-2.54,3.53,3.53,0,0,1,4,1.47A5.13,5.13,0,0,1,191.34,57.89Z"/><path d="M157.66,44.19A6.3,6.3,0,0,1,161.83,46a1.56,1.56,0,0,1,.46,1.66c-.23.62-.83.52-1.31.57a11.61,11.61,0,0,1-3.86-1c-1-.38-1.93-.82-2.94-1.11a.56.56,0,0,1-.63-.5h0c0-.38.3-.38.53-.53A6.56,6.56,0,0,1,157.66,44.19Z"/><path class="cls-10" d="M190.21,44.53l-1.07.58a42.24,42.24,0,0,0-4.3,2.42,1.06,1.06,0,0,1-1.49,0,1.41,1.41,0,0,1,.33-1.58,5.05,5.05,0,0,1,4.63-1.69A7.64,7.64,0,0,1,190.21,44.53Z"/><path d="M126.93,10.74a8.93,8.93,0,0,1,3.94,1,24.43,24.43,0,0,1,2.71,1.35c1.78,1,3.54,2.16,5.42,3.1a3.68,3.68,0,0,1,2.1,4.57.74.74,0,0,1,0,.21,3,3,0,0,1-1,1.49c-2.32,2.68-4.63,5.27-6.95,7.91a10.46,10.46,0,0,1-2.71,2.3,4.63,4.63,0,0,1-1.55.58,3,3,0,0,1-3.41-2.2,33.33,33.33,0,0,1-1.11-5.25A64,64,0,0,1,123.16,17a8.92,8.92,0,0,1,0-2.73,3.32,3.32,0,0,1,3.3-3.36h0Z"/><path d="M178.35,69.53a2.48,2.48,0,0,1,2.85,2.12h0a2.45,2.45,0,0,1-.33,1.81,21.86,21.86,0,0,1-1.78,3c-.27.43-.27.67,0,1h0c1.46,1.86,2.8.77,3.66-.44a8,8,0,0,0,.83-1.38.59.59,0,0,1,.66-.46h0a.66.66,0,0,1,.46.68,5.49,5.49,0,0,1-2.89,4.31A2.94,2.94,0,0,1,178,79c-.28-.36-.38-.41-.7,0a5.59,5.59,0,0,1-2.31,1.84,4.55,4.55,0,0,1-6.07-2.42h0a2.61,2.61,0,0,1,0-1.7.62.62,0,0,1,.41-.52c.3,0,.35.24.45.48a4.35,4.35,0,0,0,.74,1.69,3.27,3.27,0,0,0,4.63.46c.73-.51,1.62-1.14,1.71-2s-1-1-1.53-1.48a7.54,7.54,0,0,1-1.55-1.59,2.5,2.5,0,0,1,.5-3.38h0a2.26,2.26,0,0,1,1.36-.49Z"/><path class="cls-11" d="M157.36,58.64a1.53,1.53,0,0,1-1.5,1.57h0a1.56,1.56,0,0,1-1.53-1.57h0a1.58,1.58,0,0,1,1.53-1.59h0a1.41,1.41,0,0,1,1.45,1.4v0h0Z"/><path class="cls-12" d="M187.32,57a1.53,1.53,0,0,1-1.54,1.5h0a1.46,1.46,0,0,1-1.29-1.61A1.44,1.44,0,0,1,186,55.54a1.47,1.47,0,0,1,1.3,1.35Z"/><path class="cls-13" d="M133.49,61.52h-8.11a12.2,12.2,0,0,1-2.95-.34,1.41,1.41,0,0,1-1.13-1.4,32.93,32.93,0,0,1,0-6.12,2,2,0,0,1,1.78-2.09h0c4.33-.41,8.83-.6,13-.7h7.48a1.86,1.86,0,0,1,1.76,1.34,9.64,9.64,0,0,1,.48,3,25.39,25.39,0,0,1,0,3.9A1.72,1.72,0,0,1,144.26,61h0a8,8,0,0,1-1.82.24A63.65,63.65,0,0,0,133.49,61.52Z"/><path class="cls-14" d="M196.44,24.27a1.76,1.76,0,0,1-.7-.6,36.35,36.35,0,0,0-9.26-8.8c-.42-.28-.55-.43,0-.86a23.51,23.51,0,0,1,5.32-3.78L193,9.7a2.26,2.26,0,0,1,3.13,1h0v.09a2,2,0,0,1,0,.92A20.83,20.83,0,0,1,197.32,20,23,23,0,0,0,196.44,24.27Z"/><path class="cls-14" d="M124.59,16.31a6.56,6.56,0,0,1,0-2.42,1.66,1.66,0,0,1,1.75-1.56h.22a10.16,10.16,0,0,1,3.64,1.09c2.32,1.07,4.28,2.42,6.53,3.66.61.33,1.23.58,1.88.87a1.21,1.21,0,0,1,.75,1.49h0a3.27,3.27,0,0,1-1,2,80.24,80.24,0,0,0-6.51,7.26,10.16,10.16,0,0,1-2.32,2c-1.52,1-2.75.52-3.17-1.29-.7-3.6-1.39-7.06-1.83-10.77A9.41,9.41,0,0,0,124.59,16.31Z"/><path class="cls-15" d="M138.12,56.15A3.36,3.36,0,0,1,135,59.68h-.48a3.43,3.43,0,0,1-3.76-3.12,3.52,3.52,0,0,1,3-3.94h.78a3.15,3.15,0,0,1,3.56,2.74h0v.09A2.76,2.76,0,0,1,138.12,56.15Z"/><path class="cls-2" d="M134.5,54.26a1.72,1.72,0,0,1,1.93,1.5v0h0a.81.81,0,0,1,0,.38A1.89,1.89,0,0,1,134.5,58h0a1.85,1.85,0,0,1-1.75-1.91h0a1.81,1.81,0,0,1,1.75-1.79Z"/><path class="cls-16" d="M195.37,90.76c4.88,5.76,9.46,17.88,10,28.07-.08,1.45-.42,2.26-1,2.52l-14.15-27Z"/><path class="cls-5" d="M202.48,114.62c-.94-2.3-1.84-4.33-2.83-6.44A50,50,0,0,0,193.28,97c-.67-.77-.25-1.67.44-2.27s1.26-.67,1.94.41a42,42,0,0,1,3.65,7.66,61.25,61.25,0,0,1,3.1,10.48l.2,1.34Z"/></svg>