<svg id="Layer_1" data-name="Layer 1" xmlns="http://www.w3.org/2000/svg" viewBox="0 0 250 323.53"><defs><style>.cls-1{fill:#b62028;}.cls-2{fill:#00b390;}.cls-3{fill:#ca3940;}.cls-4{fill:#fefefe;}.cls-5{fill:#62ff35;}.cls-6{fill:#ca3c41;}.cls-7{fill:#b52028;}.cls-8{fill:#c2383d;}.cls-9{fill:#fff;}.cls-10{fill:#020403;}.cls-11{fill:#010101;}.cls-12{fill:#fdfdfd;}.cls-13{fill:#fcfcfc;}.cls-14{fill:#f6ed58;}.cls-15{fill:#fbee59;}.cls-16{fill:#010100;}</style></defs><title>Kitten 3-01</title><path d="M143.23,213.41a14.9,14.9,0,0,1-16.37-.62c-1.82-1.13-3.34-2.57-5-3.75a10.52,10.52,0,0,0-7.2-2.13,27.94,27.94,0,0,0-15,6.12,84.71,84.71,0,0,1-8.24,6.1,15.25,15.25,0,0,1-15.26.52,36.79,36.79,0,0,1-12.2-9.6,88.26,88.26,0,0,0-12-11.59,26.25,26.25,0,0,0-20-5.47,77.73,77.73,0,0,0-21.74,5.81c-.29,0-.67.31-1,0s0-.68,0-1,.24-.48.38-.72A44.16,44.16,0,0,1,24,179.71a32.83,32.83,0,0,1,12.65-5.42,47.64,47.64,0,0,1,8-.77,191.42,191.42,0,0,0,25.17-2.4A140.63,140.63,0,0,0,101,162.6a129.24,129.24,0,0,0,26-14.4c3.26-2.4,6.5-4.8,10-6.89a26.59,26.59,0,0,1,7.2-3.05,2.55,2.55,0,0,0-.74-.76,29.31,29.31,0,0,1-10.9-13.09,36.09,36.09,0,0,1-2.4-14.4A77.9,77.9,0,0,1,133.27,90a3.06,3.06,0,0,0,0-1.59,160.53,160.53,0,0,1-4.42-25.68,17.2,17.2,0,0,1,.44-5.85,6.15,6.15,0,0,1,6.55-4.8,25.21,25.21,0,0,1,10.73,3c3.5,1.75,6.84,3.79,10.32,5.62,1,.45,2,.84,3.09,1.22a1.21,1.21,0,0,0,.84,0,57.6,57.6,0,0,1,19-3.09,41.62,41.62,0,0,1,13.61,2.4,1,1,0,0,0,1.2-.6,38.87,38.87,0,0,1,11.4-8.33,17.2,17.2,0,0,1,4.32-1.73A7,7,0,0,1,218.45,55a22.51,22.51,0,0,1,1.75,8.33,41.6,41.6,0,0,1-1.41,14.26c-.39,1.29-.67,2.61-1,4a.79.79,0,0,0,0,.81,1.09,1.09,0,0,1,0,.36,5.11,5.11,0,0,0,4.06,3.39,7.34,7.34,0,0,1,4.8,4.51A44.62,44.62,0,0,1,230,99.19a26.28,26.28,0,0,0,3.1,7.2,3.91,3.91,0,0,0,1,1.32,1.54,1.54,0,0,1,.53,2.09h0a3.79,3.79,0,0,1-.82,1l-.93.81,2.18,2.71a9.33,9.33,0,0,1,2,4.37c0,.63,0,1.2-.72,1.3a57.9,57.9,0,0,0-9.12,2.71,3.42,3.42,0,0,0-2.4,2.4,26.39,26.39,0,0,1-11,14,83.67,83.67,0,0,1-10,4.8,46.71,46.71,0,0,1,5.21,26.4,18.05,18.05,0,0,1-.34,2,6.87,6.87,0,0,0,0,3.43c1,5.45,1.73,11,2.64,16.61.82,4.8,1.27,9.6,1.85,14.4s1,9.6,1.32,13.87a122.18,122.18,0,0,0,5,27.61c.55,2.18,2.18,6.12,4,5.95h4a4.79,4.79,0,0,1,4.8,4.8,8.45,8.45,0,0,1-1.27,3.5,18,18,0,0,1-5.42,5.19c-2.86,1.73-5.57,3.67-8.55,5.13a13,13,0,0,1-5.76,1.54,9.29,9.29,0,0,1-6.43-2.86,52.19,52.19,0,0,1-15.65-22.17,103.51,103.51,0,0,1-5.71-19.09v-1.32h0a55.2,55.2,0,0,1-35.74,35.38l.48.58a5.86,5.86,0,0,1-5.09,9.82,16.62,16.62,0,0,1-9.6-4.3,22,22,0,0,1-7.94-12.22,13,13,0,0,1,0-6.38,4.76,4.76,0,0,1,2.4-3.43,35.86,35.86,0,0,0,7.2-5.48,30.61,30.61,0,0,0,3.79-3.93,10,10,0,0,0,2.4-5.33c.48-3.87,1.44-7.66,1.73-11.52A73.77,73.77,0,0,0,143.23,213.41Z"/><path class="cls-1" d="M151.85,144.58a22.53,22.53,0,0,0-5,11.4,87.54,87.54,0,0,0-1.66,13.61,97.08,97.08,0,0,0,.89,14.85,19.73,19.73,0,0,1-.67,6.84,93.82,93.82,0,0,0-1.9,16.28v1.72c0,1.28,0,1.18-1.2,1.66A16.21,16.21,0,0,1,127,207.8a37.81,37.81,0,0,0-5.28-3.51,12.7,12.7,0,0,0-6.92-.81,30.61,30.61,0,0,0-13.27,4.8c-2.85,1.84-5.42,4.1-8.18,6.14A21.69,21.69,0,0,1,87,218a12.68,12.68,0,0,1-8.72-.72,31.87,31.87,0,0,1-12-8.86,122.47,122.47,0,0,0-9.6-9.6,33.09,33.09,0,0,0-14.4-7.68,32.8,32.8,0,0,0-10.46-.41,66.36,66.36,0,0,0-18,4.8l-2.5,1.13,2-2.9a42.31,42.31,0,0,1,15.74-13.56,33.14,33.14,0,0,1,17.84-3,135,135,0,0,1,19,3.31,107.42,107.42,0,0,0,17.52,3A36,36,0,0,0,105.84,178a90.65,90.65,0,0,0,13.68-11.28,26.6,26.6,0,0,1,3.48-3.31c2.5-2,4.91-4.14,7.2-6.38a82.19,82.19,0,0,1,7.75-5.62A58.15,58.15,0,0,1,150.86,145h.58A.51.51,0,0,1,151.85,144.58Z"/><path class="cls-2" d="M139.61,125.59a10.67,10.67,0,0,1,1.39-2.81,11,11,0,0,0,.79-2.06,1.9,1.9,0,0,0-.93-2.52h0a1.4,1.4,0,0,0-.76,0h-1.44a12.48,12.48,0,0,0,1.53-4.13c0-.43.39-.38.72-.43h5.88l10.3-.24a10.56,10.56,0,0,0,3-.48,3.28,3.28,0,0,0,2.4-3,28,28,0,0,0,0-7.2,5.53,5.53,0,0,0-.29-1.2,3.49,3.49,0,0,0-3.58-2.62h-16c-1,0-1,0-.76-.93a6,6,0,0,1,4.8-4.8,86.58,86.58,0,0,1,12.19-2c9.6-1.27,19.51-1.8,29.26-2.4,6.57-.29,13.13-.38,19.65-.62,4.28,0,8.53.33,12.8.52a3.18,3.18,0,0,1,2.76,1.8,46.58,46.58,0,0,1,4,9.82A26,26,0,0,0,230.6,108a7.13,7.13,0,0,0,1.7,1.85c.34.34.38.63,0,.91l-.62.58c-.87.67-.92.77-.29,1.7s1.82,2.4,2.66,3.77,1,1.42-.65,1.75a96,96,0,0,0-13.56,4.25,39,39,0,0,1-8.9,2.19,14.29,14.29,0,0,1-5.81-.63,5.56,5.56,0,0,1-3.62-4.8,40.92,40.92,0,0,0-1.18-4.1,8.31,8.31,0,0,0-1.2-2.4,6.08,6.08,0,0,0-8.28-2.19,10,10,0,0,0-4.37,4.47,27.91,27.91,0,0,1-7,8.18,19.3,19.3,0,0,1-14.88,3.72c-4.8-.62-9.14-1.8-14-2.61a24.28,24.28,0,0,0-9.15,0A18.77,18.77,0,0,0,139.61,125.59Z"/><path class="cls-3" d="M56.68,175h3a132.52,132.52,0,0,0,22.49-3.41,143.11,143.11,0,0,0,22-7.63,114.7,114.7,0,0,0,20.69-11.31c3-2,5.57-4.44,8.47-6.52,1.9-1.32,3.84-2.55,5.86-3.68a20,20,0,0,1,5.52-2,3,3,0,0,0,1.63-.62.43.43,0,0,1,.41,0l3.53,1.68h0a57.23,57.23,0,0,0-23.79,14.78c-1.39,1.4-2.86,2.4-4.3,3.77-3.33,2.93-6.48,6-9.74,9.07a41.93,41.93,0,0,1-15.07,9.15,35.6,35.6,0,0,1-14.28,1.49,147.9,147.9,0,0,1-19-3.48L57.9,175H56.68Z"/><path class="cls-4" d="M134.81,99.36a10.79,10.79,0,0,1,.43-2.4c.43-1.95.74-3.89,1.27-5.86a6.28,6.28,0,0,0,0-3.74A63,63,0,0,1,134.76,79a118.32,118.32,0,0,1-2.57-17.47,13.41,13.41,0,0,1,.43-4.8,3.08,3.08,0,0,1,3.36-2.4,19,19,0,0,1,6.87,1.75c3.48,1.49,6.6,3.53,9.93,5.28a50.12,50.12,0,0,0,6.1,3.24,1.19,1.19,0,0,0,1,0,70,70,0,0,1,8.28-2.4c.84,0,1.08,0,1.22.82.53,2.52,1.15,5.09,1.71,7.61a6.31,6.31,0,0,0,1.15,2.81,2.83,2.83,0,0,0,4,.28l.45-.57a3.43,3.43,0,0,0,.68-2.23,19.39,19.39,0,0,0-1.47-7.21L175,61.63c-.29-.72,0-.48.38-.58a1.3,1.3,0,0,1,1.61.77h0a32.93,32.93,0,0,1,2.18,7.85,36.22,36.22,0,0,0,.68,3.57,3.5,3.5,0,0,0,3.81,3.05h0a4.05,4.05,0,0,0,3.53-3.77A18,18,0,0,0,186,65.68,21.85,21.85,0,0,0,184,61.15a1.67,1.67,0,0,1,1.94,1,29.65,29.65,0,0,1,2.28,6.58,18.32,18.32,0,0,0,1,3.22A2.61,2.61,0,0,0,192,73.63c1.22,0,1.84-.87,2-2.4a10.66,10.66,0,0,0-.82-4.8c-.43-1.23-.93-2.4-1.37-3.75,6.7.65,20.45,13.13,24.41,22.23h-2.4c-4.29-.34-8.52,0-12.81,0-11,0-21.89.65-32.84,1.51a135.33,135.33,0,0,0-21.91,3.43,9.62,9.62,0,0,0-7.59,8.36c0,.79-.36,1.12-1.22,1a5.65,5.65,0,0,0-1.3,0A7.81,7.81,0,0,0,134.81,99.36Z"/><path class="cls-4" d="M139.37,128.57a15.67,15.67,0,0,1,7.2-1.13,77.44,77.44,0,0,1,9.17,1.7,65.46,65.46,0,0,0,10.51,1.73,21.45,21.45,0,0,0,19-8.66,56.46,56.46,0,0,0,3.43-5.48,8.19,8.19,0,0,1,3-3.14,6.32,6.32,0,0,1,2.66-.72,2.6,2.6,0,0,1,1.94,1.06,10.33,10.33,0,0,1,1.73,3.48c.36,1.32.79,2.71,1.18,4.08a8.44,8.44,0,0,0,7.32,6.14,27,27,0,0,0,12-1.29l3.05-.94a21.31,21.31,0,0,1-2.52,4.27,31.11,31.11,0,0,1-12.34,9,61.53,61.53,0,0,1-28.2,4.8,67.56,67.56,0,0,1-13.37-1.6c-1.63-.34-3.05-1.11-4.8-1.35a44.52,44.52,0,0,1-10.75-3.33,14.77,14.77,0,0,1-3.46-2.4A35.57,35.57,0,0,1,139.37,128.57Z"/><path class="cls-4" d="M215.67,78.81,214,76.41c-.24-.29,0-.53,0-.86a39.8,39.8,0,0,0,1.13-4.8,21.43,21.43,0,0,0-.41-8.55,4.77,4.77,0,0,0-.69-1.7,3.87,3.87,0,0,0-4.8-1.83,17.46,17.46,0,0,0-7.66,4.8,1,1,0,0,1-1.39.29h0c-1.15-.69-2.4-1.32-3.72-2,2-1.61,4-3.33,6.14-4.8a26,26,0,0,1,7.61-3.86,4.2,4.2,0,0,1,5.52,2.18h0a2.5,2.5,0,0,1,0,.67A25.14,25.14,0,0,1,217,62.2,54.4,54.4,0,0,1,215.79,78,2.53,2.53,0,0,0,215.67,78.81Z"/><path class="cls-4" d="M137.57,125.49a29.06,29.06,0,0,1-3.29-12.88,3.52,3.52,0,0,0,3.09,1c.39,0,.24.34.24.53a20.1,20.1,0,0,1-1,4.8,1.42,1.42,0,0,0,0,.91c0,.6.48.84,1.15.6a8.12,8.12,0,0,1,1.94-.55c.58,0,.67,0,.43.6A15.71,15.71,0,0,0,137.57,125.49Z"/><path class="cls-5" d="M145.75,265.33a1.27,1.27,0,0,0-.86,0c-1.56.29-2.4,0-3-1.42a2.53,2.53,0,0,1,1.29-3.05c2.09-1.34,4.23-2.4,6.41-3.62,6.1-3.29,12.2-6.38,18.34-10l1.27-.92c0,.39-.33.53-.53.77a56.73,56.73,0,0,1-20.16,14.31,25.3,25.3,0,0,0-3.05,1.6,1.42,1.42,0,0,0-.81,1.06c0,.6,0,1,.81,1.13S145.75,264.9,145.75,265.33Z"/><path class="cls-6" d="M182.71,150.65h0c1.64,0,1.59,0,1.44,1.63a34.42,34.42,0,0,1-1.39,7.8A13.91,13.91,0,0,1,170.93,170c-1.54,0-1.54,0-1.2-1.32A35,35,0,0,1,175,156.17a19.21,19.21,0,0,1,4.8-4.8A4,4,0,0,1,182.71,150.65Z"/><path class="cls-6" d="M188.43,150.05a14.17,14.17,0,0,1,5.13,6.89,18.18,18.18,0,0,1,.51,10.87c0,.53,0,.77-.77.38a12.49,12.49,0,0,1-5.57-10.46,38.44,38.44,0,0,1,0-4.8C188,152.09,188.71,151.27,188.43,150.05Z"/><path class="cls-7" d="M195.51,146.33a26.41,26.41,0,0,1-4.8,2.71,1,1,0,0,1-.77,0,3.49,3.49,0,0,0-3.07-.62h-.48a1.65,1.65,0,0,0-1.78.67c0,.24-.31.38-.65.24a4.8,4.8,0,0,0-4.39.57,2,2,0,0,1-1.56.32,61.91,61.91,0,0,1-12.75-4,.26.26,0,0,1,0-.24,82.11,82.11,0,0,0,15.22,1.85A69.61,69.61,0,0,0,195.51,146.33Z"/><path class="cls-8" d="M186.87,150.79v.58a1,1,0,0,1-.63.67c-.33,0,0-.48-.48-.77a5.89,5.89,0,0,0-.62-1.32c-.34-.48,0-.62.33-.67A1.69,1.69,0,0,1,186.87,150.79Z"/><path class="cls-9" d="M188.43,225.41c.45-.19,2.4-.62,2.56-1.87a1.71,1.71,0,0,0-1.08-1.51,4.81,4.81,0,0,0-2.4-.38,8.51,8.51,0,0,0-7.51,5.47,65.14,65.14,0,0,1-4.37,10.29,44.33,44.33,0,0,1-5.85,8.14c-6.44,8.55-21.85,16.18-24.46,17.38-.43.31-1.2.84-.72,1.75a1.08,1.08,0,0,0,1.13.43,9.09,9.09,0,0,1,.69,4.37,1.82,1.82,0,0,1-.57.87l-.87-2c0-.26-1-1.65-1.61-1.34s0,.77,0,1.1a12.1,12.1,0,0,1,1.28,3.44c0,.57-.72.55-1.44.4a11.66,11.66,0,0,1-3.63-1.2,22.24,22.24,0,0,1-8.35-6.86,16.51,16.51,0,0,1-3.65-12c-.33-.65.79-1.87,1.63-2.4a9.73,9.73,0,0,1,2.4-1.83,25.72,25.72,0,0,0,12.51-14.4,36.42,36.42,0,0,0,1.94-10.8c0-4.61.7-15.58.7-16.58a74.6,74.6,0,0,1,.86-12.58H148a51.22,51.22,0,0,1,4.46,9.07,28.22,28.22,0,0,0,8.33,10.28c4.8,3.88,12.56,5.06,16.8,2,3.75-2.86,3.34-13.66,1.61-19.88a84,84,0,0,0-9.17-22.15h0c0-.48,0-.38.53-.43a16.23,16.23,0,0,0,10.42-5,16.9,16.9,0,0,0,3.89-7.37,28.68,28.68,0,0,0,1.34-5.23c0-.24,0-.63.34-.63s0,.44,0,.68a19.94,19.94,0,0,0-.29,6,13,13,0,0,0,4.8,8.14,14.66,14.66,0,0,0,2.52,1.84,1.31,1.31,0,0,0,1.73-.28v-.44a18.84,18.84,0,0,0,.45-12.16,18.32,18.32,0,0,0-3.5-6.63c-.34-.38-.24-.48,0-.67a27.15,27.15,0,0,0,4.8-2.81c.48-.31.67-.31.91.24a60.22,60.22,0,0,1,2.71,8.91c1.71,6.57,3,13.27,4.37,19.89s2.76,14,3.77,21c.79,6.09,1.61,12.17,2.09,18.31a175.36,175.36,0,0,0,3.84,26.4c.48,2.07,3.07,9.6,3.65,11.33a5.14,5.14,0,0,0,3.65,3.31,23.6,23.6,0,0,1,4.94.68c1,.5.84,1.34.91,2s-.41,1.59-1.2,1.56a7,7,0,0,0-4.1-1.1c-1.23.14-2,.84-1.95,1.32.46,1.61,1.68-1.27,4.49.93.39.41-2.09,1.76-2.21,1.8-2.76,1.42-6.16,5.12-9.16,5.89-1.32.43-2.66.8-4,1.1-.65,0-3.32-2.88-3.65-3.43a77,77,0,0,1-5.76-6.36c-6.22-6.65-16.2-32.21-15.6-35.26C184.68,225.61,187.3,225.65,188.43,225.41Z"/><path class="cls-9" d="M177.53,209c-.39,0-1.27-1.68-1.71-1.95a.72.72,0,0,0-.86,0c-.34.34-.12.58,0,.84s2,3.19,1.46,4.16c0,1.1-2.61,2.23-3.79,2.4-.62,0-1.46-4.47-1.75-4.81s-.48-.76-1-.57-.45.65-.33,1a17.3,17.3,0,0,1,1.1,4.18c0,.65-5.93-1.34-7.2-2.4-13.49-7-16.3-38.69-15.77-43.59a50.68,50.68,0,0,1,2.14-15.38c0-.6,3.26-8.26,5.08-9.08a2.14,2.14,0,0,1,1.64.22A142,142,0,0,0,173,151c.24,0,3.53,1,3.67,1s-3.33,3.7-3.45,3.84a37.14,37.14,0,0,0-5.19,14c0,.31-.14,1.92.75,2.19a10.82,10.82,0,0,0,1.61,0c.93.88.86,2.4,1.27,3.14C174.29,176.79,180.48,208.44,177.53,209Z"/><path class="cls-9" d="M206.69,166c-.6-2.4-1.22-4.53-1.9-6.76a49.52,49.52,0,0,0-4.8-12c-.57-.86,0-1.68.8-2.16s1.39-.45,1.92.72a41.12,41.12,0,0,1,2.56,8.09,59.16,59.16,0,0,1,1.56,10.76V166Z"/><path class="cls-10" d="M226.68,113.16a9,9,0,0,1-.48,4.29,3.61,3.61,0,0,1-1.6,1.76h-.44v-.53a42.13,42.13,0,0,0,0-6.55,69.52,69.52,0,0,0-4.1-21c0-.48,0-.64.43-.52A3.44,3.44,0,0,1,223.2,93a58.48,58.48,0,0,1,3.05,12.17A54.72,54.72,0,0,1,226.68,113.16Z"/><path d="M177.26,109.46a6.07,6.07,0,0,1-1.22,3.65,4,4,0,0,1-5.66.62l-.44-.43a5.3,5.3,0,0,1,.32-7.46h0a2.14,2.14,0,0,0,.67-.43,4.42,4.42,0,0,1,5.93,1.65,4.63,4.63,0,0,1,.52,1.78A3.24,3.24,0,0,0,177.26,109.46Z"/><path d="M207.36,107.81a5.74,5.74,0,0,1-.53,2.4,3.55,3.55,0,0,1-6.55.38,6.11,6.11,0,0,1-.57-4.8,3.27,3.27,0,0,1,2.61-2.52,3.75,3.75,0,0,1,4.18,1.46A5,5,0,0,1,207.36,107.81Z"/><path d="M172.46,94.22A6.7,6.7,0,0,1,176.78,96a1.52,1.52,0,0,1,.48,1.64c-.24.62-.86.52-1.36.57a12.83,12.83,0,0,1-4-1c-1-.38-2-.82-3.05-1.1a.58.58,0,0,1-.65-.5h0c0-.38.31-.38.55-.53A7.1,7.1,0,0,1,172.46,94.22Z"/><path class="cls-11" d="M206.19,94.56l-1.11.57a46.62,46.62,0,0,0-4.46,2.4,1.12,1.12,0,0,1-1.54,0,1.35,1.35,0,0,1,.34-1.56,5.38,5.38,0,0,1,4.8-1.68A8.27,8.27,0,0,1,206.19,94.56Z"/><path d="M140.61,61.05a9.59,9.59,0,0,1,4.08,1c1,.38,1.88.86,2.81,1.34,1.85,1,3.67,2.14,5.62,3.08A3.6,3.6,0,0,1,155.3,71a.74.74,0,0,1,0,.21,3,3,0,0,1-1,1.47c-2.4,2.66-4.8,5.23-7.2,7.85a10.87,10.87,0,0,1-2.81,2.28,4.84,4.84,0,0,1-1.61.57,3.12,3.12,0,0,1-3.53-2.18A32.53,32.53,0,0,1,138,76a60.43,60.43,0,0,1-1.3-8.77,8.8,8.8,0,0,1,0-2.71,3.38,3.38,0,0,1,3.44-3.33h0Z"/><path d="M193.9,119.35a2.56,2.56,0,0,1,2.95,2.11h0a2.38,2.38,0,0,1-.34,1.8,22.45,22.45,0,0,1-1.84,3c-.29.43-.29.67,0,1h0c1.51,1.85,2.9.77,3.79-.43a8.5,8.5,0,0,0,.86-1.37A.61.61,0,0,1,200,125h0a.67.67,0,0,1,.48.68,5.47,5.47,0,0,1-3,4.27,3.12,3.12,0,0,1-4-1.2c-.29-.36-.39-.41-.72,0a5.68,5.68,0,0,1-2.4,1.82,4.8,4.8,0,0,1-6.29-2.4h0a2.55,2.55,0,0,1,0-1.68.63.63,0,0,1,.43-.52c.31,0,.36.24.46.48a4.35,4.35,0,0,0,.77,1.68,3.5,3.5,0,0,0,4.8.45c.76-.5,1.68-1.13,1.77-2s-1-1-1.58-1.47a7.54,7.54,0,0,1-1.61-1.58,2.4,2.4,0,0,1,.52-3.35h0a2.4,2.4,0,0,1,1.41-.48Z"/><path class="cls-12" d="M172.15,108.55a1.56,1.56,0,0,1-1.56,1.56h0a1.58,1.58,0,0,1-1.58-1.56h0a1.6,1.6,0,0,1,1.58-1.58h0a1.45,1.45,0,0,1,1.51,1.41v0h0Z"/><path class="cls-13" d="M203.19,106.92a1.55,1.55,0,0,1-1.59,1.49h0a1.47,1.47,0,1,1,1.59-1.59Z"/><path class="cls-14" d="M147.41,111.41H139a13.58,13.58,0,0,1-3.05-.34,1.41,1.41,0,0,1-1.17-1.39,30.78,30.78,0,0,1,0-6.07,2,2,0,0,1,1.84-2.07h0c4.49-.41,9.15-.6,13.47-.69h7.75a1.92,1.92,0,0,1,1.83,1.32,9.54,9.54,0,0,1,.5,3,25,25,0,0,1,0,3.87,1.73,1.73,0,0,1-1.6,1.85h0a8.66,8.66,0,0,1-1.89.24A68.56,68.56,0,0,0,147.41,111.41Z"/><path class="cls-15" d="M212.64,74.47a1.75,1.75,0,0,1-.72-.6,37,37,0,0,0-9.6-8.72c-.43-.28-.57-.43,0-.86a24,24,0,0,1,5.52-3.74l1.27-.53a2.4,2.4,0,0,1,3.25,1l0,.09a1.76,1.76,0,0,1,0,.91,19.84,19.84,0,0,1,1.2,8.19A22.18,22.18,0,0,0,212.64,74.47Z"/><path class="cls-15" d="M138.19,66.57a6.06,6.06,0,0,1,0-2.4A1.68,1.68,0,0,1,140,62.63h.23A10.87,10.87,0,0,1,144,63.71c2.4,1.06,4.44,2.4,6.77,3.63.63.33,1.27.57,1.95.86a1.19,1.19,0,0,1,.77,1.48h0a3.18,3.18,0,0,1-1,2,82.11,82.11,0,0,0-6.75,7.2,10.68,10.68,0,0,1-2.4,2c-1.58,1-2.85.52-3.29-1.28-.72-3.57-1.44-7-1.89-10.68A9.74,9.74,0,0,0,138.19,66.57Z"/><path class="cls-16" d="M152.21,106.08a3.39,3.39,0,0,1-3.26,3.5h-.49a3.51,3.51,0,1,1-.81-7h.81a3.24,3.24,0,0,1,3.69,2.72s0,.06,0,.09A2.5,2.5,0,0,1,152.21,106.08Z"/><path class="cls-2" d="M148.46,104.21a1.76,1.76,0,0,1,2,1.51h0a.81.81,0,0,1,0,.38,1.94,1.94,0,0,1-2,1.85h0a1.88,1.88,0,0,1-1.82-1.9h0a1.84,1.84,0,0,1,1.82-1.77Z"/></svg>