<svg id="Layer_1" data-name="Layer 1" xmlns="http://www.w3.org/2000/svg" viewBox="0 0 198.12 196.3"><defs><style>.cls-1{fill:#00b390;}.cls-2{fill:#b62028;}.cls-3{fill:#ca3940;}.cls-4{fill:#fefefe;}.cls-5{fill:#fff;}.cls-6{fill:#ca3c41;}.cls-7{fill:#b52028;}.cls-8{fill:#c0383d;}.cls-9{fill:#020403;}.cls-10{fill:#010101;}.cls-11{fill:#fdfdfd;}.cls-12{fill:#fcfcfc;}.cls-13{fill:#f6ed58;}.cls-14{fill:#fbee59;}</style></defs><title>2</title><path d="M117.35,77.83a38.91,38.91,0,0,1-3-2.52,25.28,25.28,0,0,1-9-18,61.58,61.58,0,0,1,1.51-18.27,9,9,0,0,1,.41-1.62,11.28,11.28,0,0,0,0-7.26,130.27,130.27,0,0,1-3-17.67,30.68,30.68,0,0,1,0-6.06,5.56,5.56,0,0,1,6-5.25h.41a20.82,20.82,0,0,1,9.08,2.93l8.38,4.54a20.75,20.75,0,0,0,2.63,1.11h.81a47.53,47.53,0,0,1,18.78-2.62,31.9,31.9,0,0,1,9.59,2,.94.94,0,0,0,1.31-.2h0a33,33,0,0,1,9.69-7.37A15.33,15.33,0,0,1,174.19.29,6.16,6.16,0,0,1,181.77,4a22.14,22.14,0,0,1,1.51,7.27A39.77,39.77,0,0,1,182,24.22a33.71,33.71,0,0,0-.91,3.53,1.12,1.12,0,0,0,0,.81h0a4.49,4.49,0,0,0,3.43,3.13,6.57,6.57,0,0,1,4.14,4,39.05,39.05,0,0,1,3,7.77,23.4,23.4,0,0,0,2.63,6.36,8.8,8.8,0,0,0,.9,1.21,1.43,1.43,0,0,1,.51,1.82h0a4.39,4.39,0,0,1-1.51,1.52c.9,1,1.61,2,2.42,3A9.94,9.94,0,0,1,198.12,61c0,.6,0,1-.7,1.11a37.94,37.94,0,0,0-8,2.42,2.73,2.73,0,0,0-2,2,22.92,22.92,0,0,1-9.29,11.81,38.58,38.58,0,0,1-7.77,4.24c-.51.21-.71.31-.41.91a20.58,20.58,0,0,1,2.12,4.85A20.89,20.89,0,0,0,174,92.57c.74,2.48,1.85,4.51,2.63,6.76,1.22,4.72,4.25,9.8,7.38,14.24a37.45,37.45,0,0,1,3.92,7.17,13.23,13.23,0,0,1,.38,3.84c-1.07,5.72-5.87,11.86-15.76,9.63a1.31,1.31,0,0,0-1.6.34,82.36,82.36,0,0,1-12.26,21.66,2.75,2.75,0,0,0,.18,1.78c2.13,4.68,5.18,14.91,8.6,19.63a2.19,2.19,0,0,0,1.66,1.23,5.63,5.63,0,0,1,4.57,2.37c.76,1.44,1.22,2.79-.48,4.68a39.63,39.63,0,0,1-4.19,2.95,56.41,56.41,0,0,1-5.67,3.17c-1.52.7-4.19,2.08-5.65,3s-2.69,1.43-4.09,1.28-1.7-.44-1.66-.43c-1.5-.89-12.39-10.66-15.21-13.69-1.32-1.31-2.51-2.73-3.92-3.94-1.38.31-5.89,2.63-7,4.25-.6.5.2,2.31.4,3s1.53,4.41-2.2,6.3a7.9,7.9,0,0,1-5.37-.2c-1-.24-2.71-1.66-3.94-2.93-2.12-2.63-3.85-4.84-5.77-7.56a18.32,18.32,0,0,1-2.53-5.06c-.71-2.73-.93-5.23,1-7.15A28.08,28.08,0,0,1,111.2,165a86.34,86.34,0,0,1,7-6.37c.4-.21.75-.77.56-1a56.14,56.14,0,0,1-2.67-6.49l-.61-1.62c0-.3,0-.5-.5-.3a7.61,7.61,0,0,1-5.35.81,17,17,0,0,1-8.38-3.33,20.17,20.17,0,0,1-5.76-6.57,2,2,0,0,0-1.11-.9,9.9,9.9,0,0,0-5.45,0,24.93,24.93,0,0,0-11.51,5.85,46,46,0,0,1-6.66,5,13.12,13.12,0,0,1-12.52,0,30.35,30.35,0,0,1-10.4-8.89,78.06,78.06,0,0,0-10.2-9.79,22.68,22.68,0,0,0-17.77-5A67.67,67.67,0,0,0,1,131.44c-.2,0-.6.3-.91,0s0-.5,0-.91.21-.6.31-.81a39.64,39.64,0,0,1,12.42-15.24,28.57,28.57,0,0,1,10.9-4.75,40.92,40.92,0,0,1,7-.6,160.77,160.77,0,0,0,22-2.12A118,118,0,0,0,80.1,99.13a107.86,107.86,0,0,0,22.51-12.82c2.83-2.22,5.66-4.24,8.68-6.16A25.06,25.06,0,0,1,117.35,77.83Z"/><path class="cls-1" d="M112.2,59.86a10.32,10.32,0,0,0,1.32-3c0-.51.3-.71.9-.71h8.69a52.41,52.41,0,0,0,5.65-.2,6,6,0,0,0,1.82-.4,2.8,2.8,0,0,0,2.12-2.43,24.75,24.75,0,0,0,0-6.66l-.4-.91a3.06,3.06,0,0,0-3.13-2.32H115.43c-.5,0-.6,0-.5-.61a5.27,5.27,0,0,1,4.34-4.94,76.22,76.22,0,0,1,11.51-2.12c8-1,16.15-1.52,24.33-1.92,6.26-.31,12.72-.41,19.08-.61,3.13,0,6.26.3,9.5.51a3,3,0,0,1,1.91,1.92A38,38,0,0,1,189,43.91a29.47,29.47,0,0,0,2.82,7,6.91,6.91,0,0,0,1.42,1.52c.3.3.4.6,0,.91l-.61.5c-.71.3-.5.81-.2,1.31l2.12,3a11.1,11.1,0,0,1,.81,1.31c.2.41,0,.51-.21.51a63.43,63.43,0,0,0-7.26,2c-1.82.6-3.54,1.31-5.25,2A34.56,34.56,0,0,1,175,65.92a13,13,0,0,1-5.15-.81,5.17,5.17,0,0,1-3.13-4.24,24.91,24.91,0,0,0-1.81-5.25,5.31,5.31,0,0,0-7.07-2.53l-.41.21a8.81,8.81,0,0,0-3.73,3.93,22.47,22.47,0,0,1-5.76,7,16.51,16.51,0,0,1-13.42,3.63c-4.14-.6-8-1.61-12-2.22a17.87,17.87,0,0,0-8,0l-1.52.61a4.71,4.71,0,0,1,.81-1.82,8.09,8.09,0,0,0,1.11-2.52,1.78,1.78,0,0,0-.81-2.32h0a1.3,1.3,0,0,0-.91,0Z"/><path class="cls-2" d="M3.68,128.72l.89-1.49a35.12,35.12,0,0,1,14-12.37,28.09,28.09,0,0,1,15.24-2.77A132,132,0,0,1,50,114.86a84.6,84.6,0,0,0,14.84,2.58,30.78,30.78,0,0,0,15.44-2.58A40.79,40.79,0,0,0,90,108.23c2.18-1.88,4.46-3.86,6.44-5.93h.39a46.82,46.82,0,0,0-2.47,4.45,32.72,32.72,0,0,0-3.17,13.36,37.52,37.52,0,0,0,.69,10c.5,1.59,1.09,3.17,1.59,4.75,0,.4.2.5-.3.5a25,25,0,0,0-15.73,5.93,68,68,0,0,1-7,4.95,10.42,10.42,0,0,1-10.19.7,28.7,28.7,0,0,1-9.8-7.72A112.55,112.55,0,0,0,42,130.7a28.88,28.88,0,0,0-12.07-6.63,24.94,24.94,0,0,0-8.61-.3,55.54,55.54,0,0,0-15.44,4.16A7.07,7.07,0,0,0,3.68,128.72Z"/><path class="cls-3" d="M119.36,80.13A19.32,19.32,0,0,0,116,82.21a80.21,80.21,0,0,0-8.31,6.92c-2.08,2.08-4.36,3.47-6.53,5.35S97,98,94.92,99.92s-4.85,4.85-7.52,7.13a32,32,0,0,1-15.54,7.42,40.76,40.76,0,0,1-11.47-.4c-5.35-.89-10.49-2.27-15.84-3.36l-2.57-.5c.2-.29.49-.2.69-.2A114.16,114.16,0,0,0,71,104.67,130.9,130.9,0,0,0,87.8,97.84a84,84,0,0,0,17.41-11.58,38.18,38.18,0,0,1,8.32-5.44,14,14,0,0,1,3.46-1,2.52,2.52,0,0,0,.89-.29C118.77,79.34,119.17,79.54,119.36,80.13Z"/><path class="cls-4" d="M110.18,168.83a19,19,0,0,1,2.37-2.57c2.08-2.08,4.06-4.16,5.84-6.14.59-.59.59-.59,1,0,1,2,11.48,16.13,12,17a34.11,34.11,0,0,0-5.93,3.86,4.35,4.35,0,0,0-1.69,4.36c0,.49,1.49,2.67,1.09,3.66.1,1-1,1.58-1,1.58.6-1.78-.1-4-1.38-4.16-.8.3-.3,1-.2,1.19,1.19,2.38,1.09,4.16-2.57,2.77-.5.2.49-3.46.39-3.66s0-1-.59-.49-1.19,3.56-1.68,3.06c-1.56-.65-8.91-11.16-8.81-11.39C106.42,172.18,110.18,168.83,110.18,168.83Z"/><path class="cls-4" d="M151.48,9.58a1.4,1.4,0,0,1,1.71.91,28.32,28.32,0,0,1,2.12,5.85,12.41,12.41,0,0,0,1,3,2.21,2.21,0,0,0,2.33,1.42,1.94,1.94,0,0,0,1.71-2.12,10.28,10.28,0,0,0-.7-4.25c-.41-1.21-.91-2.32-1.32-3.63a32.88,32.88,0,0,1,12.42,7.88,61.52,61.52,0,0,1,9.09,12c-1.31,0-2.63-.2-3.74-.2-8.48,0-17.06,0-25.54.5-6.26.41-12.42.81-18.78,1.52a93.31,93.31,0,0,0-12.92,2.42,8.27,8.27,0,0,0-6.67,7c-.2,1.41-.2,1.41-1.71,1.51h-.91c-.81,0-.81,0-.61-.91.41-2.32.81-4.64,1.42-7a5.91,5.91,0,0,0,0-3.23,45.05,45.05,0,0,1-1.52-7.37,99.68,99.68,0,0,1-2.22-15.45,9.94,9.94,0,0,1,.51-4.24,2.5,2.5,0,0,1,2.62-1.92,16,16,0,0,1,6.06,1.61c3.23,1.42,6.26,3.44,9.29,5.05,1.51.81,3.13,1.62,4.64,2.32a1.3,1.3,0,0,0,.91,0A46.83,46.83,0,0,1,137.85,10c.6,0,.91,0,1,.61.6,2.32,1,4.64,1.51,7a6.13,6.13,0,0,0,1,2.53,2.41,2.41,0,0,0,3.43.2l.41-.4a3.69,3.69,0,0,0,.6-2,19.34,19.34,0,0,0-1.41-6.26,16.91,16.91,0,0,0-.91-2.12c-.3-.71,0-.41.2-.51a1.25,1.25,0,0,1,1.52.71h0a28.72,28.72,0,0,1,2.12,7.07,19.42,19.42,0,0,0,.6,3.33A3,3,0,0,0,151.07,23h.11a3.47,3.47,0,0,0,3-3.33,15.18,15.18,0,0,0-.9-6A21.44,21.44,0,0,0,151.48,9.58Z"/><path class="cls-4" d="M183.89,66.52a19.73,19.73,0,0,1-5.56,7.27,36.35,36.35,0,0,1-11.2,6.06,59.88,59.88,0,0,1-11.21,2.52,58.79,58.79,0,0,1-14.64,0,83.35,83.35,0,0,1-19.08-5.25,15.57,15.57,0,0,1-3.43-2.32,42,42,0,0,1-5.36-5c-.5-.7-.5-.7.31-1a14.3,14.3,0,0,1,8-.3c3.44.61,6.87,1.62,10.4,2.12a24.87,24.87,0,0,0,9.49.3A19.22,19.22,0,0,0,154,61.78c.91-1.42,1.62-2.93,2.63-4.24a5,5,0,0,1,3.53-2.12,2.33,2.33,0,0,1,2.32.9,8.65,8.65,0,0,1,1.52,3L165,63a7.07,7.07,0,0,0,6.26,5.35,21.21,21.21,0,0,0,9.69-1A15.25,15.25,0,0,0,183.89,66.52Z"/><path class="cls-4" d="M162.48,9.68a38.29,38.29,0,0,1,9.29-6.76,17.1,17.1,0,0,1,3-1,3.29,3.29,0,0,1,4.14,1.81,13.89,13.89,0,0,1,1.41,4.95,39.2,39.2,0,0,1-.6,13.73,11.64,11.64,0,0,1-.51,2.63l-1.71-2.23v-.7a34.16,34.16,0,0,0,.91-4.24,19.68,19.68,0,0,0-.21-7.68,4.76,4.76,0,0,0-.6-1.51,3.34,3.34,0,0,0-4.14-1.62,15.64,15.64,0,0,0-6.56,4.25.91.91,0,0,1-1.32.3h0A14.25,14.25,0,0,0,162.48,9.68Z"/><path class="cls-4" d="M111,66.32a25.23,25.23,0,0,1-2.72-10.8,3.52,3.52,0,0,0,2.42.6c.3,0,.3,0,.3.41a16.77,16.77,0,0,1-.91,3.93,1.31,1.31,0,0,0,0,1.22c.41.3.71,0,1.11,0a6.08,6.08,0,0,1,1.32-.41c.4,0,.6,0,.4.51A22.35,22.35,0,0,1,111,66.32Z"/><path class="cls-5" d="M162.51,184.63c-.3,0-.59-.4-.89,0s0,.49.3.69c1,.69,1.58,2.77,1.28,3.17a2.87,2.87,0,0,1-1,.89c-1.88,1.18-8.21,4.85-9.7,4.15-2.27-1.78-5.08-3.62-7-5.8-2.78-2.13-7.66-7.53-12.23-12.45A97.13,97.13,0,0,1,121,157.22c-1.69-3.07-2.87-5.45-4.36-8.51a3.25,3.25,0,0,1,1.09-3.86c1.68-2.28,1.78-7.72,1.58-11.48-.19-2.28-.59-4.55-.79-6.73a19.79,19.79,0,0,1,2.58-11.08,76.65,76.65,0,0,1,5.93-8.81,14.48,14.48,0,0,0,1.09-1.58c0-.2.3-.4,0-.7s-.49,0-.69.3a31.16,31.16,0,0,0-2.57,2.57l-3.76,4.46a24.73,24.73,0,0,0-5.25,12.37c-.59,4.15.5,6.23.89,9.69.2,1.39-.2,8.51-1.09,9.21a11.73,11.73,0,0,0-2.77-5.55c-1.09-.49-.89.6-.2,1.29a16.41,16.41,0,0,1,2.08,5.15c.2.69,0,.79-.59,1.18a5.85,5.85,0,0,1-4,1.19c-1.29,0-1.19-4.15-2.18-5.64-.19-.59-1.18-1.58-1.38-1.19s0,.6,0,.89l.59,1.49c1,2.57,1.78,5.64-.39,4.45a31.2,31.2,0,0,1-3.17-1.58,23.58,23.58,0,0,1-7-7.92c-1.78-2.77-3.26-11.87-3.26-12.76a34.69,34.69,0,0,1,0-4.56c0-1.28.3-2.57.39-4.15A22.64,22.64,0,0,1,96,107.74a47.36,47.36,0,0,1,9.8-13.56c3.76-3.86,7.81-7.42,11.77-10.88.3-.3,3.07-2.38,3.27-2.08l1.38.59c3.57,1.88,6.53,2.57,10.1,4.65a109.07,109.07,0,0,1,10.59,4.16A38,38,0,0,0,137,103.48c-.2.89-.3,1.78-.5,2.68a1.07,1.07,0,0,0,.7,1.38h0a.83.83,0,0,0,.69,0c1.09-.3,2.37-.3,3.56-.59a13.58,13.58,0,0,0,9.2-8.61A26.82,26.82,0,0,0,152,92.1c0-.29,0-.59.3-.49s0,.39,0,.49a15.86,15.86,0,0,0,0,6.14,11,11,0,0,0,3.76,6.23,8.15,8.15,0,0,0,2.07,1.59,1.1,1.1,0,0,0,1.49,0v-.5a16.6,16.6,0,0,0,.3-10.29,15.69,15.69,0,0,0-3-5.84c-.3-.39-.2-.49,0-.69A28.72,28.72,0,0,0,162.9,85a6.52,6.52,0,0,1,2.28-1.29c.5-.2.59,0,.79.4a65.38,65.38,0,0,1,3.37,8.71c.89,3.66,1.87,7.42,1.87,11.18a94,94,0,0,1-1,18.29,76.82,76.82,0,0,1-4.59,16.08,64.16,64.16,0,0,1-3.63,8,24.41,24.41,0,0,1-4.33,6.32c-1.39,1.88-2.37.4-1.39-3.46a4.76,4.76,0,0,1,1.88-2.67,25.86,25.86,0,0,1,2.38-1.78.6.6,0,0,0,.3-.69.49.49,0,0,0-.6-.3h0a8.08,8.08,0,0,0-6.33,9.1,28.49,28.49,0,0,0,2.28,6.14c2.87,5.64,5.24,11.67,7.62,17.41.29.7.69,1.39,1,2.08a3.83,3.83,0,0,0,3.67,2.18,4.18,4.18,0,0,1,2.07.59,2,2,0,0,1,1,1.78s-1.88,2.58-2.27,2a14,14,0,0,0-2.08-2.67.74.74,0,0,0-.89,0,.47.47,0,0,0,.2.69c.59.89,1.18,1.79,1.68,2.68.59.39-3.27,2.27-3.66,2.47C164.78,188,163.5,184.92,162.51,184.63Z"/><path class="cls-5" d="M172.9,123.27A109.65,109.65,0,0,0,174,107.14v-6.53a6.11,6.11,0,0,0,.59,1.78,46.89,46.89,0,0,0,6.14,11.68,34.49,34.49,0,0,1,3.66,6.73,10.5,10.5,0,0,1,.69,4.55c-.2,3.27-3.76,8.41-13.26,6.63C170.92,130.89,172.8,123.77,172.9,123.27Z"/><path class="cls-6" d="M150.93,89.73a22.47,22.47,0,0,1-2.08,9.5,11.26,11.26,0,0,1-9.1,6.53c-1.58.3-1.58,0-1.19-1.39A31.35,31.35,0,0,1,143,93.79a16.22,16.22,0,0,1,4.06-4.16,4.12,4.12,0,0,1,3.37-.59C150.93,89,151.13,89.23,150.93,89.73Z"/><path class="cls-6" d="M154.3,88.44a9.69,9.69,0,0,1,3.06,3.27,15.92,15.92,0,0,1,1.78,12.37c0,.59-.29.49-.69.29a11.06,11.06,0,0,1-4.75-9.1V90.52A3.63,3.63,0,0,0,154.3,88.44Z"/><path class="cls-7" d="M134.21,84.88a71.5,71.5,0,0,0,13,1.58,52.65,52.65,0,0,0,13.06-1.28c0,.29-.29.39-.39.49L157.46,87a2.09,2.09,0,0,1-2.57,0c-1-.7-2.18,0-3.27,0h0c-.49.89-1.28.69-2.07.49a3.9,3.9,0,0,0-3,.79,1.5,1.5,0,0,1-1.29.3,51.65,51.65,0,0,1-10.88-3.46Z"/><path class="cls-8" d="M152.91,89.13v.5a.62.62,0,0,1-.49.59c-.2,0-.2-.39-.3-.59l-.6-1.19c-.19-.39,0-.49.3-.49.69-.1,1.09.49,1.09,1.18Z"/><path class="cls-9" d="M182.68,35.43a3,3,0,0,1,2.82,2.12,58.46,58.46,0,0,1,2.63,10.8,53.43,53.43,0,0,1,.3,9.79,2.93,2.93,0,0,1-2.12,2.63A55.73,55.73,0,0,0,182.68,35.43Z"/><path d="M145.52,52.29a4.72,4.72,0,0,1-.81,2.62A3.5,3.5,0,0,1,140,56.22h0a5.05,5.05,0,0,1-.81-.7,4.74,4.74,0,0,1,.2-6.57h0l.51-.5A3.82,3.82,0,0,1,145,49.86a4.9,4.9,0,0,1,.5,1.72Z"/><path d="M171.77,50.77a4.6,4.6,0,0,1-.5,2,3.07,3.07,0,0,1-3.84,2h0a3.18,3.18,0,0,1-1.82-1.62,5.66,5.66,0,0,1-.5-4.24,2.78,2.78,0,0,1,2.32-2.32,3.21,3.21,0,0,1,3.63,1.31A4,4,0,0,1,171.77,50.77Z"/><path d="M141.38,38.76a5.51,5.51,0,0,1,3.84,1.61,1.11,1.11,0,0,1,.4,1.31c0,.51-.7.51-1.21.51a11.14,11.14,0,0,1-3.63-.91l-2.43-.91a.61.61,0,0,1-.7-.5c-.1-.51.4-.41.6-.51A5.85,5.85,0,0,1,141.38,38.76Z"/><path class="cls-10" d="M170.66,39.06c-1.61.81-3.23,1.72-4.85,2.62-.5.31-.9.41-1.31,0a1.1,1.1,0,0,1,0-1.51,4.65,4.65,0,0,1,4.14-1.61A6.58,6.58,0,0,1,170.66,39.06Z"/><path d="M110.49,14.12a6.37,6.37,0,0,1,.4-3,2.72,2.72,0,0,1,2.73-1.81,11.2,11.2,0,0,1,4.74,1.11l2.93,1.51a26.43,26.43,0,0,0,3.74,2,3.19,3.19,0,0,1,1.91,4v.3a2.7,2.7,0,0,1-.9,1.21c-2.12,2.33-4.14,4.65-6.26,7.07a10.84,10.84,0,0,1-2.33,1.92,5,5,0,0,1-1.31.5A2.53,2.53,0,0,1,113,27.15a35,35,0,0,1-1.11-4.65A39,39,0,0,1,110.49,14.12Z"/><path d="M160.16,60.77a2.34,2.34,0,0,1,2.52,2.12h0a2.79,2.79,0,0,1-.2,1.31,22.1,22.1,0,0,1-1.61,2.62c-.61.91-.31.51,0,.81h0c1.31,1.52,2.42.71,3.23-.3a10.34,10.34,0,0,0,.81-1.31c0-.2.3-.41.5-.41h.1a.69.69,0,0,1,.41.71,4.55,4.55,0,0,1-3.44,3.94A2.6,2.6,0,0,1,160,68.94c-.3-.4-.41-.4-.71,0a4.51,4.51,0,0,1-2.12,1.52,4.11,4.11,0,0,1-5.45-2.12v-.2a2.94,2.94,0,0,1,0-1.32.43.43,0,0,1,.4-.4h0c.31,0,.41.2.51.4v.31A2.87,2.87,0,0,0,156,69.25h0a3.1,3.1,0,0,0,1-.51,6.08,6.08,0,0,0,1.41-1.41c.21-.3.21-.4,0-.71l-2.12-1.81a2.36,2.36,0,0,1-.7-2.63,2.18,2.18,0,0,1,2.12-1.41A5,5,0,0,0,160.16,60.77Z"/><path class="cls-11" d="M141.18,51.28A1.35,1.35,0,0,1,140,52.69h0a1.44,1.44,0,0,1-1.42-1.31h0A1.43,1.43,0,0,1,139.87,50h0a1.34,1.34,0,0,1,1.31,1.32Z"/><path class="cls-12" d="M166.82,48.55a1.34,1.34,0,0,1,1.32,1.31h0a1.43,1.43,0,0,1-1.32,1.42h0a1.39,1.39,0,0,1-.9-1.82,1.19,1.19,0,0,1,.9-.91Z"/><path class="cls-13" d="M119.57,54.41H112.1a5.62,5.62,0,0,1-2.62-.31,1.17,1.17,0,0,1-.91-1.11,25.74,25.74,0,0,1,0-5.55,1.66,1.66,0,0,1,1.51-1.72h0c4.14-.3,8-.5,11.82-.6h6.66a1.59,1.59,0,0,1,1.51,1.21,7.8,7.8,0,0,1,.51,2.12,20.81,20.81,0,0,1,0,3.53,1.87,1.87,0,0,1-1.72,2.12h-1.31A51.48,51.48,0,0,0,119.57,54.41Z"/><path class="cls-14" d="M176.42,21.29l-1.52-1.82a33.67,33.67,0,0,0-7.27-6.36c-.4-.3-.5-.4,0-.81A22.54,22.54,0,0,1,172.38,9l1.11-.4c1.71-.51,2.62,0,3.13,1.82a16.72,16.72,0,0,1,.4,7.06C176.92,18.56,176.62,20,176.42,21.29Z"/><path class="cls-14" d="M113.82,10.69a10.82,10.82,0,0,1,3.84,1.21c1.71.91,3.43,1.92,5.14,2.83a16.93,16.93,0,0,0,1.82.81,1.14,1.14,0,0,1,.61,1.21,3.14,3.14,0,0,1-.91,1.81c-2.12,2-4,4.14-6,6.37a9.44,9.44,0,0,1-2.12,1.91,1.49,1.49,0,0,1-2.22-.2h0a3.46,3.46,0,0,1-.4-.91c-.51-2.62-1-5.15-1.42-7.77a21.31,21.31,0,0,1-.4-5.66A1.71,1.71,0,0,1,113.82,10.69Z"/><path class="cls-10" d="M123.61,49.66A2.86,2.86,0,0,1,121,52.79h-.61a3,3,0,0,1-3.13-2.93v-.2h0a3.11,3.11,0,0,1,3.13-2.93,2.77,2.77,0,0,1,3.23,2.33h0A.63.63,0,0,1,123.61,49.66Z"/><path class="cls-1" d="M120.38,48.15a1.57,1.57,0,0,1,1.72,1.41v.3a1.77,1.77,0,0,1-1.72,1.72h0A1.61,1.61,0,0,1,119,49.76h0a1.72,1.72,0,0,1,1.41-1.61Z"/></svg>