<svg width="14" height="16" viewBox="0 0 14 16" fill="none" xmlns="http://www.w3.org/2000/svg">
<path d="M9.75977 0V2.37838C9.75977 2.97447 10.2447 3.45944 10.8408 3.45944H13.2192L9.75977 0Z" fill="#587C0C"/>
<path fill-rule="evenodd" clip-rule="evenodd" d="M8.6789 2.37841C8.6789 3.56759 9.65187 4.54056 10.8411 4.54056H13.2194V13.8378C13.2194 15.027 12.2465 16 11.0573 16H2.19243C1.00324 16 0.0302734 15.027 0.0302734 13.8378V0H8.6789V2.37841ZM4.16884 12.4696L4.97252 11.7464L3.35196 9.94591L4.97271 8.14525L4.16902 7.42222L1.89746 9.94591L4.16884 12.4696ZM6.38315 12.4882L5.35287 12.1604L6.86637 7.40366L7.89665 7.73144L6.38315 12.4882ZM8.27693 11.7464L9.08062 12.4696L11.3522 9.94581L9.08084 7.42212L8.27715 8.14559L9.89746 9.946L8.27693 11.7464Z" fill="#587C0C"/>
</svg>
