<svg width="22" height="16" viewBox="0 0 22 16" fill="none" xmlns="http://www.w3.org/2000/svg">
<path d="M7.00405 4.03367L3.30903 7.7287C3.05975 7.97797 3.05975 8.3821 3.30903 8.63138L6.6452 11.9675C6.89443 12.2168 7.2986 12.2169 7.54788 11.9675C7.79716 11.7183 7.79716 11.3141 7.54788 11.0649L4.66307 8.18001L7.90673 4.93631C8.15601 4.68704 8.15601 4.28291 7.90673 4.03363C7.65745 3.78436 7.25328 3.78436 7.00405 4.03367Z" fill="#587C0C"/>
<path d="M15.1423 4.03364C14.8931 3.78436 14.4889 3.78436 14.2397 4.03364C13.9904 4.28291 13.9904 4.68704 14.2397 4.93632L17.1245 7.82117L13.8808 11.0649C13.6315 11.3141 13.6315 11.7183 13.8808 11.9676C14.13 12.2168 14.5342 12.2169 14.7835 11.9676L18.4785 8.27253C18.7278 8.02325 18.7278 7.61913 18.4785 7.36985L15.1423 4.03364Z" fill="#587C0C"/>
<path d="M12.7824 2.61963C12.4499 2.50218 12.0854 2.67657 11.968 3.00895L8.59275 12.5663C8.47539 12.8987 8.64964 13.2633 8.98207 13.3807C9.31436 13.4981 9.67909 13.3238 9.79649 12.9914L13.1717 3.43406C13.2891 3.10163 13.1148 2.73699 12.7824 2.61963Z" fill="#587C0C"/>
<path fill-rule="evenodd" clip-rule="evenodd" d="M3.08357 0.0302734H18.7037C20.404 0.0302734 21.7872 1.41355 21.7872 3.11385V12.887C21.7872 14.5873 20.404 15.9706 18.7037 15.9706H3.08357C1.38328 15.9706 0 14.5873 0 12.887V3.11385C0 1.41355 1.38328 0.0302734 3.08357 0.0302734ZM18.7037 14.694C19.7 14.694 20.5106 13.8834 20.5106 12.887V3.11385C20.5106 2.11747 19.7 1.30687 18.7037 1.30687H3.08357C2.08719 1.30687 1.2766 2.11747 1.2766 3.11385V12.887C1.2766 13.8834 2.08719 14.694 3.08357 14.694H18.7037Z" fill="#587C0C"/>
</svg>
