<svg width="25" height="12" viewBox="0 0 25 12" fill="none" xmlns="http://www.w3.org/2000/svg">
<path d="M24.4904 5.31498C24.4901 5.31469 24.4898 5.31435 24.4895 5.31406L19.4328 0.281803C19.054 -0.0951807 18.4413 -0.0937775 18.0642 0.285093C17.6872 0.663916 17.6886 1.27664 18.0675 1.65367L21.4625 5.03225H0.967742C0.433258 5.03225 0 5.46551 0 6C0 6.53448 0.433258 6.96774 0.967742 6.96774H21.4624L18.0675 10.3463C17.6887 10.7234 17.6872 11.3361 18.0643 11.7149C18.4413 12.0938 19.0541 12.0951 19.4329 11.7182L24.4895 6.68593C24.4898 6.68564 24.4901 6.6853 24.4904 6.68501C24.8694 6.30672 24.8682 5.69201 24.4904 5.31498Z" fill="#0062DA"/>
</svg>
