<svg width="16" height="16" viewBox="0 0 16 16" fill="none" xmlns="http://www.w3.org/2000/svg">
<path d="M15 0.666667H0.999959C0.815959 0.666667 0.666626 0.517333 0.666626 0.333333C0.666626 0.149333 0.815959 0 0.999959 0H15C15.184 0 15.3333 0.149333 15.3333 0.333333C15.3333 0.517333 15.184 0.666667 15 0.666667Z" fill="black"/>
<path d="M12.3333 8H11.0667C10.8827 8 10.7333 7.85067 10.7333 7.66667C10.7333 7.48267 10.8827 7.33333 11.0667 7.33333H12.3333C12.8847 7.33333 13.3333 6.88467 13.3333 6.33333V0.666667H2.66667V6.33333C2.66667 6.88467 3.11533 7.33333 3.66667 7.33333H4.93333C5.11733 7.33333 5.26667 7.48267 5.26667 7.66667C5.26667 7.85067 5.11733 8 4.93333 8H3.66667C2.748 8 2 7.252 2 6.33333V0.333333C2 0.149333 2.14933 0 2.33333 0H13.6667C13.8507 0 14 0.149333 14 0.333333V6.33333C14 7.252 13.252 8 12.3333 8Z" fill="black"/>
<path d="M10.6667 4.66667C10.4827 4.66667 10.3334 4.51733 10.3334 4.33333V2.66667H8.66671C8.48271 2.66667 8.33337 2.51733 8.33337 2.33333C8.33337 2.14933 8.48271 2 8.66671 2H10.6667C10.8507 2 11 2.14933 11 2.33333V4.33333C11 4.51733 10.8507 4.66667 10.6667 4.66667Z" fill="black"/>
<path fill-rule="evenodd" clip-rule="evenodd" d="M12 10.0001C12 10.7354 12.598 11.3334 13.3333 11.3334C14.0687 11.3334 14.6667 10.7354 14.6667 10.0001C14.6667 9.26475 14.0687 8.66675 13.3333 8.66675C12.598 8.66675 12 9.26475 12 10.0001ZM12.6667 10.0001C12.6667 9.63275 12.966 9.33341 13.3333 9.33341C13.7007 9.33341 14 9.63275 14 10.0001C14 10.3674 13.7007 10.6667 13.3333 10.6667C12.966 10.6667 12.6667 10.3674 12.6667 10.0001Z" fill="black"/>
<path d="M15.6667 14.6667C15.4827 14.6667 15.3333 14.5173 15.3333 14.3333V13.6667C15.3333 13.1153 14.8847 12.6667 14.3333 12.6667H12.3333C12.1493 12.6667 12 12.5173 12 12.3333C12 12.1493 12.1493 12 12.3333 12H14.3333C15.252 12 16 12.748 16 13.6667V14.3333C16 14.5173 15.8507 14.6667 15.6667 14.6667Z" fill="black"/>
<path fill-rule="evenodd" clip-rule="evenodd" d="M1.33337 10.0001C1.33337 10.7354 1.93137 11.3334 2.66671 11.3334C3.40204 11.3334 4.00004 10.7354 4.00004 10.0001C4.00004 9.26475 3.40204 8.66675 2.66671 8.66675C1.93137 8.66675 1.33337 9.26475 1.33337 10.0001ZM2.00004 10.0001C2.00004 9.63275 2.29937 9.33341 2.66671 9.33341C3.03404 9.33341 3.33337 9.63275 3.33337 10.0001C3.33337 10.3674 3.03404 10.6667 2.66671 10.6667C2.29937 10.6667 2.00004 10.3674 2.00004 10.0001Z" fill="black"/>
<path d="M0.333333 14.6667C0.149333 14.6667 0 14.5173 0 14.3333V13.6667C0 12.748 0.748 12 1.66667 12H3.66667C3.85067 12 4 12.1493 4 12.3333C4 12.5173 3.85067 12.6667 3.66667 12.6667H1.66667C1.11533 12.6667 0.666667 13.1153 0.666667 13.6667V14.3333C0.666667 14.5173 0.517333 14.6667 0.333333 14.6667Z" fill="black"/>
<path fill-rule="evenodd" clip-rule="evenodd" d="M6 9.66675C6 10.7694 6.89733 11.6667 8 11.6667C9.10267 11.6667 10 10.7694 10 9.66675C10 8.56408 9.10267 7.66675 8 7.66675C6.89733 7.66675 6 8.56408 6 9.66675ZM6.66667 9.66675C6.66667 8.93141 7.26467 8.33341 8 8.33341C8.73533 8.33341 9.33333 8.93141 9.33333 9.66675C9.33333 10.4021 8.73533 11.0001 8 11.0001C7.26467 11.0001 6.66667 10.4021 6.66667 9.66675Z" fill="black"/>
<path d="M11.3334 16.0001C11.1494 16.0001 11 15.8507 11 15.6667V14.3334C11 13.7821 10.5514 13.3334 10 13.3334H6.00004C5.44871 13.3334 5.00004 13.7821 5.00004 14.3334V15.6667C5.00004 15.8507 4.85071 16.0001 4.66671 16.0001C4.48271 16.0001 4.33337 15.8507 4.33337 15.6667V14.3334C4.33337 13.4147 5.08137 12.6667 6.00004 12.6667H10C10.9187 12.6667 11.6667 13.4147 11.6667 14.3334V15.6667C11.6667 15.8507 11.5174 16.0001 11.3334 16.0001Z" fill="black"/>
</svg>
