<svg width="16" height="15" viewBox="0 0 16 15" fill="none" xmlns="http://www.w3.org/2000/svg">
<path d="M7.66667 11.3333H1.66667C0.748 11.3333 0 10.586 0 9.66667V1.66667C0 0.747333 0.748 0 1.66667 0H14.3333C15.252 0 16 0.747333 16 1.66667V9.66667C16 9.85067 15.8507 10 15.6667 10C15.4827 10 15.3333 9.85067 15.3333 9.66667V1.66667C15.3333 1.11533 14.8847 0.666667 14.3333 0.666667H1.66667C1.11533 0.666667 0.666667 1.11533 0.666667 1.66667V9.66667C0.666667 10.218 1.11533 10.6667 1.66667 10.6667H7.66667C7.85067 10.6667 8 10.816 8 11C8 11.184 7.85067 11.3333 7.66667 11.3333Z" fill="black"/>
<path d="M11 3.33341H2.33333C2.14933 3.33341 2 3.18408 2 3.00008C2 2.81608 2.14933 2.66675 2.33333 2.66675H11C11.184 2.66675 11.3333 2.81608 11.3333 3.00008C11.3333 3.18408 11.184 3.33341 11 3.33341Z" fill="black"/>
<path d="M13.6667 5.99992H2.33333C2.14933 5.99992 2 5.85059 2 5.66659C2 5.48259 2.14933 5.33325 2.33333 5.33325H13.6667C13.8507 5.33325 14 5.48259 14 5.66659C14 5.85059 13.8507 5.99992 13.6667 5.99992Z" fill="black"/>
<path d="M7.66667 8.66667H2.33333C2.14933 8.66667 2 8.51733 2 8.33333C2 8.14933 2.14933 8 2.33333 8H7.66667C7.85067 8 8 8.14933 8 8.33333C8 8.51733 7.85067 8.66667 7.66667 8.66667Z" fill="black"/>
<path fill-rule="evenodd" clip-rule="evenodd" d="M9.33337 9.66659C9.33337 10.9533 10.38 11.9999 11.6667 11.9999C12.9534 11.9999 14 10.9533 14 9.66659C14 8.37992 12.9534 7.33325 11.6667 7.33325C10.38 7.33325 9.33337 8.37992 9.33337 9.66659ZM10 9.66659C10 8.74725 10.748 7.99992 11.6667 7.99992C12.5854 7.99992 13.3334 8.74725 13.3334 9.66659C13.3334 10.5859 12.5854 11.3333 11.6667 11.3333C10.748 11.3333 10 10.5859 10 9.66659Z" fill="black"/>
<path d="M13 14.6666C12.9133 14.6666 12.828 14.6326 12.764 14.5692L11.6666 13.4712L10.5693 14.5686C10.478 14.6606 10.3426 14.6906 10.2206 14.6466C10.0993 14.6032 10.014 14.4932 10.002 14.3646L9.66862 10.8646C9.65129 10.6812 9.78529 10.5179 9.96862 10.5006C10.1526 10.4906 10.3146 10.6179 10.332 10.8006L10.598 13.5959L11.4313 12.7632C11.5613 12.6332 11.7726 12.6332 11.9026 12.7632L12.736 13.5959L13.002 10.8006C13.0193 10.6179 13.1806 10.4919 13.3653 10.5006C13.5486 10.5179 13.6833 10.6812 13.6653 10.8646L13.332 14.3646C13.32 14.4926 13.2346 14.6026 13.1133 14.6466C13.076 14.6599 13.038 14.6666 13 14.6666Z" fill="black"/>
</svg>
