<svg width="34" height="32" viewBox="0 0 34 32" fill="none" xmlns="http://www.w3.org/2000/svg">
<path d="M33.3616 16L29.5849 11.7724L30.1762 6.11268L24.6537 4.93398L21.8366 0L16.6808 2.32327L15.9849 16L16.6808 29.6767L21.8367 32L24.6537 27.0661L30.1762 25.8873L29.5849 20.2276L33.3616 16Z" fill="#5DC2A7"/>
<path d="M11.5249 0L8.70793 4.93398L3.18537 6.11274L3.7767 11.7724L0 16L3.7767 20.2276L3.18537 25.8873L8.70793 27.0661L11.525 32L16.6809 29.6767V2.32327L11.5249 0Z" fill="#5DC2A7"/>
<path d="M23.8295 12.2224L22.3585 10.8936L16.7841 17.2138L16.083 18.7845L16.7841 20.2106L23.8295 12.2224Z" fill="#F7F0EB"/>
<path d="M10.926 14.4436L9.53174 15.8547L15.3937 21.7871L16.7842 20.2106V17.2138L15.3123 18.8826L10.926 14.4436Z" fill="#FFFBF5"/>
</svg>
