<svg width="48" height="48" viewBox="0 0 48 48" fill="none" xmlns="http://www.w3.org/2000/svg">
<path d="M48.0003 13.1072V46.5938C48.0003 47.37 47.3703 48 46.5941 48H7.01562C6.23937 48 5.60938 47.37 5.60938 46.5938V1.40625C5.60938 0.63 6.23937 0 7.01562 0H34.7244C35.0938 0 35.4481 0.145312 35.7116 0.405L47.5812 12.105C47.8494 12.3694 48.0003 12.7303 48.0003 13.1072Z" fill="#F4F1F1"/>
<path d="M47.5811 12.105L35.7114 0.405C35.448 0.145312 35.0936 0 34.7242 0H26.8047V48H46.5939C47.3702 48 48.0002 47.37 48.0002 46.5938V13.1072C48.0002 12.7303 47.8492 12.3694 47.5811 12.105Z" fill="#ECEAE7"/>
<path d="M47.9996 13.1072V14.5134H37.5352C35.2093 14.5134 33.3174 12.6206 33.3174 10.2947V0H34.7236C35.093 0 35.4474 0.145312 35.7108 0.405L47.5805 12.105C47.8486 12.3694 47.9996 12.7303 47.9996 13.1072Z" fill="#E7DFDD"/>
<path d="M29.5894 19.3765V34.1412C29.5894 38.2306 26.2622 41.5578 22.1728 41.5578H7.41656C3.32719 41.5578 0 38.2306 0 34.1412V19.3765C0 15.2871 3.32719 11.96 7.41656 11.96H22.1728C26.2622 11.96 29.5894 15.2871 29.5894 19.3765Z" fill="#FF405C"/>
<path d="M22.173 11.96H14.7949V41.5578H22.173C26.2624 41.5578 29.5896 38.2306 29.5896 34.1412V19.3765C29.5896 15.2871 26.2624 11.96 22.173 11.96Z" fill="#D01273"/>
<path d="M11.9818 33.4362C11.6219 33.4362 11.2619 33.299 10.9874 33.0244L5.7156 27.7525C5.16641 27.2033 5.16641 26.313 5.7156 25.7638L10.9874 20.492C11.5365 19.9428 12.427 19.9428 12.9762 20.492C13.5254 21.0412 13.5254 21.9315 12.9762 22.4807L8.69873 26.7581L12.9762 31.0356C13.5254 31.5848 13.5254 32.4751 12.9762 33.0243C12.7015 33.2989 12.3416 33.4362 11.9818 33.4362Z" fill="#FFA07A"/>
<path d="M17.6074 33.4371C17.2475 33.4371 16.8876 33.2999 16.6131 33.0253C16.0639 32.4761 16.0639 31.5857 16.6131 31.0365L20.8905 26.7591L16.6131 22.4817C16.0639 21.9325 16.0639 21.0421 16.6131 20.4929C17.1622 19.9438 18.0526 19.9438 18.6018 20.4929L23.8736 25.7648C24.4228 26.314 24.4228 27.2043 23.8736 27.7535L18.6018 33.0254C18.3271 33.2998 17.9672 33.4371 17.6074 33.4371Z" fill="#FF8659"/>
</svg>
