<svg width="22" height="22" viewBox="0 0 22 22" fill="none" xmlns="http://www.w3.org/2000/svg">
<circle cx="11" cy="11" r="11" fill="url(#paint0_linear)"/>
<path fill-rule="evenodd" clip-rule="evenodd" d="M10.9444 9.85501L10.4971 8.96049C10.3014 8.57063 9.90932 8.32833 9.47331 8.32833H6.80164V4.89337C6.80164 4.68243 6.97231 4.51172 7.18329 4.51172H12.9082V6.42C12.9082 6.63098 13.0789 6.8017 13.2899 6.8017H15.9616V9.85501H10.9444ZM13.6717 4.68914V6.03836H15.6955L13.6717 4.68914ZM17.1066 10.6184H10.4726L9.81475 9.30265C9.74991 9.17332 9.61795 9.09168 9.47336 9.09168H4.89337C4.68239 9.09168 4.51172 9.26239 4.51172 9.47337V17.1066C4.51172 17.3176 4.68243 17.4883 4.89337 17.4883H17.1066C17.3176 17.4883 17.4882 17.3176 17.4882 17.1066V11C17.4883 10.789 17.3176 10.6184 17.1066 10.6184ZM7.94657 15.9616H6.41989C6.20896 15.9616 6.03824 15.7909 6.03824 15.5799C6.03824 15.369 6.20896 15.1983 6.41989 15.1983H7.94657C8.15755 15.1983 8.32822 15.369 8.32822 15.5799C8.32822 15.7909 8.15755 15.9616 7.94657 15.9616ZM6.41989 14.435H7.94657C8.15755 14.435 8.32822 14.2642 8.32822 14.0533C8.32822 13.8424 8.15755 13.6717 7.94657 13.6717H6.41989C6.20896 13.6717 6.03824 13.8423 6.03824 14.0533C6.03824 14.2642 6.20896 14.435 6.41989 14.435Z" fill="url(#paint1_linear)"/>
<defs>
<linearGradient id="paint0_linear" x1="22" y1="22" x2="22" y2="0" gradientUnits="userSpaceOnUse">
<stop stop-color="#FFE59A"/>
<stop offset="1" stop-color="#FFFFD5"/>
</linearGradient>
<linearGradient id="paint1_linear" x1="4.51174" y1="4.51172" x2="4.51174" y2="17.4883" gradientUnits="userSpaceOnUse">
<stop stop-color="#FD5900"/>
<stop offset="1" stop-color="#FFDE00"/>
</linearGradient>
</defs>
</svg>
