<svg width="22" height="22" viewBox="0 0 22 22" fill="none" xmlns="http://www.w3.org/2000/svg">
<circle cx="11" cy="11" r="11" fill="url(#paint0_linear)"/>
<path fill-rule="evenodd" clip-rule="evenodd" d="M9.09137 4.89337C9.09137 4.6796 8.92341 4.51172 8.70959 4.51172C8.49578 4.51172 8.32782 4.67964 8.32782 4.89337V5.27502H9.09133V4.89337H9.09137ZM11.382 4.89337C11.382 4.6796 11.214 4.51172 11.0002 4.51172C10.7864 4.51172 10.6184 4.67964 10.6184 4.89337V5.27502H11.3819V4.89337H11.382ZM13.2907 4.51172C13.5045 4.51172 13.6725 4.6796 13.6725 4.89337H13.6725V5.27502H12.909V4.89337C12.909 4.67964 13.0769 4.51172 13.2907 4.51172ZM15.5812 5.27506H13.6724V6.42005C13.6724 6.63382 13.5044 6.8017 13.2906 6.8017C13.0768 6.8017 12.9088 6.63377 12.9088 6.42005V5.27506H11.3818V6.42005C11.3818 6.63382 11.2139 6.8017 11 6.8017C10.7862 6.8017 10.6183 6.63377 10.6183 6.42005V5.27506H9.09124V6.42005C9.09124 6.63382 8.92328 6.8017 8.70946 6.8017C8.49565 6.8017 8.32769 6.63377 8.32769 6.42005V5.27506H6.41889C6.20507 5.27506 6.03711 5.44298 6.03711 5.65671V17.1066C6.03711 17.3204 6.20507 17.4883 6.41889 17.4883H15.5812C15.795 17.4883 15.9629 17.3204 15.9629 17.1066V5.65671C15.963 5.44294 15.795 5.27506 15.5812 5.27506ZM9.13764 14.8628C9.28678 14.7138 9.28678 14.4723 9.13764 14.3232L8.86771 14.0533L9.13764 13.7835C9.28678 13.6344 9.28678 13.3929 9.13764 13.2438C8.98854 13.0947 8.74697 13.0947 8.59782 13.2438L8.32789 13.5136L8.05796 13.2438C7.90886 13.0947 7.66729 13.0947 7.51815 13.2438C7.369 13.3928 7.369 13.6344 7.51815 13.7835L7.78808 14.0533L7.51815 14.3232C7.369 14.4722 7.369 14.7137 7.51815 14.8628C7.66725 15.0119 7.90886 15.0119 8.05796 14.8628L8.32789 14.593L8.59782 14.8628C8.74693 15.0119 8.98854 15.0119 9.13764 14.8628ZM9.13764 11.6515C9.28678 11.8006 9.28678 12.0421 9.13764 12.1912C8.98854 12.3403 8.74693 12.3403 8.59782 12.1912L8.32789 11.9213L8.05796 12.1912C7.90886 12.3403 7.66725 12.3403 7.51815 12.1912C7.369 12.0421 7.369 11.8006 7.51815 11.6515L7.78808 11.3817L7.51815 11.1118C7.369 10.9627 7.369 10.7212 7.51815 10.5721C7.66729 10.423 7.90886 10.423 8.05796 10.5721L8.32789 10.842L8.59782 10.5721C8.74697 10.423 8.98854 10.423 9.13764 10.5721C9.28678 10.7212 9.28678 10.9627 9.13764 11.1118L8.86771 11.3817L9.13764 11.6515ZM9.13764 9.51956C9.28678 9.3705 9.28678 9.12898 9.13764 8.97987L8.86771 8.71003L9.13764 8.44019C9.28678 8.29113 9.28678 8.0496 9.13764 7.9005C8.98854 7.7514 8.74697 7.7514 8.59782 7.9005L8.32789 8.17034L8.05796 7.9005C7.90886 7.7514 7.66729 7.7514 7.51815 7.9005C7.369 8.04956 7.369 8.29109 7.51815 8.44019L7.78808 8.71003L7.51815 8.97987C7.369 9.12893 7.369 9.37046 7.51815 9.51956C7.66725 9.66866 7.90886 9.66866 8.05796 9.51956L8.32789 9.24972L8.59782 9.51956C8.74693 9.66866 8.98854 9.66866 9.13764 9.51956ZM11.8099 14.3232C11.9591 14.4723 11.9591 14.7138 11.8099 14.8628C11.6608 15.0119 11.4192 15.0119 11.2701 14.8628L11.0002 14.593L10.7302 14.8628C10.5811 15.0119 10.3395 15.0119 10.1904 14.8628C10.0413 14.7137 10.0413 14.4722 10.1904 14.3232L10.4604 14.0533L10.1904 13.7835C10.0413 13.6344 10.0413 13.3928 10.1904 13.2438C10.3396 13.0947 10.5811 13.0947 10.7302 13.2438L11.0002 13.5136L11.2701 13.2438C11.4192 13.0947 11.6608 13.0947 11.8099 13.2438C11.9591 13.3929 11.9591 13.6344 11.8099 13.7835L11.54 14.0533L11.8099 14.3232ZM11.8099 12.1912C11.9591 12.0421 11.9591 11.8006 11.8099 11.6515L11.54 11.3817L11.8099 11.1118C11.9591 10.9627 11.9591 10.7212 11.8099 10.5721C11.6608 10.423 11.4192 10.423 11.2701 10.5721L11.0002 10.842L10.7302 10.5721C10.5811 10.423 10.3396 10.423 10.1904 10.5721C10.0413 10.7212 10.0413 10.9627 10.1904 11.1118L10.4604 11.3817L10.1904 11.6515C10.0413 11.8006 10.0413 12.0421 10.1904 12.1912C10.3395 12.3403 10.5811 12.3403 10.7302 12.1912L11.0002 11.9213L11.2701 12.1912C11.4192 12.3403 11.6608 12.3403 11.8099 12.1912ZM11.8099 8.97987C11.9591 9.12898 11.9591 9.3705 11.8099 9.51956C11.6608 9.66866 11.4192 9.66866 11.2701 9.51956L11.0002 9.24972L10.7302 9.51956C10.5811 9.66866 10.3395 9.66866 10.1904 9.51956C10.0413 9.37046 10.0413 9.12893 10.1904 8.97987L10.4604 8.71003L10.1904 8.44019C10.0413 8.29109 10.0413 8.04956 10.1904 7.9005C10.3396 7.7514 10.5811 7.7514 10.7302 7.9005L11.0002 8.17034L11.2701 7.9005C11.4192 7.7514 11.6608 7.7514 11.8099 7.9005C11.9591 8.0496 11.9591 8.29113 11.8099 8.44019L11.54 8.71003L11.8099 8.97987ZM14.4822 14.8628C14.6313 14.7138 14.6313 14.4723 14.4822 14.3232L14.2123 14.0533L14.4822 13.7835C14.6313 13.6344 14.6313 13.3929 14.4822 13.2438C14.3331 13.0947 14.0915 13.0947 13.9424 13.2438L13.6724 13.5136L13.4025 13.2438C13.2534 13.0947 13.0118 13.0947 12.8627 13.2438C12.7136 13.3928 12.7136 13.6344 12.8627 13.7835L13.1326 14.0533L12.8627 14.3232C12.7136 14.4722 12.7136 14.7137 12.8627 14.8628C13.0118 15.0119 13.2534 15.0119 13.4025 14.8628L13.6724 14.593L13.9424 14.8628C14.0915 15.0119 14.3331 15.0119 14.4822 14.8628ZM14.4822 11.6515C14.6313 11.8006 14.6313 12.0421 14.4822 12.1912C14.3331 12.3403 14.0915 12.3403 13.9424 12.1912L13.6724 11.9213L13.4025 12.1912C13.2534 12.3403 13.0118 12.3403 12.8627 12.1912C12.7136 12.0421 12.7136 11.8006 12.8627 11.6515L13.1326 11.3817L12.8627 11.1118C12.7136 10.9627 12.7136 10.7212 12.8627 10.5721C13.0118 10.423 13.2534 10.423 13.4025 10.5721L13.6724 10.842L13.9424 10.5721C14.0915 10.423 14.3331 10.423 14.4822 10.5721C14.6313 10.7212 14.6313 10.9627 14.4822 11.1118L14.2123 11.3817L14.4822 11.6515ZM14.4822 9.51956C14.6313 9.3705 14.6313 9.12898 14.4822 8.97987L14.2123 8.71003L14.4822 8.44019C14.6313 8.29113 14.6313 8.0496 14.4822 7.9005C14.3331 7.7514 14.0915 7.7514 13.9424 7.9005L13.6724 8.17034L13.4025 7.9005C13.2534 7.7514 13.0118 7.7514 12.8627 7.9005C12.7136 8.04956 12.7136 8.29109 12.8627 8.44019L13.1326 8.71003L12.8627 8.97987C12.7136 9.12893 12.7136 9.37046 12.8627 9.51956C13.0118 9.66866 13.2534 9.66866 13.4025 9.51956L13.6724 9.24972L13.9424 9.51956C14.0915 9.66866 14.3331 9.66866 14.4822 9.51956Z" fill="url(#paint1_linear)"/>
<defs>
<linearGradient id="paint0_linear" x1="22" y1="22" x2="22" y2="0" gradientUnits="userSpaceOnUse">
<stop stop-color="#FFC2CC"/>
<stop offset="1" stop-color="#FFF2F4"/>
</linearGradient>
<linearGradient id="paint1_linear" x1="15.963" y1="17.4883" x2="15.963" y2="4.51172" gradientUnits="userSpaceOnUse">
<stop stop-color="#FFA68D"/>
<stop offset="1" stop-color="#FD3A84"/>
</linearGradient>
</defs>
</svg>
