<svg width="22" height="22" viewBox="0 0 22 22" fill="none" xmlns="http://www.w3.org/2000/svg">
<circle cx="11" cy="11" r="11" fill="url(#paint0_linear)"/>
<path fill-rule="evenodd" clip-rule="evenodd" d="M6.68032 6.43881L6.68091 6.43861C7.27276 6.24104 7.88477 6.03711 8.70998 6.03711C9.55664 6.03711 10.1908 6.25423 10.6183 6.4723V15.7599C10.3816 15.5816 9.75451 15.1994 8.70998 15.1994C8.00894 15.1994 7.48134 15.3751 6.92334 15.561L6.92333 15.5611L6.92244 15.5613C6.33059 15.759 5.71858 15.9629 4.89337 15.9629C4.68243 15.9629 4.51172 15.7921 4.51172 15.5811V7.1824C4.51172 6.97138 4.68239 6.80062 4.89337 6.80062C5.59454 6.80062 6.1222 6.62479 6.68032 6.43881ZM9.42332 12.955C9.61938 12.9804 9.82366 12.8365 9.85197 12.627C9.87952 12.4178 9.73269 12.2258 9.52322 12.1982C9.25935 12.1632 8.98577 12.1453 8.70995 12.1453C7.7245 12.1453 6.97904 12.3656 6.29996 12.5912C6.09943 12.6576 5.99136 12.8738 6.0577 13.074C6.124 13.2743 6.34044 13.3818 6.53998 13.3159C7.1602 13.1098 7.83854 12.9088 8.70995 12.9088C8.96265 12.9088 9.20044 12.9256 9.42332 12.955ZM9.85197 10.7181C9.82366 10.9276 9.61938 11.0723 9.42332 11.0462C9.20044 11.0168 8.96265 10.9999 8.70995 10.9999C7.83854 10.9999 7.1602 11.2009 6.53998 11.4071C6.34044 11.473 6.124 11.3655 6.0577 11.1651C5.99136 10.9649 6.09943 10.7487 6.29996 10.6823C6.97904 10.4567 7.7245 10.2364 8.70995 10.2364C8.98577 10.2364 9.25935 10.2544 9.52322 10.2894C9.73269 10.317 9.87952 10.509 9.85197 10.7181ZM9.42332 9.13744C9.61938 9.16468 9.82366 9.01889 9.85197 8.80937C9.87952 8.6002 9.73269 8.40821 9.52322 8.38063C9.25935 8.34561 8.98577 8.32769 8.70995 8.32769C7.7245 8.32769 6.97904 8.54803 6.29996 8.77358C6.09943 8.83996 5.99136 9.05618 6.0577 9.25637C6.124 9.45674 6.34044 9.56425 6.53998 9.49833C7.1602 9.29212 7.83854 9.0912 8.70995 9.0912C8.96265 9.0912 9.20044 9.10796 9.42332 9.13744ZM17.1067 6.80062C16.4055 6.80062 15.8779 6.62481 15.3198 6.43884L15.3191 6.43861C14.7272 6.24104 14.1152 6.03711 13.2901 6.03711C12.4435 6.03711 11.8092 6.25432 11.3817 6.47238V15.7602C11.6206 15.5804 12.2473 15.1994 13.2901 15.1994C13.9911 15.1994 14.5186 15.3751 15.0766 15.561L15.0776 15.5613C15.6695 15.759 16.2815 15.9629 17.1067 15.9629C17.3177 15.9629 17.4883 15.7921 17.4883 15.5811V7.1824C17.4883 6.97138 17.3176 6.80062 17.1067 6.80062ZM15.4598 13.3159C15.6595 13.3819 15.8759 13.2742 15.9421 13.074C16.0084 12.8737 15.9004 12.6575 15.6999 12.5912C15.0208 12.3656 14.2753 12.1453 13.2899 12.1453C13.0141 12.1453 12.7405 12.1632 12.4766 12.1982C12.2671 12.2258 12.1203 12.4178 12.1478 12.627C12.1762 12.8365 12.3767 12.9793 12.5765 12.955C12.7994 12.9256 13.0372 12.9088 13.2899 12.9088C14.1613 12.9088 14.8396 13.1098 15.4598 13.3159ZM15.9421 11.1652C15.8759 11.3654 15.6595 11.4731 15.4598 11.4071C14.8396 11.201 14.1613 11 13.2899 11C13.0372 11 12.7994 11.0168 12.5765 11.0462C12.3767 11.0716 12.1762 10.9273 12.1478 10.7182C12.1203 10.509 12.2671 10.317 12.4766 10.2894C12.7405 10.2544 13.0141 10.2365 13.2899 10.2365C14.2753 10.2365 15.0208 10.4568 15.6999 10.6824C15.9004 10.7487 16.0084 10.965 15.9421 11.1652ZM15.4598 9.49829C15.6595 9.56424 15.8759 9.45656 15.9421 9.25633C16.0084 9.05614 15.9004 8.83992 15.6999 8.77353C15.0208 8.54799 14.2753 8.32765 13.2899 8.32765C13.0141 8.32765 12.7405 8.34556 12.4766 8.38058C12.2671 8.40817 12.1203 8.60015 12.1478 8.80933C12.1762 9.01884 12.3767 9.16347 12.5765 9.13739C12.7994 9.10792 13.0372 9.09116 13.2899 9.09116C14.1613 9.09116 14.8396 9.29212 15.4598 9.49829Z" fill="url(#paint1_linear)"/>
<defs>
<linearGradient id="paint0_linear" x1="22" y1="22" x2="22" y2="0" gradientUnits="userSpaceOnUse">
<stop stop-color="#ADDCFF"/>
<stop offset="0.5028" stop-color="#EAF6FF"/>
<stop offset="1" stop-color="#EAF6FF"/>
</linearGradient>
<linearGradient id="paint1_linear" x1="17.4882" y1="15.9629" x2="17.4882" y2="6.03711" gradientUnits="userSpaceOnUse">
<stop stop-color="#5558FF"/>
<stop offset="1" stop-color="#00C0FF"/>
</linearGradient>
</defs>
</svg>
