<svg width="16" height="16" viewBox="0 0 16 16" fill="none" xmlns="http://www.w3.org/2000/svg">
<path fill-rule="evenodd" clip-rule="evenodd" d="M14.1666 0H1.83337C0.822021 0 0 0.822021 0 1.83337V14.1666C0 15.178 0.822021 16 1.83337 16H14.1666C15.178 16 16 15.178 16 14.1666V1.83337C16 0.822021 15.178 0 14.1666 0ZM8 12.6666C7.63196 12.6666 7.33337 12.368 7.33337 12C7.33337 11.632 7.63196 11.3334 8 11.3334C8.36804 11.3334 8.66663 11.632 8.66663 12C8.66663 12.368 8.36804 12.6666 8 12.6666ZM8.66663 8.88794C8.66663 8.62134 8.82471 8.38062 9.06934 8.27539C10.17 7.80139 11 6.60803 11 5.5C11 3.84595 9.65405 2.5 8 2.5C6.34595 2.5 5 3.84595 5 5.5C5 5.86804 5.29871 6.16663 5.66663 6.16663C6.03467 6.16663 6.33337 5.86804 6.33337 5.5C6.33337 4.5813 7.0813 3.83337 8 3.83337C8.9187 3.83337 9.66663 4.5813 9.66663 5.5C9.66663 6.01465 9.21472 6.76062 8.54199 7.05066C7.80798 7.36731 7.33337 8.08801 7.33337 8.88794V9.33337C7.33337 9.70129 7.63196 10 8 10C8.36804 10 8.66663 9.70129 8.66663 9.33337V8.88794Z" fill="#FCF055"/>
</svg>
