<svg width="24" height="32" viewBox="0 0 24 32" fill="none" xmlns="http://www.w3.org/2000/svg">
<path d="M23.2133 8.76469V29.9385C23.2133 31.0772 22.2897 31.9999 21.1519 31.9999H2.0983C0.959615 31.9999 0.0368652 31.0772 0.0368652 29.9385V2.06144C0.0368027 0.92275 0.959553 0 2.0983 0H14.4486L23.2133 8.76469Z" fill="#518EF8"/>
<rect x="5.69873" y="16.0659" width="11.8516" height="1.31694" fill="white"/>
<rect x="5.69873" y="19.0071" width="11.8516" height="1.31694" fill="white"/>
<rect x="5.69873" y="21.9482" width="11.8516" height="1.31694" fill="white"/>
<rect x="5.69873" y="24.8894" width="8.42844" height="1.31694" fill="white"/>
<path d="M15.6444 8.57418L23.2133 11.6924V8.76462L18.922 7.49756L15.6444 8.57418Z" fill="#3A5BBC"/>
<path d="M23.2133 8.76469H16.51C15.3713 8.76469 14.4486 7.84194 14.4486 6.70325V0L23.2133 8.76469Z" fill="#ACD1FC"/>
</svg>
