<svg width="7" height="12" viewBox="0 0 7 12" fill="none" xmlns="http://www.w3.org/2000/svg">
<path d="M0.620931 5.32611H6.21113C6.43738 5.32611 6.64491 5.20076 6.75048 5.00087C6.8559 4.80056 6.84203 4.55893 6.71419 4.37184L3.88464 0.237378C3.78334 0.0893943 3.61564 0.00080325 3.43624 1.63105e-06C3.25704 -0.000435616 3.0888 0.0870624 2.98668 0.234609L0.119822 4.36914C-0.00938474 4.55541 -0.0244212 4.79823 0.0807853 4.99929C0.185992 5.20001 0.394073 5.32611 0.620931 5.32611Z" fill="#454545"/>
<path d="M6.21113 6.65576H0.620923C0.394065 6.65576 0.185984 6.78191 0.0807774 6.9826C-0.0244291 7.18366 -0.0093684 7.42648 0.119814 7.6127L2.98667 11.7472C3.08879 11.8948 3.25704 11.9823 3.43623 11.9819C3.61563 11.9811 3.78334 11.8925 3.88463 11.7445L6.71418 7.60998C6.84202 7.42296 6.85589 7.18128 6.75047 6.98095C6.6449 6.78111 6.43738 6.65576 6.21113 6.65576Z" fill="#454545"/>
</svg>
