<svg width="16" height="16" viewBox="0 0 16 16" fill="none" xmlns="http://www.w3.org/2000/svg">
<path d="M16 8C16 12.42 12.415 16 8 16C3.58 16 0 12.42 0 8C0 3.585 3.58 0 8 0C12.415 0 16 3.585 16 8Z" fill="#E24B4B"/>
<path d="M16 8.00002C16 12.42 12.415 16 8.00002 16C5.48002 16 3.23002 14.835 1.77002 13.015C3.14002 14.115 4.87502 14.77 6.77002 14.77C11.185 14.77 14.77 11.19 14.77 6.77002C14.77 4.87502 14.115 3.14002 13.01 1.77002C14.835 3.23502 16 5.48002 16 8.00002Z" fill="#D03F3F"/>
<path d="M6.35851 6.42338C6.25751 6.42338 6.16201 6.37438 6.10351 6.29138C5.55001 5.51038 4.79451 5.01238 3.72501 4.72538C3.55851 4.68038 3.45951 4.50888 3.50451 4.34238C3.54951 4.17538 3.72001 4.07788 3.88751 4.12188C4.92101 4.39988 5.72601 4.87638 6.33401 5.57438L6.77251 4.89638C6.86551 4.75138 7.06001 4.70988 7.20401 4.80338C7.34901 4.89738 7.39051 5.09038 7.29701 5.23538L6.62101 6.28038C6.56501 6.36738 6.46901 6.42088 6.36551 6.42338C6.36251 6.42338 6.36001 6.42338 6.35851 6.42338Z" fill="#3E4347"/>
<ellipse cx="5.06903" cy="7.82955" rx="1.263" ry="1.436" fill="#3E4347"/>
<path d="M9.64154 6.4234C9.63904 6.4234 9.63704 6.4234 9.63454 6.4234C9.53104 6.4214 9.43554 6.3674 9.37854 6.2804L8.70304 5.2354C8.60954 5.0904 8.65104 4.8969 8.79604 4.8034C8.94054 4.7094 9.13454 4.7514 9.22804 4.8964L9.66554 5.5739C10.274 4.8764 11.0785 4.3994 12.1125 4.1219C12.28 4.0764 12.4505 4.1754 12.4955 4.3424C12.5405 4.5089 12.4415 4.6804 12.275 4.7254C11.2055 5.0129 10.45 5.5104 9.89604 6.2919C9.83804 6.3744 9.74254 6.4234 9.64154 6.4234Z" fill="#3E4347"/>
<ellipse cx="10.931" cy="7.82955" rx="1.263" ry="1.436" fill="#3E4347"/>
<path d="M10.3005 12.5442C9.71097 11.9277 8.86797 11.5747 7.98647 11.5747C7.10497 11.5747 6.26197 11.9282 5.67247 12.5442C5.48097 12.7442 5.16397 12.7502 4.96547 12.5597C4.76597 12.3687 4.75897 12.0522 4.94997 11.8527C5.72747 11.0402 6.83397 10.5747 7.98647 10.5747C9.13947 10.5747 10.246 11.0407 11.023 11.8527C11.214 12.0522 11.207 12.3687 11.0075 12.5597C10.809 12.7502 10.492 12.7442 10.3005 12.5442Z" fill="#3E4347"/>
<path d="M11.6336 8.31285C11.5256 8.40565 11.3881 8.21258 11.3231 7.87978C11.2621 7.54592 11.2966 7.20245 11.4046 7.10965C11.5166 7.01578 11.6546 7.20885 11.7151 7.54272C11.7801 7.87445 11.7416 8.22005 11.6336 8.31285Z" fill="#5A5F63"/>
<path d="M5.71951 8.31285C5.61151 8.40565 5.47401 8.21258 5.40901 7.87978C5.34851 7.54592 5.38251 7.20245 5.49101 7.10965C5.60301 7.01578 5.74101 7.20885 5.80151 7.54272C5.86601 7.87445 5.82751 8.22005 5.71951 8.31285Z" fill="#5A5F63"/>
</svg>
