<svg width="16" height="16" viewBox="0 0 16 16" fill="none" xmlns="http://www.w3.org/2000/svg">
<circle cx="7.99885" cy="7.99885" r="7.99885" fill="#FFC10E"/>
<path d="M2.74731 8.00439C2.74731 10.9043 5.09834 13.2554 7.99828 13.2554C10.8984 13.2554 13.2494 10.9043 13.2494 8.00439H2.74731Z" fill="white"/>
<path d="M5.66174 8.00439C5.66174 9.57182 5.66174 11.1392 5.66174 12.7067C5.86508 12.808 6.07602 12.896 6.29327 12.9707C6.29327 11.3152 6.29327 9.65985 6.29327 8.00439L5.66174 8.00439Z" fill="#CCCBCB"/>
<path d="M9.5636 8.00439C9.5636 9.67565 9.5636 11.3468 9.5636 13.018C9.78071 12.9503 9.99114 12.8677 10.1951 12.7736C10.1951 11.1838 10.1951 9.5942 10.1951 8.00439H9.5636Z" fill="#CCCBCB"/>
<path d="M7.3985 5.36032C7.34166 4.3053 6.58865 3.55239 5.53376 3.49558C4.48114 3.43887 3.72117 4.39084 3.66902 5.36032C3.64704 5.76751 4.27867 5.76538 4.30054 5.36032C4.38618 3.77078 6.68151 3.77078 6.76701 5.36032C6.78885 5.76538 7.42048 5.76751 7.3985 5.36032Z" fill="#333333"/>
<path d="M11.9488 5.36032C11.892 4.3053 11.1389 3.55239 10.0841 3.49558C9.03143 3.43887 8.2716 4.39084 8.21931 5.36032C8.19734 5.76751 8.82896 5.76538 8.85084 5.36032C8.93647 3.77078 11.2317 3.77078 11.3173 5.36032C11.3391 5.76538 11.9708 5.76751 11.9488 5.36032Z" fill="#333333"/>
</svg>
