<svg width="16" height="16" viewBox="0 0 16 16" fill="none" xmlns="http://www.w3.org/2000/svg">
<path d="M0 7.98654C0 3.57537 3.57566 0 7.98632 0C12.3972 0 15.9729 3.5754 15.9729 7.98654C15.9729 12.3971 12.3972 15.9727 7.98632 15.9727C3.57566 15.9727 0 12.3971 0 7.98654Z" fill="#E04F5F"/>
<path d="M12.044 4.99454C10.9237 3.87422 9.10723 3.87422 7.98694 4.99454H7.98601C6.86565 3.87422 5.04922 3.87422 3.92893 4.99454C2.80858 6.11486 2.97012 7.79026 3.92893 9.05158C4.94433 10.3873 6.79827 12.591 7.98601 12.591H7.98694C9.17471 12.591 11.0286 10.3873 12.044 9.05158C13.0028 7.79029 13.1643 6.11489 12.044 4.99454Z" fill="white"/>
</svg>
