<svg width="50" height="50" viewBox="0 0 50 50" fill="none" xmlns="http://www.w3.org/2000/svg">
<path d="M41.5545 6.64773L32.1227 2.85909V2.85909C30.1936 1.04253 27.6497 0.0213948 25 0C20.6068 0 15.9091 0.302273 13.9205 1.42955C11.9318 2.55682 12.1955 3.44318 13.3773 2.85909C15.3366 1.93714 17.5449 1.68556 19.6614 2.14318L8.44545 6.64773C3.37056 8.684 0.032462 13.5887 0 19.0568H0V19.1386V19.1386V32.6C0 42.2098 7.79025 50 17.4 50H32.6C42.2098 50 50 42.2098 50 32.6V19.1386V19.1386C50.0002 13.6409 46.6566 8.69569 41.5545 6.64773V6.64773Z" fill="#F8DE40"/>
<path d="M50.0001 29.4043C43.7213 38.8071 33.1102 44.3932 21.8046 44.2475C9.20916 44.2475 6.88871 41.9748 1.02734 38.4998C3.51714 45.3996 10.0647 49.9986 17.4001 49.9998H32.6001C42.2098 49.9998 50.0001 42.2095 50.0001 32.5998V29.4043Z" fill="#E7C930"/>
<path d="M17.9704 20.1001C17.9661 20.2787 17.8475 20.4343 17.6765 20.486C17.5055 20.5376 17.3207 20.4737 17.2181 20.3273C16.8779 19.8154 16.4381 19.3772 15.925 19.0387C14.6063 18.1632 12.8913 18.1632 11.5727 19.0387C11.0575 19.378 10.6161 19.8179 10.275 20.3319C10.1724 20.4782 9.98759 20.5422 9.81658 20.4905C9.64556 20.4388 9.52704 20.2832 9.52269 20.1046C9.51337 19.2628 9.79068 18.4429 10.3091 17.7796C11.1395 16.7267 12.4067 16.1123 13.7477 16.1123C15.0887 16.1123 16.3558 16.7267 17.1863 17.7796C17.7016 18.4427 17.9779 19.2603 17.9704 20.1001V20.1001Z" fill="#864E20"/>
<path d="M40.4773 20.1001C40.4729 20.2787 40.3544 20.4343 40.1834 20.486C40.0124 20.5376 39.8275 20.4737 39.725 20.3273C39.3849 19.816 38.946 19.3779 38.4341 19.0387C37.1147 18.1628 35.3989 18.1628 34.0795 19.0387C33.5643 19.378 33.1229 19.8179 32.7818 20.3319C32.6793 20.4782 32.4944 20.5422 32.3234 20.4905C32.1524 20.4388 32.0339 20.2832 32.0295 20.1046C32.0202 19.2628 32.2975 18.4429 32.8159 17.7796C33.6464 16.7267 34.9135 16.1123 36.2545 16.1123C37.5956 16.1123 38.8627 16.7267 39.6932 17.7796C40.2085 18.4427 40.4848 19.2603 40.4773 20.1001Z" fill="#864E20"/>
<path d="M25.9568 22.7957C25.726 22.7391 25.482 22.7918 25.2951 22.9387C25.1083 23.0856 24.9995 23.3103 25 23.548C25.314 24.7645 25.5418 26.0017 25.6818 27.2502C25.5418 28.4988 25.314 29.736 25 30.9525C24.9995 31.1902 25.1083 31.4149 25.2951 31.5618C25.482 31.7087 25.726 31.7614 25.9568 31.7048C28.6748 30.8967 31.2237 29.6023 33.4795 27.8843C33.6851 27.7386 33.8073 27.5022 33.8073 27.2502C33.8073 26.9982 33.6851 26.7619 33.4795 26.6161C31.2243 24.8972 28.6752 23.6027 25.9568 22.7957V22.7957Z" fill="#F6921E"/>
<path d="M45.3637 24.1186C44.1718 23.1294 42.4182 23.2286 41.3455 24.3459L40.4796 25.2141L39.6137 24.3459C38.5407 23.2272 36.7855 23.128 35.5932 24.1186C35.0132 24.6396 34.673 25.3761 34.6524 26.1554C34.6317 26.9347 34.9325 27.6882 35.4841 28.2391L39.7728 32.5255C39.9603 32.7155 40.2161 32.8224 40.483 32.8224C40.7499 32.8224 41.0057 32.7155 41.1932 32.5255L45.4796 28.2391C46.0297 27.687 46.3289 26.9331 46.307 26.154C46.2851 25.3748 45.944 24.6389 45.3637 24.1186V24.1186Z" fill="#F06880"/>
</svg>
