<svg width="16" height="16" viewBox="0 0 16 16" fill="none" xmlns="http://www.w3.org/2000/svg">
<circle cx="7.99885" cy="7.99885" r="7.99885" fill="#0477E9"/>
<path d="M12.6622 7.97087C12.5607 7.84419 12.4848 7.79305 12.4596 7.66647C12.6622 7.56493 12.8649 7.15909 12.8649 7.03217C12.8398 6.17003 12.0281 5.99244 12.0281 5.99244C12.0281 5.99244 12.0281 5.99244 9.59333 5.99244C9.41574 5.96719 9.5427 5.48507 9.6441 5.30761C10.0751 4.54687 10.3288 3.86208 10.3288 3.50653C10.1769 1.75632 8.98452 2.06137 8.93402 2.23855C8.90864 4.01401 8.50256 4.41982 8.04609 4.72446C7.58938 5.02836 7.53861 5.3839 7.00636 6.60122C6.4736 7.81853 5.48413 7.41286 5.48413 7.41286C5.48413 7.41286 5.50951 7.79315 5.50951 11.3694C8.50256 11.9277 10.2021 11.8514 10.9881 11.7753C11.7748 11.6995 12.0281 11.1669 12.0281 10.8879C12.0281 10.5582 12.1295 10.38 12.2566 10.3043C12.8146 9.84777 12.6369 9.69566 12.4849 9.36615C12.3326 9.03585 12.3836 8.93469 12.6369 8.7062C12.9364 8.45212 12.7638 8.09718 12.6622 7.97087Z" fill="white"/>
<path d="M5.03413 7.28613H3.78179C3.71345 7.28613 3.65796 7.35435 3.65796 7.43935V11.4702C3.65796 11.5544 3.71342 11.6234 3.78179 11.6234H5.03413C5.10247 11.6234 5.15796 11.5544 5.15796 11.4702V7.43935C5.15796 7.35432 5.1025 7.28613 5.03413 7.28613Z" fill="white"/>
</svg>
