<svg width="21" height="16" viewBox="0 0 21 16" fill="none" xmlns="http://www.w3.org/2000/svg">
<path d="M18.1053 4.21054H8.37139C7.8274 4.21054 7.3457 3.8636 7.17308 3.34737L7.09899 3.12335C6.81178 2.26275 6.00928 1.68422 5.10233 1.68422H2.10525C0.944843 1.68422 0 2.62906 0 3.78947V13.8947C0 15.0552 0.944843 16 2.10525 16H18.1053C19.2657 16 20.2105 15.0552 20.2105 13.8947V6.31579C20.2105 5.15538 19.2657 4.21054 18.1053 4.21054Z" fill="black"/>
<path d="M17.263 0H5.10222C4.8698 0 4.68115 0.188645 4.68115 0.421066C4.68115 0.653487 4.8698 0.842132 5.10222 0.842132C6.37213 0.842132 7.49634 1.65225 7.89802 2.85644L7.97212 3.08128C8.02939 3.2539 8.19021 3.37011 8.3721 3.37011L18.1052 3.36841C18.3292 3.36841 18.5624 3.40208 18.8412 3.47452C18.8765 3.48379 18.9119 3.48798 18.9473 3.48798C19.039 3.48798 19.13 3.45766 19.205 3.40038C19.3077 3.32037 19.3683 3.19745 19.3683 3.06691V2.10521C19.3683 0.944843 18.4235 0 17.263 0Z" fill="black"/>
</svg>
