<svg width="16" height="16" viewBox="0 0 16 16" fill="none" xmlns="http://www.w3.org/2000/svg">
<path fill-rule="evenodd" clip-rule="evenodd" d="M15.2188 2.01196L13.9882 0.781372C13.4882 0.28064 12.8102 0 12.1028 0H1.8335C0.820801 0 0.00012207 0.820679 0.00012207 1.83337V14.1666C0.00012207 15.1793 0.820801 16 1.8335 16H14.1667C15.1794 16 16.0001 15.1793 16.0001 14.1666V3.89734C16.0001 3.18994 15.7195 2.51196 15.2188 2.01196ZM2.66675 4.16663V2.5C2.66675 2.224 2.89075 2 3.16675 2H10.1667C10.4427 2 10.6667 2.224 10.6667 2.5V4.16663C10.6667 4.44263 10.4427 4.66663 10.1667 4.66663H3.16675C2.89075 4.66663 2.66675 4.44263 2.66675 4.16663ZM5.00012 10.3334C5.00012 11.99 6.34351 13.3334 8.00012 13.3334C9.65674 13.3334 11.0001 11.99 11.0001 10.3334C11.0001 8.67664 9.65674 7.33337 8.00012 7.33337C6.34351 7.33337 5.00012 8.67664 5.00012 10.3334Z" fill="black"/>
</svg>
