<svg width="15" height="16" viewBox="0 0 15 16" fill="none" xmlns="http://www.w3.org/2000/svg">
<path fill-rule="evenodd" clip-rule="evenodd" d="M13.9231 0H4.89595C2.19625 0 0 2.19625 0 4.89563V15.531C0 15.9 0.405938 16.1213 0.715939 15.9294L3.11376 14.4431C3.38969 14.2719 3.70719 14.1816 4.03188 14.1816H9.49627C12.1956 14.1816 14.3919 11.9856 14.3919 9.28627V0.468751C14.3919 0.21 14.1819 0 13.9231 0ZM7.19564 11.536C6.93689 11.536 6.72689 11.3263 6.72689 11.0672C6.72689 10.8085 6.93689 10.5985 7.19564 10.5985C7.4547 10.5985 7.66439 10.8085 7.66439 11.0672C7.66439 11.3263 7.4547 11.536 7.19564 11.536ZM7.6647 9.17533V7.57595C8.9747 7.34814 9.94658 6.18564 9.91502 4.83157C9.89877 4.13313 9.61533 3.47407 9.11752 2.97594C8.61939 2.47782 7.96064 2.19438 7.2622 2.1775C6.52282 2.16 5.82438 2.43438 5.29595 2.95032C4.7672 3.46657 4.47594 4.15782 4.47594 4.89657C4.47594 5.15532 4.68595 5.36532 4.9447 5.36532C5.20376 5.36532 5.41345 5.15532 5.41345 4.89657C5.41345 4.41251 5.60438 3.95938 5.95095 3.62126C6.2972 3.28313 6.75595 3.10344 7.2397 3.11469C8.17626 3.13719 8.95595 3.91719 8.97783 4.85345C8.9997 5.79313 8.28501 6.59189 7.35064 6.67189C6.99532 6.70251 6.7272 6.99314 6.7272 7.34845V9.17533C6.7272 9.43439 6.93689 9.64408 7.19595 9.64408C7.4547 9.64408 7.6647 9.43439 7.6647 9.17533Z" fill="black"/>
</svg>
