<svg width="16" height="16" viewBox="0 0 16 16" fill="none" xmlns="http://www.w3.org/2000/svg">
<path fill-rule="evenodd" clip-rule="evenodd" d="M13.7509 5.98537L15.6796 6.618C15.8709 6.68162 16 6.86062 16 7.0625V8.9375C16 9.13937 15.8709 9.31837 15.6796 9.38197L13.7509 10.0146C13.6768 10.2266 13.5898 10.4362 13.4904 10.6413L14.3854 12.4307C14.4755 12.611 14.4403 12.8289 14.2975 12.9718L12.9718 14.2974C12.8285 14.4398 12.6106 14.4751 12.4307 14.3853L10.6413 13.4904C10.4362 13.5897 10.2266 13.6767 10.0146 13.7509L9.382 15.6796C9.31834 15.8709 9.13937 16 8.9375 16H7.0625C6.86062 16 6.68162 15.8709 6.61803 15.6796L5.98541 13.7509C5.77344 13.6768 5.56381 13.5898 5.35872 13.4904L3.56931 14.3854C3.38988 14.476 3.172 14.4408 3.02825 14.2975L1.70256 12.9718C1.55972 12.829 1.52447 12.6111 1.61466 12.4307L2.50959 10.6413C2.41025 10.4362 2.32328 10.2266 2.24913 10.0146L0.320437 9.382C0.129094 9.31837 0 9.13937 0 8.9375V7.0625C0 6.86062 0.129094 6.68166 0.320406 6.618L2.24909 5.98537C2.32325 5.77341 2.41022 5.56378 2.50956 5.35869L1.61462 3.56928C1.52447 3.38894 1.55972 3.17103 1.70253 3.02822L3.02822 1.70256C3.1715 1.55881 3.38847 1.52447 3.56928 1.61466L5.35869 2.50959C5.56378 2.41025 5.77344 2.32328 5.98537 2.24913L6.618 0.320437C6.68162 0.129094 6.86062 0 7.0625 0H8.9375C9.13937 0 9.31834 0.129094 9.38197 0.320406L10.0146 2.24909C10.2266 2.32325 10.4362 2.41022 10.6413 2.50956L12.4307 1.61462C12.6119 1.52447 12.8289 1.55972 12.9718 1.70253L14.2974 3.02822C14.4403 3.17103 14.4755 3.38894 14.3853 3.56928L13.4904 5.35869C13.5897 5.56378 13.6767 5.77344 13.7509 5.98537ZM4.71875 8C4.71875 9.80909 6.19091 11.2812 8 11.2812C9.80909 11.2812 11.2812 9.80909 11.2812 8C11.2812 6.19091 9.80909 4.71875 8 4.71875C6.19091 4.71875 4.71875 6.19091 4.71875 8Z" fill="black"/>
</svg>
