<svg width="16" height="16" viewBox="0 0 16 16" fill="none" xmlns="http://www.w3.org/2000/svg">
<path d="M12.512 3.90019H16.0001L12.0435 0V3.43144C12.0435 3.68991 12.2536 3.90019 12.512 3.90019Z" fill="black"/>
<path d="M11.106 3.43144V0H2.33856C2.07969 0 1.86981 0.209875 1.86981 0.46875V3.62522H7.10581C8.52522 3.62522 9.67997 4.77997 9.67997 6.19938V11.6397C9.67997 13.0591 8.52522 14.2138 7.10581 14.2138H1.86984V15.5312C1.86984 15.7901 2.07972 16 2.33859 16H15.5313C15.7902 16 16.0001 15.7901 16.0001 15.5312V4.83769H12.5119C11.7367 4.83769 11.106 4.20684 11.106 3.43144Z" fill="black"/>
<path fill-rule="evenodd" clip-rule="evenodd" d="M8.77378 6.19937V11.6397C8.77378 12.5608 8.02703 13.3076 7.10587 13.3076H1.66803C0.746872 13.3076 0.00012207 12.5608 0.00012207 11.6397V6.19937C0.00012207 5.27821 0.746872 4.53146 1.66803 4.53146H7.10587C8.02703 4.53146 8.77378 5.27821 8.77378 6.19937ZM5.50028 8.43646C5.68334 8.61953 5.98015 8.61953 6.16318 8.43646C6.34625 8.2534 6.34625 7.95662 6.16315 7.77356L4.71837 6.32878C4.54384 6.14721 4.23 6.14718 4.05547 6.32878L2.61072 7.77356C2.42765 7.95662 2.42765 8.2534 2.61072 8.43646C2.79378 8.61953 3.09059 8.61953 3.27362 8.43646L3.91818 7.7919V11.1962C3.94272 11.8176 4.8309 11.8181 4.85568 11.1962V7.79187L5.50028 8.43646Z" fill="black"/>
</svg>
