<svg width="15" height="16" viewBox="0 0 15 16" fill="none" xmlns="http://www.w3.org/2000/svg">
<path fill-rule="evenodd" clip-rule="evenodd" d="M1.89075 10.4905C0.696411 9.34377 0.015625 7.75331 0.015625 6.09291C0.015625 2.74868 2.7146 0.0085638 6.10986 1.88586e-05C9.48157 -0.00840399 12.3069 2.80568 12.2014 6.28383L14.0221 9.61843C14.1013 9.76406 14.0981 9.9402 14.0139 10.0827C13.9292 10.2245 13.7759 10.312 13.6106 10.312H12.1017L11.6077 12.349C11.3422 13.411 10.6193 14.1249 8.92261 14.1249H7.04749C6.27197 14.1249 5.64111 13.4939 5.64111 12.7185C5.64111 12.4594 5.4314 12.2497 5.17236 12.2497C4.91321 12.2497 4.70349 12.4594 4.70349 12.7185C4.70349 14.0109 5.75513 15.0624 7.04749 15.0624H7.51624V15.5313C7.51624 15.7903 7.30664 16 7.04749 16H2.35962C2.10046 16 1.89075 15.7903 1.89075 15.5313V10.4905ZM6.10986 3.90371C5.77576 3.61208 5.22913 3.28017 4.46912 3.28017C3.26648 3.28017 2.35962 4.17788 2.35962 5.36818C2.35962 6.41066 3.0957 7.01491 3.87537 7.65493C4.4856 8.15529 5.17737 8.72304 5.70703 9.61391C5.79126 9.75624 5.94458 9.84328 6.10986 9.84328C6.27515 9.84328 6.42859 9.75624 6.51282 9.61391C7.04248 8.72304 7.73425 8.15529 8.34448 7.65493L8.34463 7.6548C9.12412 7.01484 9.86023 6.41048 9.86023 5.36818C9.86023 4.17788 8.95337 3.28017 7.75073 3.28017C6.99072 3.28017 6.44409 3.61208 6.10986 3.90371Z" fill="black"/>
<path d="M4.47046 6.92981C4.97461 7.34375 5.57654 7.83765 6.10986 8.53809C6.64319 7.83765 7.24524 7.34375 7.74927 6.92981C8.52026 6.29761 8.92261 5.94055 8.92261 5.36829C8.92261 4.70166 8.42957 4.21777 7.75073 4.21777C6.94031 4.21777 6.51782 4.82666 6.49988 4.85229C6.41248 4.9823 6.26831 5.0918 6.10718 5.05969C5.95154 5.05835 5.80542 4.98145 5.71936 4.85193C5.69739 4.81982 5.27539 4.21777 4.46912 4.21777C3.79016 4.21777 3.29712 4.70166 3.29712 5.36829C3.29712 5.94055 3.69958 6.29761 4.47046 6.92981Z" fill="#EB9138"/>
</svg>
