<svg width="32" height="32" viewBox="0 0 32 32" fill="none" xmlns="http://www.w3.org/2000/svg">
<circle cx="16" cy="16" r="16" fill="url(#paint0_linear)"/>
<path fill-rule="evenodd" clip-rule="evenodd" d="M7.11762 6.5625H24.8824C25.1892 6.5625 25.4375 6.81075 25.4374 7.11756V18.2192C25.4374 18.5261 25.1891 18.7743 24.8823 18.7743H19.3308C19.3308 16.9377 17.8367 15.4438 15.9999 15.4438C14.1632 15.4438 12.6691 16.9377 12.6691 18.7743H7.11762C6.81081 18.7743 6.5625 18.5261 6.5625 18.2192V7.11756C6.5625 6.81075 6.81075 6.5625 7.11762 6.5625ZM13.0094 20.2133L11.9101 22.4117C11.8239 22.5841 11.8331 22.7884 11.9344 22.9516L13.3071 25.1719C13.4128 25.3432 13.6151 25.4564 13.8042 25.4348C14.0054 25.4256 14.1859 25.3085 14.2759 25.1286L15.7981 22.0844C14.5667 22.0091 13.5202 21.2697 13.0094 20.2133ZM18.9906 20.2134C18.4797 21.2697 17.4332 22.0091 16.2018 22.0845L17.724 25.1286C17.814 25.3086 17.9945 25.4257 18.1956 25.4349C18.2037 25.4354 18.2124 25.4354 18.2206 25.4354C18.4125 25.4354 18.5914 25.3362 18.6927 25.172L20.0654 22.9517C20.1668 22.7885 20.1761 22.5842 20.0898 22.4118L18.9906 20.2134ZM15.9999 8.78275C16.3065 8.78275 16.5551 9.03131 16.5551 9.33781C16.5551 9.64437 16.3065 9.89287 15.9999 9.89287C15.6933 9.89287 15.4448 9.64431 15.4448 9.33781C15.4448 9.03131 15.6933 8.78275 15.9999 8.78275ZM13.7794 8.78281H9.33821C9.03134 8.78281 8.78302 9.03112 8.78309 9.33787C8.78309 9.64469 9.0314 9.89293 9.33821 9.89293H13.7794C14.0862 9.89293 14.3345 9.64469 14.3345 9.33787C14.3345 9.03106 14.0862 8.78281 13.7794 8.78281ZM9.33821 11.0032H13.7794C14.0862 11.0032 14.3345 11.2514 14.3345 11.5582C14.3345 11.8651 14.0862 12.1133 13.7794 12.1133H9.33821C9.0314 12.1133 8.78309 11.8651 8.78309 11.5582C8.78302 11.2514 9.03134 11.0032 9.33821 11.0032ZM9.33821 14.3337H22.6617C22.9686 14.3337 23.2169 14.0854 23.2169 13.7786C23.2169 13.4718 22.9686 13.2236 22.6618 13.2236H9.33821C9.0314 13.2236 8.78309 13.4718 8.78309 13.7786C8.78309 14.0854 9.0314 14.3337 9.33821 14.3337ZM22.6618 12.1133H18.2206C17.9138 12.1133 17.6655 11.8651 17.6655 11.5582C17.6655 11.2514 17.9138 11.0032 18.2206 11.0032H22.6618C22.9686 11.0032 23.2169 11.2514 23.2169 11.5582C23.217 11.8651 22.9687 12.1133 22.6618 12.1133ZM18.2206 9.893H22.6618C22.9687 9.893 23.217 9.64475 23.2169 9.33794C23.2169 9.03112 22.9686 8.78287 22.6618 8.78287H18.2206C17.9138 8.78287 17.6655 9.03112 17.6655 9.33794C17.6655 9.64475 17.9138 9.893 18.2206 9.893ZM18.2206 18.7744C18.2206 17.5481 17.2264 16.5541 16.0001 16.5541C14.7737 16.5541 13.7795 17.5481 13.7795 18.7744C13.7795 20.0006 14.7737 20.9947 16.0001 20.9947C17.2264 20.9947 18.2206 20.0006 18.2206 18.7744ZM15.4448 18.7743C15.4448 19.0808 15.6933 19.3294 15.9999 19.3294C16.3065 19.3294 16.5551 19.0808 16.5551 18.7743C16.5551 18.4678 16.3065 18.2192 15.9999 18.2192C15.6933 18.2192 15.4448 18.4677 15.4448 18.7743Z" fill="url(#paint1_linear)"/>
<defs>
<linearGradient id="paint0_linear" x1="32" y1="32" x2="32" y2="0" gradientUnits="userSpaceOnUse">
<stop stop-color="#FFBEF9"/>
<stop offset="1" stop-color="#FFF1FF"/>
</linearGradient>
<linearGradient id="paint1_linear" x1="6.56254" y1="6.5625" x2="6.56254" y2="25.4375" gradientUnits="userSpaceOnUse">
<stop stop-color="#00B59C"/>
<stop offset="1" stop-color="#9CFFAC"/>
</linearGradient>
</defs>
</svg>
