<svg width="32" height="32" viewBox="0 0 32 32" fill="none" xmlns="http://www.w3.org/2000/svg">
<circle cx="16" cy="16" r="16" fill="url(#paint0_linear)"/>
<path fill-rule="evenodd" clip-rule="evenodd" d="M16 6.5625C10.7961 6.5625 6.5625 10.7961 6.5625 16C6.5625 21.2039 10.7961 25.4375 16 25.4375C21.2039 25.4375 25.4375 21.2039 25.4375 16C25.4375 10.7961 21.2039 6.5625 16 6.5625ZM17.1336 14.0001L16 11.703L14.8659 14.0001C14.7851 14.1638 14.6289 14.2776 14.4479 14.3037L11.9134 14.6723L13.748 16.4602C13.8786 16.5876 13.9383 16.7714 13.9074 16.9514L13.4742 19.4762L15.7419 18.2846C15.8227 18.2417 15.911 18.2206 16 18.2206C16.0889 18.2206 16.1772 18.2417 16.258 18.2846L18.5258 19.4762L18.0926 16.9514C18.0617 16.7714 18.1214 16.5877 18.252 16.4602L20.0866 14.6723L17.5515 14.3037C17.3705 14.2776 17.2144 14.1638 17.1336 14.0001ZM19.236 17.0518L21.6675 14.6821C21.8187 14.5346 21.8729 14.3139 21.8077 14.1134C21.7421 13.9123 21.5686 13.7659 21.3594 13.7355L17.9998 13.2471L16.4975 10.203C16.4043 10.0133 16.2113 9.89344 15.9998 9.89344C15.7884 9.89344 15.5954 10.0133 15.5021 10.203L13.9993 13.2471L10.6403 13.7355C10.431 13.7659 10.2576 13.9123 10.192 14.1134C10.127 14.3139 10.1811 14.5346 10.3324 14.6821L12.7639 17.0518L12.1898 20.3973C12.154 20.6054 12.2397 20.8158 12.4105 20.9399C12.5823 21.0652 12.81 21.082 12.9949 20.9823L16 19.403L19.005 20.9823C19.1892 21.0799 19.4173 21.0656 19.5894 20.9399C19.7602 20.8158 19.8459 20.6054 19.8101 20.3973L19.236 17.0518Z" fill="url(#paint1_linear)"/>
<defs>
<linearGradient id="paint0_linear" x1="32" y1="32" x2="32" y2="0" gradientUnits="userSpaceOnUse">
<stop stop-color="#FFE59A"/>
<stop offset="1" stop-color="#FFFFD5"/>
</linearGradient>
<linearGradient id="paint1_linear" x1="6.5625" y1="6.5625" x2="6.5625" y2="25.4375" gradientUnits="userSpaceOnUse">
<stop stop-color="#FD5900"/>
<stop offset="1" stop-color="#FFDE00"/>
</linearGradient>
</defs>
</svg>
