<svg width="22" height="14" viewBox="0 0 22 14" fill="none" xmlns="http://www.w3.org/2000/svg">
<path fill-rule="evenodd" clip-rule="evenodd" d="M10.9966 0.0326233C6.79458 0.0326233 2.98395 2.3316 0.172086 6.06575C-0.057362 6.37168 -0.057362 6.79909 0.172086 7.10502C2.98395 10.8437 6.79458 13.1426 10.9966 13.1426C15.1987 13.1426 19.0093 10.8437 21.8212 7.10951C22.0506 6.80358 22.0506 6.37618 21.8212 6.07025C19.0093 2.3316 15.1987 0.0326233 10.9966 0.0326233ZM11.2981 11.2036C8.50869 11.379 6.20521 9.08007 6.38067 6.2862C6.52464 3.98273 8.39172 2.11565 10.6952 1.97168C13.4846 1.79622 15.788 4.0952 15.6126 6.88907C15.4641 9.18804 13.597 11.0551 11.2981 11.2036ZM8.51319 6.42567C8.41421 7.92833 9.65593 9.16555 11.1586 9.07107C12.3958 8.99459 13.4036 7.99131 13.4846 6.7451C13.5835 5.24244 12.3418 4.00522 10.8392 4.0997C9.59744 4.18068 8.58967 5.18395 8.51319 6.42567Z" fill="black"/>
</svg>
