<svg width="32" height="32" viewBox="0 0 32 32" fill="none" xmlns="http://www.w3.org/2000/svg">
<circle cx="16" cy="16" r="16" fill="url(#paint0_linear)"/>
<path fill-rule="evenodd" clip-rule="evenodd" d="M13.2242 6.5625H10.4484C10.1416 6.5625 9.89331 6.81081 9.89331 7.11762V10.4485C9.89331 10.4496 9.89362 10.4506 9.89394 10.4516C9.89425 10.4525 9.89456 10.4535 9.89456 10.4546C9.89556 10.552 9.95719 10.7431 10.0618 10.8453C10.0627 10.8461 10.0632 10.847 10.0638 10.848C10.0643 10.849 10.0649 10.85 10.0657 10.8508C10.9975 11.7378 12.0794 12.3647 13.2242 12.7533V6.5625H13.2242ZM17.6654 12.8965C17.2586 12.4247 16.6705 12.1139 15.9999 12.1139C15.3294 12.1139 14.7412 12.4248 14.3345 12.8966V6.5625H17.6654V12.8965ZM17.0988 14.3964C17.0943 14.4121 17.0897 14.4278 17.088 14.4446C19.6293 14.9521 21.5514 17.1977 21.5514 19.8861C21.5514 22.9469 19.0608 25.4375 15.9999 25.4375C12.9391 25.4375 10.4484 22.9469 10.4485 19.8861C10.4485 17.1978 12.3706 14.9521 14.9119 14.4446C14.9101 14.4278 14.9056 14.4121 14.9011 14.3964C14.8954 14.3764 14.8896 14.3564 14.8896 14.3346C14.8896 13.7213 15.3867 13.2242 15.9999 13.2242C16.6132 13.2242 17.1102 13.7213 17.1102 14.3346C17.1102 14.3564 17.1045 14.3764 17.0988 14.3963L17.0988 14.3964ZM15.9999 18.972L16.1837 19.3634C16.2623 19.5309 16.4196 19.6486 16.6021 19.6763L17.0684 19.7478L16.7127 20.1121C16.5897 20.2379 16.5339 20.4152 16.5621 20.5892L16.6401 21.0679L16.2682 20.8624C16.1012 20.7702 15.8985 20.7702 15.7315 20.8624L15.3591 21.0679L15.4377 20.5892C15.4659 20.4152 15.4101 20.2384 15.287 20.1121L14.9314 19.7478L15.3976 19.6763C15.5803 19.6486 15.7375 19.5309 15.8161 19.3634L15.9999 18.972ZM18.6179 19.7494L17.7034 20.6868L17.9202 22.0171C17.9544 22.2269 17.8655 22.4378 17.692 22.5603C17.5185 22.6828 17.2892 22.6959 17.1038 22.5923L15.9999 21.9824L14.8956 22.5923C14.7139 22.6938 14.4838 22.6846 14.3074 22.5603C14.1339 22.4378 14.0451 22.2269 14.0792 22.0171L14.2966 20.6868L13.382 19.7494C13.2367 19.6003 13.1868 19.3829 13.253 19.1856C13.3191 18.9883 13.4899 18.8446 13.6954 18.8131L14.9369 18.6234L15.4974 17.4296C15.6807 17.0393 16.3193 17.0393 16.5026 17.4296L17.0631 18.6234L18.3046 18.8131C18.5101 18.8446 18.6809 18.9883 18.747 19.1856C18.8131 19.3829 18.7632 19.6003 18.6179 19.7494ZM18.7757 6.5625H21.5514C21.8582 6.5625 22.1066 6.81081 22.1066 7.11756V10.4484C22.1066 10.4495 22.1063 10.4505 22.106 10.4515C22.1057 10.4525 22.1054 10.4535 22.1054 10.4546C22.1038 10.6039 22.0041 10.7807 21.9381 10.8451C21.9373 10.8459 21.9367 10.8469 21.9362 10.8479C21.9356 10.8489 21.935 10.8499 21.9342 10.8507C21.0024 11.7378 19.9205 12.3646 18.7757 12.7533V6.5625Z" fill="url(#paint1_linear)"/>
<defs>
<linearGradient id="paint0_linear" x1="32" y1="32" x2="32" y2="0" gradientUnits="userSpaceOnUse">
<stop stop-color="#ADDCFF"/>
<stop offset="0.5028" stop-color="#EAF6FF"/>
<stop offset="1" stop-color="#EAF6FF"/>
</linearGradient>
<linearGradient id="paint1_linear" x1="9.89328" y1="6.5625" x2="9.89328" y2="25.4375" gradientUnits="userSpaceOnUse">
<stop stop-color="#5558FF"/>
<stop offset="1" stop-color="#00C0FF"/>
</linearGradient>
</defs>
</svg>
