<svg width="17" height="10" viewBox="0 0 17 10" fill="none" xmlns="http://www.w3.org/2000/svg">
<path fill-rule="evenodd" clip-rule="evenodd" d="M8.5 0C5.44303 0 2.67081 1.6725 0.625192 4.38908C0.458269 4.61164 0.458269 4.92257 0.625192 5.14514C2.67081 7.86499 5.44303 9.53749 8.5 9.53749C11.557 9.53749 14.3292 7.86499 16.3748 5.14841C16.5417 4.92585 16.5417 4.61491 16.3748 4.39235C14.3292 1.6725 11.557 0 8.5 0ZM8.71929 8.12683C6.69004 8.25447 5.01427 6.58198 5.14191 4.54945C5.24665 2.87368 6.60494 1.51539 8.28071 1.41066C10.31 1.28301 11.9857 2.95551 11.8581 4.98803C11.7501 6.66053 10.3918 8.01882 8.71929 8.12683ZM6.69331 4.65092C6.6213 5.74409 7.52465 6.64417 8.61783 6.57543C9.5179 6.51979 10.251 5.78992 10.31 4.8833C10.382 3.79012 9.47862 2.89005 8.38545 2.95878C7.4821 3.01769 6.74895 3.74757 6.69331 4.65092Z" fill="black"/>
</svg>
