<svg width="16" height="16" viewBox="0 0 16 16" fill="none" xmlns="http://www.w3.org/2000/svg">
<path d="M5.71429 0H1.14286C0.511695 0 0 0.511695 0 1.14286V5.71429C0 6.34545 0.511695 6.85714 1.14286 6.85714H5.71429C6.34545 6.85714 6.85714 6.34545 6.85714 5.71429V1.14286C6.85714 0.511695 6.34545 0 5.71429 0Z" fill="black"/>
<path d="M5.71429 9.14282H1.14286C0.511695 9.14282 0 9.65452 0 10.2857V14.8571C0 15.4883 0.511695 16 1.14286 16H5.71429C6.34545 16 6.85714 15.4883 6.85714 14.8571V10.2857C6.85714 9.65452 6.34545 9.14282 5.71429 9.14282Z" fill="black"/>
<path d="M14.8571 0H10.2857C9.65452 0 9.14282 0.511695 9.14282 1.14286V5.71429C9.14282 6.34545 9.65452 6.85714 10.2857 6.85714H14.8571C15.4883 6.85714 16 6.34545 16 5.71429V1.14286C16 0.511695 15.4883 0 14.8571 0Z" fill="black"/>
<path d="M14.8571 9.14282H10.2857C9.65452 9.14282 9.14282 9.65452 9.14282 10.2857V14.8571C9.14282 15.4883 9.65452 16 10.2857 16H14.8571C15.4883 16 16 15.4883 16 14.8571V10.2857C16 9.65452 15.4883 9.14282 14.8571 9.14282Z" fill="black"/>
</svg>
