<svg width="16" height="15" viewBox="0 0 16 15" fill="none" xmlns="http://www.w3.org/2000/svg">
<path fill-rule="evenodd" clip-rule="evenodd" d="M13.3333 1.24998H14.3375C15.2542 1.24998 16 2.02081 15.9958 2.93748V12.6291C15.9958 13.5458 15.2542 14.2916 14.3333 14.2916H1.6625C0.741667 14.2916 0 13.5458 0 12.625V2.93748C0 2.02081 0.745833 1.24998 1.6625 1.24998H2.625V0.454142C2.625 0.224976 2.8125 0.0374756 3.04167 0.0374756C3.27083 0.0374756 3.45833 0.224976 3.45833 0.454142V1.24998H7.58333V0.454142C7.58333 0.224976 7.77083 0.0374756 8 0.0374756C8.22917 0.0374756 8.41667 0.224976 8.41667 0.454142V1.24998H12.5V0.454142C12.5 0.224976 12.6875 0.0374756 12.9167 0.0374756C13.1458 0.0374756 13.3333 0.224976 13.3333 0.454142V1.24998ZM14.3417 13.4583C14.8 13.4541 15.1667 13.0833 15.1667 12.625V2.93748C15.1667 2.47914 14.8 2.08331 14.3375 2.08331H13.3333V2.68748C13.3333 2.91664 13.1458 3.10414 12.9167 3.10414C12.6875 3.10414 12.5 2.91664 12.5 2.68748V2.08331H8.41667V2.68748C8.41667 2.91664 8.22917 3.10414 8 3.10414C7.77083 3.10414 7.58333 2.91664 7.58333 2.68748V2.08331H3.45833V2.68748C3.45833 2.91664 3.27083 3.10414 3.04167 3.10414C2.8125 3.10414 2.625 2.91664 2.625 2.68748V2.08331H1.6625C1.20417 2.08331 0.833333 2.47498 0.833333 2.93748V12.625V12.6291C0.833333 13.0875 1.20417 13.4583 1.6625 13.4583H14.3375H14.3417Z" fill="black"/>
<path d="M6.90413 4.79163H6.17497C5.9458 4.79163 5.7583 4.97913 5.7583 5.20829C5.7583 5.43746 5.9458 5.62496 6.17497 5.62496H6.90413C7.1333 5.62496 7.3208 5.43746 7.3208 5.20829C7.3208 4.97913 7.1333 4.79163 6.90413 4.79163Z" fill="black"/>
<path d="M9.80416 4.79163H9.07499C8.84583 4.79163 8.65833 4.97913 8.65833 5.20829C8.65833 5.43746 8.84583 5.62496 9.07499 5.62496H9.80416C10.0333 5.62496 10.2208 5.43746 10.2208 5.20829C10.2208 4.97913 10.0375 4.79163 9.80416 4.79163Z" fill="black"/>
<path d="M12.7292 4.79163H12C11.7709 4.79163 11.5834 4.97913 11.5834 5.20829C11.5834 5.43746 11.7709 5.62496 12 5.62496H12.7292C12.9584 5.62496 13.1459 5.43746 13.1459 5.20829C13.1459 4.97913 12.9584 4.79163 12.7292 4.79163Z" fill="black"/>
<path d="M6.90413 7.66663H6.17497C5.9458 7.66663 5.7583 7.85413 5.7583 8.08329C5.7583 8.31246 5.9458 8.49996 6.17497 8.49996H6.90413C7.1333 8.49996 7.3208 8.31246 7.3208 8.08329C7.3208 7.85413 7.1333 7.66663 6.90413 7.66663Z" fill="black"/>
<path d="M3.98337 7.66663H3.25004C3.02087 7.66663 2.83337 7.85413 2.83337 8.08329C2.83337 8.31246 3.02087 8.49996 3.25004 8.49996H3.97921C4.20837 8.49996 4.39587 8.31246 4.39587 8.08329C4.39587 7.85413 4.21254 7.66663 3.98337 7.66663Z" fill="black"/>
<path d="M9.80416 7.66663H9.07499C8.84583 7.66663 8.65833 7.85413 8.65833 8.08329C8.65833 8.31246 8.84583 8.49996 9.07499 8.49996H9.80416C10.0333 8.49996 10.2208 8.31246 10.2208 8.08329C10.2208 7.85413 10.0375 7.66663 9.80416 7.66663Z" fill="black"/>
<path d="M12.7292 7.66663H12C11.7709 7.66663 11.5834 7.85413 11.5834 8.08329C11.5834 8.31246 11.7709 8.49996 12 8.49996H12.7292C12.9584 8.49996 13.1459 8.31246 13.1459 8.08329C13.1459 7.85413 12.9584 7.66663 12.7292 7.66663Z" fill="black"/>
<path d="M6.90413 10.5H6.17497C5.9458 10.5 5.7583 10.6875 5.7583 10.9167C5.7583 11.1458 5.9458 11.3333 6.17497 11.3333H6.90413C7.1333 11.3333 7.3208 11.1458 7.3208 10.9167C7.3208 10.6875 7.1333 10.5 6.90413 10.5Z" fill="black"/>
<path d="M3.98337 10.5H3.25004C3.02087 10.5 2.83337 10.6875 2.83337 10.9167C2.83337 11.1458 3.02087 11.3333 3.25004 11.3333H3.97921C4.20837 11.3333 4.39587 11.1458 4.39587 10.9167C4.39587 10.6875 4.21254 10.5 3.98337 10.5Z" fill="black"/>
<path d="M9.80416 10.5H9.07499C8.84583 10.5 8.65833 10.6875 8.65833 10.9167C8.65833 11.1458 8.84583 11.3333 9.07499 11.3333H9.80416C10.0333 11.3333 10.2208 11.1458 10.2208 10.9167C10.2208 10.6875 10.0375 10.5 9.80416 10.5Z" fill="black"/>
</svg>
