<svg width="18" height="16" viewBox="0 0 18 16" fill="none" xmlns="http://www.w3.org/2000/svg">
<path fill-rule="evenodd" clip-rule="evenodd" d="M15.0866 0.0195312H1.92381C0.862804 0.0195312 0 0.882051 0 1.94431V14.0417C0 15.1027 0.862804 15.9644 1.92381 15.9644H15.0866C16.1476 15.9644 17.0095 15.1027 17.0095 14.0417V1.94431C17.0095 0.882051 16.1476 0.0195312 15.0866 0.0195312ZM10.9992 2.88205C12.0253 2.88205 12.8574 3.71422 12.8574 4.74021C12.8574 5.76621 12.0252 6.59838 10.9992 6.59838C9.9729 6.59838 9.14107 5.76621 9.14107 4.74021C9.14107 3.71422 9.9729 2.88205 10.9992 2.88205ZM8.5046 14.186H14.4833C14.9965 14.186 15.1736 13.845 14.88 13.4241L12.8487 10.5225C12.5545 10.1023 12.0233 10.0571 11.6629 10.4222L10.8784 11.2166C10.5176 11.5817 9.97256 11.547 9.6607 11.1395L6.45409 6.94896C6.14224 6.54144 5.70186 6.58232 5.4708 7.04034L2.28185 13.3566C2.05051 13.8147 2.27906 14.186 2.79226 14.186H8.5046Z" fill="#010002"/>
</svg>
