<svg width="16" height="16" viewBox="0 0 16 16" fill="none" xmlns="http://www.w3.org/2000/svg">
<path fill-rule="evenodd" clip-rule="evenodd" d="M1 10H15C15.5513 10 16 9.55133 16 9V1C16 0.448667 15.5513 0 15 0H1C0.448667 0 0 0.448667 0 1V9C0 9.55133 0.448667 10 1 10ZM0.666667 1C0.666667 0.816 0.816 0.666667 1 0.666667H15C15.184 0.666667 15.3333 0.816 15.3333 1V9C15.3333 9.184 15.184 9.33333 15 9.33333H1C0.816 9.33333 0.666667 9.184 0.666667 9V1Z" fill="black"/>
<path d="M7 11.9999H0.333333C0.149333 11.9999 0 11.8506 0 11.6666C0 11.4826 0.149333 11.3333 0.333333 11.3333H7C7.184 11.3333 7.33333 11.4826 7.33333 11.6666C7.33333 11.8506 7.184 11.9999 7 11.9999Z" fill="black"/>
<path d="M7 13.9999H0.333333C0.149333 13.9999 0 13.8506 0 13.6666C0 13.4826 0.149333 13.3333 0.333333 13.3333H7C7.184 13.3333 7.33333 13.4826 7.33333 13.6666C7.33333 13.8506 7.184 13.9999 7 13.9999Z" fill="black"/>
<path d="M15.6666 11.9999H8.99996C8.81596 11.9999 8.66663 11.8506 8.66663 11.6666C8.66663 11.4826 8.81596 11.3333 8.99996 11.3333H15.6666C15.8506 11.3333 16 11.4826 16 11.6666C16 11.8506 15.8506 11.9999 15.6666 11.9999Z" fill="black"/>
<path d="M15.6666 13.9999H8.99996C8.81596 13.9999 8.66663 13.8506 8.66663 13.6666C8.66663 13.4826 8.81596 13.3333 8.99996 13.3333H15.6666C15.8506 13.3333 16 13.4826 16 13.6666C16 13.8506 15.8506 13.9999 15.6666 13.9999Z" fill="black"/>
<path d="M7 15.9999H0.333333C0.149333 15.9999 0 15.8506 0 15.6666C0 15.4826 0.149333 15.3333 0.333333 15.3333H7C7.184 15.3333 7.33333 15.4826 7.33333 15.6666C7.33333 15.8506 7.184 15.9999 7 15.9999Z" fill="black"/>
<path d="M15.6666 15.9999H8.99996C8.81596 15.9999 8.66663 15.8506 8.66663 15.6666C8.66663 15.4826 8.81596 15.3333 8.99996 15.3333H15.6666C15.8506 15.3333 16 15.4826 16 15.6666C16 15.8506 15.8506 15.9999 15.6666 15.9999Z" fill="black"/>
</svg>
