<svg width="16" height="16" viewBox="0 0 16 16" fill="none" xmlns="http://www.w3.org/2000/svg">
<path fill-rule="evenodd" clip-rule="evenodd" d="M8.12181 2.00165C8.12181 2.24856 7.92099 2.44609 7.67737 2.44609C7.43374 2.44609 7.23292 2.24856 7.23292 2.00165V0.444444C7.23292 0.197531 7.43045 0 7.67737 0C7.92428 0 8.12181 0.200823 8.12181 0.444444V2.00165ZM10.5119 10.4165C11.1967 9.70864 11.6181 8.74403 11.6181 7.68066C11.6181 5.49465 9.84033 3.72346 7.65103 3.73992C5.45844 3.75638 3.71358 5.53086 3.73663 7.72346C3.7465 8.76708 4.16461 9.71523 4.83621 10.4132C5.35638 10.9498 5.69547 11.6477 5.8107 12.3819C5.85679 12.6979 6.13333 12.9284 6.45267 12.9284H8.89877C9.2214 12.9284 9.49465 12.6946 9.54403 12.3786C9.65597 11.6444 9.99177 10.9564 10.5119 10.4165ZM9.50124 14.4494V13.9819C9.50124 13.7317 9.30041 13.5309 9.05021 13.5276H6.30123C6.05103 13.5276 5.85021 13.7284 5.85021 13.9786V14.4461C5.85021 14.8214 6.12346 15.1276 6.4823 15.1835L6.59424 15.6082C6.65679 15.8387 6.8642 16 7.10453 16H8.24691C8.48724 16 8.69465 15.8387 8.7572 15.6082L8.87243 15.1835C9.22798 15.1309 9.50124 14.8214 9.50124 14.4494ZM8.12181 5.29383C8.12181 5.05021 7.92428 4.84938 7.67737 4.84938C6.11029 4.84938 4.83292 6.12346 4.83292 7.69383C4.83292 7.93745 5.03045 8.13827 5.27737 8.13827C5.52099 8.13827 5.72181 7.94074 5.72181 7.69383C5.72181 6.61399 6.60082 5.73827 7.67737 5.73827C7.92428 5.73827 8.12181 5.54074 8.12181 5.29383ZM2.44609 7.67737C2.44609 7.43374 2.24856 7.23292 2.00165 7.23292H0.444444C0.200823 7.23292 0 7.43045 0 7.67737C0 7.92099 0.197531 8.12181 0.444444 8.12181H2.00165C2.24856 8.12181 2.44609 7.92428 2.44609 7.67737ZM13.3531 7.23292H14.9103C15.1572 7.23292 15.3547 7.43374 15.3547 7.67737C15.3547 7.92428 15.1539 8.12181 14.9103 8.12181H13.3531C13.1062 8.12181 12.9086 7.92099 12.9086 7.67737C12.9086 7.43045 13.1095 7.23292 13.3531 7.23292ZM3.35144 11.3778L2.24856 12.4807C2.07407 12.6551 2.07407 12.935 2.24856 13.1095C2.33416 13.1951 2.44938 13.2379 2.56132 13.2379C2.67325 13.2379 2.78848 13.1951 2.87407 13.1095L3.97695 12.0066C4.15144 11.8321 4.15144 11.5523 3.97695 11.3778C3.80576 11.2033 3.52263 11.2033 3.35144 11.3778ZM12.0033 3.98025C11.9177 4.06584 11.8025 4.10864 11.6905 4.10864C11.5753 4.10864 11.4634 4.06584 11.3745 3.98025C11.2 3.80576 11.2 3.52593 11.3745 3.35144L12.4774 2.24856C12.6519 2.07407 12.9317 2.07407 13.1062 2.24856C13.2807 2.42305 13.2807 2.70288 13.1062 2.87737L12.0033 3.98025ZM3.35144 3.97695C3.43704 4.06255 3.55226 4.10535 3.6642 4.10535C3.77613 4.10535 3.89136 4.06255 3.97695 3.97695C4.15144 3.80247 4.15144 3.52263 3.97695 3.34815L2.87407 2.24527C2.69959 2.07078 2.41975 2.07078 2.24527 2.24527C2.07078 2.41975 2.07078 2.69959 2.24527 2.87407L3.35144 3.97695ZM11.3745 11.3778C11.549 11.2033 11.8288 11.2033 12.0033 11.3778L13.1029 12.4807C13.2774 12.6551 13.2774 12.935 13.1029 13.1095C13.0173 13.1951 12.9021 13.2379 12.7901 13.2379C12.6782 13.2379 12.563 13.1951 12.4774 13.1095L11.3745 12.0066C11.2 11.8321 11.2 11.5523 11.3745 11.3778Z" fill="black"/>
</svg>
