<svg width="12" height="17" viewBox="0 0 12 17" fill="none" xmlns="http://www.w3.org/2000/svg">
<path d="M9.02934 9.3395C8.45931 9.3395 7.99718 8.87738 7.99718 8.30734V5.10038C7.99718 3.84416 6.97518 2.82219 5.719 2.82219C4.46278 2.82219 3.44078 3.84419 3.44078 5.10038V8.30734C3.44078 8.87738 2.97865 9.3395 2.40862 9.3395C1.83859 9.3395 1.37646 8.87738 1.37646 8.30734V5.10038C1.37646 2.70591 3.32453 0.757812 5.71903 0.757812C8.11353 0.757812 10.0615 2.70588 10.0615 5.10031V8.30728C10.0615 8.87737 9.59937 9.3395 9.02934 9.3395Z" fill="#C7CFE2"/>
<g opacity="0.1">
<path d="M2.40813 9.33952C2.97816 9.33952 3.44029 8.87739 3.44029 8.30736V6.0083H1.37598V8.30736C1.37598 8.87739 1.8381 9.33952 2.40813 9.33952Z" fill="black"/>
<path d="M7.99707 6.0083V8.30736C7.99707 8.87739 8.4592 9.33952 9.02923 9.33952C9.59926 9.33952 10.0614 8.87739 10.0614 8.30736V6.0083L7.99707 6.0083Z" fill="black"/>
</g>
<path d="M10.1963 7.04053H1.24128C0.709715 7.04053 0.278809 7.47146 0.278809 8.003V15.2794C0.278809 15.8109 0.709715 16.2418 1.24128 16.2418H10.1963C10.7278 16.2418 11.1587 15.8109 11.1587 15.2794V8.00296C11.1587 7.47143 10.7278 7.04053 10.1963 7.04053Z" fill="#FFD782"/>
<path opacity="0.1" d="M6.90446 10.953C6.90446 10.298 6.37353 9.76709 5.71859 9.76709C5.06365 9.76709 4.53271 10.298 4.53271 10.953C4.53271 11.3316 4.71034 11.6685 4.98662 11.8856V14.1416H6.45056V11.8856C6.72681 11.6685 6.90446 11.3316 6.90446 10.953Z" fill="black"/>
<path fill-rule="evenodd" clip-rule="evenodd" d="M6.70884 14.1418C6.70884 14.2843 6.59331 14.3999 6.45081 14.3999H4.98687C4.84437 14.3999 4.72884 14.2843 4.72878 14.1418V12.004C4.43884 11.7316 4.2749 11.3553 4.2749 10.9532C4.2749 10.157 4.92262 9.50928 5.71881 9.50928C6.515 9.50928 7.16275 10.157 7.16275 10.9532C7.16275 11.3553 6.99881 11.7316 6.70884 12.004V14.1418ZM6.64668 10.9532C6.64668 10.4416 6.23043 10.0253 5.71884 10.0253C5.20728 10.0253 4.79103 10.4416 4.791 10.9532C4.791 11.2395 4.9205 11.5055 5.14631 11.6829C5.20853 11.7318 5.2449 11.8067 5.2449 11.8858V13.8838H6.19278V11.8858C6.19278 11.8067 6.22909 11.7319 6.29137 11.6829C6.51718 11.5055 6.64668 11.2395 6.64668 10.9532Z" fill="black"/>
<path fill-rule="evenodd" clip-rule="evenodd" d="M10.3191 6.78878V5.10056C10.3191 2.56381 8.25526 0.5 5.71854 0.5C3.18182 0.5 1.11795 2.56381 1.11795 5.10059V6.78881C0.502539 6.85072 0.0205078 7.37169 0.0205078 8.00313V8.65075C0.0205078 8.79325 0.136039 8.90878 0.278539 8.90878C0.421039 8.90878 0.53657 8.79325 0.53657 8.65075V8.00313C0.53657 7.61469 0.85257 7.29872 1.24098 7.29872H10.1959C10.5844 7.29872 10.9004 7.61472 10.9004 8.00313V13.2843C10.9004 13.4268 11.0159 13.5423 11.1584 13.5423C11.3009 13.5423 11.4164 13.4268 11.4164 13.2843V8.00309C11.4165 7.37166 10.9345 6.85072 10.3191 6.78878ZM7.73866 6.78259H3.69835V5.10059C3.69835 3.98669 4.6046 3.08041 5.71854 3.08041C6.83248 3.08041 7.7387 3.98666 7.7387 5.10059L7.73866 6.78259ZM8.25476 5.10059V6.78259H9.80301V5.10059C9.80301 2.84837 7.97076 1.01609 5.71854 1.01609C3.46632 1.01609 1.63404 2.84837 1.63404 5.10059V6.78259H3.18229V5.10059C3.18229 3.70209 4.32007 2.56434 5.71854 2.56434C7.11701 2.56434 8.25476 3.70212 8.25476 5.10059Z" fill="black"/>
<path d="M11.1589 14.0584C11.0164 14.0584 10.9009 14.1739 10.9009 14.3164V15.2794C10.9009 15.6678 10.5849 15.9838 10.1965 15.9838H1.24146C0.853027 15.9838 0.537059 15.6678 0.537059 15.2794V9.68284C0.537059 9.54034 0.421527 9.4248 0.279027 9.4248C0.136527 9.4248 0.0209961 9.54034 0.0209961 9.68284V15.2794C0.0209961 15.9524 0.568527 16.5 1.2415 16.5H10.1965C10.8695 16.5 11.417 15.9524 11.417 15.2794V14.3164C11.417 14.1739 11.3014 14.0584 11.1589 14.0584Z" fill="black"/>
</svg>
