<svg width="32" height="32" viewBox="0 0 32 32" fill="none" xmlns="http://www.w3.org/2000/svg">
<path d="M26 32H6C2.68604 32 0 29.314 0 26V6C0 2.68604 2.68604 0 6 0H26C29.314 0 32 2.68604 32 6V26C32 29.314 29.314 32 26 32Z" fill="#FFE6E2"/>
<path d="M22.167 8H15.167C14.156 8 13.334 8.82202 13.334 9.83301V11.4551C13.5491 11.3789 13.772 11.333 14.001 11.333C14.5349 11.333 15.0371 11.541 15.415 11.9189L18.082 14.5859C18.46 14.9641 18.668 15.4661 18.668 16C18.668 16.5339 18.46 17.0359 18.082 17.4141L15.415 20.0811C15.0371 20.459 14.5349 20.667 14.001 20.667C13.772 20.667 13.5491 20.6211 13.334 20.5449V22.167C13.334 23.178 14.156 24 15.167 24H22.167C23.178 24 24 23.178 24 22.167V9.83301C24 8.82202 23.178 8 22.167 8Z" fill="#FC573B"/>
<path d="M13.7451 19.283C13.4961 19.1799 13.334 18.937 13.334 18.667V16.667H8.66699C8.2981 16.667 8 16.3679 8 16C8 15.6321 8.29907 15.333 8.66699 15.333H13.334V13.333C13.334 13.063 13.4961 12.8201 13.7451 12.7171C13.9939 12.614 14.281 12.6709 14.4719 12.8621L17.1389 15.5291C17.3989 15.7891 17.3989 16.211 17.1389 16.4719L14.4719 19.1389C14.281 19.3291 13.9939 19.386 13.7451 19.283Z" fill="#FD907E"/>
</svg>
