<svg width="25" height="25" viewBox="0 0 25 25" fill="none" xmlns="http://www.w3.org/2000/svg">
<path d="M23.6484 1.28906V22.7109C23.6484 23.2289 23.2289 23.6484 22.7109 23.6484H1.28906C0.771094 23.6484 0.351562 23.2289 0.351562 22.7109V1.28906C0.351562 0.771094 0.771094 0.351562 1.28906 0.351562H22.7109C23.2289 0.351562 23.6484 0.771094 23.6484 1.28906Z" fill="#FCF055"/>
<path d="M23.6484 1.28906V22.7109C23.6484 23.2289 23.2289 23.6484 22.7109 23.6484H16.3757C22.866 19.3608 21.7757 5.39016 21.1476 0.351562H22.7109C23.2289 0.351562 23.6484 0.771094 23.6484 1.28906Z" fill="#D9CA09"/>
<path d="M4.81055 5.99564V10.0234C4.81055 10.5335 5.23842 10.947 5.76609 10.947C6.03009 10.947 6.26897 10.8438 6.44208 10.6765C6.44756 10.6712 6.45277 10.6659 6.45764 10.6606C6.62152 10.495 6.72192 10.2705 6.72192 10.0235V8.22567L9.78455 11.186C10.1579 11.5466 10.7629 11.5466 11.1362 11.186C11.5093 10.8252 11.5093 10.2404 11.1362 9.87956L8.07333 6.9195L9.93337 6.91921C10.4614 6.9195 10.8892 6.50596 10.8892 5.99564C10.8892 5.48559 10.4614 5.07178 9.93337 5.07178H5.76605C5.73577 5.07178 5.70577 5.07318 5.67633 5.07595C5.1908 5.1195 4.81055 5.51489 4.81055 5.99564H4.81055Z" fill="white"/>
<path d="M19.1894 5.99564V10.0234C19.1894 10.5335 18.7616 10.947 18.2339 10.947C17.9699 10.947 17.731 10.8438 17.5579 10.6765C17.5524 10.6712 17.5472 10.6659 17.5424 10.6606C17.3785 10.495 17.2781 10.2705 17.2781 10.0235V8.22567L14.2154 11.186C13.8421 11.5466 13.2371 11.5466 12.8638 11.186C12.4907 10.8252 12.4907 10.2404 12.8638 9.87956L15.9267 6.9195L14.0666 6.91921C13.5386 6.9195 13.1107 6.50596 13.1107 5.99564C13.1107 5.48559 13.5386 5.07178 14.0666 5.07178H18.2339C18.2642 5.07178 18.2942 5.07318 18.3237 5.07595C18.8092 5.1195 19.1894 5.51489 19.1894 5.99564Z" fill="white"/>
<path d="M19.1894 18.0042V13.9764C19.1894 13.4664 18.7616 13.0528 18.2339 13.0528C17.9699 13.0528 17.731 13.156 17.5579 13.3234C17.5524 13.3287 17.5472 13.334 17.5424 13.3393C17.3785 13.5049 17.2781 13.7294 17.2781 13.9764V15.7742L14.2154 12.8139C13.8421 12.4533 13.2371 12.4533 12.8638 12.8139C12.4907 13.1747 12.4907 13.7595 12.8638 14.1203L15.9267 17.0804L14.0666 17.0807C13.5386 17.0804 13.1107 17.4939 13.1107 18.0043C13.1107 18.5143 13.5386 18.9281 14.0666 18.9281H18.2339C18.2642 18.9281 18.2942 18.9267 18.3237 18.9239C18.8092 18.8803 19.1894 18.485 19.1894 18.0042Z" fill="white"/>
<path d="M4.81055 18.0042V13.9764C4.81055 13.4664 5.23842 13.0528 5.76609 13.0528C6.03009 13.0528 6.26897 13.156 6.44208 13.3234C6.44756 13.3287 6.45277 13.334 6.45764 13.3393C6.62152 13.5049 6.72192 13.7294 6.72192 13.9764V15.7742L9.78455 12.8139C10.1579 12.4533 10.7629 12.4533 11.1362 12.8139C11.5093 13.1747 11.5093 13.7595 11.1362 14.1203L8.07333 17.0804L9.93337 17.0807C10.4614 17.0804 10.8892 17.4939 10.8892 18.0043C10.8892 18.5143 10.4614 18.9281 9.93337 18.9281H5.76605C5.73577 18.9281 5.70577 18.9267 5.67633 18.9239C5.1908 18.8803 4.81055 18.485 4.81055 18.0042H4.81055Z" fill="white"/>
<path d="M22.711 23.9998H7.65869C7.46454 23.9998 7.30713 23.8424 7.30713 23.6482C7.30713 23.454 7.46454 23.2967 7.65869 23.2967H22.711C23.0341 23.2967 23.2969 23.0338 23.2969 22.7107V7.67871C23.2969 7.48451 23.4543 7.32715 23.6485 7.32715C23.8427 7.32715 24.0001 7.48451 24.0001 7.67871V22.7107C24.0001 23.4215 23.4218 23.9998 22.711 23.9998Z" fill="black"/>
<path d="M6.04036 24H1.28906C0.57825 24 0 23.4217 0 22.7109V1.28906C0 0.57825 0.57825 0 1.28906 0H15.4618C15.6559 0 15.8133 0.157359 15.8133 0.351562C15.8133 0.545766 15.6559 0.703125 15.4618 0.703125H1.28906C0.965953 0.703125 0.703125 0.965953 0.703125 1.28906V22.7109C0.703125 23.034 0.965953 23.2969 1.28906 23.2969H6.04036C6.23452 23.2969 6.39192 23.4542 6.39192 23.6484C6.39192 23.8426 6.23452 24 6.04036 24Z" fill="black"/>
<path d="M23.6485 6.41227C23.4543 6.41227 23.2969 6.25491 23.2969 6.0607V1.28906C23.2969 0.965953 23.0341 0.703125 22.711 0.703125H17.0801C16.8859 0.703125 16.7285 0.545766 16.7285 0.351562C16.7285 0.157359 16.8859 0 17.0801 0H22.711C23.4218 0 24 0.578297 24 1.28906V6.0607C24 6.25491 23.8426 6.41227 23.6485 6.41227Z" fill="black"/>
<path fill-rule="evenodd" clip-rule="evenodd" d="M9.54038 11.439C9.79406 11.6842 10.1273 11.8067 10.4605 11.8067C10.7937 11.8067 11.1269 11.6842 11.3807 11.439C11.6304 11.1977 11.7679 10.876 11.7679 10.533C11.7679 10.1901 11.6304 9.86838 11.3808 9.62711L8.94328 7.27127L9.93366 7.27122H9.93375C10.2806 7.27122 10.6074 7.14006 10.8538 6.90194C11.1034 6.66067 11.2409 6.33887 11.2409 5.99598C11.2409 5.29277 10.6545 4.7207 9.93361 4.7207H5.76628C5.04548 4.7207 4.45898 5.29277 4.45898 5.99598V10.0237C4.45898 10.3666 4.59647 10.6884 4.84613 10.9297C5.09255 11.1679 5.41936 11.299 5.76619 11.299H5.76642C6.11325 11.299 6.44002 11.1678 6.68634 10.9297C6.936 10.6885 7.07353 10.3667 7.07353 10.0238V9.05477L9.54038 11.439ZM6.96628 7.97322C6.89939 7.90862 6.81136 7.87445 6.72187 7.87445C6.67561 7.87445 6.62892 7.88364 6.58458 7.90239C6.45469 7.95747 6.37031 8.08492 6.37031 8.22602V10.0238C6.37031 10.1743 6.309 10.3165 6.19762 10.4241C6.08302 10.5349 5.92987 10.5959 5.76623 10.5959H5.76614C5.6025 10.5959 5.44931 10.5349 5.3347 10.4241C5.22333 10.3165 5.16202 10.1743 5.16202 10.0237V5.99598C5.16206 5.68052 5.43309 5.42383 5.76619 5.42383H9.93352C10.2667 5.42383 10.5377 5.68052 10.5377 5.99598C10.5377 6.14655 10.4763 6.28872 10.365 6.39634C10.2504 6.50711 10.0972 6.56809 9.93356 6.56809H9.93352L8.07352 6.56814C7.93022 6.56814 7.80131 6.65509 7.74759 6.78794C7.69388 6.92073 7.72617 7.07289 7.8292 7.17245L10.892 10.1326C11.0033 10.2402 11.0647 10.3825 11.0647 10.533C11.0647 10.6836 11.0033 10.8257 10.892 10.9334C10.654 11.1632 10.2669 11.1632 10.029 10.9334L6.96628 7.97322Z" fill="black"/>
<path fill-rule="evenodd" clip-rule="evenodd" d="M12.6194 11.439C12.8731 11.6842 13.2062 11.8067 13.5395 11.8067C13.8727 11.8067 14.2059 11.6842 14.4597 11.439L16.9265 9.05477V10.0238C16.9265 10.3667 17.064 10.6885 17.3137 10.9297C17.5601 11.1678 17.8868 11.299 18.2335 11.299H18.2339C18.5808 11.299 18.9075 11.1678 19.1539 10.9297C19.4036 10.6884 19.5411 10.3666 19.5411 10.0237V5.99598C19.541 5.29277 18.9546 4.7207 18.2338 4.7207H14.0664C13.3456 4.7207 12.7591 5.29277 12.7591 5.99598C12.7591 6.33887 12.8966 6.66067 13.1463 6.90194C13.3927 7.14011 13.7195 7.27127 14.0664 7.27122L15.0568 7.27127L12.6194 9.62711C12.3697 9.86838 12.2322 10.1901 12.2322 10.533C12.2322 10.876 12.3697 11.1977 12.6194 11.439ZM13.4622 5.99598C13.4622 5.68052 13.7333 5.42383 14.0664 5.42383V5.42378H18.2338C18.567 5.42378 18.838 5.68047 18.838 5.99594V10.0237C18.838 10.1742 18.7767 10.3165 18.6653 10.4241C18.5507 10.5348 18.3975 10.5958 18.2338 10.5958H18.2336C18.0701 10.5958 17.9169 10.5348 17.8023 10.424C17.691 10.3165 17.6296 10.1743 17.6296 10.0237V8.22597C17.6296 8.08492 17.5453 7.95747 17.4154 7.90234C17.2855 7.84722 17.1352 7.87511 17.0337 7.97322L13.971 10.9334C13.7331 11.1633 13.346 11.1633 13.108 10.9334C12.9967 10.8258 12.9353 10.6836 12.9353 10.533C12.9353 10.3825 12.9967 10.2402 13.108 10.1326L16.1708 7.17245C16.2738 7.07289 16.3061 6.92073 16.2524 6.78794C16.1987 6.65509 16.0697 6.56814 15.9264 6.56814L14.0664 6.56809C13.9028 6.56809 13.7495 6.50711 13.6349 6.39634C13.5235 6.28872 13.4622 6.14655 13.4622 5.99598Z" fill="black"/>
<path fill-rule="evenodd" clip-rule="evenodd" d="M14.0665 19.2794H18.2338C18.9546 19.2794 19.5411 18.7073 19.541 18.0041V13.9764C19.541 13.6335 19.4035 13.3117 19.1538 13.0704C18.9074 12.8322 18.5806 12.7011 18.2338 12.7011H18.2335C17.8867 12.7011 17.5599 12.8323 17.3136 13.0704C17.064 13.3116 16.9264 13.6334 16.9264 13.9763V14.9453L14.4596 12.5611C13.9523 12.0708 13.1267 12.0708 12.6194 12.5611C12.3697 12.8024 12.2322 13.1241 12.2322 13.4671C12.2322 13.81 12.3697 14.1317 12.6193 14.373L15.0568 16.7288L14.0664 16.7289H14.0663C13.7195 16.7289 13.3927 16.86 13.1463 17.0982C12.8967 17.3394 12.7592 17.6612 12.7592 18.0041C12.7592 18.7073 13.3456 19.2794 14.0665 19.2794ZM13.6351 17.6038C13.7497 17.493 13.9028 17.432 14.0665 17.432L15.9266 17.4319C16.0699 17.4319 16.1988 17.345 16.2525 17.2121C16.3062 17.0793 16.2739 16.9272 16.1709 16.8276L13.1081 13.8674C12.9968 13.7598 12.9354 13.6176 12.9354 13.4671C12.9354 13.3165 12.9968 13.1743 13.1081 13.0667C13.346 12.8368 13.7332 12.8368 13.9711 13.0667L17.0338 16.0268C17.1353 16.1249 17.2855 16.1527 17.4155 16.0977C17.5454 16.0426 17.6297 15.9152 17.6297 15.7741V13.9763C17.6297 13.8258 17.6911 13.6836 17.8024 13.576C17.917 13.4652 18.0702 13.4042 18.2338 13.4042H18.2339C18.3976 13.4042 18.5507 13.4652 18.6653 13.576C18.7767 13.6836 18.838 13.8258 18.838 13.9764V18.0041C18.838 18.3196 18.567 18.5763 18.2339 18.5763H14.0665C13.7334 18.5763 13.4624 18.3196 13.4624 18.0041C13.4624 17.8536 13.5237 17.7114 13.6351 17.6038Z" fill="black"/>
<path fill-rule="evenodd" clip-rule="evenodd" d="M5.76628 19.2794H9.93361C10.6544 19.2794 11.2409 18.7073 11.2408 18.0041C11.2409 17.6612 11.1033 17.3394 10.8537 17.0981C10.6073 16.86 10.2805 16.7288 9.93356 16.7288L8.94314 16.7288L11.3806 14.373C11.6303 14.1317 11.7678 13.8099 11.7678 13.467C11.7678 13.1241 11.6303 12.8024 11.3806 12.5611C10.8733 12.0708 10.0478 12.0708 9.54038 12.5611L7.07353 14.9453V13.9763C7.07353 13.6334 6.93605 13.3116 6.68639 13.0704C6.43997 12.8322 6.1133 12.7011 5.76652 12.7011H5.76614C5.41927 12.7011 5.09255 12.8322 4.84613 13.0704C4.59647 13.3117 4.45898 13.6335 4.45898 13.9763V18.0041C4.45903 18.7073 5.04548 19.2794 5.76628 19.2794ZM5.3348 13.5759C5.44941 13.4652 5.60259 13.4042 5.76628 13.4042L5.76638 13.4042C5.92992 13.4042 6.08306 13.4652 6.19767 13.576C6.30905 13.6836 6.37036 13.8258 6.37036 13.9763V15.7741C6.37036 15.9151 6.45473 16.0426 6.58463 16.0977C6.71456 16.1528 6.8648 16.1249 6.96628 16.0268L10.029 13.0667C10.2669 12.8368 10.654 12.8368 10.892 13.0667C11.0033 13.1743 11.0647 13.3165 11.0647 13.4671C11.0647 13.6176 11.0033 13.7598 10.892 13.8675L7.82925 16.8276C7.72622 16.9272 7.69392 17.0793 7.74764 17.2121C7.80131 17.345 7.93027 17.4319 8.07356 17.4319L9.93361 17.432C10.0972 17.432 10.2505 17.493 10.3651 17.6037C10.4765 17.7113 10.5378 17.8535 10.5378 18.0041C10.5378 18.3195 10.2668 18.5762 9.93361 18.5762H5.76628C5.43314 18.5762 5.16211 18.3195 5.16211 18.0041V13.9763C5.16211 13.8258 5.22342 13.6836 5.3348 13.5759Z" fill="black"/>
</svg>
