<svg width="16" height="16" viewBox="0 0 16 16" fill="none" xmlns="http://www.w3.org/2000/svg">
<path fill-rule="evenodd" clip-rule="evenodd" d="M14.9464 0H1.04277C0.467845 0 0 0.467845 0 1.04277V14.9464C0 15.5213 0.467845 15.9891 1.04277 15.9891H14.9464C15.5213 15.9891 15.9891 15.5213 15.9891 14.9464V1.04277C15.9891 0.467845 15.5213 0 14.9464 0ZM7.54548 8.93585L3.27221 13.2084H6.60422C6.79609 13.2084 6.95182 13.3641 6.95182 13.556C6.95182 13.7479 6.79609 13.9036 6.60422 13.9036H2.43314C2.38794 13.9036 2.34278 13.8946 2.30035 13.8772C2.21553 13.8417 2.14742 13.7743 2.11197 13.6888C2.09457 13.6464 2.08554 13.6012 2.08554 13.556V9.38493C2.08554 9.19306 2.24127 9.03733 2.43314 9.03733C2.62501 9.03733 2.78071 9.19306 2.78071 9.38493V12.7169L7.0533 8.44435C7.18886 8.30879 7.40924 8.30879 7.5448 8.44435C7.68036 8.57991 7.68104 8.79958 7.54548 8.93585ZM13.556 6.95182C13.7479 6.95182 13.9036 6.79609 13.9036 6.60422V2.43314C13.9036 2.38794 13.8946 2.34275 13.8772 2.30035C13.8417 2.21484 13.7736 2.14742 13.6888 2.11197C13.6464 2.09457 13.6012 2.08554 13.556 2.08554H9.38493C9.19306 2.08554 9.03733 2.24124 9.03733 2.43311C9.03733 2.62498 9.19306 2.78071 9.38493 2.78071H12.7169L8.44367 7.05398C8.30811 7.18954 8.30811 7.40992 8.44367 7.54548C8.5118 7.61294 8.60077 7.64699 8.68976 7.64699C8.77875 7.64699 8.86771 7.61294 8.93585 7.5448L13.2084 3.27221V6.60422C13.2084 6.79609 13.3641 6.95182 13.556 6.95182Z" fill="white"/>
</svg>
