<svg width="17" height="18" viewBox="0 0 17 18" fill="none" xmlns="http://www.w3.org/2000/svg">
<path d="M6.81182 1H2.21815C1.54642 1 1 1.54642 1 2.21815V6.81182C1 7.48356 1.54642 8.02998 2.21815 8.02998H6.81182C7.48356 8.02998 8.02998 7.48356 8.02998 6.81182V2.21815C8.02987 1.54642 7.48356 1 6.81182 1Z" fill="black"/>
<path d="M6.81182 1H2.21815C1.54642 1 1 1.54642 1 2.21815V6.81182C1 7.48356 1.54642 8.02998 2.21815 8.02998H6.81182C7.48356 8.02998 8.02998 7.48356 8.02998 6.81182V2.21815C8.02987 1.54642 7.48356 1 6.81182 1Z" stroke="black"/>
<path d="M6.81182 1H2.21815C1.54642 1 1 1.54642 1 2.21815V6.81182C1 7.48356 1.54642 8.02998 2.21815 8.02998H6.81182C7.48356 8.02998 8.02998 7.48356 8.02998 6.81182V2.21815C8.02987 1.54642 7.48356 1 6.81182 1Z" stroke="url(#paint0_linear)"/>
<path d="M15.7818 1H11.1881C10.5164 1 9.96997 1.54642 9.96997 2.21815V6.81182C9.96997 7.48356 10.5164 8.02998 11.1881 8.02998H15.7818C16.4535 8.02998 17 7.48356 17 6.81182V2.21815C17 1.54642 16.4535 1 15.7818 1Z" fill="black"/>
<path d="M15.7818 1H11.1881C10.5164 1 9.96997 1.54642 9.96997 2.21815V6.81182C9.96997 7.48356 10.5164 8.02998 11.1881 8.02998H15.7818C16.4535 8.02998 17 7.48356 17 6.81182V2.21815C17 1.54642 16.4535 1 15.7818 1Z" stroke="black"/>
<path d="M15.7818 1H11.1881C10.5164 1 9.96997 1.54642 9.96997 2.21815V6.81182C9.96997 7.48356 10.5164 8.02998 11.1881 8.02998H15.7818C16.4535 8.02998 17 7.48356 17 6.81182V2.21815C17 1.54642 16.4535 1 15.7818 1Z" stroke="url(#paint1_linear)"/>
<path d="M6.81182 9.97021H2.21815C1.54642 9.97021 1 10.5166 1 11.1883V15.782C1 16.4537 1.54642 17.0001 2.21815 17.0001H6.81182C7.48356 17.0001 8.02998 16.4537 8.02998 15.782V11.1883C8.02987 10.5166 7.48356 9.97021 6.81182 9.97021Z" fill="black"/>
<path d="M6.81182 9.97021H2.21815C1.54642 9.97021 1 10.5166 1 11.1883V15.782C1 16.4537 1.54642 17.0001 2.21815 17.0001H6.81182C7.48356 17.0001 8.02998 16.4537 8.02998 15.782V11.1883C8.02987 10.5166 7.48356 9.97021 6.81182 9.97021Z" stroke="black"/>
<path d="M6.81182 9.97021H2.21815C1.54642 9.97021 1 10.5166 1 11.1883V15.782C1 16.4537 1.54642 17.0001 2.21815 17.0001H6.81182C7.48356 17.0001 8.02998 16.4537 8.02998 15.782V11.1883C8.02987 10.5166 7.48356 9.97021 6.81182 9.97021Z" stroke="url(#paint2_linear)"/>
<path d="M15.7818 9.97021H11.1881C10.5164 9.97021 9.96997 10.5166 9.96997 11.1884V15.782C9.96997 16.4538 10.5164 17.0002 11.1881 17.0002H15.7818C16.4535 17.0001 17 16.4537 17 15.782V11.1883C17 10.5166 16.4535 9.97021 15.7818 9.97021Z" fill="black"/>
<path d="M15.7818 9.97021H11.1881C10.5164 9.97021 9.96997 10.5166 9.96997 11.1884V15.782C9.96997 16.4538 10.5164 17.0002 11.1881 17.0002H15.7818C16.4535 17.0001 17 16.4537 17 15.782V11.1883C17 10.5166 16.4535 9.97021 15.7818 9.97021Z" stroke="black"/>
<path d="M15.7818 9.97021H11.1881C10.5164 9.97021 9.96997 10.5166 9.96997 11.1884V15.782C9.96997 16.4538 10.5164 17.0002 11.1881 17.0002H15.7818C16.4535 17.0001 17 16.4537 17 15.782V11.1883C17 10.5166 16.4535 9.97021 15.7818 9.97021Z" stroke="url(#paint3_linear)"/>
<defs>
<linearGradient id="paint0_linear" x1="4.51499" y1="1" x2="4.51499" y2="8.02998" gradientUnits="userSpaceOnUse">
<stop stop-color="white"/>
<stop offset="1" stop-color="white" stop-opacity="0"/>
</linearGradient>
<linearGradient id="paint1_linear" x1="13.485" y1="1" x2="13.485" y2="8.02998" gradientUnits="userSpaceOnUse">
<stop stop-color="white"/>
<stop offset="1" stop-color="white" stop-opacity="0"/>
</linearGradient>
<linearGradient id="paint2_linear" x1="4.51499" y1="9.97021" x2="4.51499" y2="17.0001" gradientUnits="userSpaceOnUse">
<stop stop-color="white"/>
<stop offset="1" stop-color="white" stop-opacity="0"/>
</linearGradient>
<linearGradient id="paint3_linear" x1="13.485" y1="9.97021" x2="13.485" y2="17.0002" gradientUnits="userSpaceOnUse">
<stop stop-color="white"/>
<stop offset="1" stop-color="white" stop-opacity="0"/>
</linearGradient>
</defs>
</svg>
