<svg width="7" height="13" viewBox="0 0 7 13" fill="none" xmlns="http://www.w3.org/2000/svg">
<path d="M0.620931 5.99615H6.21113C6.43738 5.99615 6.64491 5.87081 6.75048 5.67091C6.8559 5.4706 6.84203 5.22898 6.71419 5.04188L3.88464 0.907422C3.78334 0.759438 3.61564 0.670847 3.43624 0.670046C3.25704 0.669608 3.0888 0.757106 2.98668 0.904653L0.119822 5.03919C-0.00938474 5.22545 -0.0244212 5.46827 0.0807853 5.66933C0.185992 5.87005 0.394073 5.99615 0.620931 5.99615Z" fill="#9EA9C9"/>
<path d="M6.21113 7.32587H0.620923C0.394065 7.32587 0.185984 7.45201 0.0807774 7.65271C-0.0244291 7.85377 -0.0093684 8.09659 0.119814 8.28281L2.98667 12.4173C3.08879 12.5649 3.25704 12.6524 3.43623 12.652C3.61563 12.6512 3.78334 12.5626 3.88463 12.4146L6.71418 8.28009C6.84202 8.09307 6.85589 7.85139 6.75047 7.65106C6.6449 7.45121 6.43738 7.32587 6.21113 7.32587Z" fill="#9EA9C9"/>
</svg>
