<svg width="30" height="30" viewBox="0 0 30 30" fill="none" xmlns="http://www.w3.org/2000/svg">
<rect x="0.5" y="0.5" width="29" height="29" rx="4.5" fill="white" stroke="#E8EDFC"/>
<path d="M22.4008 13.596C23.1811 14.3764 23.1811 15.6416 22.4008 16.422C21.6204 17.2024 20.3552 17.2024 19.5748 16.422C18.7944 15.6416 18.7944 14.3764 19.5748 13.596C20.3552 12.8156 21.6204 12.8156 22.4008 13.596Z" fill="#9EA9C9"/>
<path d="M16.4061 13.596C17.1865 14.3764 17.1865 15.6416 16.4061 16.422C15.6258 17.2024 14.3605 17.2024 13.5802 16.422C12.7998 15.6416 12.7998 14.3764 13.5802 13.596C14.3605 12.8156 15.6258 12.8156 16.4061 13.596Z" fill="#9EA9C9"/>
<path d="M10.4113 13.596C11.1916 14.3764 11.1916 15.6416 10.4113 16.422C9.63089 17.2024 8.36565 17.2024 7.58528 16.422C6.80491 15.6416 6.80491 14.3764 7.58528 13.596C8.36565 12.8156 9.63089 12.8156 10.4113 13.596Z" fill="#9EA9C9"/>
</svg>
