<svg width="30" height="30" viewBox="0 0 30 30" fill="none" xmlns="http://www.w3.org/2000/svg">
<rect x="0.5" y="0.5" width="29" height="29" rx="4.5" fill="white" stroke="#E8EDFC"/>
<path d="M22.4008 13.5955C23.1811 14.3759 23.1811 15.6411 22.4008 16.4215C21.6204 17.2019 20.3552 17.2019 19.5748 16.4215C18.7944 15.6411 18.7944 14.3759 19.5748 13.5955C20.3552 12.8152 21.6204 12.8152 22.4008 13.5955Z" fill="#9EA9C9"/>
<path d="M16.4061 13.5955C17.1865 14.3759 17.1865 15.6411 16.4061 16.4215C15.6258 17.2019 14.3605 17.2019 13.5802 16.4215C12.7998 15.6411 12.7998 14.3759 13.5802 13.5955C14.3605 12.8152 15.6258 12.8152 16.4061 13.5955Z" fill="#9EA9C9"/>
<path d="M10.4113 13.5955C11.1916 14.3759 11.1916 15.6411 10.4113 16.4215C9.63089 17.2019 8.36565 17.2019 7.58528 16.4215C6.80491 15.6411 6.80491 14.3759 7.58528 13.5955C8.36565 12.8152 9.63089 12.8152 10.4113 13.5955Z" fill="#9EA9C9"/>
</svg>
