<svg width="17" height="17" viewBox="0 0 17 17" fill="none" xmlns="http://www.w3.org/2000/svg">
<path d="M11.1493 6.49534L2.27581 0.391813C1.9112 0.140467 1.53198 0.0078125 1.20733 0.0078125C0.494538 0.0078125 0.0219727 0.605663 0.0219727 1.56773V14.4012C0.0219727 14.8712 0.158635 15.2639 0.361237 15.5372C0.566942 15.8143 0.888752 15.9609 1.23642 15.9609C1.56095 15.9609 1.92516 15.828 2.28964 15.577L11.1551 9.47348C11.7251 9.08069 12.0376 8.55201 12.0374 7.98415C12.0374 7.41656 11.72 6.88788 11.1493 6.49534Z" fill="white"/>
<path d="M14.3718 0L14.005 0.00103434C13.5247 0.00103434 13.1089 0.392533 13.1089 0.873503V15.0753C13.1089 15.5568 13.5178 15.952 13.9988 15.952L14.3885 15.9569C14.867 15.9544 15.2275 15.5557 15.2275 15.0761V0.872598C15.2275 0.391628 14.8525 0 14.3718 0Z" fill="white"/>
</svg>
