<svg width="72" height="12" viewBox="0 0 72 12" fill="none" xmlns="http://www.w3.org/2000/svg">
<path fill-rule="evenodd" clip-rule="evenodd" d="M5.90097 10.672C5.68563 10.8987 5.40797 11.012 5.06797 11.012C4.75063 11.012 4.49563 10.8987 4.30297 10.672C4.1103 10.4454 4.0253 10.162 4.04797 9.82202L4.35397 7.13602C4.37663 7.06802 4.3653 7.02269 4.31997 7.00002C4.27463 6.97735 4.21797 6.98869 4.14997 7.03402L1.93997 8.63202C1.66797 8.83602 1.38463 8.90969 1.08997 8.85302C0.795299 8.79635 0.5573 8.62069 0.375966 8.32602C0.171966 7.96335 0.1323 7.64602 0.256966 7.37402C0.381633 7.10202 0.5913 6.90935 0.885966 6.79602L3.36797 5.67402C3.43597 5.65135 3.46997 5.61735 3.46997 5.57202C3.46997 5.52669 3.43597 5.49269 3.36797 5.47002L0.885966 4.34802C0.568633 4.21202 0.364633 3.99669 0.273966 3.70202C0.1833 3.40735 0.2173 3.11269 0.375966 2.81802C0.5573 2.52335 0.795299 2.34769 1.08997 2.29102C1.38463 2.23435 1.66797 2.29669 1.93997 2.47802L4.14997 4.11002C4.21797 4.15535 4.27463 4.16669 4.31997 4.14402C4.3653 4.12135 4.37663 4.07602 4.35397 4.00802L4.04797 1.32202C4.0253 0.982019 4.11597 0.698686 4.31997 0.472019C4.52397 0.245352 4.79597 0.132019 5.13597 0.132019C5.4533 0.132019 5.71397 0.245352 5.91797 0.472019C6.12197 0.698686 6.2013 0.982019 6.15597 1.32202L5.84997 4.00802C5.8273 4.07602 5.83863 4.12135 5.88397 4.14402C5.9293 4.16669 5.98597 4.15535 6.05397 4.11002L8.26397 2.51202C8.53597 2.30802 8.82497 2.23435 9.13097 2.29102C9.43697 2.34769 9.6693 2.52335 9.82797 2.81802C10.032 3.18069 10.0716 3.49802 9.94697 3.77002C9.8223 4.04202 9.61263 4.23469 9.31797 4.34802L6.83597 5.47002C6.76797 5.49269 6.73397 5.52669 6.73397 5.57202C6.73397 5.61735 6.76797 5.65135 6.83597 5.67402L9.31797 6.79602C9.6353 6.93202 9.84497 7.14735 9.94697 7.44202C10.049 7.73669 10.0093 8.03135 9.82797 8.32602C9.6693 8.62069 9.43697 8.79635 9.13097 8.85302C8.82497 8.90969 8.53597 8.84735 8.26397 8.66602L6.05397 7.03402C5.98597 6.98869 5.9293 6.97735 5.88397 7.00002C5.83863 7.02269 5.8273 7.06802 5.84997 7.13602L6.15597 9.82202C6.2013 10.162 6.1163 10.4454 5.90097 10.672ZM18.243 10.672C18.0276 10.8987 17.75 11.012 17.41 11.012C17.0926 11.012 16.8376 10.8987 16.645 10.672C16.4523 10.4454 16.3673 10.162 16.39 9.82202L16.696 7.13602C16.7186 7.06802 16.7073 7.02269 16.662 7.00002C16.6166 6.97735 16.56 6.98869 16.492 7.03402L14.282 8.63202C14.01 8.83602 13.7266 8.90969 13.432 8.85302C13.1373 8.79635 12.8993 8.62069 12.718 8.32602C12.514 7.96335 12.4743 7.64602 12.599 7.37402C12.7236 7.10202 12.9333 6.90935 13.228 6.79602L15.71 5.67402C15.778 5.65135 15.812 5.61735 15.812 5.57202C15.812 5.52669 15.778 5.49269 15.71 5.47002L13.228 4.34802C12.9106 4.21202 12.7066 3.99669 12.616 3.70202C12.5253 3.40735 12.5593 3.11269 12.718 2.81802C12.8993 2.52335 13.1373 2.34769 13.432 2.29102C13.7266 2.23435 14.01 2.29669 14.282 2.47802L16.492 4.11002C16.56 4.15535 16.6166 4.16669 16.662 4.14402C16.7073 4.12135 16.7186 4.07602 16.696 4.00802L16.39 1.32202C16.3673 0.982019 16.458 0.698686 16.662 0.472019C16.866 0.245352 17.138 0.132019 17.478 0.132019C17.7953 0.132019 18.056 0.245352 18.26 0.472019C18.464 0.698686 18.5433 0.982019 18.498 1.32202L18.192 4.00802C18.1693 4.07602 18.1806 4.12135 18.226 4.14402C18.2713 4.16669 18.328 4.15535 18.396 4.11002L20.606 2.51202C20.878 2.30802 21.167 2.23435 21.473 2.29102C21.779 2.34769 22.0113 2.52335 22.17 2.81802C22.374 3.18069 22.4136 3.49802 22.289 3.77002C22.1643 4.04202 21.9546 4.23469 21.66 4.34802L19.178 5.47002C19.11 5.49269 19.076 5.52669 19.076 5.57202C19.076 5.61735 19.11 5.65135 19.178 5.67402L21.66 6.79602C21.9773 6.93202 22.187 7.14735 22.289 7.44202C22.391 7.73669 22.3513 8.03135 22.17 8.32602C22.0113 8.62069 21.779 8.79635 21.473 8.85302C21.167 8.90969 20.878 8.84735 20.606 8.66602L18.396 7.03402C18.328 6.98869 18.2713 6.97735 18.226 7.00002C18.1806 7.02269 18.1693 7.06802 18.192 7.13602L18.498 9.82202C18.5433 10.162 18.4583 10.4454 18.243 10.672ZM29.752 11.012C30.092 11.012 30.3696 10.8987 30.585 10.672C30.8003 10.4454 30.8853 10.162 30.84 9.82202L30.534 7.13602C30.5113 7.06802 30.5226 7.02269 30.568 7.00002C30.6133 6.97735 30.67 6.98869 30.738 7.03402L32.948 8.66602C33.22 8.84735 33.509 8.90969 33.815 8.85302C34.121 8.79635 34.3533 8.62069 34.512 8.32602C34.6933 8.03135 34.733 7.73669 34.631 7.44202C34.529 7.14735 34.3193 6.93202 34.002 6.79602L31.52 5.67402C31.452 5.65135 31.418 5.61735 31.418 5.57202C31.418 5.52669 31.452 5.49269 31.52 5.47002L34.002 4.34802C34.2966 4.23469 34.5063 4.04202 34.631 3.77002C34.7556 3.49802 34.716 3.18069 34.512 2.81802C34.3533 2.52335 34.121 2.34769 33.815 2.29102C33.509 2.23435 33.22 2.30802 32.948 2.51202L30.738 4.11002C30.67 4.15535 30.6133 4.16669 30.568 4.14402C30.5226 4.12135 30.5113 4.07602 30.534 4.00802L30.84 1.32202C30.8853 0.982019 30.806 0.698686 30.602 0.472019C30.398 0.245352 30.1373 0.132019 29.82 0.132019C29.48 0.132019 29.208 0.245352 29.004 0.472019C28.8 0.698686 28.7093 0.982019 28.732 1.32202L29.038 4.00802C29.0606 4.07602 29.0493 4.12135 29.004 4.14402C28.9586 4.16669 28.902 4.15535 28.834 4.11002L26.624 2.47802C26.352 2.29669 26.0686 2.23435 25.774 2.29102C25.4793 2.34769 25.2413 2.52335 25.06 2.81802C24.9013 3.11269 24.8673 3.40735 24.958 3.70202C25.0486 3.99669 25.2526 4.21202 25.57 4.34802L28.052 5.47002C28.12 5.49269 28.154 5.52669 28.154 5.57202C28.154 5.61735 28.12 5.65135 28.052 5.67402L25.57 6.79602C25.2753 6.90935 25.0656 7.10202 24.941 7.37402C24.8163 7.64602 24.856 7.96335 25.06 8.32602C25.2413 8.62069 25.4793 8.79635 25.774 8.85302C26.0686 8.90969 26.352 8.83602 26.624 8.63202L28.834 7.03402C28.902 6.98869 28.9586 6.97735 29.004 7.00002C29.0493 7.02269 29.0606 7.06802 29.038 7.13602L28.732 9.82202C28.7093 10.162 28.7943 10.4454 28.987 10.672C29.1796 10.8987 29.4346 11.012 29.752 11.012ZM42.927 10.672C42.7116 10.8987 42.434 11.012 42.094 11.012C41.7766 11.012 41.5216 10.8987 41.329 10.672C41.1363 10.4454 41.0513 10.162 41.074 9.82202L41.38 7.13602C41.4026 7.06802 41.3913 7.02269 41.346 7.00002C41.3006 6.97735 41.244 6.98869 41.176 7.03402L38.966 8.63202C38.694 8.83602 38.4106 8.90969 38.116 8.85302C37.8213 8.79635 37.5833 8.62069 37.402 8.32602C37.198 7.96335 37.1583 7.64602 37.283 7.37402C37.4076 7.10202 37.6173 6.90935 37.912 6.79602L40.394 5.67402C40.462 5.65135 40.496 5.61735 40.496 5.57202C40.496 5.52669 40.462 5.49269 40.394 5.47002L37.912 4.34802C37.5946 4.21202 37.3906 3.99669 37.3 3.70202C37.2093 3.40735 37.2433 3.11269 37.402 2.81802C37.5833 2.52335 37.8213 2.34769 38.116 2.29102C38.4106 2.23435 38.694 2.29669 38.966 2.47802L41.176 4.11002C41.244 4.15535 41.3006 4.16669 41.346 4.14402C41.3913 4.12135 41.4026 4.07602 41.38 4.00802L41.074 1.32202C41.0513 0.982019 41.142 0.698686 41.346 0.472019C41.55 0.245352 41.822 0.132019 42.162 0.132019C42.4793 0.132019 42.74 0.245352 42.944 0.472019C43.148 0.698686 43.2273 0.982019 43.182 1.32202L42.876 4.00802C42.8533 4.07602 42.8646 4.12135 42.91 4.14402C42.9553 4.16669 43.012 4.15535 43.08 4.11002L45.29 2.51202C45.562 2.30802 45.851 2.23435 46.157 2.29102C46.463 2.34769 46.6953 2.52335 46.854 2.81802C47.058 3.18069 47.0976 3.49802 46.973 3.77002C46.8483 4.04202 46.6386 4.23469 46.344 4.34802L43.862 5.47002C43.794 5.49269 43.76 5.52669 43.76 5.57202C43.76 5.61735 43.794 5.65135 43.862 5.67402L46.344 6.79602C46.6613 6.93202 46.871 7.14735 46.973 7.44202C47.075 7.73669 47.0353 8.03135 46.854 8.32602C46.6953 8.62069 46.463 8.79635 46.157 8.85302C45.851 8.90969 45.562 8.84735 45.29 8.66602L43.08 7.03402C43.012 6.98869 42.9553 6.97735 42.91 7.00002C42.8646 7.02269 42.8533 7.06802 42.876 7.13602L43.182 9.82202C43.2273 10.162 43.1423 10.4454 42.927 10.672ZM54.436 11.012C54.776 11.012 55.0536 10.8987 55.269 10.672C55.4843 10.4454 55.5693 10.162 55.524 9.82202L55.218 7.13602C55.1953 7.06802 55.2066 7.02269 55.252 7.00002C55.2973 6.97735 55.354 6.98869 55.422 7.03402L57.632 8.66602C57.904 8.84735 58.193 8.90969 58.499 8.85302C58.805 8.79635 59.0373 8.62069 59.196 8.32602C59.3773 8.03135 59.417 7.73669 59.315 7.44202C59.213 7.14735 59.0033 6.93202 58.686 6.79602L56.204 5.67402C56.136 5.65135 56.102 5.61735 56.102 5.57202C56.102 5.52669 56.136 5.49269 56.204 5.47002L58.686 4.34802C58.9806 4.23469 59.1903 4.04202 59.315 3.77002C59.4396 3.49802 59.4 3.18069 59.196 2.81802C59.0373 2.52335 58.805 2.34769 58.499 2.29102C58.193 2.23435 57.904 2.30802 57.632 2.51202L55.422 4.11002C55.354 4.15535 55.2973 4.16669 55.252 4.14402C55.2066 4.12135 55.1953 4.07602 55.218 4.00802L55.524 1.32202C55.5693 0.982019 55.49 0.698686 55.286 0.472019C55.082 0.245352 54.8213 0.132019 54.504 0.132019C54.164 0.132019 53.892 0.245352 53.688 0.472019C53.484 0.698686 53.3933 0.982019 53.416 1.32202L53.722 4.00802C53.7446 4.07602 53.7333 4.12135 53.688 4.14402C53.6426 4.16669 53.586 4.15535 53.518 4.11002L51.308 2.47802C51.036 2.29669 50.7526 2.23435 50.458 2.29102C50.1633 2.34769 49.9253 2.52335 49.744 2.81802C49.5853 3.11269 49.5513 3.40735 49.642 3.70202C49.7326 3.99669 49.9366 4.21202 50.254 4.34802L52.736 5.47002C52.804 5.49269 52.838 5.52669 52.838 5.57202C52.838 5.61735 52.804 5.65135 52.736 5.67402L50.254 6.79602C49.9593 6.90935 49.7496 7.10202 49.625 7.37402C49.5003 7.64602 49.54 7.96335 49.744 8.32602C49.9253 8.62069 50.1633 8.79635 50.458 8.85302C50.7526 8.90969 51.036 8.83602 51.308 8.63202L53.518 7.03402C53.586 6.98869 53.6426 6.97735 53.688 7.00002C53.7333 7.02269 53.7446 7.06802 53.722 7.13602L53.416 9.82202C53.3933 10.162 53.4783 10.4454 53.671 10.672C53.8636 10.8987 54.1186 11.012 54.436 11.012ZM67.611 10.672C67.3956 10.8987 67.118 11.012 66.778 11.012C66.4606 11.012 66.2056 10.8987 66.013 10.672C65.8203 10.4454 65.7353 10.162 65.758 9.82202L66.064 7.13602C66.0866 7.06802 66.0753 7.02269 66.03 7.00002C65.9846 6.97735 65.928 6.98869 65.86 7.03402L63.65 8.63202C63.378 8.83602 63.0946 8.90969 62.8 8.85302C62.5053 8.79635 62.2673 8.62069 62.086 8.32602C61.882 7.96335 61.8423 7.64602 61.967 7.37402C62.0916 7.10202 62.3013 6.90935 62.596 6.79602L65.078 5.67402C65.146 5.65135 65.18 5.61735 65.18 5.57202C65.18 5.52669 65.146 5.49269 65.078 5.47002L62.596 4.34802C62.2786 4.21202 62.0746 3.99669 61.984 3.70202C61.8933 3.40735 61.9273 3.11269 62.086 2.81802C62.2673 2.52335 62.5053 2.34769 62.8 2.29102C63.0946 2.23435 63.378 2.29669 63.65 2.47802L65.86 4.11002C65.928 4.15535 65.9846 4.16669 66.03 4.14402C66.0753 4.12135 66.0866 4.07602 66.064 4.00802L65.758 1.32202C65.7353 0.982019 65.826 0.698686 66.03 0.472019C66.234 0.245352 66.506 0.132019 66.846 0.132019C67.1633 0.132019 67.424 0.245352 67.628 0.472019C67.832 0.698686 67.9113 0.982019 67.866 1.32202L67.56 4.00802C67.5373 4.07602 67.5486 4.12135 67.594 4.14402C67.6393 4.16669 67.696 4.15535 67.764 4.11002L69.974 2.51202C70.246 2.30802 70.535 2.23435 70.841 2.29102C71.147 2.34769 71.3793 2.52335 71.538 2.81802C71.742 3.18069 71.7816 3.49802 71.657 3.77002C71.5323 4.04202 71.3226 4.23469 71.028 4.34802L68.546 5.47002C68.478 5.49269 68.444 5.52669 68.444 5.57202C68.444 5.61735 68.478 5.65135 68.546 5.67402L71.028 6.79602C71.3453 6.93202 71.555 7.14735 71.657 7.44202C71.759 7.73669 71.7193 8.03135 71.538 8.32602C71.3793 8.62069 71.147 8.79635 70.841 8.85302C70.535 8.90969 70.246 8.84735 69.974 8.66602L67.764 7.03402C67.696 6.98869 67.6393 6.97735 67.594 7.00002C67.5486 7.02269 67.5373 7.06802 67.56 7.13602L67.866 9.82202C67.9113 10.162 67.8263 10.4454 67.611 10.672Z" fill="#0062DA"/>
</svg>
