<svg width="17" height="16" viewBox="0 0 17 16" fill="none" xmlns="http://www.w3.org/2000/svg">
<path d="M10.3707 2.67627L1.57633 11.4713C1.53209 11.5156 1.50014 11.5717 1.48493 11.6319L0.510153 15.5444C0.480995 15.6622 0.515605 15.7875 0.601558 15.8734C0.666593 15.9384 0.755209 15.9744 0.845853 15.9744C0.873617 15.9744 0.902014 15.971 0.929651 15.964L4.84218 14.9892C4.90316 14.9739 4.95856 14.9421 5.0028 14.8979L13.7979 6.1035L10.3707 2.67627Z" fill="white"/>
<path d="M15.9766 1.47724L14.9977 0.498289C14.3434 -0.155996 13.203 -0.155363 12.5495 0.498289L11.3503 1.69745L14.7774 5.12456L15.9766 3.92539C16.3034 3.59869 16.4835 3.16386 16.4835 2.70138C16.4835 2.23891 16.3034 1.80407 15.9766 1.47724Z" fill="white"/>
</svg>
