<svg width="14" height="13" viewBox="0 0 14 13" fill="none" xmlns="http://www.w3.org/2000/svg">
<path d="M13.3097 12.3262H5.44468C5.11068 12.3262 4.8396 12.0552 4.8396 11.7212C4.8396 11.3872 5.11068 11.1162 5.44468 11.1162H13.3097C13.6437 11.1162 13.9146 11.3872 13.9146 11.7212C13.9146 12.0552 13.6437 12.3262 13.3097 12.3262Z" fill="black"/>
<path d="M11.6569 1.52453L10.8013 0.668978C10.344 0.211571 9.54718 0.212235 9.09044 0.668978L7.83929 1.92012L10.4057 4.48654L11.6569 3.2354C11.8855 3.00731 12.0114 2.70366 12.0114 2.37996C12.0114 2.05693 11.8855 1.75318 11.6569 1.52453Z" fill="black"/>
<path d="M6.9832 2.77621L0.747986 9.01143C0.708105 9.05075 0.6803 9.10094 0.66756 9.15599L0.00809119 11.9541C-0.0160587 12.0558 0.0147379 12.1634 0.0886277 12.2372C0.145458 12.2947 0.222892 12.3262 0.302099 12.3262C0.325142 12.3262 0.348738 12.3237 0.371669 12.3183L3.16984 11.6588C3.22435 11.6462 3.27453 11.6183 3.31441 11.5784L9.54962 5.3433L6.9832 2.77621Z" fill="black"/>
</svg>
