<svg width="33" height="33" viewBox="0 0 33 33" fill="none" xmlns="http://www.w3.org/2000/svg">
<path fill-rule="evenodd" clip-rule="evenodd" d="M32.8155 16.5C32.8155 7.3873 25.4695 0 16.4078 0C7.346 0 0 7.3873 0 16.5C0 25.6127 7.346 33 16.4078 33C25.4695 33 32.8155 25.6127 32.8155 16.5ZM1.53823 16.5C1.53823 8.24162 8.19554 1.54688 16.4078 1.54688C24.62 1.54688 31.2773 8.24162 31.2773 16.5C31.2773 24.7584 24.62 31.4531 16.4078 31.4531C8.19554 31.4531 1.53823 24.7584 1.53823 16.5Z" fill="white"/>
<ellipse cx="16.4077" cy="16.5" rx="14.8695" ry="14.9531" fill="white" fill-opacity="0.7"/>
<path d="M8.92749 10.1914C11.13 8.54296 14.1471 8.54296 16.3496 10.1914C18.5521 11.8399 21.5692 11.8399 23.7717 10.1914V20.2855C21.5692 21.934 18.5521 21.934 16.3496 20.2855C14.1471 18.6371 11.13 18.6371 8.92749 20.2855" fill="#4CBF56"/>
<path d="M8.92749 10.1914C11.13 8.54296 14.1471 8.54296 16.3496 10.1914V10.1914C18.5521 11.8399 21.5692 11.8399 23.7717 10.1914V20.2855C21.5692 21.934 18.5521 21.934 16.3496 20.2855V20.2855C14.1471 18.6371 11.13 18.6371 8.92749 20.2855" stroke="#45993D" stroke-linecap="round" stroke-linejoin="round"/>
<path d="M8.92765 24.5074V8.97803V24.5074Z" fill="#4CBF56"/>
<path d="M8.92765 24.5074V8.97803" stroke="#45993D" stroke-width="1.5" stroke-linecap="round" stroke-linejoin="round"/>
</svg>
