<svg width="22" height="22" viewBox="0 0 22 22" fill="none" xmlns="http://www.w3.org/2000/svg">
<path fill-rule="evenodd" clip-rule="evenodd" d="M18.7515 3.21263C23.035 7.49613 23.035 14.468 18.7515 18.7515C14.468 23.035 7.49613 23.035 3.21263 18.7515C-1.07088 14.468 -1.07088 7.49613 3.21263 3.21263C7.49613 -1.07088 14.468 -1.07088 18.7515 3.21263ZM17.9764 3.98778C14.1185 0.129939 7.84562 0.129939 3.98778 3.98778C0.13442 7.84562 0.129939 14.1185 3.98778 17.9764C7.84562 21.8342 14.1185 21.8342 17.9764 17.9764C21.8342 14.1185 21.8342 7.84562 17.9764 3.98778Z" fill="black"/>
<path d="M10.9822 15.0957C11.1345 15.0957 11.2689 15.0329 11.372 14.9344C11.4706 14.8358 11.5333 14.6969 11.5333 14.5446V11.5291H14.5488C14.7011 11.5291 14.8355 11.4663 14.9386 11.3678C15.0372 11.2692 15.0999 11.1303 15.0999 10.978C15.0999 10.6733 14.8535 10.4268 14.5533 10.4313H11.5378V7.41584C11.5378 7.11116 11.2913 6.86472 10.9911 6.8692C10.6865 6.8692 10.44 7.11564 10.4445 7.41584V10.4313H7.42902C7.12434 10.4313 6.8779 10.6778 6.88238 10.978C6.88238 11.2826 7.12882 11.5291 7.42902 11.5246H10.4445V14.5401C10.4311 14.8492 10.6775 15.0957 10.9822 15.0957Z" fill="black"/>
</svg>
