<svg width="22" height="23" viewBox="0 0 22 23" fill="none" xmlns="http://www.w3.org/2000/svg">
<path fill-rule="evenodd" clip-rule="evenodd" d="M0 11.917C0 5.85135 4.93436 0.916992 11 0.916992C17.0656 0.916992 22 5.85135 22 11.917C22 17.9826 17.0656 22.917 11 22.917C4.93436 22.917 0 17.9826 0 11.917ZM11.9166 12.8336H15.8125C16.3186 12.8336 16.7291 12.423 16.7291 11.917C16.7291 11.4109 16.3186 11.0004 15.8125 11.0004H11.9166V7.10449C11.9166 6.59843 11.5061 6.18788 11 6.18788C10.4939 6.18788 10.0834 6.59843 10.0834 7.10449V11.0004H6.1875C5.68144 11.0004 5.27089 11.4109 5.27089 11.917C5.27089 12.423 5.68144 12.8336 6.1875 12.8336H10.0834V16.7295C10.0834 17.2355 10.4939 17.6461 11 17.6461C11.5061 17.6461 11.9166 17.2355 11.9166 16.7295V12.8336Z" fill="black"/>
</svg>
