<svg width="13" height="40" viewBox="0 0 13 40" fill="none" xmlns="http://www.w3.org/2000/svg">
<rect width="3.98212" height="3.98212" fill="#212121"/>
<rect y="3.98242" width="3.98212" height="3.98212" fill="white"/>
<rect y="7.96387" width="3.98212" height="3.98212" fill="#212121"/>
<rect y="11.9443" width="3.98212" height="3.98212" fill="white"/>
<rect y="15.9258" width="3.98212" height="3.98212" fill="#212121"/>
<rect y="19.9082" width="3.98212" height="3.98212" fill="white"/>
<rect y="23.8906" width="3.98212" height="3.98212" fill="#212121"/>
<rect y="27.873" width="3.98212" height="3.98212" fill="white"/>
<rect y="31.8525" width="3.98212" height="3.98212" fill="#212121"/>
<rect y="35.835" width="3.98212" height="3.98212" fill="white"/>
<rect x="3.98218" width="3.98212" height="3.98212" fill="white"/>
<rect x="7.96436" width="3.98212" height="3.98212" fill="#212121"/>
<rect x="3.98218" y="3.98242" width="3.98212" height="3.98212" fill="#212121"/>
<rect x="7.96436" y="3.98242" width="3.98212" height="3.98212" fill="white"/>
<rect x="3.98218" y="7.96387" width="3.98212" height="3.98212" fill="white"/>
<rect x="7.96436" y="7.96387" width="3.98212" height="3.98212" fill="#212121"/>
<rect x="3.98218" y="11.9443" width="3.98212" height="3.98212" fill="#212121"/>
<rect x="7.96436" y="11.9443" width="3.98212" height="3.98212" fill="white"/>
<rect x="3.98218" y="15.9258" width="3.98212" height="3.98212" fill="white"/>
<rect x="7.96436" y="15.9258" width="3.98212" height="3.98212" fill="#212121"/>
<rect x="3.98218" y="19.9082" width="3.98212" height="3.98212" fill="#212121"/>
<rect x="7.96436" y="19.9082" width="3.98212" height="3.98212" fill="white"/>
<rect x="3.98218" y="23.8906" width="3.98212" height="3.98212" fill="white"/>
<rect x="7.96436" y="23.8906" width="3.98212" height="3.98212" fill="#212121"/>
<rect x="3.98218" y="27.873" width="3.98212" height="3.98212" fill="#212121"/>
<rect x="7.96436" y="27.873" width="3.98212" height="3.98212" fill="white"/>
<rect x="3.98218" y="31.8525" width="3.98212" height="3.98212" fill="white"/>
<rect x="7.96436" y="31.8525" width="3.98212" height="3.98212" fill="#212121"/>
<rect x="3.98218" y="35.835" width="3.98212" height="3.98212" fill="#212121"/>
<rect x="7.96436" y="35.835" width="3.98212" height="3.98212" fill="white"/>
</svg>
