<svg width="48" height="48" viewBox="0 0 48 48" fill="none" xmlns="http://www.w3.org/2000/svg">
<circle cx="24" cy="24" r="24" fill="url(#paint0_linear)"/>
<path fill-rule="evenodd" clip-rule="evenodd" d="M14.0048 11.5092H18.1695V17.3383C18.1695 17.6962 18.3981 18.0132 18.7364 18.128L23.7381 19.7942C23.9057 19.8505 24.0942 19.8506 24.2619 19.7942L29.2636 18.128C29.6019 18.0133 29.8305 17.6962 29.8305 17.3383V11.5092H33.9952C34.4556 11.5092 34.8281 11.1367 34.8281 10.6765C34.8281 10.2163 34.4556 9.84375 33.9952 9.84375H14.0048C13.5444 9.84375 13.1719 10.2162 13.1719 10.6764C13.1719 11.1367 13.5444 11.5092 14.0048 11.5092ZM28.9976 23.1673C28.5381 23.1673 28.1647 23.5405 28.1647 24C28.1647 24.4595 28.538 24.8327 28.9976 24.8327C29.458 24.8327 29.8306 25.2052 29.8306 25.6654C29.8306 26.1248 30.2039 26.4981 30.6636 26.4981H34.7804C34.5709 23.8258 33.3716 21.3821 31.4964 19.5725V20.669C31.4964 22.0467 30.3755 23.1673 28.9976 23.1673ZM26.4987 24C26.4987 25.1255 27.2471 26.0794 28.272 26.3908C28.5835 27.4155 29.5377 28.1636 30.6635 28.1634H34.7859C34.5168 31.6721 32.571 34.7114 29.7461 36.4894C29.3587 34.5919 27.6765 33.1598 25.6658 33.1598H24C23.5404 33.1598 23.167 32.7866 23.167 32.3272C23.167 31.8677 23.5404 31.4945 24 31.4945C25.3779 31.4945 26.4988 30.374 26.4988 28.9964C26.4988 27.6188 25.3779 26.4983 24 26.4983H21.3587C21.0146 25.5289 20.0882 24.8328 19.0023 24.8328H18.027C17.6829 23.8634 16.7565 23.1673 15.6706 23.1673H14.0347C14.7221 21.545 15.7854 20.1008 17.153 18.9778C17.4364 19.2968 17.7836 19.5634 18.2101 19.7079L23.2069 21.3726C23.7337 21.551 24.303 21.5385 24.7882 21.3743L29.798 19.7055C29.8041 19.7034 29.8094 19.7002 29.8147 19.697C29.8197 19.6939 29.8248 19.6908 29.8305 19.6887V20.6692C29.8305 21.1286 29.4571 21.5018 28.9975 21.5018C27.6196 21.5018 26.4987 22.6224 26.4987 24ZM25.6658 34.8254H24C22.6221 34.8254 21.5012 33.7048 21.5012 32.3273C21.5012 30.9497 22.6221 29.8291 24 29.8291C24.4596 29.8291 24.833 29.4559 24.833 28.9964C24.833 28.5369 24.4596 28.1636 24 28.1636H20.6683C20.2079 28.1636 19.8353 27.7912 19.8353 27.3309C19.8353 26.8715 19.462 26.4983 19.0024 26.4983H17.3365C16.8761 26.4983 16.5036 26.1258 16.5036 25.6656C16.5036 25.2061 16.1302 24.8329 15.6706 24.8329H13.4729C13.2785 25.6396 13.1719 26.4756 13.1719 27.331C13.1719 33.2998 18.0295 38.1562 24 38.1562C25.4753 38.1562 26.8816 37.8576 28.1645 37.3211C28.1631 35.9445 27.0429 34.8254 25.6658 34.8254ZM33.1622 15.6728C33.1622 16.1323 33.5356 16.5055 33.9952 16.5055C34.4556 16.5055 34.8281 16.8781 34.8281 17.3383C34.8281 17.7985 34.4556 18.171 33.9952 18.171C32.6172 18.171 31.4963 17.0504 31.4963 15.6728V13.1747H33.1622V15.6728Z" fill="url(#paint1_linear)"/>
<defs>
<linearGradient id="paint0_linear" x1="48" y1="48" x2="48" y2="0" gradientUnits="userSpaceOnUse">
<stop stop-color="#C3FFE8"/>
<stop offset="0.9973" stop-color="#F0FFF4"/>
</linearGradient>
<linearGradient id="paint1_linear" x1="34.8281" y1="38.1562" x2="34.8281" y2="9.84375" gradientUnits="userSpaceOnUse">
<stop stop-color="#9CFFAC"/>
<stop offset="1" stop-color="#00B59C"/>
</linearGradient>
</defs>
</svg>
