<svg width="48" height="48" viewBox="0 0 48 48" fill="none" xmlns="http://www.w3.org/2000/svg">
<circle cx="24" cy="24" r="24" fill="url(#paint0_linear)"/>
<path fill-rule="evenodd" clip-rule="evenodd" d="M21.2161 16.5374L21.5077 14.7851L20.2411 13.5393C20.0163 13.317 19.9357 12.9872 20.0334 12.6876C20.1311 12.3871 20.3902 12.1672 20.7029 12.12L22.4598 11.8562L23.2538 10.2676C23.5372 9.70247 24.4626 9.70247 24.746 10.2676L25.54 11.8562L27.2969 12.12C27.6097 12.1672 27.8687 12.3871 27.9664 12.6876C28.0642 12.9872 27.9835 13.3169 27.7587 13.5393L26.4922 14.7851L26.7838 16.5374C26.8359 16.8493 26.7072 17.1628 26.4515 17.3484C26.2016 17.5309 25.8634 17.5626 25.5767 17.4144L23.9999 16.5961L22.4232 17.4144C22.1413 17.5585 21.8033 17.5349 21.5484 17.3484C21.2927 17.1627 21.164 16.8493 21.2161 16.5374ZM37.9747 16.0228C37.877 15.7223 37.6179 15.5025 37.3052 15.4552L35.5484 15.1914L34.7542 13.6028C34.4708 13.0377 33.5455 13.0377 33.2621 13.6028L32.4681 15.1914L30.7112 15.4552C30.3984 15.5024 30.1394 15.7223 30.0417 16.0228C29.944 16.3224 30.0247 16.6522 30.2495 16.8745L31.5159 18.1204L31.2244 19.8727C31.1722 20.1846 31.301 20.498 31.5566 20.6837C31.8115 20.8702 32.1496 20.8938 32.4314 20.7497L34.0083 19.9313L35.5851 20.7497C35.8717 20.8978 36.21 20.8661 36.4598 20.6837C36.7156 20.4981 36.8443 20.1846 36.7922 19.8727L36.5006 18.1204L37.7672 16.8745C37.9917 16.6522 38.0723 16.3224 37.9747 16.0228ZM17.3277 26.4829H13.9916C13.5307 26.4829 13.1576 26.8558 13.1576 27.3167V37.3224C13.1576 37.7833 13.5307 38.1562 13.9916 38.1562H17.3277C17.7887 38.1562 18.1617 37.7833 18.1617 37.3224V27.3167C18.1618 26.8558 17.7888 26.4829 17.3277 26.4829ZM15.5685 20.7497C15.8552 20.8978 16.1934 20.8661 16.4433 20.6837C16.699 20.4981 16.8277 20.1846 16.7755 19.8727L16.484 18.1204L17.7504 16.8745C17.9752 16.6522 18.0559 16.3224 17.9582 16.0228C17.8604 15.7223 17.6015 15.5025 17.2887 15.4552L15.5318 15.1914L14.7378 13.6028C14.4544 13.0377 13.5291 13.0377 13.2457 13.6028L12.4515 15.1914L10.6947 15.4552C10.382 15.5024 10.1229 15.7223 10.0252 16.0228C9.92756 16.3224 10.0082 16.6522 10.2329 16.8745L11.4995 18.1204L11.2079 19.8727C11.1558 20.1846 11.2845 20.498 11.5402 20.6837C11.796 20.8702 12.1331 20.8938 12.415 20.7497L13.9918 19.9313L15.5685 20.7497ZM28.17 26.4829H31.9736C32.7197 26.4829 33.4201 26.8135 33.8958 27.3908C34.3731 27.9681 34.5668 28.7205 34.4301 29.4574L33.4323 36.1124C33.1969 37.3118 32.1658 38.1562 30.9726 38.1562H26.3521C24.7557 38.1562 23.1895 37.552 22.0004 36.4886H19.8298V26.4829H21.9523C22.3507 25.9869 23.1659 24.7883 23.1659 23.2974V20.6462C23.1659 20.1853 23.5389 19.8124 23.9999 19.8124H25.668C27.0476 19.8124 28.17 20.9345 28.17 22.3138V26.4829Z" fill="url(#paint1_linear)"/>
<defs>
<linearGradient id="paint0_linear" x1="48" y1="48" x2="48" y2="0" gradientUnits="userSpaceOnUse">
<stop stop-color="#FFE59A"/>
<stop offset="1" stop-color="#FFFFD5"/>
</linearGradient>
<linearGradient id="paint1_linear" x1="38.0155" y1="38.1562" x2="38.0155" y2="9.84375" gradientUnits="userSpaceOnUse">
<stop stop-color="#FFDE00"/>
<stop offset="1" stop-color="#FD5900"/>
</linearGradient>
</defs>
</svg>
