<svg width="48" height="48" viewBox="0 0 48 48" fill="none" xmlns="http://www.w3.org/2000/svg">
<circle cx="24" cy="24" r="24" fill="url(#paint0_linear)"/>
<path fill-rule="evenodd" clip-rule="evenodd" d="M24.1562 10C16.3511 10 10 16.3503 10 24.1562C10 31.9622 16.3511 38.3125 24.1562 38.3125C31.9614 38.3125 38.3125 31.9622 38.3125 24.1562C38.3125 16.3503 31.9614 10 24.1562 10ZM26.7423 20.4529L28.4077 17.1221C28.6908 16.5577 29.6145 16.5577 29.8975 17.1221L31.563 20.4529C31.7679 20.8644 31.602 21.3646 31.1905 21.5702C30.7698 21.7778 30.2762 21.6028 30.0732 21.1978L29.1527 19.3567L28.2321 21.1978C28.0256 21.6108 27.5295 21.7735 27.1148 21.5702C26.7032 21.3646 26.5373 20.8644 26.7423 20.4529ZM18.4151 17.1221L16.7496 20.4529C16.5447 20.8644 16.7105 21.3646 17.1222 21.5702C17.5368 21.7735 18.033 21.6108 18.2395 21.1978L19.16 19.3567L20.0806 21.1978C20.2836 21.6028 20.7771 21.7778 21.1979 21.5702C21.6093 21.3646 21.7753 20.8644 21.5703 20.4529L19.9049 17.1221C19.6218 16.5577 18.6981 16.5577 18.4151 17.1221ZM15.829 24.1562H14.1635C13.7032 24.1562 13.3308 23.7838 13.3308 23.3236C13.3308 22.8633 13.7033 22.4909 14.1635 22.4909H15.829C16.2893 22.4909 16.6617 22.8633 16.6617 23.3236C16.6618 23.7838 16.2893 24.1562 15.829 24.1562ZM16.6618 25.8217C16.6618 29.9544 20.0236 33.3162 24.1562 33.3162C28.2889 33.3162 31.6507 29.9544 31.6507 25.8217C31.6507 25.3615 31.2783 24.989 30.818 24.989H17.4945C17.0343 24.989 16.6618 25.3614 16.6618 25.8217ZM34.1489 24.1562H32.4834C32.0231 24.1562 31.6507 23.7838 31.6507 23.3236C31.6507 22.8633 32.0232 22.4909 32.4834 22.4909H34.1489C34.6092 22.4909 34.9816 22.8633 34.9816 23.3236C34.9817 23.7838 34.6092 24.1562 34.1489 24.1562ZM29.9268 26.6544C29.5202 29.4754 27.0871 31.6507 24.1562 31.6507C21.2254 31.6507 18.7923 29.4754 18.3857 26.6544H29.9268Z" fill="url(#paint1_linear)"/>
<defs>
<linearGradient id="paint0_linear" x1="48" y1="48" x2="48" y2="0" gradientUnits="userSpaceOnUse">
<stop stop-color="#FFBEF9"/>
<stop offset="1" stop-color="#FFF1FF"/>
</linearGradient>
<linearGradient id="paint1_linear" x1="38.1461" y1="38.6351" x2="38.1461" y2="10.6554" gradientUnits="userSpaceOnUse">
<stop stop-color="#FF81FF"/>
<stop offset="1" stop-color="#A93AFF"/>
</linearGradient>
</defs>
</svg>
