<svg width="18" height="12" viewBox="0 0 18 12" fill="none" xmlns="http://www.w3.org/2000/svg">
<path d="M5.37391 1.19705H10.7493C10.8906 1.19705 11.0051 1.08255 11.0051 0.941297C11.0051 0.800047 10.8906 0.685547 10.7493 0.685547H5.37391C5.23266 0.685547 5.11816 0.800047 5.11816 0.941297C5.11816 1.08255 5.23266 1.19705 5.37391 1.19705Z" fill="black"/>
<path d="M0.566297 3.69799H5.94169C6.08294 3.69799 6.19744 3.58349 6.19744 3.44224C6.19744 3.30099 6.08294 3.18652 5.94169 3.18652H0.566297C0.425047 3.18652 0.310547 3.30099 0.310547 3.44224C0.310547 3.58349 0.425047 3.69799 0.566297 3.69799Z" fill="black"/>
<path d="M2.00928 6.32896C2.00928 6.47021 2.12378 6.58474 2.26503 6.58474H7.64042C7.78167 6.58474 7.89617 6.47021 7.89617 6.32896C7.89617 6.18771 7.78167 6.07324 7.64042 6.07324H2.26503C2.12378 6.07324 2.00928 6.18771 2.00928 6.32896Z" fill="black"/>
<path d="M5.08557 9.30176H0.25575C0.1145 9.30176 0 9.41622 0 9.55747C0 9.69872 0.1145 9.81322 0.25575 9.81322H5.08557C5.22682 9.81322 5.34132 9.69872 5.34132 9.55747C5.34132 9.41622 5.22682 9.30176 5.08557 9.30176Z" fill="black"/>
<path d="M13.776 2.80066C14.5474 2.80066 15.1728 2.17519 15.1728 1.40373C15.1728 0.632265 14.5474 0.00683594 13.776 0.00683594C13.0044 0.00683594 12.3789 0.6323 12.3789 1.40373C12.3789 2.17519 13.0044 2.80066 13.776 2.80066Z" fill="black"/>
<path d="M16.0736 2.39811C15.2715 3.52165 14.1974 3.65175 13.0417 2.96561C12.963 2.91897 12.6139 2.72664 12.5366 2.68072C10.6773 1.57693 8.82016 2.00979 7.5747 3.75393C7.04545 4.49575 8.26952 5.19889 8.79284 4.46572C9.43634 3.56457 10.2546 3.30382 11.1495 3.58925C10.6913 4.38461 10.2907 5.17515 9.72538 6.29829C9.15995 7.42143 7.91156 8.31836 6.71202 7.61686C5.84648 7.11097 5.06595 8.35439 5.92888 8.85872C7.56652 9.81582 9.4867 9.22811 10.4669 7.98397C10.5009 8.00214 10.5369 8.01854 10.5763 8.03232C11.3771 8.31132 12.4268 9.05411 12.7467 9.31736C13.0664 9.58061 13.6158 10.9217 13.9421 11.5955C14.3378 12.4131 15.616 11.8176 15.2188 10.9965C14.8489 10.232 14.2282 8.70622 13.744 8.32018C13.3556 8.01057 12.6016 7.43436 11.9621 7.10747C12.3947 6.26939 12.8452 5.44036 13.3195 4.62564C14.8312 5.08882 16.2681 4.54322 17.2914 3.10972C17.8211 2.368 16.5973 1.66486 16.0736 2.39811Z" fill="black"/>
</svg>
