<svg width="14" height="16" viewBox="0 0 14 16" fill="none" xmlns="http://www.w3.org/2000/svg">
<path fill-rule="evenodd" clip-rule="evenodd" d="M1.66667 16H11.6667C12.586 16 13.3333 15.252 13.3333 14.3333V1.66667C13.3333 0.748 12.586 0 11.6667 0H1.66667C0.747333 0 0 0.748 0 1.66667V14.3333C0 15.252 0.747333 16 1.66667 16ZM0.666667 1.66667C0.666667 1.11533 1.11533 0.666667 1.66667 0.666667H11.6667C12.218 0.666667 12.6667 1.11533 12.6667 1.66667V14.3333C12.6667 14.8847 12.218 15.3333 11.6667 15.3333H1.66667C1.11533 15.3333 0.666667 14.8847 0.666667 14.3333V1.66667Z" fill="black"/>
<path d="M9 11.3333H8.33333C8.14933 11.3333 8 11.1839 8 10.9999C8 10.8159 8.14933 10.6666 8.33333 10.6666H9C9.18333 10.6666 9.33333 10.5173 9.33333 10.3333V8.99992C9.33333 8.74392 9.43 8.51059 9.58867 8.33325C9.43 8.15592 9.33333 7.92259 9.33333 7.66659V6.33325C9.33333 6.14925 9.18333 5.99992 9 5.99992H8.33333C8.14933 5.99992 8 5.85059 8 5.66659C8 5.48259 8.14933 5.33325 8.33333 5.33325H9C9.55133 5.33325 10 5.78192 10 6.33325V7.66659C10 7.85059 10.15 7.99992 10.3333 7.99992C10.5173 7.99992 10.6667 8.14925 10.6667 8.33325C10.6667 8.51725 10.5173 8.66659 10.3333 8.66659C10.15 8.66659 10 8.81592 10 8.99992V10.3333C10 10.8846 9.55133 11.3333 9 11.3333Z" fill="black"/>
<path d="M4.99996 11.3333H4.33329C3.78196 11.3333 3.33329 10.8846 3.33329 10.3333V8.99992C3.33329 8.81592 3.18329 8.66659 2.99996 8.66659C2.81596 8.66659 2.66663 8.51725 2.66663 8.33325C2.66663 8.14925 2.81596 7.99992 2.99996 7.99992C3.18329 7.99992 3.33329 7.85059 3.33329 7.66659V6.33325C3.33329 5.78192 3.78196 5.33325 4.33329 5.33325H4.99996C5.18396 5.33325 5.33329 5.48259 5.33329 5.66659C5.33329 5.85059 5.18396 5.99992 4.99996 5.99992H4.33329C4.14996 5.99992 3.99996 6.14925 3.99996 6.33325V7.66659C3.99996 7.92259 3.90329 8.15592 3.74463 8.33325C3.90329 8.51059 3.99996 8.74392 3.99996 8.99992V10.3333C3.99996 10.5173 4.14996 10.6666 4.33329 10.6666H4.99996C5.18396 10.6666 5.33329 10.8159 5.33329 10.9999C5.33329 11.1839 5.18396 11.3333 4.99996 11.3333Z" fill="black"/>
<path d="M7.66671 9.33341H5.66671C5.48271 9.33341 5.33337 9.18408 5.33337 9.00008C5.33337 8.81608 5.48271 8.66675 5.66671 8.66675H7.66671C7.85071 8.66675 8.00004 8.81608 8.00004 9.00008C8.00004 9.18408 7.85071 9.33341 7.66671 9.33341Z" fill="black"/>
</svg>
