<svg width="32" height="32" viewBox="0 0 32 32" fill="none" xmlns="http://www.w3.org/2000/svg">
<path d="M26 32H6C2.686 32 0 29.314 0 26V6C0 2.686 2.686 0 6 0H26C29.314 0 32 2.686 32 6V26C32 29.314 29.314 32 26 32Z" fill="#F5E6FE"/>
<path d="M18.667 14.5H13.334C12.966 14.5 12.667 14.201 12.667 13.833C12.667 13.465 12.966 13.166 13.334 13.166H18.667C19.035 13.166 19.334 13.465 19.334 13.833C19.334 14.201 19.035 14.5 18.667 14.5Z" fill="#BE63F9"/>
<path d="M16 11.833H13.333C12.965 11.833 12.666 11.534 12.666 11.166C12.666 10.798 12.965 10.499 13.333 10.499H16C16.368 10.499 16.667 10.798 16.667 11.166C16.667 11.534 16.368 11.833 16 11.833Z" fill="#BE63F9"/>
<path d="M22 9.833V15.14L20.667 15.84V9.833C20.667 9.466 20.367 9.166 20 9.166H12C11.633 9.166 11.333 9.466 11.333 9.833V15.84L10 15.14V9.833C10 8.733 10.9 7.833 12 7.833H20C21.1 7.833 22 8.733 22 9.833Z" fill="#D9A4FC"/>
<path d="M11.333 15.84V16.833C11.333 17.2 11.033 17.5 10.666 17.5C10.3 17.5 10 17.2 10 16.833V15.14L11.333 15.84Z" fill="#D9A4FC"/>
<path d="M22 15.14V16.833C22 17.2 21.7 17.5 21.333 17.5C20.966 17.5 20.666 17.2 20.666 16.833V15.84L22 15.14Z" fill="#D9A4FC"/>
<path d="M24 13.96V21.167C24 22.267 23.1 23.167 22 23.167H10C8.9 23.167 8 22.267 8 21.167V13.96C8 13.227 8.4 12.553 9.04 12.2L10 11.68V13.2L9.68 13.373C9.467 13.486 9.333 13.713 9.333 13.96V14.793L10 15.14L11.333 15.84L15.613 18.073C15.853 18.193 16.146 18.193 16.393 18.066L20.666 15.839L22 15.14L22.667 14.793V13.96C22.667 13.713 22.534 13.487 22.32 13.373L22 13.2V11.68L22.96 12.2C23.6 12.553 24 13.227 24 13.96Z" fill="#BE63F9"/>
</svg>
