<svg width="32" height="32" viewBox="0 0 32 32" fill="none" xmlns="http://www.w3.org/2000/svg">
<path d="M26 32H6C2.686 32 0 29.314 0 26V6C0 2.686 2.686 0 6 0H26C29.314 0 32 2.686 32 6V26C32 29.314 29.314 32 26 32Z" fill="#E3F8FA"/>
<path fill-rule="evenodd" clip-rule="evenodd" d="M12.564 13.723C12.564 10.573 15.127 8.00999 18.277 8.00999C21.427 8.00999 23.991 10.574 23.991 13.724C23.991 16.874 21.428 19.437 18.278 19.437C17.571 19.437 16.89 19.312 16.25 19.065L14.07 21.245C13.976 21.338 13.848 21.391 13.716 21.391H12.913V22.194C12.913 22.47 12.689 22.694 12.413 22.694H11.61V23.51C11.61 23.786 11.386 24.01 11.11 24.01H8.49097C8.21497 24.01 7.99097 23.786 7.99097 23.51V20.552C7.99097 20.419 8.04297 20.292 8.13697 20.198L12.844 15.491C12.658 14.929 12.564 14.336 12.564 13.723ZM18.991 11.01C20.0955 11.01 20.991 11.9054 20.991 13.01C20.991 14.1146 20.0955 15.01 18.991 15.01C17.8864 15.01 16.991 14.1146 16.991 13.01C16.991 11.9054 17.8864 11.01 18.991 11.01ZM18.991 12.01C18.4387 12.01 17.991 12.4577 17.991 13.01C17.991 13.5623 18.4387 14.01 18.991 14.01C19.5433 14.01 19.991 13.5623 19.991 13.01C19.991 12.4577 19.5433 12.01 18.991 12.01Z" fill="#26C6DA"/>
</svg>
