<svg width="32" height="32" viewBox="0 0 32 32" fill="none" xmlns="http://www.w3.org/2000/svg">
<path d="M26 32H6C2.686 32 0 29.314 0 26V6C0 2.686 2.686 0 6 0H26C29.314 0 32 2.686 32 6V26C32 29.314 29.314 32 26 32Z" fill="#E3F8FA"/>
<path fill-rule="evenodd" clip-rule="evenodd" d="M11 13C11 10.243 13.243 8 16 8C18.757 8 21 10.243 21 13C21 15.757 18.757 18 16 18C13.243 18 11 15.757 11 13ZM16.254 12.5H15.747C15.519 12.5 15.333 12.314 15.334 12.08C15.334 11.853 15.519 11.667 15.747 11.667H17.167C17.443 11.667 17.667 11.443 17.667 11.167C17.667 10.891 17.443 10.667 17.167 10.667H16.5V10.167C16.5 9.891 16.276 9.667 16 9.667C15.724 9.667 15.5 9.891 15.5 10.167V10.692C14.838 10.81 14.333 11.386 14.333 12.087C14.333 12.866 14.967 13.5 15.746 13.5H16.253C16.48 13.5 16.666 13.686 16.666 13.92C16.666 14.147 16.481 14.333 16.253 14.333H14.833C14.557 14.333 14.333 14.557 14.333 14.833C14.333 15.109 14.557 15.333 14.833 15.333H15.5V15.833C15.5 16.109 15.724 16.333 16 16.333C16.276 16.333 16.5 16.109 16.5 15.833V15.308C17.162 15.19 17.667 14.614 17.667 13.913C17.667 13.134 17.033 12.5 16.254 12.5Z" fill="#8CE1EB"/>
<path fill-rule="evenodd" clip-rule="evenodd" d="M24 18.035V18.038V20.561V20.563V20.566V20.667C24 20.6972 23.9923 20.7248 23.9846 20.7526C23.9808 20.7662 23.977 20.7799 23.974 20.794C23.706 22.898 19.836 24 16 24C12.133 24 8.231 22.88 8.02 20.742C8.01799 20.7283 8.01436 20.7151 8.01074 20.702C8.00536 20.6824 8 20.6629 8 20.642V18.035C8 16.995 8.897 16.098 10.538 15.469C11.482 17.548 13.572 19 16 19C18.428 19 20.519 17.548 21.462 15.469C23.057 16.081 23.942 16.947 23.99 17.95C23.9905 17.9579 23.9927 17.9654 23.9949 17.9729C23.9974 17.9816 24 17.9904 24 18V18.032V18.035ZM16 22.667C20.067 22.667 22.664 21.423 22.667 20.565V20.016C21.157 20.975 18.571 21.472 16 21.472C13.428 21.472 10.843 20.975 9.333 20.015V20.563C9.333 21.421 11.93 22.667 16 22.667Z" fill="#26C6DA"/>
</svg>
