<svg width="32" height="32" viewBox="0 0 32 32" fill="none" xmlns="http://www.w3.org/2000/svg">
<path d="M26 32H6C2.686 32 0 29.314 0 26V6C0 2.686 2.686 0 6 0H26C29.314 0 32 2.686 32 6V26C32 29.314 29.314 32 26 32Z" fill="#FFE6E2"/>
<circle cx="16" cy="12" r="1" fill="#FD907E"/>
<path d="M16.667 18H15.334C14.966 18 14.667 17.701 14.667 17.333C14.667 16.965 14.966 16.666 15.334 16.666H16.667C17.035 16.666 17.334 16.965 17.334 17.333C17.333 17.702 17.035 18 16.667 18Z" fill="#FD907E"/>
<path d="M16.667 15.333H15.334C14.966 15.333 14.667 15.034 14.667 14.666C14.667 14.298 14.965 14 15.333 14H16.666C17.034 14 17.333 14.299 17.333 14.667C17.333 15.035 17.035 15.333 16.667 15.333Z" fill="#FD907E"/>
<path fill-rule="evenodd" clip-rule="evenodd" d="M20 15.333H22.167C23.179 15.333 24 16.154 24 17.167V23.5C24 23.776 23.776 24 23.5 24H8.5C8.224 24 8 23.776 8 23.5V17.167C8 16.154 8.821 15.333 9.833 15.333H12V12.5L11.733 12.699C11.438 12.921 11.021 12.86 10.8 12.566C10.579 12.272 10.638 11.854 10.933 11.633L15.6 8.133C15.837 7.955 16.163 7.955 16.4 8.133L21.067 11.633C21.361 11.853 21.421 12.271 21.2 12.566C21.069 12.741 20.869 12.833 20.666 12.833C20.527 12.833 20.387 12.79 20.267 12.7L20 12.5V15.333ZM10 21.333H11.333C11.701 21.333 12 21.035 12 20.667C12 20.299 11.701 20 11.333 20H10C9.632 20 9.333 20.298 9.333 20.666C9.333 21.034 9.632 21.333 10 21.333ZM11.333 18.667H10C9.632 18.667 9.333 18.368 9.333 18C9.333 17.632 9.632 17.333 10 17.333H11.333C11.701 17.333 12 17.632 12 18C12 18.368 11.701 18.667 11.333 18.667ZM18 22.667H18.667V11.5L16 9.5L13.333 11.5V22.667H14V21.334C14 20.231 14.897 19.334 16 19.334C17.103 19.334 18 20.231 18 21.334V22.667ZM22 21.333H20.667C20.299 21.333 20 21.034 20 20.666C20 20.298 20.299 20 20.667 20H22C22.368 20 22.667 20.299 22.667 20.667C22.667 21.035 22.368 21.333 22 21.333ZM20.667 18.667H22C22.368 18.667 22.667 18.368 22.667 18C22.667 17.632 22.368 17.333 22 17.333H20.667C20.299 17.333 20 17.632 20 18C20 18.368 20.299 18.667 20.667 18.667Z" fill="#FC573B"/>
</svg>
