<svg width="32" height="32" viewBox="0 0 32 32" fill="none" xmlns="http://www.w3.org/2000/svg">
<path d="M26 32H6C2.686 32 0 29.314 0 26V6C0 2.686 2.686 0 6 0H26C29.314 0 32 2.686 32 6V26C32 29.314 29.314 32 26 32Z" fill="#F5E6FE"/>
<circle cx="16" cy="12" r="2.667" fill="#BE63F9"/>
<path d="M18.167 16H13.833C12.087 16 10.666 17.421 10.666 19.167V20.834C10.666 21.11 10.89 21.334 11.166 21.334H20.833C21.109 21.334 21.333 21.11 21.333 20.834V19.167C21.334 17.421 19.913 16 18.167 16Z" fill="#BE63F9"/>
<path d="M11.333 8H10C8.897 8 8 8.897 8 10V11.333C8 11.702 8.298 12 8.666 12C9.034 12 9.333 11.702 9.333 11.333V10C9.333 9.632 9.632 9.333 10 9.333H11.333C11.701 9.333 12 9.035 12 8.667C12 8.299 11.701 8 11.333 8Z" fill="#D9A4FC"/>
<path d="M11.333 22.667H10C9.632 22.667 9.333 22.368 9.333 22V20.667C9.333 20.298 9.034 20 8.666 20C8.298 20 8 20.298 8 20.667V22C8 23.103 8.897 24 10 24H11.333C11.701 24 12 23.702 12 23.333C12 22.964 11.701 22.667 11.333 22.667V22.667Z" fill="#D9A4FC"/>
<path d="M22 8H20.667C20.299 8 20 8.298 20 8.667C20 9.036 20.299 9.334 20.667 9.334H22C22.368 9.334 22.667 9.633 22.667 10.001V11.334C22.667 11.702 22.966 12.001 23.334 12.001C23.702 12.001 24 11.702 24 11.333V10C24 8.897 23.103 8 22 8V8Z" fill="#D9A4FC"/>
<path d="M23.334 20C22.966 20 22.667 20.298 22.667 20.667V22C22.667 22.368 22.368 22.667 22 22.667H20.667C20.299 22.667 20 22.965 20 23.334C20 23.703 20.299 24 20.667 24H22C23.103 24 24 23.103 24 22V20.667C24 20.298 23.702 20 23.334 20V20Z" fill="#D9A4FC"/>
</svg>
