<svg width="17" height="22" viewBox="0 0 17 22" fill="none" xmlns="http://www.w3.org/2000/svg">
<path fill-rule="evenodd" clip-rule="evenodd" d="M8.44036 0.201438C8.44999 0.224125 9.52867 2.64138 15.8997 2.64138C16.075 2.64138 16.2167 2.78644 16.2174 2.95969V13.7961C16.2174 18.2311 8.5978 21.6219 8.27192 21.7642C8.23136 21.7827 8.18736 21.791 8.14542 21.791C8.10005 21.791 8.0588 21.7827 8.01617 21.7642C7.69442 21.6219 0.0734863 18.2311 0.0734863 13.7961V2.95969C0.0734863 2.78644 0.215111 2.64138 0.390424 2.64138C6.7388 2.64138 7.84017 0.221375 7.8498 0.195937C7.8993 0.0790625 8.01549 0 8.14199 0H8.14817C8.27949 0.004125 8.39292 0.0831875 8.44036 0.201438ZM8.24442 19.4026C8.4988 19.2926 14.4642 16.6382 14.4642 13.1656V4.68256C14.4642 4.54575 14.3542 4.433 14.2167 4.433C9.22824 4.433 8.38399 2.541 8.37642 2.52381C8.33999 2.42963 8.24992 2.36775 8.14749 2.36637H8.14336C8.04367 2.36637 7.95361 2.42687 7.91374 2.51969C7.90686 2.53962 7.04542 4.433 2.0748 4.433C1.9373 4.433 1.82592 4.54575 1.82592 4.68256V13.1656C1.82592 16.6382 7.79274 19.2926 8.04367 19.4026C8.07667 19.4184 8.10967 19.4239 8.14542 19.4239C8.17774 19.4239 8.21417 19.4184 8.24442 19.4026Z" fill="black"/>
<path d="M12.3438 10.0374C12.2888 9.86804 12.1385 9.74811 11.9615 9.73209L9.54652 9.51285L8.59212 7.27841C8.52166 7.11425 8.36133 7.0083 8.18287 7.0083C8.00441 7.0083 7.84401 7.11425 7.774 7.27841L6.8196 9.51285L4.40428 9.73209C4.22723 9.74843 4.0773 9.86836 4.0219 10.0374C3.96682 10.2068 4.01768 10.3926 4.15159 10.5101L5.97709 12.1108L5.43884 14.4814C5.39946 14.6557 5.46712 14.836 5.61175 14.9405C5.68949 14.997 5.78083 15.0252 5.87248 15.0252C5.95124 15.0252 6.03007 15.0043 6.10047 14.9622L8.18287 13.717L10.2649 14.9622C10.4176 15.0534 10.6097 15.0451 10.754 14.9405C10.8986 14.836 10.9663 14.6557 10.9269 14.4814L10.3886 12.1108L12.2141 10.5101C12.348 10.3926 12.3989 10.2072 12.3438 10.0374Z" fill="#D9534F"/>
</svg>
