<svg width="22" height="22" viewBox="0 0 22 22" fill="none" xmlns="http://www.w3.org/2000/svg">
<circle cx="11" cy="11" r="11" fill="url(#paint0_linear)"/>
<path fill-rule="evenodd" clip-rule="evenodd" d="M11 4.51172C7.42229 4.51172 4.51172 7.42229 4.51172 11C4.51172 14.5777 7.42229 17.4883 11 17.4883C14.5777 17.4883 17.4883 14.5777 17.4883 11C17.4883 7.42229 14.5777 4.51172 11 4.51172ZM11.7793 9.62504L11 8.04581L10.2203 9.62504C10.1647 9.73762 10.0574 9.81587 9.93288 9.83378L8.19042 10.0872L9.45172 11.3164C9.54152 11.404 9.58256 11.5304 9.56129 11.6541L9.26347 13.3899L10.8226 12.5706C10.8781 12.5412 10.9388 12.5266 11 12.5266C11.0611 12.5266 11.1218 12.5412 11.1774 12.5706L12.7365 13.3899L12.4386 11.6541C12.4174 11.5304 12.4584 11.404 12.5482 11.3164L13.8095 10.0872L12.0667 9.83378C11.9422 9.81587 11.8349 9.73762 11.7793 9.62504ZM13.2247 11.7231L14.8963 10.0939C15.0003 9.99256 15.0376 9.84084 14.9928 9.70295C14.9477 9.56468 14.8284 9.46404 14.6845 9.44316L12.3748 9.10736L11.342 7.01457C11.2779 6.88411 11.1452 6.80174 10.9998 6.80174C10.8545 6.80174 10.7218 6.88411 10.6577 7.01457L9.6245 9.10736L7.31514 9.44316C7.17128 9.46404 7.05204 9.56468 7.00693 9.70295C6.96224 9.84084 6.99949 9.99256 7.10348 10.0939L8.77513 11.7231L8.38042 14.0231C8.35584 14.1662 8.41475 14.3109 8.53214 14.3962C8.65031 14.4823 8.80684 14.4939 8.93394 14.4253L10.9999 13.3396L13.0659 14.4253C13.1925 14.4925 13.3494 14.4826 13.4677 14.3962C13.5851 14.3108 13.644 14.1662 13.6194 14.0231L13.2247 11.7231Z" fill="url(#paint1_linear)"/>
<defs>
<linearGradient id="paint0_linear" x1="22" y1="22" x2="22" y2="0" gradientUnits="userSpaceOnUse">
<stop stop-color="#FFE59A"/>
<stop offset="1" stop-color="#FFFFD5"/>
</linearGradient>
<linearGradient id="paint1_linear" x1="4.51172" y1="4.51172" x2="4.51172" y2="17.4883" gradientUnits="userSpaceOnUse">
<stop stop-color="#FD5900"/>
<stop offset="1" stop-color="#FFDE00"/>
</linearGradient>
</defs>
</svg>
