<svg width="37" height="48" viewBox="0 0 37 48" fill="none" xmlns="http://www.w3.org/2000/svg">
<path d="M36.5625 12.6562L26.7188 9.84375L23.9062 0H4.21875C1.88878 0 0 1.88878 0 4.21875V43.7812C0 46.1112 1.88878 48 4.21875 48H32.3438C34.6737 48 36.5625 46.1112 36.5625 43.7812V12.6562Z" fill="#FABE2C"/>
<path d="M23.9062 0H18.2812V48H32.3438C34.6737 48 36.5625 46.1112 36.5625 43.7812V12.6562L26.7188 9.84375L23.9062 0Z" fill="#FF9F00"/>
<path d="M36.5625 12.6562H26.7188C25.1719 12.6562 23.9062 11.3906 23.9062 9.84375V0C24.2719 0 24.6375 0.140625 24.8905 0.421969L36.1405 11.672C36.4219 11.925 36.5625 12.2906 36.5625 12.6562Z" fill="#FDD929"/>
<path fill-rule="evenodd" clip-rule="evenodd" d="M9.84375 38.0625H26.7188C27.496 38.0625 28.125 37.4335 28.125 36.6562V22.5938C28.125 21.8165 27.496 21.1875 26.7188 21.1875H9.84375C9.06647 21.1875 8.4375 21.8165 8.4375 22.5938V36.6562C8.4375 37.4335 9.06647 38.0625 9.84375 38.0625ZM25.3125 33.8438H11.25V25.4062H25.3125V33.8438Z" fill="#FFF5F5"/>
<path d="M26.7188 21.1875H18.2812V25.4062H25.3125V33.8438H18.2812V38.0625H26.7188C27.496 38.0625 28.125 37.4335 28.125 36.6562V22.5938C28.125 21.8165 27.496 21.1875 26.7188 21.1875Z" fill="#E3E7EA"/>
</svg>
