<svg width="32" height="32" viewBox="0 0 32 32" fill="none" xmlns="http://www.w3.org/2000/svg">
<circle cx="16" cy="16" r="16" fill="url(#paint0_linear)"/>
<path fill-rule="evenodd" clip-rule="evenodd" d="M13.3857 9.72917C13.5441 9.89073 13.7793 10.2312 13.7793 10.4485C13.7793 10.666 13.544 11.0064 13.3857 11.168C13.17 11.3849 13.17 11.735 13.3868 11.9514C13.6037 12.1682 13.955 12.1682 14.1718 11.9514C14.2456 11.8782 14.8896 11.2119 14.8896 10.4485C14.8896 9.68523 14.2456 9.01892 14.1729 8.94736C14.0146 8.7858 13.7794 8.44536 13.7794 8.22792C13.7794 8.01055 14.0147 7.67005 14.1719 7.51017C14.3887 7.2933 14.3887 6.94198 14.1719 6.72511C13.955 6.5083 13.6037 6.5083 13.3869 6.72511C13.3131 6.7983 12.6691 7.46461 12.6691 8.22792C12.6691 8.99123 13.3131 9.65761 13.3857 9.72917ZM20.9963 13.7795C20.9963 13.4726 20.748 13.2244 20.4412 13.2244H7.11763C6.81075 13.2244 6.5625 13.4727 6.5625 13.7795V18.2207C6.5625 22.1999 9.80013 25.4375 13.7794 25.4375C17.7587 25.4375 20.9964 22.1999 20.9964 18.2206V13.7795H20.9963ZM11.0037 19.3309C11.0037 17.8004 12.2485 16.5552 13.7795 16.5552C15.3104 16.5552 16.5552 17.8005 16.5552 19.3309C16.5552 20.8614 15.3105 22.1067 13.7795 22.1067C12.2485 22.1067 11.0037 20.8614 11.0037 19.3309ZM14.1719 19.7234C14.276 19.6194 14.3345 19.4784 14.3345 19.3309V18.2206C14.3345 17.9138 14.0862 17.6655 13.7794 17.6655C13.4726 17.6655 13.2243 17.9137 13.2243 18.2206V19.101L12.6095 19.7158C12.3926 19.9327 12.3926 20.284 12.6095 20.5008C12.8263 20.7177 13.1776 20.7177 13.3945 20.5008L14.1719 19.7234ZM9.89338 19.3309C9.89338 21.4735 11.6369 23.217 13.7794 23.217C15.9219 23.217 17.6654 21.4734 17.6654 19.3309C17.6654 17.1884 15.9219 15.4449 13.7794 15.4449C11.6369 15.4449 9.89338 17.1884 9.89338 19.3309ZM17.1102 10.4485C17.1102 10.2319 16.8767 9.89361 16.7184 9.73124L16.7177 9.7308C16.644 9.65761 15.9999 8.9913 15.9999 8.22799C15.9999 7.46467 16.644 6.79836 16.7177 6.72517C16.9346 6.50836 17.2858 6.50836 17.5027 6.72517C17.7196 6.94205 17.7196 7.29336 17.5027 7.51024C17.3455 7.67011 17.1102 8.01061 17.1102 8.22799C17.1102 8.44461 17.3437 8.78292 17.502 8.9453L17.5027 8.9458C17.5765 9.01892 18.2205 9.68524 18.2205 10.4485C18.2205 11.2119 17.5765 11.8782 17.5027 11.9514C17.2858 12.1682 16.9345 12.1682 16.7177 11.9514C16.5009 11.735 16.5009 11.3849 16.7167 11.168C16.8749 11.0064 17.1102 10.666 17.1102 10.4485ZM10.0567 9.73124C10.215 9.89361 10.4485 10.2319 10.4485 10.4485C10.4485 10.666 10.2132 11.0064 10.0549 11.168C9.83917 11.3849 9.83917 11.735 10.056 11.9514C10.2729 12.1682 10.6241 12.1682 10.841 11.9514C10.9147 11.8782 11.5588 11.2119 11.5588 10.4485C11.5588 9.68524 10.9147 9.01892 10.841 8.9458L10.8403 8.9453C10.682 8.78292 10.4485 8.44461 10.4485 8.22799C10.4485 8.01061 10.6838 7.67011 10.841 7.51024C11.0579 7.29336 11.0579 6.94205 10.841 6.72517C10.6241 6.50836 10.2728 6.50836 10.056 6.72517C9.98224 6.79836 9.33817 7.46467 9.33817 8.22799C9.33817 8.9913 9.98224 9.65761 10.056 9.7308L10.0567 9.73124ZM22.1066 14.3346H22.6618C24.1928 14.3346 25.4375 15.5799 25.4375 17.1104C25.4375 20.0729 23.3159 22.5474 20.5131 23.0999C20.8364 22.6549 21.1165 22.1783 21.3479 21.6732C23.0991 20.8958 24.3272 19.1467 24.3272 17.1104C24.3272 16.192 23.5801 15.4449 22.6618 15.4449H22.1066V14.3346Z" fill="url(#paint1_linear)"/>
<defs>
<linearGradient id="paint0_linear" x1="32" y1="32" x2="32" y2="0" gradientUnits="userSpaceOnUse">
<stop stop-color="#FFC2CC"/>
<stop offset="1" stop-color="#FFF2F4"/>
</linearGradient>
<linearGradient id="paint1_linear" x1="25.4375" y1="25.4375" x2="25.4375" y2="6.56255" gradientUnits="userSpaceOnUse">
<stop stop-color="#FFA68D"/>
<stop offset="1" stop-color="#FD3A84"/>
</linearGradient>
</defs>
</svg>
