<svg width="16" height="16" viewBox="0 0 16 16" fill="none" xmlns="http://www.w3.org/2000/svg">
<path d="M15.964 14.85L14.8147 12.5521C14.6447 12.2115 14.3021 11.9995 13.9208 11.9995H13.4708L9.6376 8.16632L9.91025 7.89368C10.2196 7.58503 10.2196 7.08171 9.89625 6.75838C9.48161 6.34374 9.09628 6.08641 8.68364 5.94907C8.38631 5.84973 8.15032 5.61374 8.05101 5.31644C7.91302 4.90311 7.65637 4.51782 7.2417 4.10383L3.70585 0.568634C2.97453 -0.16268 1.69459 -0.165992 0.959961 0.568634L0.567977 0.959961C0.201992 1.3266 0 1.81393 0 2.33456C0 2.85254 0.201992 3.33986 0.567977 3.70651L4.10318 7.2417C4.51781 7.65634 4.90314 7.91368 5.31578 8.05101C5.61311 8.15035 5.8491 8.38634 5.94841 8.68364C6.08575 9.09697 6.34374 9.48227 6.77038 9.90894C6.92172 10.0603 7.12102 10.1436 7.3337 10.1436C7.54503 10.1436 7.74368 10.0609 7.89368 9.91094L8.16632 9.63829L11.9995 13.4714V13.9214C11.9995 14.3028 12.2115 14.6454 12.5521 14.816L14.85 15.9653C14.898 15.988 14.9487 15.9993 14.9994 15.9993C15.0854 15.9993 15.1707 15.966 15.2354 15.902L15.902 15.2354C16.0033 15.1334 16.028 14.9787 15.964 14.85Z" fill="black"/>
<path d="M15.9941 3.13253C15.9875 3.01719 15.9088 2.90719 15.8075 2.85254C15.7035 2.79654 15.5775 2.79854 15.4762 2.8592L13.6516 3.95315C13.0976 3.66651 12.7356 3.12918 12.675 2.51655L14.7122 1.2946C14.8056 1.23861 14.8656 1.14061 14.8736 1.03196C14.8809 0.923306 14.8349 0.817966 14.7502 0.749313C14.1549 0.268645 13.4489 0.00999959 12.673 0C11.847 0 11.0144 0.382641 10.3884 1.05061C9.64443 1.84324 9.30044 2.6292 9.33579 3.45186C9.35513 3.90318 9.15314 4.37516 8.75981 4.7698C8.68047 4.85246 8.64847 4.9698 8.67647 5.08045C8.70313 5.19179 8.78581 5.2811 8.89446 5.31709C9.40178 5.48509 9.88308 5.80242 10.3671 6.28705C10.5617 6.4817 10.693 6.71904 10.7577 6.99368C10.7857 7.11102 10.875 7.20433 10.991 7.23767C11.021 7.24633 11.0517 7.25033 11.0824 7.25033C11.1697 7.25033 11.2544 7.21633 11.3184 7.15299L11.9043 6.56701C12.175 6.63435 12.421 6.66635 12.6663 6.66635C13.5803 6.66635 14.4642 6.28502 15.0922 5.61974C15.7281 4.94514 16.0488 4.06183 15.9941 3.13253Z" fill="black"/>
<path d="M7.24036 10.9935C7.20502 10.8802 7.11302 10.7922 6.99771 10.7656C6.73038 10.7029 6.48908 10.5696 6.29909 10.3796C5.80711 9.88825 5.48577 9.40227 5.31647 8.89363C5.27981 8.78364 5.18913 8.70098 5.07714 8.6743C4.96514 8.64695 4.84649 8.68164 4.76449 8.76295L4.70184 8.82629C4.37451 9.15293 3.89587 9.33293 3.33324 9.33293C1.49528 9.33296 0 10.8282 0 12.6661C0 12.7828 0.0146556 12.8948 0.0299988 13.0075L0.0406546 13.0861C0.054654 13.1975 0.124651 13.2948 0.225991 13.3434C0.32733 13.3928 0.445982 13.3874 0.543321 13.3294L2.68123 12.0468C3.23521 12.3335 3.5972 12.8708 3.65785 13.4834L1.42794 14.8214C1.33129 14.8794 1.2706 14.982 1.2666 15.094C1.26195 15.206 1.3146 15.3134 1.40594 15.3787C1.97526 15.7833 2.63924 15.9987 3.32721 16H3.33121C4.15917 16 4.99514 15.6114 5.62577 14.9347C6.35974 14.1474 6.69907 13.3674 6.66438 12.5501C6.64638 12.1262 6.82503 11.6882 7.16702 11.3168C7.2477 11.2302 7.2757 11.1069 7.24036 10.9935Z" fill="black"/>
</svg>
