<svg width="13" height="12" viewBox="0 0 13 12" fill="none" xmlns="http://www.w3.org/2000/svg">
<path fill-rule="evenodd" clip-rule="evenodd" d="M5.85168 3.28325C5.85168 1.48576 7.31404 0.0234375 9.11149 0.0234375C10.909 0.0234375 12.3713 1.48581 12.3714 3.28325C12.3714 3.77057 11.9764 4.1656 11.489 4.1656C11.0017 4.1656 10.6067 3.77057 10.6067 3.28325C10.6067 2.45882 9.93596 1.78814 9.11153 1.78814C8.2871 1.78814 7.61643 2.45886 7.61643 3.28325V4.69991H8.00184C8.39475 4.69991 8.71323 5.01839 8.71323 5.4113V11.2826C8.71323 11.6755 8.39475 11.994 8.00184 11.994H0.711397C0.318529 11.994 0 11.6755 0 11.2826V5.4113C0 5.01839 0.318529 4.69991 0.711397 4.69991H5.85168V3.28325ZM5.04776 9.58228V8.41616C5.3074 8.2115 5.47429 7.89442 5.47429 7.53817C5.47429 6.92088 4.97391 6.4205 4.35662 6.4205C3.73932 6.4205 3.23894 6.92088 3.23894 7.53817C3.23894 7.89442 3.40584 8.2115 3.66547 8.41616V9.58228C3.66547 9.96398 3.97491 10.2734 4.35662 10.2734C4.73832 10.2734 5.04776 9.96398 5.04776 9.58228Z" fill="black"/>
</svg>
