<svg width="48" height="37" viewBox="0 0 48 37" fill="none" xmlns="http://www.w3.org/2000/svg">
<path d="M40.9688 36.5625H7.03125C3.15441 36.5625 0 33.4081 0 29.5312V7.03125C0 3.15441 3.15441 0 7.03125 0H40.9688C44.8456 0 48 3.15441 48 7.03125V29.5312C48 33.4081 44.8456 36.5625 40.9688 36.5625Z" fill="#FF641A"/>
<path d="M24 36.5625H40.9688C44.8456 36.5625 48 33.4081 48 29.5312V7.03125C48 3.15441 44.8456 0 40.9688 0H24V36.5625Z" fill="#F03800"/>
<path d="M19.7812 26.7184C19.5464 26.7184 19.3116 26.6594 19.1001 26.5426C18.6524 26.2941 18.375 25.823 18.375 25.3122V11.2497C18.375 10.7388 18.6524 10.2677 19.1001 10.0192C19.5423 9.77199 20.093 9.78436 20.5269 10.0576L31.7769 17.0889C32.1876 17.3457 32.4375 17.7961 32.4375 18.2809C32.4375 18.7657 32.1876 19.2162 31.7769 19.473L20.5269 26.5042C20.2989 26.647 20.0408 26.7184 19.7812 26.7184Z" fill="#FFF5F5"/>
<path d="M24 24.3337L31.7769 19.4731C32.1876 19.2164 32.4375 18.7659 32.4375 18.2811C32.4375 17.7963 32.1876 17.3459 31.7769 17.0891L24 12.2285V24.3337Z" fill="#E3E7EA"/>
</svg>
