<svg width="24" height="24" viewBox="0 0 24 24" fill="none" xmlns="http://www.w3.org/2000/svg">
<circle cx="12" cy="12" r="12" fill="url(#paint0_linear)"/>
<path d="M10.2418 12.6088C10.2418 12.4587 10.12 12.3372 9.96986 12.3372H9.02102C8.87101 12.3372 8.74927 12.4587 8.74927 12.6088V13.5575C8.74927 13.7078 8.87101 13.8294 9.02102 13.8294H9.96986C10.12 13.8294 10.2418 13.7078 10.2418 13.5575V12.6088Z" fill="white"/>
<path d="M12.6129 12.6088C12.6129 12.4587 12.4912 12.3372 12.3413 12.3372H11.3924C11.2423 12.3372 11.1206 12.4587 11.1206 12.6088V13.5575C11.1206 13.7078 11.2423 13.8294 11.3924 13.8294H12.3413C12.4912 13.8294 12.6129 13.7078 12.6129 13.5575V12.6088Z" fill="white"/>
<path d="M14.9844 12.6088C14.9844 12.4587 14.8627 12.3372 14.7127 12.3372H13.7638C13.6137 12.3372 13.4919 12.4587 13.4919 12.6088V13.5575C13.4919 13.7078 13.6137 13.8294 13.7638 13.8294H14.7127C14.8627 13.8294 14.9844 13.7078 14.9844 13.5575V12.6088Z" fill="white"/>
<path d="M10.2418 14.9803C10.2418 14.83 10.12 14.7085 9.96986 14.7085H9.02102C8.87101 14.7085 8.74927 14.83 8.74927 14.9803V15.9288C8.74927 16.079 8.87101 16.2006 9.02102 16.2006H9.96986C10.12 16.2006 10.2418 16.079 10.2418 15.9288V14.9803Z" fill="white"/>
<path d="M12.6129 14.9803C12.6129 14.83 12.4912 14.7085 12.3413 14.7085H11.3924C11.2423 14.7085 11.1206 14.83 11.1206 14.9803V15.9288C11.1206 16.079 11.2423 16.2006 11.3924 16.2006H12.3413C12.4912 16.2006 12.6129 16.079 12.6129 15.9288V14.9803Z" fill="white"/>
<path d="M14.9844 14.9803C14.9844 14.83 14.8627 14.7085 14.7128 14.7085H13.7638C13.6137 14.7085 13.4919 14.83 13.4919 14.9803V15.9288C13.4919 16.079 13.6137 16.2006 13.7638 16.2006H14.7128C14.8627 16.2006 14.9844 16.079 14.9844 15.9288V14.9803Z" fill="white"/>
<path fill-rule="evenodd" clip-rule="evenodd" d="M16.681 8.7829V7.33382C17.2533 7.35107 17.7236 7.82466 17.7236 8.40677V16.8991C17.7236 17.4911 17.2421 17.9792 16.6499 17.9792H7.08375C6.4907 17.9792 6.01001 17.4921 6.01001 16.8991V8.40677C6.01001 7.82466 6.48032 7.35107 7.05266 7.33382V8.7829C7.05266 9.43786 7.58397 9.96567 8.23882 9.96567H8.98726C9.64208 9.96567 10.1804 9.43786 10.1804 8.7829V7.32861H13.5532V8.7829C13.5532 9.43786 14.0916 9.96567 14.7465 9.96567H15.4948C16.1497 9.96567 16.681 9.43786 16.681 8.7829ZM15.8692 16.8345C16.1256 16.8345 16.3334 16.6265 16.3334 16.3702L16.3334 11.9837C16.3334 11.7273 16.1256 11.5193 15.8692 11.5193H7.84395C7.58753 11.5193 7.37975 11.7273 7.37975 11.9837V16.3702C7.37975 16.6265 7.58756 16.8345 7.84395 16.8345H15.8692Z" fill="white"/>
<path d="M8.23617 9.18883H8.97634C9.201 9.18883 9.38316 9.00694 9.38316 8.78228V6.4067C9.38316 6.18201 9.201 6 8.97634 6H8.23617C8.01148 6 7.82935 6.18201 7.82935 6.4067V8.78228C7.82935 9.00694 8.01148 9.18883 8.23617 9.18883Z" fill="white"/>
<path d="M14.7369 9.18883H15.477C15.7016 9.18883 15.8837 9.00694 15.8837 8.78228V6.4067C15.8837 6.18201 15.7016 6 15.477 6H14.7369C14.5122 6 14.3301 6.18201 14.3301 6.4067V8.78228C14.3301 9.00694 14.5122 9.18883 14.7369 9.18883Z" fill="white"/>
<defs>
<linearGradient id="paint0_linear" x1="0.0814263" y1="0" x2="0.0814263" y2="23.8371" gradientUnits="userSpaceOnUse">
<stop stop-color="#7ECEFF"/>
<stop offset="1" stop-color="#50B4F0"/>
</linearGradient>
</defs>
</svg>
