<svg width="16" height="16" viewBox="0 0 16 16" fill="none" xmlns="http://www.w3.org/2000/svg">
<path fill-rule="evenodd" clip-rule="evenodd" d="M0 8C0 3.58862 3.58862 0 8 0C12.4114 0 16 3.58862 16 8C16 12.4114 12.4114 16 8 16C3.58862 16 0 12.4114 0 8ZM7.72131 10.6379L12.0547 6.30469C12.3153 6.04395 12.3153 5.62268 12.0547 5.36206C11.7939 5.10132 11.3727 5.10132 11.1121 5.36206L7.25 9.224L5.55469 7.52869C5.29395 7.26794 4.87268 7.26794 4.61206 7.52869C4.35132 7.78931 4.35132 8.21069 4.61206 8.47131L6.77869 10.6379C6.90869 10.7679 7.07935 10.8334 7.25 10.8334C7.42065 10.8334 7.59131 10.7679 7.72131 10.6379Z" fill="white"/>
</svg>
