<svg width="12" height="12" viewBox="0 0 12 12" fill="none" xmlns="http://www.w3.org/2000/svg">
<path d="M7.97336 5.99539L11.6826 2.28612C12.0925 1.87628 12.0925 1.21183 11.6826 0.802638L11.1881 0.308146C10.7782 -0.101819 10.1137 -0.101819 9.70453 0.308146L5.99539 4.01729L2.28612 0.307377C1.87628 -0.102459 1.21183 -0.102459 0.802638 0.307377L0.307377 0.80187C-0.102459 1.21183 -0.102459 1.87628 0.307377 2.28548L4.01729 5.99539L0.308146 9.70453C-0.101819 10.1145 -0.101819 10.7789 0.308146 11.1881L0.802638 11.6826C1.21247 12.0925 1.87692 12.0925 2.28612 11.6826L5.99539 7.97336L9.70453 11.6826C10.1145 12.0925 10.7789 12.0925 11.1881 11.6826L11.6826 11.1881C12.0925 10.7782 12.0925 10.1137 11.6826 9.70453L7.97336 5.99539Z" fill="black"/>
</svg>
