<svg width="48" height="49" viewBox="0 0 48 49" fill="none" xmlns="http://www.w3.org/2000/svg">
<circle cx="24" cy="24.3271" r="24" fill="url(#paint0_linear)"/>
<path fill-rule="evenodd" clip-rule="evenodd" d="M14.8477 10.1709H33.1523C33.6123 10.1709 33.9844 10.5434 33.9844 11.0036V27.658C33.9844 29.0356 32.8647 30.1561 31.4883 30.1561H26.4961C26.0362 30.1561 25.6641 30.5285 25.6641 30.9888V35.5281C25.6641 37.1578 24.3397 38.4833 22.7113 38.4833H14.8477C14.3877 38.4833 14.0156 38.1109 14.0156 37.6506V11.0036C14.0156 10.5434 14.3877 10.1709 14.8477 10.1709ZM22.7764 15.3575C22.4513 15.0322 21.9248 15.0322 21.5998 15.3575C21.2748 15.6828 21.2748 16.2097 21.5998 16.535L22.7764 17.7125L21.647 18.8429C21.3219 19.1681 21.3219 19.6951 21.647 20.0204C21.972 20.3457 22.4985 20.3457 22.8235 20.0204L23.9529 18.89L25.1295 20.0675C25.4545 20.3928 25.981 20.3928 26.3061 20.0675C26.6311 19.7423 26.6311 19.2153 26.3061 18.89L25.1295 17.7125L26.3531 16.4879C26.6782 16.1626 26.6782 15.6357 26.3531 15.3104C26.0281 14.9851 25.5016 14.9851 25.1766 15.3104L23.9529 16.535L22.7764 15.3575ZM23.168 30.1561H18.1758C17.7158 30.1561 17.3438 29.7837 17.3438 29.3235C17.3438 28.8631 17.7158 28.4908 18.1758 28.4908H23.168C23.6279 28.4908 24 28.8632 24 29.3235C24 29.7838 23.6279 30.1561 23.168 30.1561ZM18.1758 26.8253H29.8242C30.2842 26.8253 30.6562 26.4528 30.6562 25.9926C30.6562 25.5324 30.2842 25.1599 29.8242 25.1599H18.1758C17.7158 25.1599 17.3438 25.5323 17.3438 25.9926C17.3438 26.4528 17.7158 26.8253 18.1758 26.8253ZM29.8242 23.4945H18.1758C17.7158 23.4945 17.3438 23.122 17.3438 22.6618C17.3438 22.2015 17.7158 21.8291 18.1758 21.8291H29.8242C30.2842 21.8291 30.6562 22.2016 30.6562 22.6618C30.6562 23.122 30.2842 23.4945 29.8242 23.4945ZM27.3281 35.5282V31.8217H31.4883C32.3459 31.8217 33.1435 31.56 33.8064 31.113C33.0693 34.8218 30.0865 37.7216 26.3423 38.3478C26.9508 37.5651 27.3281 36.5944 27.3281 35.5282Z" fill="url(#paint1_linear)"/>
<defs>
<linearGradient id="paint0_linear" x1="48" y1="48.3271" x2="48" y2="0.327148" gradientUnits="userSpaceOnUse">
<stop stop-color="#C3FFE8"/>
<stop offset="0.9973" stop-color="#F0FFF4"/>
</linearGradient>
<linearGradient id="paint1_linear" x1="14.0157" y1="10.1709" x2="14.0157" y2="38.4833" gradientUnits="userSpaceOnUse">
<stop stop-color="#00B59C"/>
<stop offset="1" stop-color="#9CFFAC"/>
</linearGradient>
</defs>
</svg>
