<svg width="22" height="22" viewBox="0 0 22 22" fill="none" xmlns="http://www.w3.org/2000/svg">
<circle cx="11" cy="11" r="11" fill="url(#paint0_linear)"/>
<path fill-rule="evenodd" clip-rule="evenodd" d="M17.1066 5.27539H4.89337C4.68239 5.27539 4.51172 5.44611 4.51172 5.65704V16.3436C4.51172 16.5546 4.68243 16.7253 4.89337 16.7253H17.1066C17.3176 16.7253 17.4882 16.5546 17.4882 16.3436V5.65704C17.4883 5.44606 17.3176 5.27539 17.1066 5.27539ZM6.80181 13.8956L9.20359 11.4938C9.3527 11.3447 9.59422 11.3447 9.74328 11.4938L11.0001 12.7506L12.2569 11.4938C12.406 11.3447 12.6475 11.3447 12.7966 11.4938L15.1984 13.8956V7.56535H6.80181V13.8956ZM10.9999 8.32867C11.6313 8.32867 12.1449 8.84227 12.1449 9.47365C12.1449 10.105 11.6313 10.6187 10.9999 10.6187C10.3686 10.6187 9.85495 10.1051 9.85495 9.4737C9.85495 8.84231 10.3686 8.32867 10.9999 8.32867ZM12.6845 14.4353L11.5396 13.2903L12.5265 12.3034L14.6584 14.4353H12.6845ZM10.9999 9.85533C11.2101 9.85533 11.3816 9.68427 11.3816 9.47368C11.3816 9.26309 11.2101 9.09203 10.9999 9.09203C10.7897 9.09203 10.6183 9.26309 10.6183 9.47368C10.6183 9.68423 10.7897 9.85533 10.9999 9.85533ZM11.6053 14.4353H7.34137L9.47336 12.3034L11.6053 14.4353ZM15.5799 15.1986C15.7909 15.1986 15.9616 15.0279 15.9616 14.8169V7.18366C15.9616 6.97273 15.7909 6.80201 15.5799 6.80201H6.41998C6.20905 6.80201 6.03833 6.97268 6.03833 7.18366V14.8169C6.03833 15.0279 6.20901 15.1986 6.41998 15.1986H15.5799Z" fill="url(#paint1_linear)"/>
<defs>
<linearGradient id="paint0_linear" x1="22" y1="22" x2="22" y2="0" gradientUnits="userSpaceOnUse">
<stop stop-color="#C3FFE8"/>
<stop offset="0.9973" stop-color="#F0FFF4"/>
</linearGradient>
<linearGradient id="paint1_linear" x1="4.51174" y1="5.27539" x2="4.51174" y2="16.7253" gradientUnits="userSpaceOnUse">
<stop stop-color="#00B59C"/>
<stop offset="1" stop-color="#9CFFAC"/>
</linearGradient>
</defs>
</svg>
