<svg width="22" height="22" viewBox="0 0 22 22" fill="none" xmlns="http://www.w3.org/2000/svg">
<circle cx="11" cy="11" r="11" fill="url(#paint0_linear)"/>
<path fill-rule="evenodd" clip-rule="evenodd" d="M4.89337 4.51172H17.1066C17.3176 4.51172 17.4883 4.68243 17.4883 4.89337V7.56504H4.51172V4.89337C4.51172 4.68243 4.68239 4.51172 4.89337 4.51172ZM6.03833 6.03839C6.03833 6.24915 6.20922 6.42004 6.41998 6.42004C6.63075 6.42004 6.80163 6.24915 6.80168 6.03839C6.80168 5.82759 6.63075 5.65674 6.41998 5.65674C6.20922 5.65674 6.03833 5.82759 6.03833 6.03839ZM7.94677 6.42004C7.73601 6.42004 7.56512 6.24915 7.56512 6.03839C7.56512 5.82759 7.73601 5.65674 7.94677 5.65674C8.15753 5.65674 8.32842 5.82759 8.32842 6.03839C8.32842 6.24915 8.15753 6.42004 7.94677 6.42004ZM9.09174 6.03839C9.09174 6.24915 9.26263 6.42004 9.47339 6.42004C9.68415 6.42004 9.85503 6.24915 9.85503 6.03839C9.85503 5.82759 9.68415 5.65674 9.47339 5.65674C9.26263 5.65674 9.09174 5.82759 9.09174 6.03839ZM15.58 6.42004H11.7634C11.5524 6.42004 11.3817 6.24933 11.3817 6.03839C11.3817 5.82746 11.5525 5.65674 11.7634 5.65674H15.58C15.791 5.65674 15.9617 5.82746 15.9617 6.03839C15.9617 6.24933 15.791 6.42004 15.58 6.42004ZM7.56503 14.0533H8.32837V15.58H7.56503V14.0533ZM9.85498 10.2367H9.09165V11.7633H9.85498V10.2367ZM12.145 14.0533H12.9084V15.58H12.145V14.0533ZM14.4349 10.2367H13.6716V11.7633H14.4349V10.2367ZM4.89337 17.4883C4.68243 17.4883 4.51172 17.3176 4.51172 17.1066V8.32834H17.4882V17.1066C17.4882 17.3176 17.3176 17.4883 17.1066 17.4883H4.89337ZM10.6183 15.9616C10.6183 16.1726 10.4476 16.3433 10.2367 16.3433C10.0258 16.3433 9.85505 16.1726 9.85505 15.9616V13.6717C9.85505 13.4607 10.0258 13.29 10.2367 13.29C10.4476 13.29 10.6183 13.4607 10.6183 13.6717V15.9616ZM14.8166 16.3433C15.0276 16.3433 15.1983 16.1726 15.1983 15.9616V13.6717C15.1983 13.4607 15.0276 13.29 14.8166 13.29C14.6057 13.29 14.435 13.4607 14.435 13.6717V15.9616C14.435 16.1726 14.6057 16.3433 14.8166 16.3433ZM12.9084 9.85501C12.9084 9.64403 13.0791 9.47336 13.29 9.47336H14.8167C15.0277 9.47336 15.1983 9.64408 15.1983 9.85501V12.145C15.1983 12.356 15.0276 12.5266 14.8167 12.5266H13.29C13.0791 12.5266 12.9084 12.3559 12.9084 12.145V9.85501ZM11.7634 9.47336C11.5525 9.47336 11.3817 9.64403 11.3817 9.85501V12.145C11.3817 12.3559 11.5525 12.5266 11.7634 12.5266C11.9743 12.5266 12.145 12.356 12.145 12.145V9.85501C12.145 9.64408 11.9743 9.47336 11.7634 9.47336ZM11.3817 13.6717C11.3817 13.4607 11.5525 13.29 11.7634 13.29H13.2901C13.501 13.29 13.6717 13.4607 13.6717 13.6717V15.9616C13.6717 16.1726 13.501 16.3433 13.2901 16.3433H11.7634C11.5524 16.3433 11.3817 16.1726 11.3817 15.9616V13.6717ZM8.70999 9.47336C8.49905 9.47336 8.32834 9.64403 8.32834 9.85501V12.145C8.32834 12.3559 8.49905 12.5266 8.70999 12.5266H10.2367C10.4476 12.5266 10.6183 12.356 10.6183 12.145V9.85501C10.6183 9.64408 10.4476 9.47336 10.2367 9.47336H8.70999ZM6.80181 9.85501C6.80181 9.64403 6.97253 9.47336 7.18346 9.47336C7.3944 9.47336 7.56511 9.64408 7.56511 9.85501V12.145C7.56511 12.356 7.3944 12.5266 7.18346 12.5266C6.97249 12.5266 6.80181 12.3559 6.80181 12.145V9.85501ZM7.18346 13.29C6.97253 13.29 6.80181 13.4607 6.80181 13.6717V15.9616C6.80181 16.1726 6.97249 16.3433 7.18346 16.3433H8.7101C8.92108 16.3433 9.09179 16.1726 9.09179 15.9616V13.6717C9.09179 13.4607 8.92108 13.29 8.7101 13.29H7.18346Z" fill="url(#paint1_linear)"/>
<defs>
<linearGradient id="paint0_linear" x1="22" y1="22" x2="22" y2="0" gradientUnits="userSpaceOnUse">
<stop stop-color="#ADDCFF"/>
<stop offset="0.5028" stop-color="#EAF6FF"/>
<stop offset="1" stop-color="#EAF6FF"/>
</linearGradient>
<linearGradient id="paint1_linear" x1="4.51172" y1="4.51172" x2="4.51172" y2="17.4883" gradientUnits="userSpaceOnUse">
<stop stop-color="#5558FF"/>
<stop offset="1" stop-color="#00C0FF"/>
</linearGradient>
</defs>
</svg>
