<svg width="22" height="22" viewBox="0 0 22 22" fill="none" xmlns="http://www.w3.org/2000/svg">
<circle cx="11" cy="11" r="11" fill="url(#paint0_linear)"/>
<path fill-rule="evenodd" clip-rule="evenodd" d="M9.20263 6.68881C9.31147 6.79988 9.4732 7.03393 9.4732 7.18338C9.4732 7.33286 9.31142 7.56692 9.20263 7.67799C9.0543 7.82709 9.0543 8.06785 9.20336 8.21656C9.35246 8.36566 9.59399 8.36566 9.74304 8.21656C9.79375 8.16624 10.2365 7.70815 10.2365 7.18338C10.2365 6.6586 9.79375 6.20051 9.74382 6.15131C9.63498 6.04024 9.47324 5.80618 9.47324 5.6567C9.47324 5.50725 9.63502 5.27316 9.74309 5.16324C9.89219 5.01414 9.89219 4.77261 9.74309 4.62351C9.59399 4.47445 9.35246 4.47445 9.2034 4.62351C9.1527 4.67383 8.7099 5.13192 8.7099 5.6567C8.7099 6.18147 9.1527 6.63961 9.20263 6.68881ZM14.435 9.47339C14.435 9.26241 14.2643 9.09174 14.0533 9.09174H4.89337C4.68239 9.09174 4.51172 9.26246 4.51172 9.47339V12.5267C4.51172 15.2624 6.73759 17.4883 9.47336 17.4883C12.2091 17.4883 14.435 15.2624 14.435 12.5267V9.47339H14.435ZM7.56512 13.29C7.56512 12.2378 8.42089 11.3817 9.47345 11.3817C10.526 11.3817 11.3818 12.2378 11.3818 13.29C11.3818 14.3422 10.526 15.1983 9.47345 15.1983C8.42089 15.1983 7.56512 14.3422 7.56512 13.29ZM9.74313 13.5598C9.81467 13.4883 9.85493 13.3914 9.85493 13.29V12.5267C9.85493 12.3157 9.68422 12.145 9.47329 12.145C9.26235 12.145 9.09164 12.3157 9.09164 12.5267V13.132L8.66895 13.5546C8.51985 13.7037 8.51985 13.9452 8.66895 14.0943C8.81801 14.2434 9.05954 14.2434 9.20864 14.0943L9.74313 13.5598ZM6.80164 13.29C6.80164 14.763 8.0003 15.9617 9.47327 15.9617C10.9462 15.9617 12.1449 14.763 12.1449 13.29C12.1449 11.817 10.9462 10.6184 9.47327 10.6184C8.0003 10.6184 6.80164 11.817 6.80164 13.29ZM11.7632 7.18338C11.7632 7.03445 11.6027 6.80186 11.4939 6.69023L11.4934 6.68992C11.4427 6.63961 10.9999 6.18152 10.9999 5.65674C10.9999 5.13196 11.4427 4.67387 11.4934 4.62356C11.6425 4.4745 11.884 4.4745 12.0331 4.62356C12.1822 4.77266 12.1822 5.01419 12.0331 5.16329C11.925 5.2732 11.7632 5.5073 11.7632 5.65674C11.7632 5.80567 11.9238 6.03826 12.0326 6.14989L12.0331 6.15024C12.0838 6.20051 12.5266 6.6586 12.5266 7.18338C12.5266 7.70815 12.0838 8.16624 12.0331 8.21656C11.884 8.36566 11.6425 8.36566 11.4934 8.21656C11.3443 8.06785 11.3443 7.82709 11.4927 7.67799C11.6015 7.56692 11.7632 7.33287 11.7632 7.18338ZM6.91395 6.69023C7.02279 6.80186 7.18332 7.03445 7.18332 7.18338C7.18332 7.33287 7.02154 7.56692 6.91275 7.67799C6.76442 7.82709 6.76442 8.06785 6.91348 8.21656C7.06258 8.36566 7.30406 8.36566 7.45316 8.21656C7.50387 8.16624 7.94666 7.70815 7.94666 7.18338C7.94666 6.6586 7.50387 6.20051 7.45316 6.15024L7.45269 6.14989C7.34385 6.03826 7.18332 5.80567 7.18332 5.65674C7.18332 5.5073 7.3451 5.2732 7.45316 5.16329C7.60227 5.01419 7.60227 4.77266 7.45316 4.62356C7.30406 4.4745 7.06254 4.4745 6.91348 4.62356C6.86277 4.67387 6.41998 5.13196 6.41998 5.65674C6.41998 6.18152 6.86277 6.63961 6.91348 6.68992L6.91395 6.69023ZM15.1983 9.85504H15.58C16.6325 9.85504 17.4883 10.7111 17.4883 11.7634C17.4883 13.8001 16.0297 15.5013 14.1028 15.8811C14.325 15.5753 14.5176 15.2476 14.6767 14.9003C15.8806 14.3659 16.725 13.1633 16.725 11.7634C16.725 11.132 16.2114 10.6184 15.58 10.6184H15.1983V9.85504Z" fill="url(#paint1_linear)"/>
<defs>
<linearGradient id="paint0_linear" x1="22" y1="22" x2="22" y2="0" gradientUnits="userSpaceOnUse">
<stop stop-color="#FFC2CC"/>
<stop offset="1" stop-color="#FFF2F4"/>
</linearGradient>
<linearGradient id="paint1_linear" x1="17.4883" y1="17.4883" x2="17.4883" y2="4.51175" gradientUnits="userSpaceOnUse">
<stop stop-color="#FFA68D"/>
<stop offset="1" stop-color="#FD3A84"/>
</linearGradient>
</defs>
</svg>
