<svg width="22" height="22" viewBox="0 0 22 22" fill="none" xmlns="http://www.w3.org/2000/svg">
<path d="M12.9811 15.3394C12.8033 15.5127 12.5734 15.5986 12.343 15.5986C12.1048 15.5986 11.8671 15.5063 11.6879 15.3225L8.76399 12.3205C8.05085 11.6073 8.05085 10.4476 8.75531 9.74311L11.6874 6.73236C12.0394 6.37076 12.6186 6.36299 12.9802 6.71545C13.3418 7.06791 13.3496 7.64665 12.9971 8.00825L10.065 11.0364L12.9971 14.0466C13.3505 14.4087 13.3427 14.9874 12.9811 15.3394Z" fill="black"/>
<path d="M21.8382 9.52765C21.9077 10.0159 21.9434 10.5206 21.9434 11.0285C21.9434 11.5363 21.9077 12.041 21.8382 12.5293C21.7728 12.9855 21.3815 13.3146 20.934 13.3146C20.891 13.3146 20.8476 13.3114 20.8032 13.305C20.3036 13.2337 19.9562 12.7706 20.0275 12.2705C20.0851 11.8678 20.1143 11.4499 20.1143 11.0285C20.1143 10.607 20.0851 10.1891 20.0275 9.7864C19.9562 9.28628 20.3036 8.8232 20.8032 8.75188C21.3061 8.67874 21.7669 9.02754 21.8382 9.52765Z" fill="black"/>
<path d="M20.7462 6.04012C20.9762 6.48995 20.7979 7.04035 20.3485 7.27029C19.8991 7.49886 19.3483 7.32195 19.1183 6.87258C17.5458 3.79601 14.424 1.88469 10.9725 1.88469C5.93115 1.88469 1.82966 5.98618 1.82966 11.0275C1.82966 16.0689 5.93115 20.1704 10.9725 20.1704C14.4244 20.1704 17.5458 18.2591 19.1183 15.1825C19.3483 14.7327 19.8996 14.5544 20.3485 14.7848C20.7979 15.0148 20.9762 15.5656 20.7462 16.015C18.8591 19.7059 15.1142 21.9985 10.9721 21.9985C4.92269 21.9985 0.000635147 17.0769 0.000635147 11.0271C0.000635147 4.97726 4.92269 0.0556641 10.9721 0.0556641C15.1142 0.0565783 18.8591 2.34961 20.7462 6.04012Z" fill="black"/>
</svg>
