<svg width="22" height="22" viewBox="0 0 22 22" fill="none" xmlns="http://www.w3.org/2000/svg">
<path d="M9.01886 15.3394C9.19669 15.5127 9.42664 15.5986 9.65704 15.5986C9.89521 15.5986 10.1329 15.5063 10.3121 15.3225L13.236 12.3205C13.9492 11.6073 13.9492 10.4476 13.2447 9.74311L10.3126 6.73236C9.96058 6.37076 9.38138 6.36299 9.01978 6.71545C8.65818 7.06791 8.65041 7.64665 9.00286 8.00825L11.935 11.0364L9.00286 14.0466C8.64949 14.4087 8.65726 14.9874 9.01886 15.3394Z" fill="black"/>
<path d="M0.161783 9.52765C0.0922978 10.0159 0.0566406 10.5206 0.0566406 11.0285C0.0566406 11.5363 0.0922978 12.041 0.161783 12.5293C0.227155 12.9855 0.618469 13.3146 1.06601 13.3146C1.10898 13.3146 1.15241 13.3114 1.19675 13.305C1.69641 13.2337 2.04384 12.7706 1.97253 12.2705C1.91493 11.8678 1.88567 11.4499 1.88567 11.0285C1.88567 10.607 1.91493 10.1891 1.97253 9.7864C2.04384 9.28628 1.69641 8.8232 1.19675 8.75188C0.693898 8.67874 0.233098 9.02754 0.161783 9.52765Z" fill="black"/>
<path d="M1.25376 6.04012C1.02382 6.48995 1.20211 7.04035 1.65148 7.27029C2.10085 7.49886 2.65171 7.32195 2.88165 6.87258C4.45422 3.79601 7.57605 1.88469 11.0275 1.88469C16.0688 1.88469 20.1703 5.98618 20.1703 11.0275C20.1703 16.0689 16.0688 20.1704 11.0275 20.1704C7.57559 20.1704 4.45422 18.2591 2.88165 15.1825C2.65171 14.7327 2.10039 14.5544 1.65148 14.7848C1.20211 15.0148 1.02382 15.5656 1.25376 16.015C3.14085 19.7059 6.88576 21.9985 11.0279 21.9985C17.0773 21.9985 21.9994 17.0769 21.9994 11.0271C21.9994 4.97726 17.0773 0.0556641 11.0279 0.0556641C6.88576 0.0565783 3.14085 2.34961 1.25376 6.04012Z" fill="black"/>
</svg>
