<svg width="7" height="12" viewBox="0 0 7 12" fill="none" xmlns="http://www.w3.org/2000/svg">
<path d="M0.620931 5.32611H6.21113C6.43738 5.32611 6.64491 5.20076 6.75048 5.00087C6.8559 4.80056 6.84203 4.55893 6.71419 4.37184L3.88464 0.237378C3.78334 0.0893943 3.61564 0.00080325 3.43624 1.63105e-06C3.25704 -0.000435616 3.0888 0.0870624 2.98668 0.234609L0.119822 4.36914C-0.00938474 4.55541 -0.0244212 4.79823 0.0807853 4.99929C0.185992 5.20001 0.394073 5.32611 0.620931 5.32611Z" fill="black"/>
<path d="M6.21113 6.65625H0.620923C0.394065 6.65625 0.185984 6.7824 0.0807774 6.98309C-0.0244291 7.18415 -0.0093684 7.42697 0.119814 7.61319L2.98667 11.7477C3.08879 11.8953 3.25704 11.9828 3.43623 11.9824C3.61563 11.9816 3.78334 11.8929 3.88463 11.745L6.71418 7.61047C6.84202 7.42345 6.85589 7.18177 6.75047 6.98144C6.6449 6.78159 6.43738 6.65625 6.21113 6.65625Z" fill="black"/>
</svg>
