<svg width="16" height="14" viewBox="0 0 16 14" fill="none" xmlns="http://www.w3.org/2000/svg">
<path d="M3.3335 5.16634V8.16634C3.3335 9.17767 4.1555 9.99967 5.16683 9.99967H10.8335C11.8448 9.99967 12.6668 9.17767 12.6668 8.16634V5.16634C12.6668 4.15501 11.8448 3.33301 10.8335 3.33301H5.16683C4.1555 3.33301 3.3335 4.15501 3.3335 5.16634Z" fill="black"/>
<path d="M0.666667 5.33333C1.03533 5.33333 1.33333 5.03533 1.33333 4.66667V2C1.33333 1.632 1.632 1.33333 2 1.33333H4.66667C5.03533 1.33333 5.33333 1.03533 5.33333 0.666667C5.33333 0.298 5.03533 0 4.66667 0H2C0.897333 0 0 0.897333 0 2V4.66667C0 5.03533 0.298 5.33333 0.666667 5.33333Z" fill="black"/>
<path d="M15.3332 8C14.9645 8 14.6665 8.298 14.6665 8.66667V11.3333C14.6665 11.7013 14.3678 12 13.9998 12H11.3332C10.9645 12 10.6665 12.298 10.6665 12.6667C10.6665 13.0353 10.9645 13.3333 11.3332 13.3333H13.9998C15.1025 13.3333 15.9998 12.436 15.9998 11.3333V8.66667C15.9998 8.298 15.7018 8 15.3332 8Z" fill="black"/>
<path d="M4.66667 12H2C1.632 12 1.33333 11.7013 1.33333 11.3333V8.66667C1.33333 8.298 1.03533 8 0.666667 8C0.298 8 0 8.298 0 8.66667V11.3333C0 12.436 0.897333 13.3333 2 13.3333H4.66667C5.03533 13.3333 5.33333 13.0353 5.33333 12.6667C5.33333 12.298 5.03533 12 4.66667 12Z" fill="black"/>
<path d="M13.9998 0H11.3332C10.9645 0 10.6665 0.298 10.6665 0.666667C10.6665 1.03533 10.9645 1.33333 11.3332 1.33333H13.9998C14.3678 1.33333 14.6665 1.632 14.6665 2V4.66667C14.6665 5.03533 14.9645 5.33333 15.3332 5.33333C15.7018 5.33333 15.9998 5.03533 15.9998 4.66667V2C15.9998 0.897333 15.1025 0 13.9998 0Z" fill="black"/>
</svg>
