<svg width="17" height="16" viewBox="0 0 17 16" fill="none" xmlns="http://www.w3.org/2000/svg">
<path d="M16.4772 6.17304C16.4771 6.06077 16.4254 5.95486 16.3365 5.88616C16.3365 5.88616 15.4437 5.19357 14.2872 4.28603V2.90495C14.2872 2.1039 13.6358 1.45246 12.8347 1.45246H10.7312C10.2138 1.02989 9.76475 0.656306 9.46487 0.3904C9.17639 0.135217 8.83253 3.4049e-05 8.4888 6.41831e-09C8.14477 -3.40361e-05 7.80083 0.135353 7.51277 0.390434C7.21288 0.65634 6.76393 1.02992 6.24614 1.45249H4.11985C3.31879 1.45249 2.66735 2.1039 2.66735 2.90499V4.30386C1.52243 5.20249 0.641106 5.88582 0.640766 5.88616C0.551847 5.95486 0.50017 6.06077 0.500068 6.17304H0.5V14.5248C0.5 15.3259 1.1514 15.9773 1.95249 15.9773H15.0248C15.8259 15.9773 16.4773 15.3259 16.4773 14.5248V6.17304H16.4772Z" fill="black"/>
<path d="M15.5224 6.17276C15.2365 6.39465 14.8004 6.73378 14.2876 7.13477V5.20898C14.8008 5.61079 15.2361 5.94992 15.5224 6.17276Z" fill="#CCCCCC"/>
<path d="M7.99455 0.934548C8.3059 0.658667 8.67149 0.658292 8.98355 0.934888C9.14699 1.07943 9.35309 1.25509 9.58985 1.45298H7.38818C7.62498 1.25506 7.83111 1.07926 7.99455 0.934548Z" fill="#CCCCCC"/>
<path d="M4.11978 2.17871H12.8347C13.235 2.17871 13.5609 2.5046 13.5609 2.90494V7.70382C11.9372 8.97909 9.90569 10.5951 8.98324 11.4117C8.89565 11.4893 8.71301 11.6198 8.4772 11.6198C8.30484 11.6198 8.13854 11.55 7.98252 11.4117C7.05017 10.5861 5.01405 8.96404 3.39355 7.68918V2.90494C3.39355 2.5046 3.71944 2.17871 4.11978 2.17871Z" fill="#F2F6FD"/>
<path d="M2.66762 5.22656V7.11895C2.16477 6.72512 1.73703 6.39177 1.45557 6.17291C1.7372 5.95347 2.1646 5.62037 2.66762 5.22656Z" fill="#CCCCCC"/>
<path d="M15.0246 15.2509H1.9523C1.55196 15.2509 1.22607 14.925 1.22607 14.5247V6.9143C2.74063 8.09319 6.24466 10.8427 7.5009 11.9555C7.78955 12.2108 8.12715 12.346 8.47714 12.346C8.82961 12.346 9.18032 12.2073 9.46471 11.9555C10.7702 10.7994 14.3438 8.00768 15.7509 6.91406V14.5246C15.7509 14.925 15.425 15.2509 15.0246 15.2509Z" fill="#F2F6FD"/>
<circle cx="7.39926" cy="5.44712" r="0.363132" fill="#D32F2F"/>
<circle cx="9.57798" cy="5.44712" r="0.363132" fill="#D32F2F"/>
<path d="M6.87032 7.94498C7.04656 8.03717 7.26429 7.96769 7.35862 7.79251C7.37034 7.77089 7.65401 7.26236 8.48877 7.26236C9.31713 7.26236 9.60295 7.76343 9.61857 7.79217C9.68274 7.91663 9.80972 7.98863 9.94164 7.98863C9.99624 7.98863 10.0516 7.9762 10.1037 7.95033C10.2831 7.86063 10.3558 7.64252 10.2661 7.46308C10.2473 7.42515 9.7877 6.53613 8.48877 6.53613C7.18984 6.53613 6.73027 7.42515 6.71148 7.46308C6.6228 7.64041 6.69408 7.85385 6.87032 7.94498Z" fill="#D32F2F"/>
</svg>
