<svg width="10" height="12" viewBox="0 0 10 12" fill="none" xmlns="http://www.w3.org/2000/svg">
<path fill-rule="evenodd" clip-rule="evenodd" d="M8.90323 0.580645H0.967742V0.193548C0.967742 0.0866613 0.881081 0 0.774194 0H0.193548C0.0866613 0 0 0.0866613 0 0.193548V11.8065C0 11.9133 0.0866613 12 0.193548 12H0.774194C0.881081 12 0.967742 11.9133 0.967742 11.8065V7.16129H8.90323C9.01011 7.16129 9.09677 7.07463 9.09677 6.96774V0.774194C9.09677 0.667306 9.01011 0.580645 8.90323 0.580645ZM0.580645 11.6129H0.387097V0.387097H0.580645V11.6129ZM6.77419 2.90323H8.70968V0.967742H6.77419V2.90323ZM6.77419 4.83871V2.90323H4.83871V0.967742H2.90323V2.90323H0.967742V4.83871H2.90323V6.77419H4.83871V4.83871H6.77419ZM6.77419 4.83871V6.77419H8.70968V4.83871H6.77419Z" fill="black"/>
<rect x="2.90332" y="2.90332" width="1.93548" height="1.93548" fill="black"/>
</svg>
