<svg width="19" height="22" viewBox="0 0 19 22" fill="none" xmlns="http://www.w3.org/2000/svg">
<path d="M17.7666 14.6914C17.1752 16.294 16.281 17.6875 15.1082 18.8327C13.7733 20.1362 12.0254 21.172 9.91285 21.9109C9.84353 21.935 9.77119 21.9548 9.69851 21.9694C9.6025 21.9884 9.50482 21.9986 9.40797 22H9.389C9.28578 22 9.18205 21.9896 9.07916 21.9694C9.00648 21.9548 8.93514 21.935 8.86616 21.9114C6.75112 21.1737 5.00099 20.1384 3.66476 18.8349C2.49151 17.6897 1.59739 16.2971 1.00691 14.6945C-0.0668091 11.7806 -0.00571286 8.57074 0.0434662 5.99128L0.0443054 5.95166C0.0542084 5.73867 0.0605865 5.51493 0.0641114 5.26786C0.0820709 4.05483 1.04652 3.05127 2.25971 2.98363C4.78916 2.84247 6.74592 2.01751 8.41784 0.387882L8.43244 0.374454C8.71006 0.119831 9.05985 -0.00504717 9.40797 0.000156101C9.74366 0.00452013 10.078 0.12923 10.3457 0.374454L10.36 0.387882C12.0323 2.01751 13.989 2.84247 16.5185 2.98363C17.7317 3.05127 18.6961 4.05483 18.7141 5.26786C18.7176 5.5166 18.724 5.74001 18.7339 5.95166L18.7344 5.96845C18.7834 8.55278 18.8441 11.7691 17.7666 14.6914Z" fill="#5DC2A7"/>
<path d="M14.8717 11C14.8717 14.0167 12.4223 16.4723 9.40811 16.483H9.38881C6.36572 16.483 3.90576 14.0232 3.90576 11C3.90576 7.97688 6.36572 5.51709 9.38881 5.51709H9.40811C12.4223 5.52783 14.8717 7.98343 14.8717 11Z" fill="white"/>
<path d="M11.8775 10.2105L9.40815 12.6802L8.87457 13.2138C8.74851 13.3398 8.58318 13.4028 8.41802 13.4028C8.25269 13.4028 8.08753 13.3398 7.96131 13.2138L6.81408 12.066C6.56197 11.8139 6.56197 11.4055 6.81408 11.1533C7.06585 10.9012 7.47472 10.9012 7.72683 11.1533L8.41802 11.8445L10.9648 9.29773C11.2169 9.04545 11.6257 9.04545 11.8775 9.29773C12.1296 9.54983 12.1296 9.95871 11.8775 10.2105Z" fill="#5DC2A7"/>
</svg>
