<svg width="12" height="16" viewBox="0 0 12 16" fill="none" xmlns="http://www.w3.org/2000/svg">
<path fill-rule="evenodd" clip-rule="evenodd" d="M9.73347 0.772757H8.31997L8.79359 1.15753C8.98196 1.31384 9.15899 1.50756 9.32933 1.73936C9.49766 1.97049 9.64195 2.23969 9.76085 2.5443C9.87842 2.84958 9.93854 3.19827 9.93854 3.59039C9.93854 3.96581 9.8831 4.30115 9.77021 4.5924C9.65999 4.88498 9.5157 5.14817 9.34068 5.38264C9.16566 5.61711 8.96126 5.82687 8.73146 6.0119L8.02338 6.55365C7.87776 6.69794 7.73547 6.84691 7.59252 7.00389C7.45224 7.15819 7.38076 7.35592 7.38076 7.5944C7.38076 7.82887 7.46426 8.01725 7.62926 8.15552C7.79693 8.2958 7.94923 8.40669 8.08484 8.4922L8.9018 9.08338C9.12692 9.2771 9.33801 9.47216 9.54108 9.66988C9.74282 9.86695 9.92452 10.08 10.0855 10.3092C10.2432 10.5396 10.3707 10.7921 10.4603 11.068C10.5504 11.3439 10.5932 11.6612 10.5932 12.0206C10.5932 12.5216 10.4716 13.0099 10.2251 13.4822C9.97929 13.9558 9.6159 14.3813 9.13093 14.7574C8.64729 15.1341 8.0481 15.4354 7.33333 15.6612C6.61657 15.887 5.79292 15.9999 4.85705 15.9999C4.03407 15.9999 3.31931 15.9164 2.71476 15.7474C2.10822 15.579 1.60187 15.3553 1.19773 15.0754C0.793587 14.7961 0.49165 14.4775 0.293921 14.1188C0.0968604 13.7601 0 13.384 0 12.9892C0 12.6091 0.121576 12.1796 0.368069 11.6979C0.613894 11.2176 1.06413 10.7941 1.71944 10.4294C2.0668 10.2357 2.43821 10.0794 2.835 9.95579C3.23046 9.83354 3.62057 9.73936 4.00935 9.67055C4.39813 9.60308 4.7662 9.55499 5.1149 9.5256C5.46226 9.49754 5.76353 9.4755 6.01202 9.4608C5.85772 9.26908 5.71276 9.06534 5.57916 8.85359C5.4489 8.6425 5.38277 8.36862 5.38277 8.03127C5.38277 7.85225 5.40481 7.70395 5.4489 7.58438C5.49232 7.46347 5.54041 7.34256 5.59653 7.22165C5.48363 7.23568 5.36673 7.24637 5.24449 7.25305C5.12024 7.2604 4.99866 7.26508 4.88176 7.26508C4.27655 7.26508 3.74349 7.17089 3.27989 6.9785C2.8183 6.78946 2.42151 6.53962 2.09753 6.23234C1.77488 5.92373 1.53106 5.57102 1.37074 5.17222C1.20708 4.77476 1.12692 4.37129 1.12692 3.9618C1.12692 3.4755 1.24649 2.98451 1.47762 2.48618C1.71276 1.98652 2.0668 1.54163 2.54242 1.14751C3.19572 0.646504 3.87375 0.329871 4.58049 0.198275C5.28524 0.0666782 5.94255 -0.00012207 6.55444 -0.00012207H11.187L9.73347 0.772757ZM9.18571 12.8222C9.18571 12.5623 9.14295 12.3252 9.05478 12.1081C8.96727 11.8937 8.83634 11.6852 8.65932 11.4842C8.4823 11.2831 8.23246 11.0707 7.91049 10.8462L6.81096 10.0787C6.72612 10.05 6.64596 10.0339 6.57448 10.0339H6.29726C6.25123 10.0339 6.17262 10.0369 6.06038 10.0412H6.06034L5.97061 10.0446C5.80962 10.052 5.61657 10.068 5.39078 10.0921C5.16566 10.1174 4.92518 10.1515 4.66667 10.1936C4.41015 10.237 4.16433 10.2925 3.92919 10.3646C3.7976 10.4074 3.62725 10.4735 3.41416 10.5623C3.1984 10.6498 2.98664 10.7788 2.77555 10.9451C2.56379 11.1114 2.38143 11.3245 2.22979 11.5797C2.07415 11.8355 1.99866 12.1442 1.99866 12.5076C1.99866 12.883 2.08818 13.2237 2.26921 13.5303C2.45023 13.8355 2.71543 14.1048 3.06079 14.3406C3.40281 14.5744 3.81897 14.752 4.30661 14.8716C4.79158 14.9925 5.334 15.0527 5.93186 15.0527C7.01403 15.0527 7.82699 14.8436 8.37007 14.4241C8.91316 14.0046 9.18571 13.4708 9.18571 12.8222ZM7.85705 5.26307C7.80227 5.54831 7.64596 5.81551 7.39145 6.06467C7.2191 6.24103 6.998 6.38398 6.7328 6.49086C6.46693 6.59908 6.19238 6.65118 5.90982 6.65118C5.42953 6.65118 5.0187 6.52359 4.67134 6.26641C4.32732 6.0119 4.03674 5.69393 3.80294 5.31785C3.56981 4.93976 3.39947 4.53829 3.28991 4.10676C3.18236 3.67723 3.12692 3.28712 3.12692 2.93909C3.12692 2.66254 3.16099 2.392 3.22779 2.12747C3.29726 1.86561 3.42552 1.62312 3.61924 1.40202C3.80227 1.20362 4.03941 1.03729 4.32398 0.90569C4.60855 0.775429 4.89846 0.709297 5.19105 0.709297C5.64663 0.709297 6.04342 0.839557 6.39145 1.10475C6.73347 1.36795 7.02071 1.69059 7.25251 2.07536C7.4823 2.4588 7.65531 2.87363 7.76954 3.31718C7.88243 3.76274 7.93988 4.17356 7.93988 4.55031C7.93988 4.74069 7.91249 4.97917 7.85705 5.26307Z" fill="white"/>
</svg>
