<svg width="25" height="22" viewBox="0 0 25 22" fill="none" xmlns="http://www.w3.org/2000/svg">
<path fill-rule="evenodd" clip-rule="evenodd" d="M11.396 21.6178C11.6602 21.8492 11.9992 21.9766 12.3509 21.9766C12.7024 21.9766 13.0416 21.8492 13.3056 21.6182C14.3058 20.7435 15.2694 19.9222 16.1197 19.1978L16.12 19.1975C18.6081 17.0771 20.7568 15.2459 22.252 13.4417C23.9234 11.425 24.7018 9.51268 24.7018 7.42361C24.7018 5.3939 24.006 3.52136 22.7423 2.1507C21.4636 0.763826 19.7089 0 17.8013 0C16.3754 0 15.0696 0.450795 13.9202 1.33976C13.3399 1.78848 12.8143 2.33765 12.3509 2.97822C11.8876 2.33765 11.3618 1.78848 10.7818 1.33976C9.63235 0.450795 8.32651 0 6.90063 0C4.99286 0 3.2383 0.763826 1.9596 2.1507C0.695981 3.52136 0 5.3939 0 7.42361C0 9.51268 0.778526 11.425 2.44997 13.4419C3.94521 15.246 6.09421 17.0774 8.58282 19.1982L8.58715 19.2019C9.43598 19.9252 10.3981 20.7452 11.396 21.6178ZM3.02327 3.13144C4.02493 2.04516 5.40181 1.44699 6.90063 1.44699C7.99841 1.44699 9.00648 1.79602 9.89657 2.48427C10.69 3.0979 11.2425 3.8736 11.5663 4.41636C11.7329 4.69547 12.0262 4.86206 12.3509 4.86206C12.6756 4.86206 12.9688 4.69547 13.1354 4.41636C13.4594 3.8736 14.012 3.0979 14.8052 2.48427C15.6953 1.79602 16.7033 1.44699 17.8013 1.44699C19.2999 1.44699 20.677 2.04516 21.6785 3.13144C22.695 4.23412 23.2549 5.75838 23.2549 7.42361C23.2549 9.18061 22.6019 10.752 21.138 12.5186C19.7241 14.2247 17.6219 16.0164 15.1878 18.091L15.1812 18.0966C14.3274 18.8239 13.3601 19.6484 12.3488 20.5291C11.3436 19.6501 10.3777 18.8269 9.52568 18.1008L9.52116 18.097L9.51972 18.0958C7.08317 16.0193 4.97882 14.2259 3.56396 12.5186C2.09981 10.752 1.4468 9.18061 1.4468 7.42361C1.4468 5.75838 2.00672 4.23412 3.02327 3.13144Z" fill="white"/>
</svg>
