<svg width="24" height="22" viewBox="0 0 24 22" fill="none" xmlns="http://www.w3.org/2000/svg">
<path d="M20.9 8.79864V19.8912C20.9 20.6507 20.2844 21.2662 19.525 21.2662H3.94165C3.18219 21.2662 2.56665 20.6507 2.56665 19.8912V8.79864V8.79845L8.06665 3.29845L9.8536 1.5115C10.8917 0.473379 12.5749 0.473379 13.613 1.5115L15.4 3.29841L20.9 8.79841V8.79864Z" fill="#FCF055"/>
<path d="M20.9 8.79872V19.8913C20.9 20.6508 20.2845 21.2663 19.525 21.2663H18.9076C19.0094 21.0747 19.0667 20.8565 19.0667 20.6246V9.53205L11.7796 2.24501C11.2604 1.72572 10.5802 1.4663 9.90002 1.4663C10.9414 0.473549 12.59 0.488674 13.613 1.51167L20.9 8.79872Z" fill="#FBA800"/>
<path fill-rule="evenodd" clip-rule="evenodd" d="M23.2519 10.113L14.1316 0.992764C12.8092 -0.329619 10.6574 -0.329619 9.33509 0.992764L0.214809 10.113C-0.0716031 10.3995 -0.0716031 10.8638 0.214809 11.1501C0.501176 11.4365 0.965513 11.4365 1.25188 11.1501L1.83332 10.5687V19.891C1.83332 21.0536 2.77914 21.9994 3.94166 21.9994H8.79999H14.6667H19.525C20.6875 21.9994 21.6333 21.0536 21.6333 19.891V10.5687L22.2148 11.1501C22.358 11.2933 22.5457 11.3649 22.7333 11.3649C22.921 11.3649 23.1087 11.2933 23.2518 11.1501C23.5383 10.8638 23.5383 10.3995 23.2519 10.113ZM9.53332 20.5328V14.7578C9.53332 14.3029 9.90343 13.9328 10.3583 13.9328H13.1083C13.5632 13.9328 13.9333 14.3029 13.9333 14.7578V20.5328H9.53332ZM19.525 20.5328C19.8788 20.5328 20.1667 20.2449 20.1667 19.8911V9.10201L13.0945 2.02988C12.344 1.27931 11.1228 1.27931 10.3722 2.02988L3.29999 9.10201V19.8911C3.29999 20.2449 3.58782 20.5328 3.94166 20.5328H8.06666V14.7578C8.06666 13.4941 9.0947 12.4661 10.3583 12.4661H13.1083C14.3719 12.4661 15.4 13.4941 15.4 14.7578V20.5328H19.525Z" fill="black"/>
</svg>
