<svg width="32" height="14" viewBox="0 0 32 14" fill="none" xmlns="http://www.w3.org/2000/svg">
<path fill-rule="evenodd" clip-rule="evenodd" d="M7 2H25C25.5523 2 26 1.55228 26 1C26 0.447715 25.5523 0 25 0H7C6.44772 0 6 0.447715 6 1C6 1.55228 6.44772 2 7 2ZM0.5 7C0.5 7.55228 0.947715 8 1.5 8H30.5C31.0523 8 31.5 7.55228 31.5 7C31.5 6.44772 31.0523 6 30.5 6H1.5C0.947716 6 0.5 6.44772 0.5 7ZM25 14H7C6.44772 14 6 13.5523 6 13C6 12.4477 6.44772 12 7 12H25C25.5523 12 26 12.4477 26 13C26 13.5523 25.5523 14 25 14Z" fill="black"/>
<mask id="mask0" mask-type="alpha" maskUnits="userSpaceOnUse" x="0" y="0" width="32" height="14">
<path fill-rule="evenodd" clip-rule="evenodd" d="M7 2H25C25.5523 2 26 1.55228 26 1C26 0.447715 25.5523 0 25 0H7C6.44772 0 6 0.447715 6 1C6 1.55228 6.44772 2 7 2ZM0.5 7C0.5 7.55228 0.947715 8 1.5 8H30.5C31.0523 8 31.5 7.55228 31.5 7C31.5 6.44772 31.0523 6 30.5 6H1.5C0.947716 6 0.5 6.44772 0.5 7ZM25 14H7C6.44772 14 6 13.5523 6 13C6 12.4477 6.44772 12 7 12H25C25.5523 12 26 12.4477 26 13C26 13.5523 25.5523 14 25 14Z" fill="white"/>
</mask>
<g mask="url(#mask0)">
</g>
</svg>
