<svg width="9" height="22" viewBox="0 0 9 22" fill="none" xmlns="http://www.w3.org/2000/svg">
<path d="M5.67732 21.6452C2.73916 21.6419 0.358028 19.2608 0.354736 16.3226V5.67744C0.358028 2.73928 2.73916 0.35815 5.67732 0.354858V4.61292C5.08944 4.61292 4.6128 5.08956 4.6128 5.67744V16.3226C4.6128 16.9105 5.08944 17.3871 5.67732 17.3871V21.6452Z" fill="#5DC2A7"/>
<rect x="6" y="17.3" width="2" height="4.5" fill="#FCF055"/>
<rect x="6" y="0.300049" width="2" height="4.5" fill="#FCF055"/>
<path fill-rule="evenodd" clip-rule="evenodd" d="M8.16129 4.96774H5.67742C5.2855 4.96774 4.96774 5.2855 4.96774 5.67742V16.3226C4.96774 16.7145 5.2855 17.0323 5.67742 17.0323H8.16129C8.35725 17.0323 8.51613 17.1911 8.51613 17.3871V21.6452C8.51613 21.8411 8.35725 22 8.16129 22H5.67742C2.54347 21.9964 0.00363848 19.4565 0 16.3226V5.67742C0.00363848 2.54347 2.54347 0.00363848 5.67742 0H8.16129C8.35725 0 8.51613 0.15888 8.51613 0.354839V4.6129C8.51613 4.80886 8.35725 4.96774 8.16129 4.96774ZM6.03226 4.25806H7.80645V0.709677H6.03226V4.25806ZM7.80645 21.2903H6.03226V17.7419H7.80645V21.2903ZM5.32258 21.2778V17.6972C4.69641 17.5345 4.25893 16.9695 4.25806 16.3226V5.67742C4.25893 5.03046 4.69641 4.46546 5.32258 4.30277V0.722152C2.7247 0.911353 0.712796 3.07261 0.709677 5.67742V16.3226C0.712796 18.9274 2.7247 21.0886 5.32258 21.2778Z" fill="black"/>
<path d="M1.77427 8.87097C1.57831 8.87097 1.41943 9.02985 1.41943 9.22581V13.8387C1.41943 14.0347 1.57831 14.1936 1.77427 14.1936C1.97023 14.1936 2.12911 14.0347 2.12911 13.8387V9.22581C2.12911 9.02985 1.97023 8.87097 1.77427 8.87097Z" fill="black"/>
<path d="M1.52235 14.6513C1.45738 14.7193 1.42065 14.8093 1.41943 14.9033C1.41995 14.927 1.42238 14.9507 1.42654 14.9743C1.43035 14.9965 1.43763 15.018 1.44785 15.0381C1.45565 15.0607 1.46639 15.0822 1.47973 15.102C1.4929 15.1205 1.5071 15.1384 1.52235 15.1552C1.66235 15.2924 1.8862 15.2924 2.02619 15.1552L2.06882 15.102C2.08216 15.0821 2.09273 15.0606 2.1007 15.0381C2.11109 15.0181 2.11802 14.9965 2.12166 14.9743C2.12599 14.9507 2.12859 14.927 2.12911 14.9033C2.12998 14.7591 2.04352 14.6288 1.91028 14.5735C1.77722 14.5183 1.62388 14.5489 1.52235 14.6513V14.6513Z" fill="black"/>
</svg>
