<svg width="24" height="24" viewBox="0 0 24 24" fill="none" xmlns="http://www.w3.org/2000/svg">
<path d="M0 11.9798C0 5.36306 5.36349 0 11.9795 0C18.5958 0 23.9593 5.36311 23.9593 11.9798C23.9593 18.5956 18.5958 23.959 11.9795 23.959C5.36349 23.959 0 18.5956 0 11.9798Z" fill="#E04F5F"/>
<path d="M18.0658 7.49181C16.3854 5.81132 13.6607 5.81132 11.9802 7.49181H11.9788C10.2983 5.81132 7.57365 5.81132 5.89321 7.49181C4.21268 9.17229 4.455 11.6854 5.89321 13.5774C7.41632 15.581 10.1972 18.8865 11.9788 18.8865H11.9802C13.7619 18.8865 16.5427 15.581 18.0658 13.5774C19.5041 11.6854 19.7463 9.17234 18.0658 7.49181Z" fill="white"/>
</svg>
