<svg width="25" height="32" viewBox="0 0 25 32" fill="none" xmlns="http://www.w3.org/2000/svg">
<path d="M21.3333 22.6665C21.3333 27.821 17.1545 31.9998 12 31.9998C6.84546 31.9998 2.66675 27.821 2.66675 22.6665C2.66675 17.5117 6.84546 13.333 12 13.333C17.1545 13.333 21.3333 17.5117 21.3333 22.6665Z" fill="#FCF055"/>
<path d="M14.6667 11.9998C14.6667 13.4724 13.4727 14.6665 12 14.6665C10.5273 14.6665 9.33325 13.4724 9.33325 11.9998C9.33325 10.5271 10.5273 9.33301 12 9.33301C13.4727 9.33301 14.6667 10.5271 14.6667 11.9998Z" fill="#EB9138"/>
<path d="M17.9654 20.4531C17.8733 20.1824 17.6187 19.9998 17.3333 19.9998H13.8133L12.6321 16.4558C12.4507 15.9119 11.5493 15.9119 11.3679 16.4558L10.1868 19.9998H6.66678C6.38138 19.9998 6.12674 20.1824 6.0347 20.4531C5.94265 20.7239 6.0347 21.0237 6.26272 21.197L9.13064 23.3796L8.02664 27.145C7.94412 27.4238 8.05472 27.7251 8.29593 27.8865C8.40945 27.9624 8.53738 27.9998 8.66678 27.9998C8.81473 27.9998 8.96267 27.9504 9.08401 27.853L12.0027 25.5051L14.9827 27.8572C15.2119 28.0383 15.532 28.0505 15.772 27.8838C16.0135 27.7185 16.1187 27.4158 16.032 27.1372L14.8721 23.3772L17.7346 21.1985C17.9654 21.0237 18.0559 20.7239 17.9654 20.4531Z" fill="#EB9138"/>
<path d="M0.666748 0H7.33325V9.98657L2.38672 8.53345C0.986572 8.12012 0 6.80005 0 5.33325V0.666748C0 0.293213 0.293213 0 0.666748 0Z" fill="#5DC2A7"/>
<path d="M24 0.666748V5.33325C24 6.80005 23.0134 8.12012 21.6133 8.53345L16.6667 9.98657V0H23.3333C23.7068 0 24 0.293213 24 0.666748Z" fill="#5DC2A7"/>
<path d="M16.6667 0V9.98657L16.3999 10.0667C14.96 10.4934 13.48 10.7068 12 10.7068C10.52 10.7068 9.04004 10.4934 7.6001 10.0667L7.33325 9.98657V0H16.6667Z" fill="#5DC2A7"/>
<path fill-rule="evenodd" clip-rule="evenodd" d="M7.60132 10.0667C9.04004 10.4907 10.52 10.7026 12 10.7026C13.48 10.7026 14.96 10.4907 16.3999 10.0667L21.6079 8.53467C23.0161 8.12134 24 6.80811 24 5.33862V0.666748C24 0.298584 23.7014 0 23.3333 0H0.666748C0.298584 0 0 0.298584 0 0.666748V5.33862C0 6.80664 0.983887 8.12134 2.39209 8.53467L7.60132 10.0667ZM1.33325 5.33862V1.33325H22.6667V5.33862C22.6667 6.21875 22.0759 7.00806 21.2307 7.2561L16.0227 8.78809C13.3921 9.56128 10.6094 9.56128 7.97729 8.78809L2.76929 7.2561C1.92407 7.00806 1.33325 6.21875 1.33325 5.33862Z" fill="black"/>
<path d="M7.33325 9.33325C6.96533 9.33325 6.66675 9.03467 6.66675 8.66675V0.666748C6.66675 0.298584 6.96533 0 7.33325 0C7.70142 0 8 0.298584 8 0.666748V8.66675C8 9.03467 7.70142 9.33325 7.33325 9.33325Z" fill="black"/>
<path d="M16.6667 9.33325C16.2986 9.33325 16 9.03467 16 8.66675V0.666748C16 0.298584 16.2986 0 16.6667 0C17.0347 0 17.3333 0.298584 17.3333 0.666748V8.66675C17.3333 9.03467 17.0347 9.33325 16.6667 9.33325Z" fill="black"/>
<path fill-rule="evenodd" clip-rule="evenodd" d="M9.33325 11.9998C9.33325 13.4705 10.5293 14.6665 12 14.6665C13.4707 14.6665 14.6667 13.4705 14.6667 11.9998C14.6667 10.5291 13.4707 9.33301 12 9.33301C10.5293 9.33301 9.33325 10.5291 9.33325 11.9998ZM10.6667 11.9998C10.6667 11.2637 11.2654 10.6665 12 10.6665C12.7346 10.6665 13.3333 11.2637 13.3333 11.9998C13.3333 12.7358 12.7346 13.333 12 13.333C11.2654 13.333 10.6667 12.7358 10.6667 11.9998Z" fill="black"/>
<path fill-rule="evenodd" clip-rule="evenodd" d="M2.66675 22.6665C2.66675 27.8118 6.85327 31.9998 12 31.9998C17.1467 31.9998 21.3333 27.8118 21.3333 22.6665C21.3333 17.521 17.1467 13.333 12 13.333C6.85327 13.333 2.66675 17.521 2.66675 22.6665ZM4 22.6665C4 18.2544 7.58789 14.6665 12 14.6665C16.4121 14.6665 20 18.2544 20 22.6665C20 27.0784 16.4121 30.6665 12 30.6665C7.58789 30.6665 4 27.0784 4 22.6665Z" fill="black"/>
<path fill-rule="evenodd" clip-rule="evenodd" d="M14.9827 27.8572C15.104 27.9517 15.2493 27.9998 15.396 27.9998C15.5281 27.9998 15.66 27.9612 15.7747 27.8838C16.0147 27.7197 16.1202 27.4158 16.0347 27.1372L14.8748 23.3772L17.7374 21.197C17.9654 21.0237 18.0574 20.7251 17.9654 20.4531C17.8733 20.1824 17.6187 19.9998 17.3333 19.9998H13.8133L12.6321 16.4558C12.4507 15.9119 11.5494 15.9119 11.368 16.4558L10.1868 19.9998H6.66679C6.38139 19.9998 6.12675 20.1824 6.03593 20.4517C5.94414 20.7239 6.03593 21.0225 6.26396 21.1958L9.13213 23.3796L8.02666 27.145C7.94414 27.425 8.05327 27.7251 8.29594 27.8877C8.5374 28.0479 8.85747 28.0356 9.08403 27.853L12.0027 25.5051L14.9827 27.8572ZM12.4134 24.1277C12.292 24.0332 12.1453 23.9851 12 23.9851C11.8521 23.9851 11.7041 24.0344 11.5813 24.1318L9.9041 25.4812L10.5401 23.3145C10.6175 23.0491 10.524 22.7637 10.304 22.5972L8.64262 21.333H10.6668C10.9534 21.333 11.2081 21.1492 11.2986 20.8772L12 18.7744L12.7015 20.8772C12.792 21.1492 13.0467 21.333 13.3333 21.333H15.3575L13.6961 22.5972C13.4734 22.7664 13.3799 23.0571 13.4627 23.3237L14.1294 25.4824L12.4134 24.1277Z" fill="black"/>
</svg>
