<svg width="32" height="32" viewBox="0 0 32 32" fill="none" xmlns="http://www.w3.org/2000/svg">
<circle cx="16" cy="16" r="16" fill="url(#paint0_linear)"/>
<path fill-rule="evenodd" clip-rule="evenodd" d="M22.6706 8.76133H19.6024C18.2736 8.76133 17.0836 8.02739 16.4984 6.8467C16.3095 6.46777 15.6907 6.46777 15.5017 6.8467C14.9166 8.02739 13.7266 8.76133 12.3977 8.76133H9.32956C9.02231 8.76133 8.77368 9.00995 8.77368 9.3172V16.0545C8.77368 19.6595 10.7746 22.8965 13.9947 24.5006L15.7514 25.3789C15.8296 25.418 15.9153 25.4375 16 25.4375C16.0847 25.4375 16.1704 25.418 16.2486 25.3789L18.0042 24.5011C21.2254 22.8965 23.2264 19.6595 23.2264 16.0544V9.3172C23.2265 9.00995 22.9779 8.76133 22.6706 8.76133ZM16.0001 11.0765C14.9264 11.7448 13.6887 12.0965 12.3978 12.0965H12.109V16.0544C12.109 18.3865 13.4031 20.4791 15.4855 21.5165L16.0001 21.7744L16.5158 21.516C18.5982 20.4786 19.8913 18.3865 19.8913 16.0545V12.0966H19.6024C18.3116 12.0966 17.0739 11.7448 16.0001 11.0765ZM16.1554 15.3341L16.0002 15.0198L15.8449 15.3341C15.7646 15.498 15.6072 15.612 15.4269 15.6381L15.0795 15.6886L15.3303 15.9334C15.4617 16.0609 15.5213 16.2449 15.491 16.4252L15.4313 16.7704L15.7418 16.6076C15.8221 16.5647 15.9112 16.5435 16.0002 16.5435C16.0892 16.5435 16.1782 16.5647 16.2585 16.6076L16.569 16.7704L16.5093 16.4252C16.479 16.2449 16.5387 16.0609 16.67 15.9334L16.9208 15.6886L16.5734 15.6381C16.3932 15.612 16.2358 15.498 16.1554 15.3341ZM17.6547 16.5251L18.5026 15.6983C18.6546 15.5507 18.7089 15.3298 18.6437 15.1289C18.5786 14.9275 18.4038 14.7809 18.1953 14.7505L17.0228 14.5801L16.4984 13.5183C16.3117 13.1383 15.6885 13.1383 15.5017 13.5183L14.9773 14.5801L13.8048 14.7505C13.5963 14.781 13.4215 14.9275 13.3564 15.1289C13.2912 15.3297 13.3455 15.5507 13.4975 15.6983L14.3455 16.5251L14.1446 17.6928C14.1088 17.9012 14.1945 18.1118 14.3661 18.2361C14.5377 18.361 14.7645 18.3773 14.9513 18.2785L16.0001 17.7275L17.0488 18.2785C17.2422 18.3803 17.4688 18.3568 17.634 18.2361C17.8056 18.1118 17.8913 17.9012 17.8555 17.6928L17.6547 16.5251ZM17.012 22.5111C19.4744 21.2848 21.003 18.811 21.003 16.0544H21.0031V11.5408C21.0031 11.2335 20.7545 10.9849 20.4472 10.9849H19.6026C18.4116 10.9849 17.277 10.6288 16.3205 9.95564C16.1272 9.81995 15.8732 9.81995 15.6799 9.95564C14.7234 10.6288 13.5889 10.9849 12.3979 10.9849H11.5532C11.2459 10.9849 10.9973 11.2335 10.9973 11.5408V16.0545C10.9973 18.8105 12.527 21.2848 14.9894 22.5116L15.7515 22.8933C15.8297 22.9323 15.9144 22.9519 16.0001 22.9519C16.0859 22.9519 16.1706 22.9323 16.2487 22.8933L17.012 22.5111Z" fill="url(#paint1_linear)"/>
<defs>
<linearGradient id="paint0_linear" x1="32" y1="32" x2="32" y2="0" gradientUnits="userSpaceOnUse">
<stop stop-color="#C3FFE8"/>
<stop offset="0.9973" stop-color="#F0FFF4"/>
</linearGradient>
<linearGradient id="paint1_linear" x1="8.77378" y1="6.56252" x2="8.77378" y2="25.4375" gradientUnits="userSpaceOnUse">
<stop stop-color="#00B59C"/>
<stop offset="1" stop-color="#9CFFAC"/>
</linearGradient>
</defs>
</svg>
