<svg width="19" height="17" viewBox="0 0 19 17" fill="none" xmlns="http://www.w3.org/2000/svg">
<path d="M9.11169 5.73039L11.7607 8.37937L11.7733 8.24061C11.7733 6.84883 10.6422 5.71777 9.25045 5.71777L9.11169 5.73039Z" fill="black"/>
<path d="M9.25041 4.0357C11.5714 4.0357 13.4552 5.91943 13.4552 8.24045C13.4552 8.78286 13.3458 9.30004 13.1566 9.77516L15.6164 12.2349C16.8862 11.1753 17.887 9.80461 18.505 8.24045C17.046 4.54871 13.4594 1.93335 9.25045 1.93335C8.07311 1.93335 6.94627 2.14357 5.89929 2.522L7.71574 4.33422C8.19082 4.14923 8.708 4.0357 9.25041 4.0357Z" fill="black"/>
<path fill-rule="evenodd" clip-rule="evenodd" d="M2.75829 3.66168L0.840933 1.74433L1.91314 0.672119L16.819 15.5821L15.7468 16.6501L13.2954 14.1945L12.938 13.8371C11.7985 14.2954 10.5539 14.5477 9.25042 14.5477C5.04568 14.5477 1.45485 11.9324 0 8.24063C0.655938 6.57138 1.75337 5.12915 3.14093 4.04433L2.75829 3.66168ZM6.79065 7.68983L5.49139 6.39057C5.21388 6.95399 5.04568 7.5763 5.04568 8.24063C5.04568 10.5616 6.92941 12.4454 9.25042 12.4454C9.91479 12.4454 10.5371 12.2772 11.0963 11.9997L9.79705 10.7004C9.62045 10.7382 9.43963 10.7635 9.25042 10.7635C7.85864 10.7635 6.72758 9.63241 6.72758 8.24063C6.72758 8.05142 6.75281 7.87064 6.79065 7.68983Z" fill="black"/>
</svg>
