<svg width="33" height="32" viewBox="0 0 33 32" fill="none" xmlns="http://www.w3.org/2000/svg">
<path fill-rule="evenodd" clip-rule="evenodd" d="M29.7355 2.61027C33.2158 6.09063 33.2158 11.7341 29.7355 15.2145C26.7705 18.1794 22.236 18.6174 18.8061 16.5303L13.6872 21.6491L15.6413 23.6032L12.8752 26.3693L10.9211 24.4152L8.05649 27.2798L10.0106 29.2339L7.2445 32L5.29042 30.0459L3.49061 31.8457L0.5 28.8551L15.8154 13.5397C13.7283 10.1098 14.1663 5.57525 17.1313 2.61027C20.6116 -0.87009 26.2551 -0.87009 29.7355 2.61027ZM23.7268 5.37191C22.83 6.26872 22.8296 7.72248 23.7264 8.6193C24.6232 9.51617 26.0769 9.51567 26.9738 8.61886C27.8701 7.72248 27.8706 6.26872 26.9738 5.37191C26.0769 4.47509 24.6232 4.47553 23.7268 5.37191Z" fill="#FBE200"/>
<path d="M18.8058 16.5303L13.6869 21.6491L15.641 23.6032L12.8749 26.3693L10.9209 24.4152L8.05621 27.2799L10.0103 29.2339L7.24423 32L5.2902 30.0459L3.49039 31.8457L1.99512 30.3505L23.7262 8.61938C24.623 9.51619 26.0768 9.51575 26.9736 8.61894C27.87 7.72257 27.8704 6.2688 26.9736 5.37199L29.7352 2.61035C33.2156 6.09071 33.2156 11.7342 29.7352 15.2145C26.7703 18.1795 22.2358 18.6175 18.8058 16.5303Z" fill="#FEBF01"/>
</svg>
