<svg width="25" height="12" viewBox="0 0 25 12" fill="none" xmlns="http://www.w3.org/2000/svg">
<path d="M23.8065 5.03225H3.31173L6.70676 1.65367C7.08558 1.27664 7.08703 0.663916 6.71 0.285093C6.33297 -0.0937775 5.7202 -0.0951807 5.34137 0.281803L0.284728 5.31406C0.284389 5.31435 0.284147 5.31469 0.283857 5.31498C-0.0939977 5.69201 -0.0952075 6.30672 0.28376 6.68501C0.284099 6.6853 0.284341 6.68564 0.284631 6.68593L5.34128 11.7182C5.72005 12.0951 6.33283 12.0938 6.70991 11.7149C7.08694 11.3361 7.08549 10.7234 6.70666 10.3463L3.31173 6.96774H23.8065C24.341 6.96774 24.7742 6.53448 24.7742 6C24.7742 5.46551 24.341 5.03225 23.8065 5.03225Z" fill="#0062DA"/>
</svg>
