<svg width="22" height="22" viewBox="0 0 22 22" fill="none" xmlns="http://www.w3.org/2000/svg">
<path d="M19.1634 22H2.17361C0.986938 22 0.0214844 21.0345 0.0214844 19.8477V12.4329C0.0214844 11.2462 0.986938 10.2808 2.17361 10.2808H19.1634C20.3502 10.2808 21.3157 11.2462 21.3157 12.4329V19.8477C21.3157 21.0345 20.3502 22 19.1634 22Z" fill="#CC0702"/>
<path d="M2.17361 10.2808C0.986938 10.2808 0.0214844 11.2462 0.0214844 12.4329V19.8477C0.0214844 21.0345 0.986938 22 2.17361 22H10.6685V10.2808L2.17361 10.2808Z" fill="#FF2A00"/>
<path d="M10.6702 6.19257C10.3402 6.19257 10.0102 6.06718 9.75893 5.81642C9.51538 5.57321 9.3811 5.24977 9.3811 4.90585C9.3811 4.56177 9.51538 4.23833 9.75893 3.99529C10.2615 3.49376 11.0789 3.49376 11.5814 3.99529C11.8251 4.23849 11.9592 4.56177 11.9592 4.90585C11.9592 5.24977 11.8251 5.57321 11.5814 5.81642C11.3303 6.06718 11.0002 6.19257 10.6702 6.19257Z" fill="#66CCFF"/>
<path d="M13.4816 7.91366C13.3164 7.91366 13.1512 7.85055 13.0254 7.72433C12.7739 7.47239 12.7743 7.06435 13.0264 6.81292C13.5368 6.30334 13.8179 5.62608 13.8179 4.90585C13.8179 4.18545 13.5368 3.50819 13.0264 2.99877C12.7744 2.74717 12.7739 2.33913 13.0254 2.0872C13.2768 1.83526 13.685 1.83476 13.9369 2.08636C14.6914 2.83932 15.107 3.84069 15.107 4.90585C15.107 5.971 14.6914 6.97221 13.9369 7.72533C13.8111 7.85088 13.6464 7.91366 13.4816 7.91366Z" fill="#66CCFF"/>
<path d="M14.9395 9.81114C14.7743 9.81114 14.6092 9.74803 14.4833 9.62181C14.2318 9.36987 14.2322 8.96184 14.4841 8.7104C15.5024 7.69392 16.0634 6.34276 16.0634 4.90566C16.0634 3.46838 15.5024 2.11705 14.4841 1.10074C14.2323 0.849305 14.2318 0.441101 14.4833 0.189331C14.7347 -0.0627743 15.1427 -0.06311 15.3948 0.188324C16.6572 1.44835 17.3524 3.12363 17.3524 4.90549C17.3524 6.68752 16.6572 8.36279 15.3948 9.62265C15.269 9.74837 15.1043 9.81114 14.9395 9.81114Z" fill="#66CCFF"/>
<path d="M7.85553 7.91309C7.6907 7.91309 7.52605 7.85048 7.40016 7.72476C6.64569 6.9718 6.2301 5.97043 6.2301 4.90527C6.2301 3.84029 6.64569 2.83891 7.40016 2.08579C7.6521 1.83435 8.06013 1.83469 8.31174 2.08679C8.56317 2.33873 8.56267 2.74677 8.31073 2.9982C7.80031 3.50778 7.51917 4.18504 7.51917 4.90527C7.51917 5.62567 7.80031 6.30293 8.31073 6.81252C8.56267 7.06395 8.56317 7.47199 8.31174 7.72392C8.18585 7.85014 8.02069 7.91309 7.85553 7.91309Z" fill="#B2E5FF"/>
<path d="M6.39758 9.81114C6.23276 9.81114 6.0681 9.74837 5.94221 9.62282C4.67984 8.36279 3.98462 6.68752 3.98462 4.90549C3.98462 3.12363 4.67984 1.44835 5.94221 0.188324C6.19415 -0.06311 6.60219 -0.0627743 6.85362 0.189331C7.10522 0.441101 7.10472 0.849305 6.85278 1.10074C5.83446 2.11705 5.27368 3.46838 5.27368 4.90566C5.27368 6.34276 5.83446 7.69409 6.85278 8.7104C7.10489 8.96184 7.10522 9.37004 6.85379 9.62198C6.72791 9.74803 6.56274 9.81114 6.39758 9.81114Z" fill="#B2E5FF"/>
<path d="M5.62421 18.1318H3.89404V13.5044C3.89404 13.1484 3.60535 12.8599 3.24951 12.8599C2.89351 12.8599 2.60498 13.1484 2.60498 13.5044V18.7763C2.60498 19.1323 2.89351 19.4208 3.24951 19.4208H5.62421C5.98004 19.4208 6.26874 19.1323 6.26874 18.7763C6.26874 18.4205 5.98004 18.1318 5.62421 18.1318Z" fill="#FFDD33"/>
<path d="M7.62085 12.8599C7.26501 12.8599 6.97632 13.1484 6.97632 13.5044V18.7763C6.97632 19.1323 7.26501 19.4208 7.62085 19.4208C7.97685 19.4208 8.26538 19.1323 8.26538 18.7763V13.5044C8.26538 13.1484 7.97685 12.8599 7.62085 12.8599V12.8599Z" fill="#FFDD33"/>
<path d="M12.0967 18.9628L13.6884 13.6909C13.7913 13.35 13.5985 12.9905 13.2577 12.8876C12.917 12.7845 12.5573 12.9776 12.4544 13.3183L11.4799 16.5465L10.5052 13.3183C10.4023 12.9774 10.0425 12.7847 9.70191 12.8876C9.36118 12.9905 9.16832 13.35 9.27121 13.6909L10.8629 18.9628C11.041 19.4739 11.9254 19.5134 12.0967 18.9628Z" fill="#FFAA00"/>
<path d="M18.0009 18.1318H15.8246V16.453H17.6536C18.0096 16.453 18.2981 16.1643 18.2981 15.8084C18.2981 15.4524 18.0096 15.1639 17.6536 15.1639H15.8246V14.1489H18.0877C18.4437 14.1489 18.7322 13.8602 18.7322 13.5044C18.7322 13.1484 18.4437 12.8599 18.0877 12.8599H15.1801C14.8241 12.8599 14.5355 13.1484 14.5355 13.5044V18.7763C14.5355 19.1323 14.8241 19.4208 15.1801 19.4208H18.0009C18.3567 19.4208 18.6454 19.1323 18.6454 18.7763C18.6454 18.4205 18.3569 18.1318 18.0009 18.1318Z" fill="#FFAA00"/>
<path d="M9.75909 3.99512C9.51538 4.23833 9.3811 4.56177 9.3811 4.90585C9.3811 5.24977 9.51538 5.57321 9.75909 5.81642C10.0099 6.06668 10.3392 6.19206 10.6687 6.1924V3.61914C10.3392 3.61948 10.0099 3.74486 9.75909 3.99512Z" fill="#B2E5FF"/>
<path d="M10.5052 13.3183C10.4023 12.9774 10.0425 12.7847 9.70191 12.8876C9.36118 12.9904 9.16832 13.35 9.27121 13.6909L10.6685 18.3196V13.8596L10.5052 13.3183Z" fill="#FFDD33"/>
</svg>
