<svg width="31" height="17" viewBox="0 0 31 17" fill="none" xmlns="http://www.w3.org/2000/svg">
<path d="M24.3059 16.0364H1.91554C1.10905 16.0364 0.455322 15.3826 0.455322 14.5762V5.81471C0.455322 5.00822 1.10911 4.35449 1.91554 4.35449H24.3059C25.1124 4.35449 25.7662 5.00828 25.7662 5.81471V14.5762C25.7662 15.3826 25.1124 16.0364 24.3059 16.0364Z" fill="#FF8087"/>
<path d="M1.91554 10.6822V4.35449C1.10905 4.35449 0.455322 5.00828 0.455322 5.81471V14.5762C0.455322 15.3827 1.10911 16.0364 1.91554 16.0364H24.3059C25.1124 16.0364 25.7662 15.3826 25.7662 14.5762H5.80952C3.65897 14.5762 1.91554 12.8328 1.91554 10.6822Z" fill="#E6646E"/>
<path fill-rule="evenodd" clip-rule="evenodd" d="M26.2217 5.81413V14.5756C26.2217 15.6319 25.3624 16.4912 24.306 16.4912H1.91563C0.859324 16.4912 0 15.6319 0 14.5756V5.81413C0 4.75782 0.859324 3.89844 1.91563 3.89844H24.3061C25.3624 3.89844 26.2217 4.75782 26.2217 5.81413ZM0.910816 5.81413V14.5756C0.910816 15.1296 1.36155 15.5804 1.91563 15.5804H24.306C24.8601 15.5804 25.3108 15.1296 25.3108 14.5756V5.81413C25.3108 5.26005 24.8601 4.80925 24.306 4.80925H1.91563C1.36155 4.80925 0.910816 5.26005 0.910816 5.81413Z" fill="black"/>
<path d="M8.24334 12.1731H5.77825V7.76107C5.77825 7.50957 5.57435 7.30566 5.32284 7.30566C5.07133 7.30566 4.86743 7.50957 4.86743 7.76107V12.6285C4.86743 12.88 5.07133 13.0839 5.32284 13.0839H8.24334C8.49485 13.0839 8.69875 12.88 8.69875 12.6285C8.69875 12.377 8.49485 12.1731 8.24334 12.1731Z" fill="black"/>
<path d="M10.1092 7.30566C9.85771 7.30566 9.65381 7.50957 9.65381 7.76107V12.6285C9.65381 12.88 9.85771 13.0839 10.1092 13.0839C10.3607 13.0839 10.5646 12.88 10.5646 12.6285V7.76107C10.5646 7.50957 10.3607 7.30566 10.1092 7.30566Z" fill="black"/>
<path d="M16.421 7.34592C16.1916 7.24264 15.922 7.34495 15.8189 7.57436L14.0438 11.5189L12.2688 7.57436C12.1656 7.34501 11.896 7.24276 11.6666 7.34592C11.4372 7.44915 11.335 7.71875 11.4381 7.94809L13.6285 12.8156C13.7021 12.979 13.8646 13.0841 14.0438 13.0841C14.223 13.0841 14.3855 12.979 14.4591 12.8156L16.6494 7.94809C16.7526 7.71875 16.6504 7.44915 16.421 7.34592Z" fill="black"/>
<path d="M21.3856 8.21648C21.6371 8.21648 21.841 8.01258 21.841 7.76107C21.841 7.50957 21.6371 7.30566 21.3856 7.30566H17.9784C17.7269 7.30566 17.5229 7.50957 17.5229 7.76107V12.6285C17.5229 12.88 17.7269 13.0839 17.9784 13.0839H21.3856C21.6371 13.0839 21.841 12.88 21.841 12.6285C21.841 12.377 21.6371 12.1731 21.3856 12.1731H18.4338V10.6502H20.8989C21.1504 10.6502 21.3543 10.4463 21.3543 10.1948C21.3543 9.94327 21.1504 9.73936 20.8989 9.73936H18.4338V8.21642L21.3856 8.21648Z" fill="black"/>
<path d="M24.306 2.86296C25.9336 2.86296 27.2578 4.18717 27.2578 5.8148C27.2578 6.0663 27.4617 6.27021 27.7132 6.27021C27.9647 6.27021 28.1686 6.0663 28.1686 5.8148C28.1686 3.68488 26.4358 1.95215 24.306 1.95215C24.0545 1.95215 23.8506 2.15605 23.8506 2.40756C23.8506 2.65906 24.0544 2.86296 24.306 2.86296Z" fill="black"/>
<path d="M24.306 0.915699C27.0072 0.915699 29.2048 3.11332 29.2048 5.81455C29.2048 6.06606 29.4087 6.26996 29.6602 6.26996C29.9117 6.26996 30.1156 6.06606 30.1156 5.81455C30.1156 2.61109 27.5095 0.00488281 24.306 0.00488281C24.0545 0.00488281 23.8506 0.208784 23.8506 0.460291C23.8506 0.711797 24.0544 0.915699 24.306 0.915699Z" fill="black"/>
</svg>
