<svg width="11" height="18" viewBox="0 0 11 18" fill="none" xmlns="http://www.w3.org/2000/svg">
<mask id="path-1-outside-1" maskUnits="userSpaceOnUse" x="0" y="0" width="11" height="18" fill="black">
<rect fill="white" width="11" height="18"/>
<path fill-rule="evenodd" clip-rule="evenodd" d="M8.461 4.17243C8.84943 3.81229 9.04271 3.37429 9.04271 2.86143C9.04271 2.34971 8.84971 1.91086 8.461 1.54614C8.07357 1.18243 7.60657 1 7.06057 1C6.51286 1 6.044 1.182 5.65286 1.54614C5.26171 1.91086 5.06571 2.34957 5.06571 2.86143C5.06571 3.37429 5.26171 3.81214 5.65286 4.17243C6.04471 4.53386 6.51271 4.71471 7.06057 4.71471C7.60671 4.71471 8.07357 4.53386 8.461 4.17243ZM8.60914 16.1299L8.83186 15.2194C8.71657 15.2736 8.53071 15.3354 8.27586 15.4059C8.02029 15.4763 7.79029 15.5121 7.58814 15.5121C7.15757 15.5121 6.85443 15.4416 6.67843 15.2997C6.50371 15.1579 6.41657 14.891 6.41657 14.5001C6.41657 14.3453 6.44286 14.1144 6.49786 13.8123C6.55114 13.5081 6.61243 13.2379 6.68057 13.0014L7.512 10.0579C7.59343 9.78771 7.64929 9.49071 7.67929 9.16657C7.71 8.84314 7.72429 8.61686 7.72429 8.48843C7.72429 7.86771 7.50671 7.364 7.07143 6.97543C6.63614 6.58714 6.01629 6.393 5.213 6.393C4.766 6.393 4.29343 6.47243 3.79329 6.63114C3.29314 6.78943 2.77029 6.98014 2.22329 7.20286L2 8.114C2.163 8.05371 2.35714 7.98886 2.58429 7.92171C2.81043 7.85486 3.03229 7.82029 3.24814 7.82029C3.68886 7.82029 3.98571 7.89543 4.14129 8.04343C4.29686 8.19186 4.375 8.45586 4.375 8.83329C4.375 9.042 4.35029 9.27386 4.299 9.52586C4.24843 9.77943 4.18529 10.0476 4.111 10.3306L3.276 13.286C3.20171 13.5966 3.14743 13.8744 3.11329 14.1211C3.07943 14.3676 3.06314 14.6094 3.06314 14.8446C3.06314 15.452 3.28757 15.9527 3.73629 16.3479C4.185 16.7414 4.81414 16.9396 5.623 16.9396C6.14971 16.9396 6.612 16.8707 7.00986 16.7323C7.40729 16.5943 7.941 16.3936 8.60914 16.1299Z"/>
</mask>
<path fill-rule="evenodd" clip-rule="evenodd" d="M8.461 4.17243C8.84943 3.81229 9.04271 3.37429 9.04271 2.86143C9.04271 2.34971 8.84971 1.91086 8.461 1.54614C8.07357 1.18243 7.60657 1 7.06057 1C6.51286 1 6.044 1.182 5.65286 1.54614C5.26171 1.91086 5.06571 2.34957 5.06571 2.86143C5.06571 3.37429 5.26171 3.81214 5.65286 4.17243C6.04471 4.53386 6.51271 4.71471 7.06057 4.71471C7.60671 4.71471 8.07357 4.53386 8.461 4.17243ZM8.60914 16.1299L8.83186 15.2194C8.71657 15.2736 8.53071 15.3354 8.27586 15.4059C8.02029 15.4763 7.79029 15.5121 7.58814 15.5121C7.15757 15.5121 6.85443 15.4416 6.67843 15.2997C6.50371 15.1579 6.41657 14.891 6.41657 14.5001C6.41657 14.3453 6.44286 14.1144 6.49786 13.8123C6.55114 13.5081 6.61243 13.2379 6.68057 13.0014L7.512 10.0579C7.59343 9.78771 7.64929 9.49071 7.67929 9.16657C7.71 8.84314 7.72429 8.61686 7.72429 8.48843C7.72429 7.86771 7.50671 7.364 7.07143 6.97543C6.63614 6.58714 6.01629 6.393 5.213 6.393C4.766 6.393 4.29343 6.47243 3.79329 6.63114C3.29314 6.78943 2.77029 6.98014 2.22329 7.20286L2 8.114C2.163 8.05371 2.35714 7.98886 2.58429 7.92171C2.81043 7.85486 3.03229 7.82029 3.24814 7.82029C3.68886 7.82029 3.98571 7.89543 4.14129 8.04343C4.29686 8.19186 4.375 8.45586 4.375 8.83329C4.375 9.042 4.35029 9.27386 4.299 9.52586C4.24843 9.77943 4.18529 10.0476 4.111 10.3306L3.276 13.286C3.20171 13.5966 3.14743 13.8744 3.11329 14.1211C3.07943 14.3676 3.06314 14.6094 3.06314 14.8446C3.06314 15.452 3.28757 15.9527 3.73629 16.3479C4.185 16.7414 4.81414 16.9396 5.623 16.9396C6.14971 16.9396 6.612 16.8707 7.00986 16.7323C7.40729 16.5943 7.941 16.3936 8.60914 16.1299Z" fill="white"/>
<path d="M8.461 4.17243L7.78109 3.43912L7.77885 3.44121L8.461 4.17243ZM8.461 1.54614L7.77656 2.27521L7.77676 2.2754L8.461 1.54614ZM5.65286 1.54614L4.97146 0.814226L4.97089 0.814759L5.65286 1.54614ZM5.65286 4.17243L6.33085 3.43736L6.33036 3.4369L5.65286 4.17243ZM8.83186 15.2194L9.80322 15.457L10.3003 13.425L8.40677 14.3143L8.83186 15.2194ZM8.60914 16.1299L8.97628 17.06L9.45755 16.8701L9.5805 16.3675L8.60914 16.1299ZM8.27586 15.4059L8.54153 16.3699L8.54222 16.3697L8.27586 15.4059ZM6.67843 15.2997L6.04809 16.076L6.05089 16.0783L6.67843 15.2997ZM6.49786 13.8123L7.48171 13.9914L7.48285 13.9849L6.49786 13.8123ZM6.68057 13.0014L7.64147 13.2784L7.64292 13.2732L6.68057 13.0014ZM7.512 10.0579L6.55455 9.76926L6.55203 9.77763L6.54965 9.78604L7.512 10.0579ZM7.67929 9.16657L6.68376 9.07203L6.68354 9.07441L7.67929 9.16657ZM7.07143 6.97543L7.73737 6.22943L7.7371 6.22918L7.07143 6.97543ZM3.79329 6.63114L4.09502 7.58454L4.09576 7.5843L3.79329 6.63114ZM2.22329 7.20286L1.84619 6.27668L1.3735 6.46914L1.25203 6.96484L2.22329 7.20286ZM2 8.114L1.02874 7.87598L0.580463 9.70522L2.34689 9.05191L2 8.114ZM2.58429 7.92171L2.86776 8.88069L2.8678 8.88068L2.58429 7.92171ZM4.14129 8.04343L4.83159 7.31991L4.83054 7.31891L4.14129 8.04343ZM4.299 9.52586L3.31908 9.32643L3.31831 9.33027L4.299 9.52586ZM4.111 10.3306L5.07333 10.6025L5.07586 10.5935L5.07823 10.5845L4.111 10.3306ZM3.276 13.286L2.31367 13.0141L2.30815 13.0336L2.30343 13.0534L3.276 13.286ZM3.11329 14.1211L2.12273 13.9841L2.12259 13.985L3.11329 14.1211ZM3.73629 16.3479L3.0754 17.0983L3.07688 17.0996L3.73629 16.3479ZM7.00986 16.7323L6.68184 15.7876L6.68125 15.7878L7.00986 16.7323ZM8.04271 2.86143C8.04271 3.08797 7.97136 3.26272 7.7811 3.43913L9.1409 4.90573C9.7275 4.36185 10.0427 3.6606 10.0427 2.86143H8.04271ZM7.77676 2.2754C7.97177 2.45837 8.04271 2.63645 8.04271 2.86143H10.0427C10.0427 2.06298 9.72766 1.36334 9.14524 0.816882L7.77676 2.2754ZM7.06057 2C7.3594 2 7.57966 2.09036 7.77656 2.27521L9.14544 0.817075C8.56749 0.274496 7.85375 0 7.06057 0V2ZM6.33425 2.27806C6.53543 2.09077 6.75894 2 7.06057 2V0C6.26677 0 5.55257 0.273229 4.97146 0.814226L6.33425 2.27806ZM6.06571 2.86143C6.06571 2.64095 6.13604 2.46288 6.33482 2.27753L4.97089 0.814759C4.38739 1.35883 4.06571 2.0582 4.06571 2.86143H6.06571ZM6.33036 3.4369C6.13634 3.25819 6.06571 3.08356 6.06571 2.86143H4.06571C4.06571 3.66502 4.38709 4.36609 4.97536 4.90795L6.33036 3.4369ZM7.06057 3.71471C6.75743 3.71471 6.53326 3.62406 6.33085 3.43736L4.97487 4.9075C5.55617 5.44366 6.268 5.71471 7.06057 5.71471V3.71471ZM7.77885 3.44121C7.58267 3.62423 7.36197 3.71471 7.06057 3.71471V5.71471C7.85146 5.71471 8.56447 5.44349 9.14315 4.90365L7.77885 3.44121ZM7.8605 14.9818L7.63778 15.8922L9.5805 16.3675L9.80322 15.457L7.8605 14.9818ZM8.54222 16.3697C8.80362 16.2975 9.05953 16.2173 9.25695 16.1246L8.40677 14.3143C8.37361 14.3298 8.25781 14.3734 8.0095 14.442L8.54222 16.3697ZM7.58814 16.5121C7.90407 16.5121 8.22611 16.4568 8.54153 16.3699L8.01019 14.4418C7.81446 14.4957 7.6765 14.5121 7.58814 14.5121V16.5121ZM6.05089 16.0783C6.50662 16.4456 7.10862 16.5121 7.58814 16.5121V14.5121C7.42235 14.5121 7.31981 14.4981 7.26505 14.4853C7.20757 14.4719 7.24127 14.469 7.30597 14.5211L6.05089 16.0783ZM5.41657 14.5001C5.41657 14.9781 5.51276 15.6414 6.0481 16.076L7.30876 14.5234C7.35404 14.5602 7.38551 14.5988 7.40569 14.6302C7.42515 14.6606 7.43187 14.6807 7.43238 14.6823C7.4328 14.6836 7.42848 14.6705 7.42424 14.6386C7.42003 14.6068 7.41657 14.5614 7.41657 14.5001H5.41657ZM5.51402 13.6332C5.45556 13.9544 5.41657 14.2549 5.41657 14.5001H7.41657C7.41657 14.4356 7.43015 14.2745 7.48169 13.9914L5.51402 13.6332ZM5.71969 12.7245C5.63986 13.0014 5.57109 13.3073 5.51286 13.6397L7.48285 13.9849C7.53119 13.7089 7.58499 13.4743 7.64146 13.2784L5.71969 12.7245ZM6.54965 9.78604L5.71822 12.7296L7.64292 13.2732L8.47435 10.3297L6.54965 9.78604ZM6.68354 9.07441C6.65882 9.34149 6.6141 9.5717 6.55455 9.76926L8.46945 10.3465C8.57276 10.0037 8.63975 9.63994 8.67503 9.25873L6.68354 9.07441ZM6.72429 8.48843C6.72429 8.56573 6.71422 8.75135 6.68376 9.07203L8.67481 9.26111C8.70578 8.93493 8.72429 8.66798 8.72429 8.48843H6.72429ZM6.40549 7.72143C6.61367 7.90728 6.72429 8.1325 6.72429 8.48843H8.72429C8.72429 7.60293 8.39975 6.82072 7.73737 6.22943L6.40549 7.72143ZM5.213 7.393C5.86395 7.393 6.21299 7.54972 6.40576 7.72167L7.7371 6.22918C7.05929 5.62456 6.16862 5.393 5.213 5.393V7.393ZM4.09576 7.5843C4.51499 7.45126 4.88498 7.393 5.213 7.393V5.393C4.64702 5.393 4.07187 5.49359 3.49081 5.67799L4.09576 7.5843ZM2.60038 8.12903C3.12618 7.91495 3.62376 7.73368 4.09502 7.58454L3.49156 5.67775C2.96253 5.84518 2.41439 6.04534 1.84619 6.27668L2.60038 8.12903ZM2.97126 8.35202L3.19455 7.44088L1.25203 6.96484L1.02874 7.87598L2.97126 8.35202ZM2.30081 6.96273C2.05464 7.0355 1.83918 7.10728 1.65311 7.17609L2.34689 9.05191C2.48682 9.00015 2.65964 8.94221 2.86776 8.88069L2.30081 6.96273ZM3.24814 6.82029C2.92502 6.82029 2.60748 6.87207 2.30078 6.96274L2.8678 8.88068C3.01338 8.83764 3.13955 8.82029 3.24814 8.82029V6.82029ZM4.83054 7.31891C4.37299 6.88362 3.7202 6.82029 3.24814 6.82029V8.82029C3.41824 8.82029 3.51505 8.83546 3.5585 8.84635C3.60613 8.85829 3.54088 8.85248 3.45203 8.76795L4.83054 7.31891ZM5.375 8.83329C5.375 8.37447 5.29048 7.75773 4.83159 7.31991L3.45098 8.76695C3.37178 8.69138 3.35463 8.62624 3.35759 8.63624C3.35887 8.64056 3.36352 8.65809 3.36769 8.69236C3.37184 8.72643 3.375 8.77281 3.375 8.83329H5.375ZM5.27891 9.72528C5.3413 9.41876 5.375 9.11944 5.375 8.83329H3.375C3.375 8.96456 3.35928 9.12895 3.31909 9.32643L5.27891 9.72528ZM5.07823 10.5845C5.15645 10.2865 5.22443 9.99851 5.27969 9.72144L3.31831 9.33027C3.27243 9.56035 3.21412 9.80867 3.14377 10.0767L5.07823 10.5845ZM4.23833 13.5579L5.07333 10.6025L3.14867 10.0587L2.31367 13.0141L4.23833 13.5579ZM4.10385 14.2582C4.13245 14.0515 4.1797 13.8065 4.24857 13.5186L2.30343 13.0534C2.22372 13.3866 2.16241 13.6973 2.12273 13.9841L4.10385 14.2582ZM4.06314 14.8446C4.06314 14.6555 4.07624 14.4592 4.10398 14.2573L2.12259 13.985C2.08262 14.276 2.06314 14.5633 2.06314 14.8446H4.06314ZM4.39717 15.5974C4.16765 15.3953 4.06314 15.1696 4.06314 14.8446H2.06314C2.06314 15.7344 2.40749 16.5102 3.0754 17.0983L4.39717 15.5974ZM5.623 15.9396C4.97142 15.9396 4.60668 15.7811 4.39569 15.5961L3.07688 17.0996C3.76332 17.7017 4.65686 17.9396 5.623 17.9396V15.9396ZM6.68125 15.7878C6.41215 15.8814 6.06524 15.9396 5.623 15.9396V17.9396C6.23419 17.9396 6.81185 17.86 7.33847 17.6768L6.68125 15.7878ZM8.24201 15.1997C7.57978 15.4611 7.06054 15.6561 6.68184 15.7876L7.33788 17.677C7.75403 17.5325 8.30222 17.3261 8.97628 17.06L8.24201 15.1997Z" fill="black" mask="url(#path-1-outside-1)"/>
</svg>
