<svg width="18" height="16" viewBox="0 0 18 16" fill="none" xmlns="http://www.w3.org/2000/svg">
<path d="M4.4131 14.0747H3.17484C3.10527 14.0747 3.07745 14.0052 3.10527 13.9495C3.1331 13.894 3.18875 13.8244 3.27223 13.7549C3.64788 13.407 3.91223 13.1427 4.06527 12.9479C4.3018 12.6556 4.46875 12.3636 4.58006 12.0853C4.69136 11.793 4.74701 11.487 4.74701 11.181C4.74701 10.6104 4.53832 10.1097 4.12093 9.72009C3.71745 9.33052 3.16093 9.13574 2.47919 9.13574C1.86701 9.13574 1.33832 9.3027 0.907014 9.6227C0.461796 9.95661 0.197448 10.4992 0.127883 11.2366C0.11397 11.334 0.141796 11.4314 0.211361 11.5149C0.267014 11.5985 0.364405 11.6401 0.461796 11.654L1.60267 11.7654C1.70006 11.7794 1.79745 11.7376 1.88093 11.6818C1.9644 11.6123 2.00614 11.5288 2.00614 11.4176C2.02006 11.0975 2.10354 10.9862 2.14527 10.9307C2.18701 10.8888 2.27049 10.8192 2.45136 10.8192C2.66006 10.8192 2.72962 10.8888 2.75745 10.9166C2.82701 10.9862 2.85484 11.0975 2.85484 11.2366C2.85484 11.3898 2.79919 11.5568 2.68788 11.7236C2.63223 11.8072 2.43745 12.0297 1.79745 12.642C1.12962 13.2681 0.684405 13.755 0.447883 14.1584C0.197448 14.5618 0.0583179 14.9931 0.00266576 15.4524C-0.0112473 15.5637 0.0304919 15.6611 0.100057 15.7446C0.169622 15.8281 0.267014 15.8698 0.378318 15.8698H4.51049C4.66354 15.8698 4.77484 15.7446 4.77484 15.6054V14.4228C4.77484 14.2417 4.60788 14.0747 4.4131 14.0747Z" fill="black"/>
<path d="M3.63412 6.56159C3.88455 6.56159 4.07933 6.36681 4.07933 6.11637V0.425939C4.07933 0.175504 3.91238 0.0224609 3.66194 0.0224609H2.64629C2.46542 0.0224609 2.29847 0.133765 2.21499 0.286809C2.08977 0.56507 1.9089 0.787678 1.64455 0.996374C1.3802 1.20507 1.14368 1.3442 0.837596 1.46942C0.656726 1.53898 0.601074 1.69203 0.601074 1.88681V2.77724C0.601074 3.08333 0.851509 3.30594 1.1576 3.20855C1.25499 3.18072 1.31064 3.13898 1.39412 3.11116C1.7002 2.98594 1.99238 3.20855 1.99238 3.52855V6.13029C1.99238 6.38072 2.18716 6.5755 2.4376 6.5755H3.63412V6.56159Z" fill="black"/>
<path d="M16.3921 0.0224609H6.9312C6.43033 0.0224609 6.02686 0.425939 6.02686 0.926809V2.7355C6.02686 3.23637 6.43033 3.63985 6.9312 3.63985H16.3921C16.8929 3.63985 17.2964 3.23637 17.2964 2.7355V0.926809C17.2964 0.425939 16.8929 0.0224609 16.3921 0.0224609Z" fill="black"/>
<path d="M16.3921 6.14355H6.9312C6.43033 6.14355 6.02686 6.54703 6.02686 7.0479V8.8566C6.02686 9.35747 6.43033 9.76095 6.9312 9.76095H16.3921C16.8929 9.76095 17.2964 9.35747 17.2964 8.8566V7.0479C17.2964 6.54703 16.8929 6.14355 16.3921 6.14355Z" fill="black"/>
<path d="M16.3921 12.2656H6.9312C6.43033 12.2656 6.02686 12.6691 6.02686 13.17V14.9787C6.02686 15.4795 6.43033 15.883 6.9312 15.883H16.3921C16.8929 15.883 17.2964 15.4795 17.2964 14.9787V13.17C17.2964 12.6691 16.8929 12.2656 16.3921 12.2656Z" fill="black"/>
</svg>
