<svg width="20" height="22" viewBox="0 0 20 22" fill="none" xmlns="http://www.w3.org/2000/svg">
<path d="M1.39517 0H13.0502L19.2279 6.15368V20.5762C19.2279 21.3341 18.6134 21.948 17.8561 21.948H1.39517C0.637947 21.948 0.0234375 21.3341 0.0234375 20.5762V1.37174C0.0234375 0.613871 0.638018 0 1.39517 0Z" fill="#E2574C"/>
<path d="M19.2079 6.17282H14.4267C13.6694 6.17282 13.0549 5.55831 13.0549 4.80108V0.0136719L19.2079 6.17282Z" fill="#B53629"/>
<path fill-rule="evenodd" clip-rule="evenodd" d="M6.19757 9.61035H5.24901C4.98083 9.61035 4.8313 9.78727 4.8313 10.0562V13.2722C4.8313 13.5589 5.00276 13.718 5.23319 13.718C5.46362 13.718 5.63508 13.5589 5.63508 13.2722V12.3332H6.22972C6.9636 12.3332 7.56923 11.8133 7.56923 10.9773C7.56931 10.1591 6.98496 9.61035 6.19757 9.61035ZM9.65916 9.61035H8.70167C8.44171 9.61035 8.2572 9.78869 8.2572 10.0534V13.275C8.2572 13.6035 8.52261 13.7064 8.7126 13.7064H9.71743C10.9067 13.7064 11.692 12.9238 11.692 11.716C11.6914 10.4389 10.9521 9.61035 9.65916 9.61035ZM14.0824 10.3998C14.3122 10.3998 14.4246 10.1995 14.4246 10.0054C14.4246 9.80445 14.3073 9.61035 14.0824 9.61035H12.7737C12.5179 9.61035 12.3752 9.82226 12.3752 10.0562V13.2722C12.3752 13.5589 12.5385 13.718 12.7593 13.718C12.9788 13.718 13.1428 13.5589 13.1428 13.2722V12.3895H13.9343C14.1798 12.3895 14.3026 12.1885 14.3026 11.989C14.3026 11.7935 14.1798 11.5994 13.9343 11.5994H13.1428V10.3998H14.0824ZM9.12144 12.9122H9.70515C10.45 12.9122 10.7902 12.3662 10.7902 11.6762C10.7902 10.9389 10.4439 10.4046 9.64752 10.4046H9.12144V12.9122ZM5.63515 11.5789H6.18181C6.51927 11.5789 6.73323 11.3155 6.73394 10.9725C6.73394 10.6289 6.51927 10.3655 6.18181 10.3655H5.63515V11.5789Z" fill="white"/>
</svg>
