<svg width="16" height="16" viewBox="0 0 16 16" fill="none" xmlns="http://www.w3.org/2000/svg">
<path d="M9.8707 2.67676L1.07633 11.4718C1.03209 11.5161 1.00014 11.5722 0.984925 11.6324L0.0101533 15.5449C-0.019005 15.6627 0.0156046 15.7879 0.101558 15.8739C0.166593 15.9389 0.255209 15.9749 0.345853 15.9749C0.373617 15.9749 0.402014 15.9715 0.429651 15.9645L4.34218 14.9896C4.40316 14.9744 4.45856 14.9426 4.5028 14.8984L13.2979 6.10399L9.8707 2.67676Z" fill="white"/>
<path d="M15.4769 1.47724L14.4979 0.498289C13.8436 -0.155996 12.7033 -0.155363 12.0497 0.498289L10.8506 1.69745L14.2777 5.12456L15.4769 3.92539C15.8037 3.59869 15.9837 3.16386 15.9837 2.70138C15.9837 2.23891 15.8037 1.80407 15.4769 1.47724Z" fill="white"/>
</svg>
