<svg width="32" height="32" viewBox="0 0 32 32" fill="none" xmlns="http://www.w3.org/2000/svg">
<path fill-rule="evenodd" clip-rule="evenodd" d="M0 16C0 7.17725 7.17725 0 16 0C24.8228 0 32 7.17725 32 16C32 24.8228 24.8228 32 16 32C7.17725 32 0 24.8228 0 16ZM17.3333 17.3333H23C23.7361 17.3333 24.3333 16.7361 24.3333 16C24.3333 15.2639 23.7361 14.6667 23 14.6667H17.3333V9C17.3333 8.26392 16.7361 7.66675 16 7.66675C15.264 7.66675 14.6668 8.26392 14.6668 9V14.6667H9.00005C8.26396 14.6667 7.6668 15.2639 7.6668 16C7.6668 16.7361 8.26396 17.3333 9.00005 17.3333H14.6668V23C14.6668 23.7361 15.264 24.3333 16 24.3333C16.7361 24.3333 17.3333 23.7361 17.3333 23V17.3333Z" fill="black"/>
</svg>
