<svg width="17" height="17" viewBox="0 0 17 17" fill="none" xmlns="http://www.w3.org/2000/svg">
<path d="M5.85069 6.49534L14.7242 0.391813C15.0888 0.140467 15.468 0.0078125 15.7927 0.0078125C16.5055 0.0078125 16.978 0.605663 16.978 1.56773V14.4012C16.978 14.8712 16.8414 15.2639 16.6388 15.5372C16.4331 15.8143 16.1112 15.9609 15.7636 15.9609C15.4391 15.9609 15.0748 15.828 14.7104 15.577L5.84487 9.47348C5.27495 9.08069 4.96245 8.55201 4.96258 7.98415C4.96258 7.41656 5.27999 6.88788 5.85069 6.49534Z" fill="white"/>
<path d="M2.62818 0L2.99498 0.00103434C3.47531 0.00103434 3.89111 0.392533 3.89111 0.873503V15.0753C3.89111 15.5568 3.48216 15.952 3.00119 15.952L2.61153 15.9569C2.13299 15.9544 1.77252 15.5557 1.77252 15.0761V0.872598C1.77252 0.391628 2.14747 0 2.62818 0Z" fill="white"/>
</svg>
