<svg width="48" height="48" viewBox="0 0 48 48" fill="none" xmlns="http://www.w3.org/2000/svg">
<circle cx="24" cy="24" r="24" fill="url(#paint0_linear)"/>
<path fill-rule="evenodd" clip-rule="evenodd" d="M32.623 13.4217L30.7812 10.6484C30.5224 10.2584 30.0029 10.1686 29.627 10.4159L25.7771 12.9737C25.7423 12.3943 25.569 11.83 25.2394 11.3336C24.2317 9.81468 22.1727 9.37265 20.6233 10.4021C19.0116 11.4732 18.9775 13.9725 19.1991 15.7773C17.6211 14.8733 15.3032 13.9362 13.6908 15.0076C12.1626 16.0237 11.7449 18.0938 12.7601 19.6237C13.0904 20.1202 13.5439 20.4988 14.0651 20.7552L10.2152 23.3131C9.83586 23.5649 9.72683 24.0801 9.98268 24.4673L11.8253 27.2407C12.0789 27.6218 12.5947 27.7282 12.9796 27.4732L32.3906 14.5762C32.7734 14.3215 32.8775 13.8053 32.623 13.4217ZM16.4547 19.1674L16.4543 19.1676C15.6894 19.6747 14.6547 19.465 14.1467 18.7027C13.6386 17.9377 13.8475 16.9022 14.6124 16.3942C15.5479 15.7702 17.512 16.675 18.8966 17.545L16.4547 19.1674ZM20.9444 16.1844L23.388 14.561C24.1565 14.0494 24.3604 13.0169 23.8526 12.2544C23.3462 11.4922 22.3149 11.2743 21.5451 11.7887C20.6057 12.4129 20.6784 14.5724 20.9444 16.1844ZM26.4903 38.156V28.1679H24.8256V38.156H26.4903ZM28.1549 28.1679H35.6459C36.1059 28.1679 36.4782 28.5403 36.4782 29.0003V37.3237C36.4782 37.7837 36.1059 38.156 35.6459 38.156H28.1549V28.1679ZM14.8376 29.0003V37.3237C14.8376 37.7838 15.2099 38.156 15.6699 38.156H23.1609V28.1679H15.6699C15.2099 28.1679 14.8376 28.5403 14.8376 29.0003ZM32.3166 20.4121C32.7677 20.0642 33.3147 19.8756 33.9073 19.8756C35.2525 19.8756 36.4782 21.1306 36.4782 22.5083C36.4782 23.8235 35.3622 25.0573 32.7457 26.6334C32.614 26.713 32.4652 26.7529 32.3166 26.7529C32.1678 26.7529 32.0191 26.7131 31.8874 26.6334C29.2709 25.0573 28.1549 23.8235 28.1549 22.5083C28.1549 21.1306 29.3807 19.8756 30.7259 19.8756C31.3185 19.8756 31.8655 20.0642 32.3166 20.4121ZM25.658 23.174H24.8256V22.3417C24.8256 21.8816 24.4534 21.5093 23.9933 21.5093C23.5333 21.5093 23.161 21.8816 23.161 22.3417V23.174H22.3287C21.8687 23.174 21.4964 23.5462 21.4964 24.0063C21.4964 24.4663 21.8687 24.8386 22.3287 24.8386H23.161V25.6709C23.161 26.1309 23.5333 26.5032 23.9933 26.5032C24.4534 26.5032 24.8256 26.1309 24.8256 25.6709V24.8386H25.658C26.118 24.8386 26.4903 24.4663 26.4903 24.0063C26.4903 23.5462 26.118 23.174 25.658 23.174ZM36.4782 14.8507H37.3105C37.7706 14.8507 38.1429 15.2229 38.1428 15.683C38.1428 16.143 37.7706 16.5153 37.3105 16.5153H36.4782V17.3476C36.4782 17.8076 36.1059 18.1799 35.6459 18.1799C35.1859 18.1799 34.8136 17.8076 34.8136 17.3476V16.5153H33.9813C33.5212 16.5153 33.149 16.143 33.149 15.683C33.149 15.2229 33.5212 14.8507 33.9813 14.8507H34.8136V14.0183C34.8136 13.5583 35.1859 13.186 35.6459 13.186C36.1059 13.186 36.4782 13.5582 36.4782 14.0183V14.8507Z" fill="url(#paint1_linear)"/>
<defs>
<linearGradient id="paint0_linear" x1="48" y1="48" x2="48" y2="0" gradientUnits="userSpaceOnUse">
<stop stop-color="#FFC2CC"/>
<stop offset="1" stop-color="#FFF2F4"/>
</linearGradient>
<linearGradient id="paint1_linear" x1="38.1429" y1="38.156" x2="38.1429" y2="9.84374" gradientUnits="userSpaceOnUse">
<stop stop-color="#FFA68D"/>
<stop offset="1" stop-color="#FD3A84"/>
</linearGradient>
</defs>
</svg>
