<svg width="48" height="48" viewBox="0 0 48 48" fill="none" xmlns="http://www.w3.org/2000/svg">
<circle cx="24" cy="24" r="24" fill="url(#paint0_linear)"/>
<path fill-rule="evenodd" clip-rule="evenodd" d="M14.5752 14.0483L14.5765 14.0479C15.8678 13.6168 17.2031 13.1719 19.0036 13.1719C20.8508 13.1719 22.2345 13.6456 23.1672 14.1214V34.3853C22.6507 33.9962 21.2826 33.1623 19.0036 33.1623C17.474 33.1623 16.3229 33.5458 15.1054 33.9514L15.1035 33.952C13.8122 34.3832 12.4769 34.8281 10.6764 34.8281C10.2162 34.8281 9.84375 34.4556 9.84375 33.9952V15.6707C9.84375 15.2103 10.2161 14.8377 10.6764 14.8377C12.2063 14.8377 13.3575 14.4541 14.5752 14.0483ZM20.56 28.2655C20.9878 28.3208 21.4335 28.0069 21.4953 27.5498C21.5554 27.0934 21.235 26.6745 20.778 26.6143C20.2023 26.5379 19.6054 26.4988 19.0036 26.4988C16.8535 26.4988 15.2271 26.9796 13.7454 27.4717C13.3079 27.6165 13.0721 28.0883 13.2169 28.525C13.3615 28.9622 13.8338 29.1968 14.2691 29.0529C15.6223 28.6031 17.1023 28.1647 19.0036 28.1647C19.5549 28.1647 20.0738 28.2012 20.56 28.2655ZM21.4953 23.385C21.4335 23.8421 20.9878 24.1578 20.56 24.1008C20.0738 24.0366 19.5549 23.9999 19.0036 23.9999C17.1023 23.9999 15.6223 24.4384 14.2691 24.8882C13.8338 25.032 13.3615 24.7974 13.2169 24.3603C13.0721 23.9235 13.3079 23.4517 13.7454 23.3069C15.2271 22.8147 16.8535 22.3341 19.0036 22.3341C19.6054 22.3341 20.2023 22.3732 20.778 22.4496C21.235 22.5098 21.5554 22.9287 21.4953 23.385ZM20.56 19.9362C20.9878 19.9957 21.4335 19.6776 21.4953 19.2204C21.5554 18.7641 21.235 18.3452 20.778 18.285C20.2023 18.2086 19.6054 18.1695 19.0036 18.1695C16.8535 18.1695 15.2271 18.6502 13.7454 19.1423C13.3079 19.2872 13.0721 19.7589 13.2169 20.1957C13.3615 20.6329 13.8338 20.8674 14.2691 20.7236C15.6223 20.2737 17.1023 19.8353 19.0036 19.8353C19.5549 19.8353 20.0738 19.8719 20.56 19.9362ZM37.3235 14.8377C35.7936 14.8377 34.6425 14.4541 33.4249 14.0484L33.4234 14.0479C32.132 13.6168 30.7967 13.1719 28.9963 13.1719C27.1492 13.1719 25.7654 13.6458 24.8327 14.1216V34.3858C25.3538 33.9936 26.7212 33.1623 28.9963 33.1623C30.5259 33.1623 31.6769 33.5457 32.8942 33.9513L32.8964 33.952C34.1877 34.3832 35.5231 34.8281 37.3235 34.8281C37.7838 34.8281 38.1562 34.4556 38.1562 33.9952V15.6707C38.1562 15.2103 37.7837 14.8377 37.3235 14.8377ZM33.7308 29.0529C34.1664 29.1968 34.6385 28.9618 34.783 28.525C34.9277 28.0882 34.6919 27.6164 34.2545 27.4717C32.7728 26.9796 31.1464 26.4988 28.9963 26.4988C28.3945 26.4988 27.7976 26.5379 27.2219 26.6143C26.7649 26.6745 26.4444 27.0934 26.5046 27.5498C26.5665 28.0069 27.004 28.3184 27.4399 28.2655C27.9262 28.2013 28.445 28.1647 28.9963 28.1647C30.8976 28.1647 32.3776 28.6031 33.7308 29.0529ZM34.783 24.3604C34.6385 24.7972 34.1664 25.0322 33.7308 24.8883C32.3776 24.4385 30.8976 24 28.9963 24C28.445 24 27.9262 24.0367 27.4399 24.1009C27.004 24.1562 26.5665 23.8414 26.5046 23.3851C26.4444 22.9288 26.7649 22.5099 27.2219 22.4497C27.7976 22.3733 28.3945 22.3342 28.9963 22.3342C31.1464 22.3342 32.7728 22.8148 34.2545 23.307C34.6919 23.4517 34.9277 23.9236 34.783 24.3604ZM33.7308 20.7235C34.1664 20.8674 34.6385 20.6325 34.783 20.1956C34.9277 19.7588 34.6919 19.2871 34.2545 19.1423C32.7728 18.6502 31.1464 18.1694 28.9963 18.1694C28.3945 18.1694 27.7976 18.2085 27.2219 18.2849C26.7649 18.3451 26.4444 18.764 26.5046 19.2203C26.5665 19.6775 27.004 19.993 27.4399 19.9361C27.9262 19.8718 28.445 19.8352 28.9963 19.8352C30.8976 19.8352 32.3776 20.2737 33.7308 20.7235Z" fill="url(#paint1_linear)"/>
<defs>
<linearGradient id="paint0_linear" x1="48" y1="48" x2="48" y2="0" gradientUnits="userSpaceOnUse">
<stop stop-color="#ADDCFF"/>
<stop offset="0.5028" stop-color="#EAF6FF"/>
<stop offset="1" stop-color="#EAF6FF"/>
</linearGradient>
<linearGradient id="paint1_linear" x1="38.1561" y1="34.8281" x2="38.1561" y2="13.1719" gradientUnits="userSpaceOnUse">
<stop stop-color="#5558FF"/>
<stop offset="1" stop-color="#00C0FF"/>
</linearGradient>
</defs>
</svg>
