<svg width="22" height="22" viewBox="0 0 22 22" fill="none" xmlns="http://www.w3.org/2000/svg">
<path fill-rule="evenodd" clip-rule="evenodd" d="M0 2C0 0.895431 0.89543 0 2 0H20C21.1046 0 22 0.89543 22 2V20C22 21.1046 21.1046 22 20 22H2C0.895431 22 0 21.1046 0 20V2ZM1.83335 18.1667C1.83335 19.2712 2.72878 20.1667 3.83335 20.1667H18.1667C19.2713 20.1667 20.1667 19.2712 20.1667 18.1667V3.83335C20.1667 2.72878 19.2713 1.83335 18.1667 1.83335H3.83335C2.72878 1.83335 1.83335 2.72878 1.83335 3.83335V18.1667Z" fill="black"/>
<path d="M12.8334 5.50005H15.2037L12.1852 8.51852C11.8273 8.87649 11.8273 9.45692 12.1852 9.81489C12.5432 10.1729 13.1236 10.1729 13.4816 9.81489L16.5001 6.79642V9.16671C16.5001 9.67296 16.9105 10.0834 17.4167 10.0834C17.923 10.0834 18.3334 9.67296 18.3334 9.16671V4.58344C18.3334 4.55324 18.3318 4.52303 18.3288 4.49291C18.3275 4.47937 18.3249 4.46622 18.323 4.45286C18.3207 4.43662 18.3188 4.42038 18.3156 4.40431C18.3125 4.38892 18.3083 4.37406 18.3045 4.35897C18.301 4.34505 18.298 4.33109 18.2938 4.31734C18.2893 4.30256 18.2838 4.28825 18.2786 4.27381C18.2736 4.26006 18.2691 4.24622 18.2635 4.23269C18.258 4.2192 18.2514 4.20622 18.2452 4.19307C18.2386 4.17911 18.2324 4.16506 18.2251 4.15139C18.2183 4.13876 18.2106 4.12677 18.2033 4.11448C18.1953 4.10108 18.1877 4.08754 18.179 4.07448C18.17 4.06094 18.1599 4.04818 18.1501 4.03516C18.1419 4.02425 18.1343 4.01303 18.1256 4.00242C18.1066 3.97926 18.0866 3.95696 18.0654 3.93578C18.0652 3.9356 18.0651 3.93543 18.0649 3.93526C18.0647 3.93509 18.0646 3.935 18.0644 3.93483C18.0432 3.91365 18.0209 3.89358 17.9977 3.87454C17.9871 3.86582 17.976 3.85826 17.965 3.8501C17.952 3.84034 17.9393 3.83024 17.9257 3.82118C17.9127 3.81246 17.8991 3.80489 17.8858 3.7969C17.8735 3.78955 17.8615 3.78186 17.8488 3.77507C17.8352 3.76777 17.8212 3.76162 17.8073 3.75505C17.794 3.74882 17.781 3.7422 17.7675 3.73657C17.754 3.73099 17.7403 3.72652 17.7266 3.72158C17.7121 3.71633 17.6977 3.71079 17.6829 3.70628C17.6692 3.70215 17.6553 3.6991 17.6415 3.69562C17.6263 3.6918 17.6113 3.68754 17.5959 3.68449C17.5799 3.68131 17.5638 3.67947 17.5477 3.67715C17.5342 3.67521 17.5209 3.67263 17.5073 3.6713C17.4772 3.66834 17.447 3.66675 17.4168 3.66675H12.8334C12.3272 3.66675 11.9168 4.07714 11.9168 4.5834C11.9167 5.08966 12.3272 5.50005 12.8334 5.50005Z" fill="black"/>
<path d="M3.6713 17.5071C3.67263 17.5208 3.67521 17.5341 3.67715 17.5476C3.67947 17.5637 3.68131 17.5798 3.68449 17.5958C3.68754 17.6112 3.6918 17.6262 3.69562 17.6414C3.6991 17.6552 3.70211 17.6691 3.70628 17.6827C3.71079 17.6976 3.71633 17.712 3.72158 17.7265C3.72647 17.7401 3.73099 17.7539 3.73657 17.7674C3.7422 17.7809 3.74878 17.7939 3.75505 17.8071C3.76162 17.8211 3.76777 17.8351 3.77507 17.8487C3.78186 17.8613 3.78955 17.8734 3.7969 17.8856C3.80489 17.899 3.81246 17.9126 3.82118 17.9256C3.83024 17.9391 3.84034 17.9519 3.8501 17.9649C3.85826 17.9758 3.86582 17.987 3.87454 17.9976C3.89358 18.0208 3.91365 18.0431 3.93483 18.0643C3.935 18.0645 3.93509 18.0646 3.93526 18.0648C3.93543 18.0649 3.9356 18.0651 3.93578 18.0652C3.95696 18.0864 3.97926 18.1065 4.00242 18.1255C4.01303 18.1342 4.02425 18.1418 4.03516 18.15C4.04818 18.1597 4.06094 18.1698 4.07448 18.1789C4.08754 18.1876 4.10108 18.1952 4.11448 18.2032C4.12677 18.2105 4.13876 18.2182 4.15139 18.225C4.16506 18.2323 4.17911 18.2385 4.19307 18.245C4.20622 18.2513 4.2192 18.2578 4.23269 18.2634C4.24622 18.269 4.26006 18.2736 4.27381 18.2785C4.28829 18.2837 4.30256 18.2892 4.31734 18.2937C4.33109 18.2978 4.3451 18.3009 4.35897 18.3044C4.37406 18.3082 4.38897 18.3124 4.40431 18.3155C4.42042 18.3186 4.43666 18.3205 4.45286 18.3229C4.46622 18.3248 4.47937 18.3274 4.49291 18.3287C4.52299 18.3317 4.55319 18.3332 4.58336 18.3332H9.16671C9.67296 18.3332 10.0834 17.9229 10.0834 17.4166C10.0834 16.9103 9.67296 16.4999 9.16671 16.4999H6.79642L9.81489 13.4815C10.1729 13.1235 10.1729 12.5431 9.81489 12.1851C9.45692 11.8271 8.87649 11.8271 8.51852 12.1851L5.50005 15.2037V12.8334C5.50005 12.3271 5.08966 11.9167 4.5834 11.9167C4.07714 11.9167 3.66675 12.3271 3.66675 12.8334V17.4167C3.66675 17.417 3.66679 17.4174 3.66679 17.4177C3.66679 17.4475 3.66834 17.4774 3.6713 17.5071Z" fill="black"/>
</svg>
