<svg width="49" height="49" viewBox="0 0 49 49" fill="none" xmlns="http://www.w3.org/2000/svg">
<circle cx="24.8727" cy="24.5857" r="24" fill="url(#paint0_linear)"/>
<path fill-rule="evenodd" clip-rule="evenodd" d="M22.3746 10.4294H33.1999C33.6602 10.4294 34.0327 10.8019 34.0327 11.2621V37.9092C34.0327 38.3694 33.6603 38.7418 33.2 38.7418H16.5456C16.0854 38.7418 15.7129 38.3695 15.7129 37.9092V17.0911H21.5419C22.0021 17.0911 22.3746 16.7188 22.3746 16.2584V10.4294ZM20.7091 10.9173L16.2007 15.4258H20.7091V10.9173ZM23.2073 25.4184C24.2937 25.4184 25.2191 24.7223 25.5623 23.7529H23.2073C22.747 23.7529 22.3746 23.3804 22.3746 22.9202V20.5644C21.4052 20.9083 20.7091 21.8346 20.7091 22.9202C20.7091 24.2978 21.8297 25.4184 23.2073 25.4184ZM23.2073 18.7566C23.6676 18.7566 24.04 19.1291 24.04 19.5893V22.0874H26.5381C26.9984 22.0874 27.3708 22.4599 27.3708 22.9201C27.3708 25.2158 25.5037 27.0838 23.2072 27.0838C20.9107 27.0838 19.0435 25.2158 19.0435 22.9201C19.0435 20.6245 20.9109 18.7566 23.2073 18.7566ZM19.8764 32.0802H29.869C30.3294 32.0802 30.7018 31.7077 30.7017 31.2475C30.7017 30.7873 30.3293 30.4148 29.869 30.4148H19.8764C19.4162 30.4148 19.0437 30.7872 19.0437 31.2475C19.0437 31.7077 19.4162 32.0802 19.8764 32.0802ZM29.869 20.4221H26.5381C26.0778 20.4221 25.7054 20.0496 25.7054 19.5894V16.2585C25.7054 15.7982 26.0779 15.4258 26.5381 15.4258C28.8346 15.4258 30.7017 17.2938 30.7017 19.5895C30.7018 20.0496 30.3294 20.4221 29.869 20.4221ZM27.3709 18.7567V17.2335C28.08 17.4848 28.6427 18.0476 28.8932 18.7567H27.3709Z" fill="url(#paint1_linear)"/>
<defs>
<linearGradient id="paint0_linear" x1="48.8727" y1="48.5857" x2="48.8727" y2="0.585693" gradientUnits="userSpaceOnUse">
<stop stop-color="#C3FFE8"/>
<stop offset="0.9973" stop-color="#F0FFF4"/>
</linearGradient>
<linearGradient id="paint1_linear" x1="15.7129" y1="10.4294" x2="15.7129" y2="38.7418" gradientUnits="userSpaceOnUse">
<stop stop-color="#00B59C"/>
<stop offset="1" stop-color="#9CFFAC"/>
</linearGradient>
</defs>
</svg>
