<svg width="13" height="16" viewBox="0 0 13 16" fill="none" xmlns="http://www.w3.org/2000/svg">
<path d="M10.3125 15.0625H9.112C8.83431 14.7519 8.15522 13.9044 7.77138 12.9456C7.23272 13.0782 6.67281 13.1563 6.09375 13.1563C5.51428 13.1563 4.95403 13.0781 4.41497 12.9453C4.03069 13.9026 3.35216 14.7512 3.07487 15.0625H1.875V16H10.3125V15.0625Z" fill="white"/>
<circle cx="6.09375" cy="6.125" r="0.46875" fill="white"/>
<path d="M6.09375 12.2185C9.45375 12.2185 12.1875 9.4847 12.1875 6.1247C12.1875 3.97311 11.0636 2.05139 9.375 0.966797V6.1247C9.375 7.9338 7.90284 9.40595 6.09375 9.40595C4.28466 9.40595 2.8125 7.9338 2.8125 6.1247V0.966797C1.12388 2.05139 0 3.97311 0 6.1247C0 9.4847 2.73375 12.2185 6.09375 12.2185Z" fill="white"/>
<path fill-rule="evenodd" clip-rule="evenodd" d="M8.4375 6.125C8.4375 7.41728 7.38603 8.46875 6.09375 8.46875C4.80147 8.46875 3.75 7.41728 3.75 6.125V0.470125C4.472 0.168062 5.26347 0 6.09375 0C6.92403 0 7.7155 0.168062 8.4375 0.470125V6.125ZM7.5 6.125C7.5 5.34956 6.86919 4.71875 6.09375 4.71875C5.31831 4.71875 4.6875 5.34956 4.6875 6.125C4.6875 6.90044 5.31831 7.53125 6.09375 7.53125C6.86919 7.53125 7.5 6.90044 7.5 6.125Z" fill="white"/>
</svg>
