<svg width="10" height="16" viewBox="0 0 10 16" fill="none" xmlns="http://www.w3.org/2000/svg">
<path d="M4.46893 13.1192V15.0629H1.65643V16.0004H8.21893V15.0629H5.40643V13.1192C7.46718 12.9328 9.22399 11.5546 9.8568 9.54763L8.96234 9.26566C8.40571 11.0322 6.78843 12.2191 4.93768 12.2191C3.08693 12.2191 1.46965 11.0322 0.913023 9.26562L0.0185547 9.54759C0.651367 11.5546 2.40818 12.9328 4.46893 13.1192Z" fill="white"/>
<path d="M8.21875 5.65625H5.875V4.71875H8.21875V3.78125H5.875V2.84375H8.17137C7.94147 1.25781 6.58609 0 4.9375 0C3.28891 0 1.93353 1.25781 1.70363 2.84375H4V3.78125H1.65625V4.71875H4V5.65625H1.65625V6.59375H8.21875V5.65625Z" fill="white"/>
<path d="M4.9375 11.2812C6.74659 11.2812 8.21875 9.80909 8.21875 8V7.53125H1.65625V8C1.65625 9.80909 3.12841 11.2812 4.9375 11.2812Z" fill="white"/>
</svg>
