<svg width="49" height="49" viewBox="0 0 49 49" fill="none" xmlns="http://www.w3.org/2000/svg">
<circle cx="24.8727" cy="24.5857" r="24" fill="url(#paint0_linear)"/>
<path fill-rule="evenodd" clip-rule="evenodd" d="M35.6981 33.7456H38.1963C38.6565 33.7456 39.029 34.1181 39.0291 34.5783V37.9092C39.0291 38.3694 38.6568 38.7418 38.1965 38.7418H31.5347C31.0745 38.7418 30.702 38.3695 30.702 37.9092V34.5783C30.702 34.1181 31.0744 33.7456 31.5347 33.7456H34.0328V32.0802H25.7056V33.7456H28.2037C28.664 33.7456 29.0364 34.118 29.0364 34.5783V37.9092C29.0364 38.3694 28.6641 38.7418 28.2037 38.7418H21.542C21.0817 38.7418 20.7093 38.3695 20.7093 37.9092V34.5783C20.7093 34.1181 21.0816 33.7456 21.542 33.7456H24.0401V32.0802H15.7129V33.7456H18.211C18.6712 33.7456 19.0437 34.118 19.0437 34.5783V37.9092C19.0437 38.3694 18.6713 38.7418 18.211 38.7418H11.5492C11.089 38.7418 10.7166 38.3695 10.7166 37.9092V34.5783C10.7166 34.1181 11.0889 33.7456 11.5492 33.7456H14.0474V31.2475C14.0474 30.7873 14.4198 30.4148 14.8801 30.4148H24.04V28.7071C19.3791 28.2843 15.7128 24.359 15.7128 19.5894C15.7128 14.5386 19.8227 10.4294 24.8727 10.4294C29.9227 10.4294 34.0326 14.5386 34.0327 19.5894C34.0327 24.359 30.3664 28.2843 25.7055 28.7071V30.4148H34.8654C35.3256 30.4148 35.6981 30.7872 35.6981 31.2475V33.7456ZM23.1065 22.5324L25.4615 20.1781C25.6176 20.022 25.7054 19.8105 25.7054 19.5894V16.2585C25.7054 15.7983 25.3329 15.4258 24.8727 15.4258C24.4125 15.4258 24.04 15.7982 24.04 16.2585V19.2447L21.929 21.3549C21.6036 21.6801 21.6036 22.2071 21.929 22.5324C22.2543 22.8577 22.7811 22.8577 23.1065 22.5324Z" fill="url(#paint1_linear)"/>
<defs>
<linearGradient id="paint0_linear" x1="48.8727" y1="48.5857" x2="48.8727" y2="0.585693" gradientUnits="userSpaceOnUse">
<stop stop-color="#FFE59A"/>
<stop offset="1" stop-color="#FFFFD5"/>
</linearGradient>
<linearGradient id="paint1_linear" x1="39.0293" y1="38.7418" x2="39.0293" y2="10.4294" gradientUnits="userSpaceOnUse">
<stop stop-color="#FFDE00"/>
<stop offset="1" stop-color="#FD5900"/>
</linearGradient>
</defs>
</svg>
