<svg width="12" height="12" viewBox="0 0 12 12" fill="none" xmlns="http://www.w3.org/2000/svg">
<path fill-rule="evenodd" clip-rule="evenodd" d="M8.75524 7.95495L11.6096 10.9236C11.851 11.1747 11.843 11.5752 11.5921 11.8166C11.474 11.9303 11.3184 11.9928 11.1544 11.9928C10.9811 11.9928 10.8195 11.924 10.6992 11.7992L7.82324 8.808C7.00661 9.38189 6.05145 9.68421 5.04914 9.68421C2.37924 9.68421 0.207031 7.512 0.207031 4.84211C0.207031 2.17221 2.37924 0 5.04914 0C7.71903 0 9.89124 2.17221 9.89124 4.84211C9.89124 5.98484 9.48914 7.08253 8.75524 7.95495ZM8.62808 4.8421C8.62808 2.86863 7.02261 1.26316 5.04914 1.26316C3.07566 1.26316 1.47019 2.86863 1.47019 4.8421C1.47019 6.81558 3.07566 8.42105 5.04914 8.42105C7.02261 8.42105 8.62808 6.81558 8.62808 4.8421Z" fill="#454545"/>
</svg>
