<svg width="50" height="50" viewBox="0 0 50 50" fill="none" xmlns="http://www.w3.org/2000/svg">
<rect width="50" height="50" rx="10" fill="#5DC2A7"/>
<path fill-rule="evenodd" clip-rule="evenodd" d="M27.7555 27.285L30.6098 30.2537C30.8513 30.5048 30.8433 30.9052 30.5923 31.1467C30.4742 31.2604 30.3186 31.3229 30.1546 31.3229C29.9814 31.3229 29.8197 31.2541 29.6995 31.1292L26.8235 28.1381C26.0069 28.712 25.0517 29.0143 24.0494 29.0143C21.3795 29.0143 19.2073 26.8421 19.2073 24.1722C19.2073 21.5023 21.3795 19.3301 24.0494 19.3301C26.7193 19.3301 28.8915 21.5023 28.8915 24.1722C28.8915 25.3149 28.4894 26.4126 27.7555 27.285ZM27.6283 24.1722C27.6283 22.1987 26.0229 20.5932 24.0494 20.5932C22.0759 20.5932 20.4704 22.1987 20.4704 24.1722C20.4704 26.1457 22.0759 27.7511 24.0494 27.7511C26.0229 27.7511 27.6283 26.1457 27.6283 24.1722Z" fill="white"/>
</svg>
