<svg width="30" height="15" viewBox="0 0 30 15" fill="none" xmlns="http://www.w3.org/2000/svg">
<path d="M29.1099 11.7328C29.1099 13.5068 27.6639 14.9548 25.8859 14.9548H4.13191C2.35591 14.9548 0.909912 13.5118 0.909912 11.7328C0.909912 9.95379 2.35291 8.50879 4.13191 8.50879H25.8879C27.6649 8.50979 29.1099 9.95479 29.1099 11.7328Z" fill="#5DC2A7"/>
<path fill-rule="evenodd" clip-rule="evenodd" d="M3.28902 7.48976C3.39902 7.48976 3.50802 7.44076 3.58102 7.35576L6.45302 4.03176C6.53002 3.96076 6.57702 3.85976 6.57702 3.74676C6.57702 3.53276 6.40402 3.35976 6.19002 3.35976C6.18902 3.35976 6.18702 3.35976 6.18502 3.35976H4.39802V0.544762C4.39802 0.328762 4.22402 0.155762 4.00902 0.155762H2.56202C2.34902 0.155762 2.17402 0.328762 2.17402 0.544762V3.35976H0.388021C0.235021 3.35976 0.097021 3.44676 0.034021 3.58676C-0.027979 3.72476 -0.00497904 3.88676 0.096021 4.00176L2.99202 7.35576C3.06702 7.44076 3.17602 7.48976 3.28902 7.48976Z" fill="#EB9138"/>
</svg>
