<svg width="32" height="32" viewBox="0 0 32 32" fill="none" xmlns="http://www.w3.org/2000/svg">
<path d="M26 32H6C2.686 32 0 29.314 0 26V6C0 2.686 2.686 0 6 0H26C29.314 0 32 2.686 32 6V26C32 29.314 29.314 32 26 32Z" fill="#FFE6E2"/>
<path d="M22 15.5V22.5C22 23.327 21.327 24 20.5 24H11.5C10.673 24 10 23.327 10 22.5V15.5C10 14.673 10.673 14 11.5 14H20.5C21.327 14 22 14.673 22 15.5Z" fill="#FC573B"/>
<path d="M20 12C20 12.367 19.7 12.667 19.333 12.667C18.966 12.667 18.666 12.367 18.666 12C18.666 10.527 17.473 9.333 15.999 9.333C14.525 9.333 13.333 10.527 13.333 12V14H12V12C12 9.793 13.793 8 16 8C18.207 8 20 9.793 20 12V12Z" fill="#FD907E"/>
</svg>
