<svg width="12" height="12" viewBox="0 0 12 12" fill="none" xmlns="http://www.w3.org/2000/svg">
<path d="M6 4.5C5.17301 4.5 4.5 5.17301 4.5 6C4.5 6.82699 5.17301 7.5 6 7.5C6.82699 7.5 7.5 6.82699 7.5 6C7.5 5.17301 6.82699 4.5 6 4.5Z" fill="#454545"/>
<path fill-rule="evenodd" clip-rule="evenodd" d="M10.9325 4.8525L11.5945 4.98C11.83 5.02549 12 5.23151 12 5.47104V6.74004C12 6.98705 11.82 7.19705 11.576 7.23455L10.882 7.34154C10.5835 7.38703 10.3435 7.57254 10.2225 7.84903C10.102 8.12555 10.13 8.42705 10.2995 8.67654L10.677 9.23503C10.8115 9.43303 10.786 9.69902 10.6165 9.86852L9.71899 10.766C9.5445 10.941 9.26801 10.961 9.0705 10.816L8.67199 10.524C8.4225 10.341 8.115 10.3045 7.83199 10.4225C7.54699 10.54 7.35649 10.7825 7.3095 11.088L7.2345 11.576C7.197 11.82 6.987 12 6.73999 12H5.47099C5.23151 12 5.02549 11.83 4.98 11.5945L4.8525 10.933C4.79599 10.636 4.602 10.4035 4.32199 10.293C4.03999 10.1835 3.73999 10.222 3.49699 10.4005L2.9295 10.816C2.73101 10.961 2.4555 10.941 2.28101 10.766L1.38352 9.86848C1.21402 9.69898 1.18852 9.43298 1.32302 9.23498L1.70053 8.67698C1.87003 8.42698 1.89802 8.12548 1.77752 7.84898C1.65652 7.57249 1.41652 7.38698 1.11802 7.34149L0.424008 7.2345C0.18 7.197 0 6.987 0 6.73999V5.47099C0 5.23151 0.169992 5.02549 0.405516 4.98L1.06702 4.8525C1.36402 4.79599 1.59652 4.602 1.70702 4.32199C1.81751 4.04048 1.77851 3.73999 1.59952 3.49699L1.18402 2.9295C1.038 2.73101 1.05952 2.45501 1.23401 2.28101L2.1315 1.38349C2.30149 1.21399 2.56748 1.18901 2.76499 1.323L3.486 1.81099C3.72998 1.97648 4.02698 2.007 4.29949 1.89349C4.572 1.78099 4.75999 1.54999 4.81549 1.26049L4.98 0.405492C5.02549 0.169992 5.23148 0 5.47099 0H6.73999C6.987 0 7.197 0.18 7.23457 0.424008L7.34156 1.11802C7.38705 1.41652 7.57256 1.65652 7.84905 1.77752C8.12655 1.89752 8.42756 1.87003 8.67656 1.70053L9.23505 1.32302C9.43254 1.18901 9.69954 1.21402 9.86855 1.38352L10.766 2.28101C10.9405 2.45501 10.962 2.73101 10.816 2.9295L10.4005 3.4965C10.2215 3.73999 10.1825 4.04048 10.293 4.32199C10.4035 4.602 10.636 4.79599 10.9325 4.8525ZM3.49999 6C3.49999 7.3785 4.6215 8.50001 6 8.50001C7.3785 8.50001 8.50001 7.3785 8.50001 6C8.50001 4.6215 7.3785 3.49999 6 3.49999C4.6215 3.49999 3.49999 4.6215 3.49999 6Z" fill="#454545"/>
</svg>
