<svg width="32" height="32" viewBox="0 0 32 32" fill="none" xmlns="http://www.w3.org/2000/svg">
<path d="M26 32H6C2.686 32 0 29.314 0 26V6C0 2.686 2.686 0 6 0H26C29.314 0 32 2.686 32 6V26C32 29.314 29.314 32 26 32Z" fill="#F5E6FE"/>
<path fill-rule="evenodd" clip-rule="evenodd" d="M8 16C8 11.589 11.589 8 16 8C20.411 8 24 11.589 24 16C24 20.411 20.411 24 16 24C11.589 24 8 20.411 8 16ZM19.334 20.333C19.504 20.333 19.675 20.268 19.805 20.138C20.065 19.878 20.065 19.456 19.807 19.195L16.669 16.057V12C16.669 11.631 16.37 11.333 16.002 11.333C15.634 11.333 15.335 11.632 15.335 12V16.334C15.335 16.511 15.405 16.68 15.53 16.805L18.863 20.138C18.993 20.268 19.163 20.333 19.334 20.333Z" fill="#BE63F9"/>
</svg>
