<svg width="32" height="32" viewBox="0 0 32 32" fill="none" xmlns="http://www.w3.org/2000/svg">
<path d="M26 32H6C2.686 32 0 29.314 0 26V6C0 2.686 2.686 0 6 0H26C29.314 0 32 2.686 32 6V26C32 29.314 29.314 32 26 32Z" fill="#E3F8FA"/>
<path d="M22 24H12C10.897 24 10 23.103 10 22V18.667C10 18.299 10.298 18 10.667 18C11.035 18 11.334 18.299 11.334 18.667V22C11.334 22.368 11.633 22.667 12.001 22.667H22.001C22.369 22.667 22.668 22.368 22.668 22V12C22.668 11.632 22.369 11.333 22.001 11.333H16.668C16.3 11.333 16.001 11.034 16.001 10.666C16.001 10.298 16.298 10 16.667 10H22C23.103 10 24 10.897 24 12V22C24 23.103 23.103 24 22 24Z" fill="#26C6DA"/>
<path d="M20.667 14.667C19.932 14.667 19.334 14.069 19.334 13.334C19.334 12.599 19.932 12 20.667 12C21.402 12 22 12.598 22 13.333C22 14.068 21.402 14.667 20.667 14.667Z" fill="#26C6DA"/>
<path d="M16.667 22C15.932 22 15.334 21.402 15.334 20.667C15.334 19.932 15.932 19.334 16.667 19.334C17.402 19.334 18 19.931 18 20.667C18 21.402 17.402 22 16.667 22Z" fill="#26C6DA"/>
<path fill-rule="evenodd" clip-rule="evenodd" d="M11.854 17.593L12.874 18.451C13.156 18.688 13.576 18.651 13.813 18.37C14.05 18.089 14.014 17.668 13.732 17.431L12.712 16.573C12.431 16.336 12.01 16.373 11.773 16.654C11.536 16.935 11.572 17.356 11.854 17.593ZM14.404 19.739L15.424 20.597C15.707 20.834 16.127 20.797 16.363 20.516C16.6 20.235 16.564 19.814 16.282 19.577L15.262 18.719C14.981 18.482 14.561 18.519 14.323 18.8C14.086 19.081 14.122 19.502 14.404 19.739Z" fill="#26C6DA"/>
<path fill-rule="evenodd" clip-rule="evenodd" d="M18.9881 15.059C18.8081 15.38 18.9231 15.786 19.2451 15.966C19.5641 16.145 19.9711 16.031 20.1521 15.709L20.8021 14.545C20.9821 14.224 20.8671 13.818 20.5451 13.638C20.2231 13.457 19.8181 13.574 19.6381 13.895L18.9881 15.059ZM17.3611 17.969C17.1811 18.29 17.2961 18.696 17.6181 18.876C17.9381 19.055 18.3451 18.941 18.5251 18.619L19.1751 17.455C19.3551 17.134 19.2401 16.728 18.9181 16.548C18.5961 16.367 18.1911 16.484 18.0111 16.805L17.3611 17.969Z" fill="#26C6DA"/>
<path fill-rule="evenodd" clip-rule="evenodd" d="M8 11.375C8 9.514 9.495 8 11.333 8C13.171 8 14.667 9.514 14.666 11.375C14.666 13.944 11.781 16.442 11.658 16.547C11.472 16.707 11.194 16.707 11.008 16.547C10.885 16.441 8 13.943 8 11.375ZM10 11.334C10 12.069 10.598 12.667 11.333 12.667C12.068 12.667 12.666 12.068 12.666 11.333C12.666 10.598 12.068 10 11.333 10C10.598 10 10 10.599 10 11.334Z" fill="#8CE1EB"/>
</svg>
