<svg width="16" height="22" viewBox="0 0 16 22" fill="none" xmlns="http://www.w3.org/2000/svg">
<path d="M15.4978 6.43677C14.7759 3.53638 12.3524 1.12593 9.34893 0.300795C8.84623 0.159133 8.34353 0.0688313 7.84066 0.0300587C6.22933 -0.111604 4.64385 0.249267 3.26449 1.0744C2.90362 1.29344 2.83916 1.78339 3.13558 2.0798L5.00472 3.94894L11.3211 13.9521C11.4371 14.1325 11.6434 14.2485 11.8626 14.2485H14.5696C14.8531 14.2485 15.0982 14.0681 15.1754 13.7973C15.5492 12.6113 15.9102 11.2578 15.9102 9.59497C15.9102 8.65402 15.7942 7.60985 15.4978 6.43677Z" fill="#979FEF"/>
<path d="M15.9102 9.59518C15.9102 11.258 15.5493 12.6116 15.1756 13.7976C15.0982 14.0683 14.8533 14.2487 14.5696 14.2487H11.8626C11.6436 14.2487 11.4371 14.1328 11.3213 13.9523L7.84082 8.43503V0.0302734C8.34352 0.069046 8.84622 0.159348 9.34892 0.30101C12.3525 1.12614 14.7759 3.53659 15.4978 6.43698C15.7942 7.61006 15.9102 8.65424 15.9102 9.59518Z" fill="#6B77E8"/>
<path d="M13.5384 18.3735L13.1001 17.7162C11.9915 16.0533 12.0946 14.9962 12.3524 14.184L12.5716 13.475C13.1517 11.6447 13.7059 9.90443 12.984 7.04265C12.4942 5.05752 10.754 3.33021 8.65287 2.75013C8.38214 2.67276 8.1114 2.62123 7.84066 2.58246C6.24226 2.3891 4.69538 2.91765 3.5223 4.10365L0.570385 7.05557C-0.190128 7.80333 -0.190128 9.04069 0.570385 9.78845L1.31814 10.5362C2.05297 11.2709 3.29034 11.3739 4.19268 10.4071C4.70831 9.8529 5.35284 9.33728 6.25518 9.65954C5.88139 10.2267 5.41729 10.7166 4.87599 11.129C3.09698 12.4569 2.04005 14.5709 2.04005 16.8009V18.7345C2.04005 19.0955 2.32354 19.379 2.68458 19.379H12.9971C13.5127 19.379 13.822 18.799 13.5384 18.3735Z" fill="#FDBF00"/>
<path d="M6.87381 5.28564C6.56547 5.10772 6.17137 5.2133 5.99328 5.52163C5.81537 5.8298 5.92094 6.22407 6.22928 6.40199C6.53744 6.57991 6.93171 6.47433 7.10963 6.16617C7.28755 5.85783 7.18197 5.46373 6.87381 5.28564Z" fill="#00607F"/>
<path d="M12.9968 19.3791H7.84058V2.58252C8.11148 2.62129 8.38205 2.67282 8.65279 2.7502C10.7539 3.33028 12.4941 5.05759 12.9841 7.04288C13.7058 9.9045 13.1516 11.6447 12.5715 13.4753L12.3525 14.1842C12.0947 14.9963 11.9914 16.0534 13.1001 17.7162L13.5383 18.3737C13.822 18.799 13.5126 19.3791 12.9968 19.3791Z" fill="#FF9F00"/>
<path d="M12.9968 18.0898H2.68433C1.61447 18.0898 0.750732 18.9534 0.750732 20.0234V21.3555C0.750732 21.7165 1.03439 22 1.39526 22H14.2859C14.6469 22 14.9304 21.7165 14.9304 21.3555V20.0234C14.9304 18.9534 14.0668 18.0898 12.9968 18.0898Z" fill="#979FEF"/>
<path d="M14.9304 20.0234V21.3555C14.9304 21.7165 14.6469 22 14.2859 22H7.84058V18.0898H12.9968C14.0668 18.0898 14.9304 18.9534 14.9304 20.0234Z" fill="#6B77E8"/>
</svg>
