<svg width="32" height="32" viewBox="0 0 32 32" fill="none" xmlns="http://www.w3.org/2000/svg">
<circle cx="16" cy="16" r="16" fill="url(#paint0_linear)"/>
<path fill-rule="evenodd" clip-rule="evenodd" d="M21.8372 14.4137L16.5551 11.2445V9.89338H18.2206C18.5275 9.89338 18.7757 9.64506 18.7757 9.33819V7.11762C18.7757 6.81075 18.5274 6.5625 18.2206 6.5625H16C15.6931 6.5625 15.4449 6.81081 15.4449 7.11762V11.2445L10.1628 14.4137C9.89989 14.5714 9.81477 14.9124 9.97252 15.1754C10.1303 15.4383 10.4708 15.5234 10.7342 15.3656L11.0036 15.2039V25.4375H13.2242V21.5514C13.2242 21.2446 13.4725 20.9963 13.7793 20.9963H18.2205C18.5274 20.9963 18.7756 21.2446 18.7756 21.5514V25.4375H20.9962V15.204L21.2656 15.3657C21.5279 15.5231 21.8693 15.4388 22.0273 15.1754C22.1853 14.9125 22.1001 14.5715 21.8372 14.4137ZM16 14.3346C16.9183 14.3346 17.6654 15.0816 17.6654 16C17.6654 16.9184 16.9183 17.6654 16 17.6654C15.0816 17.6654 14.3345 16.9184 14.3345 16C14.3345 15.0816 15.0816 14.3346 16 14.3346ZM13.7794 19.8861H18.2205C18.5274 19.8861 18.7757 19.6377 18.7757 19.3309C18.7757 19.0241 18.5274 18.7757 18.2205 18.7757H13.7794C13.4725 18.7757 13.2242 19.0241 13.2242 19.3309C13.2242 19.6377 13.4725 19.8861 13.7794 19.8861ZM15.9999 16.5551C16.3063 16.5551 16.5551 16.3063 16.5551 16C16.5551 15.6937 16.3063 15.4449 15.9999 15.4449C15.6936 15.4449 15.4448 15.6937 15.4448 16C15.4448 16.3063 15.6936 16.5551 15.9999 16.5551ZM17.6654 22.1066V25.4375H14.3345V22.1066H17.6654ZM23.772 19.8861H25.4374V18.2206C25.4374 17.9138 25.1891 17.6655 24.8823 17.6655H22.1066V25.4375H24.8823C25.1892 25.4375 25.4374 25.1892 25.4374 24.8824V23.2169H23.772C23.4651 23.2169 23.2169 22.9686 23.2169 22.6618C23.2169 22.3549 23.4652 22.1066 23.772 22.1066H25.4374V20.9963H23.772C23.4651 20.9963 23.2169 20.748 23.2169 20.4412C23.2169 20.1343 23.4651 19.8861 23.772 19.8861ZM6.5625 19.886V18.2206C6.5625 17.9137 6.81081 17.6654 7.11763 17.6654H9.89338V25.4374H7.11763C6.81081 25.4374 6.5625 25.1892 6.5625 24.8823V23.2169H8.22794C8.53475 23.2169 8.78306 22.9686 8.78306 22.6617C8.78306 22.3549 8.53481 22.1066 8.22794 22.1066H6.5625V20.9962H8.22794C8.53475 20.9962 8.78306 20.7479 8.78306 20.4411C8.78306 20.1343 8.53481 19.886 8.22794 19.886H6.5625Z" fill="url(#paint1_linear)"/>
<defs>
<linearGradient id="paint0_linear" x1="32" y1="32" x2="32" y2="0" gradientUnits="userSpaceOnUse">
<stop stop-color="#FFC8D1"/>
<stop offset="1" stop-color="#FFF6F7"/>
</linearGradient>
<linearGradient id="paint1_linear" x1="6.5625" y1="6.5625" x2="6.5625" y2="25.4375" gradientUnits="userSpaceOnUse">
<stop stop-color="#FD3A84"/>
<stop offset="1" stop-color="#FFA68D"/>
</linearGradient>
</defs>
</svg>
