<svg width="21" height="22" viewBox="0 0 21 22" fill="none" xmlns="http://www.w3.org/2000/svg">
<circle cx="10.4102" cy="17.8095" r="3.45295" fill="#5DC2A7"/>
<path d="M19.1913 15.1433C17.776 13.9134 16.9641 12.1147 16.9641 10.209V7.52505C16.9641 3.8081 14.0234 0.784668 10.4102 0.784668C6.79694 0.784668 3.85627 3.8081 3.85627 7.52505V10.209C3.85627 12.1147 3.04437 13.9134 1.62066 15.1507C1.25608 15.4723 1.04761 15.9395 1.04761 16.4319C1.04761 17.3611 1.78304 18.1165 2.68608 18.1165H18.1353C19.0384 18.1165 19.7738 17.3601 19.7738 16.4319C19.7738 15.9395 19.5643 15.4723 19.1913 15.1433V15.1433Z" fill="#FCF055"/>
<path d="M10.4762 22C8.31075 22 6.54761 20.2379 6.54761 18.0714C6.54761 17.6377 6.89961 17.2857 7.33332 17.2857C7.76704 17.2857 8.11904 17.6377 8.11904 18.0714C8.11904 19.3715 9.17713 20.4286 10.4762 20.4286C11.7752 20.4286 12.8333 19.3715 12.8333 18.0714C12.8333 17.6377 13.1853 17.2857 13.619 17.2857C14.0528 17.2857 14.4048 17.6377 14.4048 18.0714C14.4048 20.2379 12.6416 22 10.4762 22Z" fill="black"/>
<path d="M19.119 18.8571H1.83333C0.822381 18.8571 0 18.0348 0 17.0238C0 16.4874 0.233619 15.9793 0.641143 15.6305C0.667333 15.6074 0.695619 15.5865 0.724952 15.5676C2.26286 14.2256 3.14286 12.2949 3.14286 10.2562V7.33333C3.14286 3.28952 6.43343 0 10.4762 0C10.6438 0 10.825 0.00314286 10.9927 0.0314286C11.4211 0.102667 11.7103 0.508095 11.639 0.935524C11.5678 1.364 11.154 1.65 10.735 1.58086C10.6511 1.56829 10.559 1.57038 10.4762 1.57143C7.29981 1.57143 4.71429 4.15591 4.71429 7.33333V10.2562C4.71429 12.7872 3.60486 15.1821 1.67305 16.8258C1.65733 16.8384 1.64371 16.8499 1.62695 16.8614C1.59867 16.897 1.57143 16.9515 1.57143 17.0238C1.57143 17.1663 1.69086 17.2857 1.83333 17.2857H19.119C19.2615 17.2857 19.381 17.1663 19.381 17.0238C19.381 16.9505 19.3537 16.897 19.3244 16.8614C19.3087 16.8499 19.295 16.8384 19.2793 16.8258C17.3465 15.181 16.2381 12.7872 16.2381 10.2562V9.11429C16.2381 8.68057 16.5901 8.32857 17.0238 8.32857C17.4575 8.32857 17.8095 8.68057 17.8095 9.11429V10.2562C17.8095 12.2959 18.6906 14.2277 20.2306 15.5708C20.2589 15.5896 20.2861 15.6095 20.3112 15.6315C20.7188 15.9793 20.9524 16.4874 20.9524 17.0238C20.9524 18.0348 20.13 18.8571 19.119 18.8571V18.8571Z" fill="black"/>
</svg>
