<svg width="32" height="32" viewBox="0 0 32 32" fill="none" xmlns="http://www.w3.org/2000/svg">
<path d="M25 0H7C3.134 0 0 3.134 0 7V25C0 28.866 3.134 32 7 32H25C28.866 32 32 28.866 32 25V7C32 3.134 28.866 0 25 0Z" fill="#FF4B55"/>
<path d="M16.2854 9.16437L17.9207 14.0674L23.0891 14.1075C23.3781 14.1097 23.4979 14.4786 23.2655 14.6502L19.1077 17.7206L20.6667 22.6484C20.7538 22.9239 20.4401 23.1519 20.205 22.9838L16.0001 19.9784L11.7952 22.9839C11.5601 23.1519 11.2463 22.924 11.3335 22.6484L12.8925 17.7206L8.73472 14.6503C8.50222 14.4786 8.6221 14.1098 8.9111 14.1076L14.0795 14.0675L15.7148 9.16444C15.8062 8.89019 16.194 8.89019 16.2854 9.16437Z" fill="#FFE15A"/>
</svg>
