<svg width="22" height="22" viewBox="0 0 22 22" fill="none" xmlns="http://www.w3.org/2000/svg">
<path d="M22 22H0V6.21777H22V22Z" fill="#FFF4F4"/>
<path d="M11 6.21777H22V22H11V6.21777Z" fill="#F6EFEA"/>
<path fill-rule="evenodd" clip-rule="evenodd" d="M12.8371 15.1109C12.6778 15.3483 11.7655 16.6582 11.7655 16.6582L13.4127 19.0937C13.6121 19.3886 13.5347 19.7893 13.2398 19.9887C13.1292 20.0636 13.0036 20.0994 12.8793 20.0994C12.6725 20.0994 12.4694 20.0001 12.3448 19.8159L10.991 17.8141L9.64155 19.8282C9.51725 20.0138 9.31323 20.114 9.10552 20.114C8.9822 20.114 8.85755 20.0787 8.74737 20.0049C8.45166 19.8067 8.37256 19.4064 8.57069 19.1107L10.2116 16.6615C10.2116 16.6615 9.18338 15.1416 9.1628 15.1109C8.62693 14.3125 7.98816 13.1749 7.98816 12.2887C7.98816 10.6279 9.33927 9.27686 11 9.27686C12.6607 9.27686 14.0118 10.628 14.0118 12.2887C14.0118 13.1748 13.373 14.3125 12.8371 15.1109ZM12.7227 12.2887C12.7227 11.3388 11.9499 10.566 11 10.566C10.0501 10.566 9.27722 11.3388 9.27722 12.2887C9.27722 12.5885 9.49623 13.2497 10.111 14.2066C10.1694 14.2975 10.8145 15.1896 11 15.398C11.0875 15.2996 12.1852 13.7159 12.1852 13.7159C12.5759 13.0219 12.7227 12.5341 12.7227 12.2887Z" fill="#B760EA"/>
<path d="M22 7.39045H0V3.17969C0 2.82373 0.288578 2.53516 0.644531 2.53516H21.3555C21.7114 2.53516 22 2.82373 22 3.17969V7.39045Z" fill="#00429D"/>
<path d="M21.3555 2.53516H11V7.39045H22V3.17969C22 2.82373 21.7114 2.53516 21.3555 2.53516Z" fill="#00347B"/>
<path d="M6.48825 1.89095V2.53505H7.77731V1.89095C7.77731 1.32157 7.55421 0.816992 7.14906 0.470191C6.79857 0.170141 6.33498 0.00488281 5.84363 0.00488281C5.35232 0.00488281 4.88869 0.170141 4.53824 0.470191C4.13313 0.816992 3.91003 1.32157 3.91003 1.89095V4.16804C3.91003 4.52399 4.19861 4.81257 4.55457 4.81257C4.91052 4.81257 5.1991 4.52399 5.1991 4.16804V1.89095C5.1991 1.32269 5.73599 1.2939 5.84363 1.2939C6.02508 1.2939 6.19533 1.35058 6.31074 1.44941C6.43015 1.55163 6.48825 1.69609 6.48825 1.89095Z" fill="#FFD845"/>
<path d="M11.6446 1.89071V2.53507H12.9336V1.89071C12.9336 0.84816 12.0854 0 11.0429 0H10.9571C9.91457 0 9.06641 0.84816 9.06641 1.89071V4.16823C9.06641 4.52418 9.35498 4.81276 9.71094 4.81276C10.0669 4.81276 10.3555 4.52418 10.3555 4.16823V1.89071C10.3555 1.55895 10.6254 1.28906 10.9571 1.28906H11.0429C11.3746 1.28906 11.6446 1.55895 11.6446 1.89071Z" fill="#FFD845"/>
<path d="M16.8008 1.89071V2.53507H18.0899V1.89071C18.0899 0.84816 17.2417 0 16.1992 0H16.1134C15.0709 0 14.2227 0.84816 14.2227 1.89071V4.16801C14.2227 4.52396 14.5112 4.81254 14.8672 4.81254C15.2231 4.81254 15.5117 4.52396 15.5117 4.16801V1.89071C15.5117 1.55895 15.7816 1.28906 16.1134 1.28906H16.1992C16.5309 1.28906 16.8008 1.55895 16.8008 1.89071Z" fill="#FFB454"/>
<path d="M11.7656 16.6582C11.7656 16.6582 12.6778 15.3483 12.8372 15.1109C13.373 14.3125 14.0118 13.1748 14.0118 12.2887C14.0118 10.628 12.6607 9.27686 11 9.27686V10.5659C11.9499 10.5659 12.7227 11.3387 12.7227 12.2887C12.7227 12.5341 12.5759 13.0219 12.1853 13.7159C12.1853 13.7159 11.0875 15.2996 11 15.3979V17.8272L12.345 19.8159C12.4695 20.0001 12.6726 20.0994 12.8795 20.0994C13.0037 20.0994 13.1293 20.0636 13.24 19.9887C13.5348 19.7893 13.6122 19.3886 13.4128 19.0937L11.7656 16.6582Z" fill="#A24BDB"/>
<path d="M11.0428 0H11V1.28906H11.0429C11.3746 1.28906 11.6446 1.55895 11.6446 1.89071V2.53507H12.9336V1.89071C12.9336 0.84816 12.0854 0 11.0428 0V0Z" fill="#FFB454"/>
</svg>
