<svg width="60" height="60" viewBox="0 0 60 60" fill="none" xmlns="http://www.w3.org/2000/svg">
<circle cx="30" cy="30" r="30" fill="#FBA800"/>
<path d="M37.6055 29.3555H30.6445V22.3945C30.6445 22.0386 30.356 21.75 30 21.75C29.644 21.75 29.3555 22.0386 29.3555 22.3945V29.3555H22.3945C22.0386 29.3555 21.75 29.644 21.75 30C21.75 30.356 22.0386 30.6445 22.3945 30.6445H29.3555V37.6055C29.3555 37.9614 29.644 38.25 30 38.25C30.356 38.25 30.6445 37.9614 30.6445 37.6055V30.6445H37.6055C37.9614 30.6445 38.25 30.356 38.25 30C38.25 29.644 37.9614 29.3555 37.6055 29.3555Z" fill="white"/>
</svg>
