<svg width="24" height="24" viewBox="0 0 24 24" fill="none" xmlns="http://www.w3.org/2000/svg">
<circle cx="12" cy="12" r="12" fill="url(#paint0_linear)"/>
<path d="M17.5 11.4411C17.224 11.4411 17.0001 11.2172 17.0001 10.9411C17.0001 9.53863 16.454 8.22063 15.4625 7.22857C15.2671 7.0331 15.2671 6.71716 15.4625 6.5216C15.658 6.32613 15.974 6.32613 16.1695 6.5216C17.3501 7.70208 18 9.27166 18 10.9411C18 11.2172 17.7761 11.4411 17.5 11.4411Z" fill="white"/>
<path d="M7.49997 11.4411C7.22403 11.4411 7 11.2172 7 10.9411C7 9.27166 7.65002 7.70208 8.83051 6.5216C9.02597 6.32613 9.34201 6.32613 9.53748 6.5216C9.73303 6.71716 9.73303 7.0331 9.53748 7.22857C8.54596 8.22009 8.00003 9.53863 8.00003 10.9411C8.00003 11.2172 7.776 11.4411 7.49997 11.4411Z" fill="white"/>
<path d="M17.1896 14.4565C16.4335 13.8175 16 12.8835 16 11.894V10.5C16 8.74054 14.693 7.28403 13 7.04004V6.49997C13 6.22348 12.776 6 12.5001 6C12.224 6 12 6.22348 12 6.49997V7.04004C10.3065 7.28403 9 8.74054 9 10.5V11.894C9 12.8835 8.5665 13.8175 7.80606 14.4605C7.61151 14.627 7.5 14.869 7.5 15.125C7.5 15.6075 7.89249 16 8.37506 16H16.6251C17.1075 16 17.5 15.6075 17.5 15.125C17.5 14.869 17.3885 14.627 17.1896 14.4565Z" fill="white"/>
<path d="M12.5001 18C13.4055 18 14.1631 17.3545 14.3371 16.5H10.6631C10.837 17.3545 11.5945 18 12.5001 18Z" fill="white"/>
<defs>
<linearGradient id="paint0_linear" x1="0.0814263" y1="0" x2="0.0814263" y2="23.8371" gradientUnits="userSpaceOnUse">
<stop stop-color="#626262"/>
<stop offset="1" stop-color="#141414"/>
</linearGradient>
</defs>
</svg>
