<svg width="18" height="16" viewBox="0 0 18 16" fill="none" xmlns="http://www.w3.org/2000/svg">
<path fill-rule="evenodd" clip-rule="evenodd" d="M14.9271 1.39943H16.0513C17.0776 1.39943 17.9125 2.2624 17.9079 3.28864V14.1388C17.9079 15.165 17.0776 16 16.0466 16H1.86122C0.830321 16 0 15.165 0 14.1341V3.28864C0 2.2624 0.834985 1.39943 1.86122 1.39943H2.93878V0.508464C2.93878 0.251905 3.14869 0.0419922 3.40525 0.0419922C3.66181 0.0419922 3.87172 0.251905 3.87172 0.508464V1.39943H8.4898V0.508464C8.4898 0.251905 8.69971 0.0419922 8.95627 0.0419922C9.21283 0.0419922 9.42274 0.251905 9.42274 0.508464V1.39943H13.9942V0.508464C13.9942 0.251905 14.2041 0.0419922 14.4606 0.0419922C14.7172 0.0419922 14.9271 0.251905 14.9271 0.508464V1.39943ZM16.056 15.0671C16.5691 15.0624 16.9796 14.6472 16.9796 14.1341V3.28864C16.9796 2.77552 16.5691 2.33237 16.0513 2.33237H14.9271V3.00876C14.9271 3.26532 14.7172 3.47523 14.4606 3.47523C14.2041 3.47523 13.9942 3.26532 13.9942 3.00876V2.33237H9.42274V3.00876C9.42274 3.26532 9.21283 3.47523 8.95627 3.47523C8.69971 3.47523 8.4898 3.26532 8.4898 3.00876V2.33237H3.87172V3.00876C3.87172 3.26532 3.66181 3.47523 3.40525 3.47523C3.14869 3.47523 2.93878 3.26532 2.93878 3.00876V2.33237H1.86122C1.3481 2.33237 0.932945 2.77086 0.932945 3.28864V14.1341V14.1388C0.932945 14.6519 1.3481 15.0671 1.86122 15.0671H16.0513H16.056Z" fill="#0F1049"/>
<path d="M7.72933 5.36444H6.91301C6.65645 5.36444 6.44653 5.57435 6.44653 5.83091C6.44653 6.08747 6.65645 6.29739 6.91301 6.29739H7.72933C7.98589 6.29739 8.1958 6.08747 8.1958 5.83091C8.1958 5.57435 7.98589 5.36444 7.72933 5.36444Z" fill="#0F1049"/>
<path d="M10.9762 5.36444H10.1598C9.90327 5.36444 9.69336 5.57435 9.69336 5.83091C9.69336 6.08747 9.90327 6.29739 10.1598 6.29739H10.9762C11.2327 6.29739 11.4426 6.08747 11.4426 5.83091C11.4426 5.57435 11.2374 5.36444 10.9762 5.36444Z" fill="#0F1049"/>
<path d="M14.2508 5.36444H13.4345C13.1779 5.36444 12.968 5.57435 12.968 5.83091C12.968 6.08747 13.1779 6.29739 13.4345 6.29739H14.2508C14.5074 6.29739 14.7173 6.08747 14.7173 5.83091C14.7173 5.57435 14.5074 5.36444 14.2508 5.36444Z" fill="#0F1049"/>
<path d="M7.72933 8.58307H6.91301C6.65645 8.58307 6.44653 8.79298 6.44653 9.04954C6.44653 9.3061 6.65645 9.51601 6.91301 9.51601H7.72933C7.98589 9.51601 8.1958 9.3061 8.1958 9.04954C8.1958 8.79298 7.98589 8.58307 7.72933 8.58307Z" fill="#0F1049"/>
<path d="M4.45958 8.58307H3.63859C3.38203 8.58307 3.17212 8.79298 3.17212 9.04954C3.17212 9.3061 3.38203 9.51601 3.63859 9.51601H4.45492C4.71148 9.51601 4.92139 9.3061 4.92139 9.04954C4.92139 8.79298 4.71614 8.58307 4.45958 8.58307Z" fill="#0F1049"/>
<path d="M10.9762 8.58307H10.1598C9.90327 8.58307 9.69336 8.79298 9.69336 9.04954C9.69336 9.3061 9.90327 9.51601 10.1598 9.51601H10.9762C11.2327 9.51601 11.4426 9.3061 11.4426 9.04954C11.4426 8.79298 11.2374 8.58307 10.9762 8.58307Z" fill="#0F1049"/>
<path d="M14.2508 8.58307H13.4345C13.1779 8.58307 12.968 8.79298 12.968 9.04954C12.968 9.3061 13.1779 9.51601 13.4345 9.51601H14.2508C14.5074 9.51601 14.7173 9.3061 14.7173 9.04954C14.7173 8.79298 14.5074 8.58307 14.2508 8.58307Z" fill="#0F1049"/>
<path d="M7.72933 11.7551H6.91301C6.65645 11.7551 6.44653 11.965 6.44653 12.2216C6.44653 12.4782 6.65645 12.6881 6.91301 12.6881H7.72933C7.98589 12.6881 8.1958 12.4782 8.1958 12.2216C8.1958 11.965 7.98589 11.7551 7.72933 11.7551Z" fill="#0F1049"/>
<path d="M4.45958 11.7551H3.63859C3.38203 11.7551 3.17212 11.965 3.17212 12.2216C3.17212 12.4782 3.38203 12.6881 3.63859 12.6881H4.45492C4.71148 12.6881 4.92139 12.4782 4.92139 12.2216C4.92139 11.965 4.71614 11.7551 4.45958 11.7551Z" fill="#0F1049"/>
<path d="M10.9762 11.7551H10.1598C9.90327 11.7551 9.69336 11.965 9.69336 12.2216C9.69336 12.4782 9.90327 12.6881 10.1598 12.6881H10.9762C11.2327 12.6881 11.4426 12.4782 11.4426 12.2216C11.4426 11.965 11.2374 11.7551 10.9762 11.7551Z" fill="#0F1049"/>
</svg>
