<svg width="22" height="20" viewBox="0 0 22 20" fill="none" xmlns="http://www.w3.org/2000/svg">
<path d="M21.6451 5.67739V14.9032C21.6451 15.8831 20.8508 16.6774 19.8709 16.6774H19.5161V19.5161L16.6773 16.6774H7.0967C6.62616 16.6774 6.17488 16.4905 5.84216 16.1577C5.50943 15.825 5.32251 15.3737 5.32251 14.9032V13.129H14.9032C15.3737 13.129 15.825 12.9421 16.1577 12.6094C16.4904 12.2766 16.6773 11.8254 16.6773 11.3548V3.9032H19.8709C20.8508 3.9032 21.6451 4.69753 21.6451 5.67739V5.67739Z" fill="#5DC2A7"/>
<circle cx="4.96773" cy="6.38705" r="0.709677" fill="#57A4FF"/>
<circle cx="8.51607" cy="6.38705" r="0.709677" fill="#57A4FF"/>
<circle cx="12.0644" cy="6.38705" r="0.709677" fill="#57A4FF"/>
<circle cx="8.51607" cy="6.38705" r="0.709677" fill="black"/>
<circle cx="4.96773" cy="6.38705" r="0.709677" fill="black"/>
<circle cx="12.0644" cy="6.38705" r="0.709677" fill="black"/>
<path fill-rule="evenodd" clip-rule="evenodd" d="M19.871 3.54839H17.0323V2.12903C17.031 0.953717 16.0785 0.00124679 14.9032 0H2.12903C0.953717 0.00124679 0.00124679 0.953717 0 2.12903V11.3548C0.00124679 12.5302 0.953717 13.4826 2.12903 13.4839V15.9677C2.12892 16.1113 2.21537 16.2409 2.34804 16.2958C2.48071 16.3508 2.63343 16.3204 2.73492 16.2188L4.96774 13.9855V14.9032C4.96899 16.0785 5.92146 17.031 7.09677 17.0323H16.5306L19.2651 19.7672C19.3666 19.8688 19.5193 19.8992 19.652 19.8442C19.7846 19.7892 19.8711 19.6597 19.871 19.5161V17.0323C21.0463 17.031 21.9988 16.0785 22 14.9032V5.67742C21.9988 4.5021 21.0463 3.54963 19.871 3.54839ZM5.32258 12.7742C5.22845 12.7742 5.13816 12.8115 5.07153 12.878L2.83871 15.1112V13.129C2.83871 12.9331 2.67984 12.7742 2.48387 12.7742H2.12903C1.34551 12.7733 0.710557 12.1384 0.709677 11.3548V2.12903C0.710557 1.34551 1.34551 0.710557 2.12903 0.709677H14.9032C15.6867 0.710557 16.3217 1.34551 16.3226 2.12903V11.3548C16.3217 12.1384 15.6867 12.7733 14.9032 12.7742H5.32258ZM19.871 16.3226C20.6545 16.3217 21.2894 15.6867 21.2903 14.9032V5.67742C21.2894 4.8939 20.6545 4.25894 19.871 4.25806H17.0323V11.3548C17.031 12.5302 16.0785 13.4826 14.9032 13.4839H5.67742V14.9032C5.6783 15.6867 6.31325 16.3217 7.09677 16.3226H16.6774C16.7715 16.3225 16.8618 16.3599 16.9285 16.4264L19.1613 18.6596V16.6774C19.1613 16.4814 19.3202 16.3226 19.5161 16.3226H19.871Z" fill="black"/>
<path fill-rule="evenodd" clip-rule="evenodd" d="M9.49966 6.79443C9.33489 7.19221 8.94673 7.45157 8.51618 7.45157C7.92853 7.45091 7.45232 6.9747 7.45166 6.38706C7.45166 5.9565 7.71102 5.56834 8.1088 5.40357C8.50659 5.23881 8.96445 5.32988 9.2689 5.63433C9.57335 5.93878 9.66443 6.39665 9.49966 6.79443ZM8.87101 6.38706C8.87101 6.19108 8.71215 6.03222 8.51618 6.03222C8.3203 6.03244 8.16156 6.19118 8.16134 6.38706C8.16134 6.58303 8.3202 6.7419 8.51618 6.7419C8.71215 6.7419 8.87101 6.58303 8.87101 6.38706Z" fill="black"/>
<path fill-rule="evenodd" clip-rule="evenodd" d="M5.95132 6.79443C5.78655 7.19221 5.39839 7.45157 4.96784 7.45157C4.38019 7.45091 3.90398 6.9747 3.90332 6.38706C3.90332 5.9565 4.16268 5.56834 4.56046 5.40357C4.95825 5.23881 5.41611 5.32988 5.72056 5.63433C6.02501 5.93878 6.11609 6.39665 5.95132 6.79443ZM5.32268 6.38706C5.32268 6.19108 5.16381 6.03222 4.96784 6.03222C4.77196 6.03244 4.61322 6.19118 4.613 6.38706C4.613 6.58303 4.77186 6.7419 4.96784 6.7419C5.16381 6.7419 5.32268 6.58303 5.32268 6.38706Z" fill="black"/>
<path fill-rule="evenodd" clip-rule="evenodd" d="M13.048 6.79443C12.8832 7.19221 12.4951 7.45157 12.0645 7.45157C11.4769 7.45091 11.0007 6.9747 11 6.38706C11 5.9565 11.2594 5.56834 11.6571 5.40357C12.0549 5.23881 12.5128 5.32988 12.8172 5.63433C13.1217 5.93878 13.2128 6.39665 13.048 6.79443ZM12.4194 6.38706C12.4194 6.19108 12.2605 6.03222 12.0645 6.03222C11.8686 6.03244 11.7099 6.19118 11.7097 6.38706C11.7097 6.58303 11.8685 6.7419 12.0645 6.7419C12.2605 6.7419 12.4194 6.58303 12.4194 6.38706Z" fill="black"/>
</svg>
