<svg width="22" height="22" viewBox="0 0 22 22" fill="none" xmlns="http://www.w3.org/2000/svg">
<path fill-rule="evenodd" clip-rule="evenodd" d="M3.21611 3.21701C7.50611 -1.07209 14.4829 -1.07209 18.7729 3.21701C23.062 7.5061 23.062 14.4847 18.7729 18.7738C16.6279 20.9178 13.8119 21.9894 10.995 21.9894C8.17802 21.9894 5.36111 20.9179 3.21611 18.7738C-1.07204 14.4847 -1.07204 7.5061 3.21611 3.21701ZM15.5315 15.5324C15.8899 15.174 15.8899 14.5947 15.5315 14.2363L12.291 10.9949L15.5314 7.75451C15.8898 7.3961 15.8898 6.81585 15.5314 6.45835C15.173 6.09995 14.5937 6.09995 14.2353 6.45835L10.9949 9.69876L7.75447 6.45835C7.39607 6.09995 6.81582 6.09995 6.45832 6.45835C6.09992 6.81585 6.09992 7.3961 6.45832 7.75451L9.69872 10.9949L6.45922 14.2353C6.10082 14.5928 6.10082 15.1731 6.45922 15.5315C6.63797 15.7102 6.87267 15.8001 7.10732 15.8001C7.34107 15.8001 7.57577 15.7102 7.75542 15.5315L10.9949 12.2911L14.2353 15.5324C14.4141 15.7112 14.6488 15.801 14.8834 15.801C15.1181 15.801 15.3528 15.7112 15.5315 15.5324Z" fill="white"/>
</svg>
