<svg width="22" height="22" viewBox="0 0 22 22" fill="none" xmlns="http://www.w3.org/2000/svg">
<circle cx="11" cy="11" r="11" fill="url(#paint0_linear)"/>
<path fill-rule="evenodd" clip-rule="evenodd" d="M4.89342 9.85501H5.65676V4.89337C5.65676 4.68256 5.48587 4.51172 5.27511 4.51172H4.89346C4.6827 4.51172 4.51181 4.68256 4.51181 4.89337V9.47332C4.51177 9.68413 4.68266 9.85501 4.89342 9.85501ZM11.3816 10.6183H17.1066C17.3176 10.6183 17.4883 10.789 17.4883 11C17.4883 11.2109 17.3176 11.3816 17.1066 11.3816H11.3817V16.1852L11.4935 16.0734C11.6426 15.9243 11.8841 15.9243 12.0332 16.0734C12.1822 16.2225 12.1822 16.464 12.0332 16.6131L11.2703 17.376C11.1987 17.4478 11.099 17.4883 11 17.4883C10.901 17.4883 10.8013 17.4478 10.7297 17.376L9.96682 16.6131C9.81776 16.4641 9.81776 16.2225 9.96682 16.0734C10.1159 15.9243 10.3574 15.9243 10.5065 16.0734L10.6183 16.1852V11.3816H4.89337C4.68243 11.3816 4.51172 11.211 4.51172 11C4.51172 10.7891 4.68239 10.6183 4.89337 10.6183H10.6183V5.81474L10.5065 5.92654C10.3574 6.07565 10.1159 6.07565 9.96677 5.92654C9.81772 5.77749 9.81772 5.53596 9.96677 5.38686L10.7296 4.62399C10.8793 4.47394 11.123 4.47626 11.2703 4.62399L12.0331 5.38686C12.1822 5.53596 12.1822 5.77744 12.0331 5.92654C11.8841 6.07565 11.6426 6.07565 11.4935 5.92654L11.3816 5.81474V10.6183ZM15.58 9.09168H15.9617V9.47333C15.9617 9.6843 16.1324 9.85497 16.3433 9.85497C16.5543 9.85497 16.725 9.68426 16.725 9.47333V9.09168H17.1066C17.3176 9.09168 17.4883 8.92096 17.4883 8.71003C17.4883 8.49905 17.3176 8.32838 17.1066 8.32838H16.725V7.94673C16.725 7.73575 16.5543 7.56508 16.3433 7.56508C16.1324 7.56508 15.9617 7.7358 15.9617 7.94673V8.32838H15.58C15.3691 8.32838 15.1984 8.4991 15.1984 8.71003C15.1984 8.92096 15.3691 9.09168 15.58 9.09168ZM6.4201 12.145H4.89346C4.68248 12.145 4.51181 12.3157 4.51181 12.5266C4.51181 12.7376 4.68253 12.9083 4.89346 12.9083H6.4201C6.63107 12.9083 6.80179 12.7376 6.80179 12.5266C6.80179 12.3157 6.63103 12.145 6.4201 12.145ZM7.18341 6.0384C7.39418 6.0384 7.56506 6.20924 7.56506 6.42005V9.85501H6.42007V6.42005C6.42007 6.20924 6.591 6.0384 6.80177 6.0384H7.18341ZM9.47342 9.47337V7.94673C9.47342 7.73593 9.30253 7.56508 9.09177 7.56508H8.71008C8.49932 7.56508 8.32843 7.73593 8.32843 7.94673V9.85506H9.09177C9.30249 9.85502 9.47342 9.68413 9.47342 9.47337ZM16.3432 12.145H17.1066C17.3173 12.145 17.4882 12.3158 17.4882 12.5266V17.1066C17.4882 17.3174 17.3173 17.4883 17.1065 17.4883H16.7249C16.5141 17.4883 16.3432 17.3174 16.3432 17.1066V12.145ZM14.4349 15.5799C14.4349 15.7907 14.6058 15.9616 14.8165 15.9616H15.1982C15.4089 15.9616 15.5799 15.7907 15.5799 15.5799V12.145H14.4349V15.5799ZM12.5265 14.0533V12.5266C12.5265 12.3158 12.6975 12.145 12.9082 12.145H13.6715V14.0533C13.6715 14.264 13.5006 14.4349 13.2899 14.4349H12.9082C12.6974 14.4349 12.5265 14.264 12.5265 14.0533Z" fill="url(#paint1_linear)"/>
<defs>
<linearGradient id="paint0_linear" x1="22" y1="22" x2="22" y2="0" gradientUnits="userSpaceOnUse">
<stop stop-color="#ADDCFF"/>
<stop offset="0.5028" stop-color="#EAF6FF"/>
<stop offset="1" stop-color="#EAF6FF"/>
</linearGradient>
<linearGradient id="paint1_linear" x1="4.51172" y1="4.51172" x2="4.51172" y2="17.4883" gradientUnits="userSpaceOnUse">
<stop stop-color="#5558FF"/>
<stop offset="1" stop-color="#00C0FF"/>
</linearGradient>
</defs>
</svg>
