<svg width="112" height="112" viewBox="0 0 112 112" fill="none" xmlns="http://www.w3.org/2000/svg">
<path d="M64.75 62.5625C65.9574 62.5625 66.9375 61.5824 66.9375 60.375C66.9375 59.1676 65.9574 58.1875 64.75 58.1875C63.5426 58.1875 62.5625 59.1676 62.5625 60.375C62.5625 61.5824 63.5426 62.5625 64.75 62.5625Z" fill="white"/>
<path d="M16.625 62.5625C17.8324 62.5625 18.8125 61.5824 18.8125 60.375C18.8125 59.1676 17.8324 58.1875 16.625 58.1875C15.4176 58.1875 14.4375 59.1676 14.4375 60.375C14.4375 61.5824 15.4176 62.5625 16.625 62.5625Z" fill="white"/>
<path d="M2.1875 27.5625C3.39575 27.5625 4.375 26.5833 4.375 25.375V4.375H25.375C26.5833 4.375 27.5625 3.39575 27.5625 2.1875C27.5625 0.979248 26.5833 0 25.375 0H2.1875C0.979248 0 0 0.979248 0 2.1875V25.375C0 26.5833 0.979248 27.5625 2.1875 27.5625Z" fill="white"/>
<path d="M27.5625 109.812C27.5625 108.604 26.5833 107.625 25.375 107.625H4.375V86.625C4.375 85.4167 3.39575 84.4375 2.1875 84.4375C0.979248 84.4375 0 85.4167 0 86.625V109.812C0 111.021 0.979248 112 2.1875 112H25.375C26.5833 112 27.5625 111.021 27.5625 109.812Z" fill="white"/>
<path d="M109.812 84.4375C108.604 84.4375 107.625 85.4167 107.625 86.625V107.625H86.625C85.4167 107.625 84.4375 108.604 84.4375 109.812C84.4375 111.021 85.4167 112 86.625 112H109.812C111.021 112 112 111.021 112 109.812V86.625C112 85.4167 111.021 84.4375 109.812 84.4375Z" fill="white"/>
<path d="M109.812 0H86.625C85.4167 0 84.4375 0.979248 84.4375 2.1875C84.4375 3.39575 85.4167 4.375 86.625 4.375H107.625V25.375C107.625 26.5833 108.604 27.5625 109.812 27.5625C111.021 27.5625 112 26.5833 112 25.375V2.1875C112 0.979248 111.021 0 109.812 0Z" fill="white"/>
<path fill-rule="evenodd" clip-rule="evenodd" d="M16.625 97.5625C15.4167 97.5625 14.4375 96.5833 14.4375 95.375V73.5C14.4375 72.2917 15.4167 71.3125 16.625 71.3125H38.5C39.7083 71.3125 40.6875 72.2917 40.6875 73.5V95.375C40.6875 96.5833 39.7083 97.5625 38.5 97.5625H16.625ZM36.3125 75.6875H18.8125V93.1875H36.3125V75.6875Z" fill="white"/>
<path fill-rule="evenodd" clip-rule="evenodd" d="M16.625 14.4375H38.5C39.7083 14.4375 40.6875 15.4167 40.6875 16.625V38.5C40.6875 39.7083 39.7083 40.6875 38.5 40.6875H16.625C15.4167 40.6875 14.4375 39.7083 14.4375 38.5V16.625C14.4375 15.4167 15.4167 14.4375 16.625 14.4375ZM18.8125 36.3125H36.3125V18.8125H18.8125V36.3125Z" fill="white"/>
<path fill-rule="evenodd" clip-rule="evenodd" d="M95.375 14.4375C96.5833 14.4375 97.5625 15.4167 97.5625 16.625V38.5C97.5625 39.7083 96.5833 40.6875 95.375 40.6875H73.5C72.2917 40.6875 71.3125 39.7083 71.3125 38.5V16.625C71.3125 15.4167 72.2917 14.4375 73.5 14.4375H95.375ZM75.6875 36.3125H93.1875V18.8125H75.6875V36.3125Z" fill="white"/>
<path fill-rule="evenodd" clip-rule="evenodd" d="M97.5625 73.5V95.375C97.5625 96.5833 96.5833 97.5625 95.375 97.5625H73.5C72.2917 97.5625 71.3125 96.5833 71.3125 95.375V73.5C71.3125 72.2917 72.2917 71.3125 73.5 71.3125H95.375C96.5833 71.3125 97.5625 72.2917 97.5625 73.5ZM75.6875 93.1875H93.1875V75.6875H75.6875V93.1875Z" fill="white"/>
<path d="M29.75 80.0625H25.375C24.1667 80.0625 23.1875 81.0417 23.1875 82.25V86.625C23.1875 87.8333 24.1667 88.8125 25.375 88.8125H29.75C30.9583 88.8125 31.9375 87.8333 31.9375 86.625V82.25C31.9375 81.0417 30.9583 80.0625 29.75 80.0625Z" fill="white"/>
<path d="M25.375 31.9375H29.75C30.9583 31.9375 31.9375 30.9583 31.9375 29.75V25.375C31.9375 24.1667 30.9583 23.1875 29.75 23.1875H25.375C24.1667 23.1875 23.1875 24.1667 23.1875 25.375V29.75C23.1875 30.9583 24.1667 31.9375 25.375 31.9375Z" fill="white"/>
<path d="M82.25 31.9375H86.625C87.8333 31.9375 88.8125 30.9583 88.8125 29.75V25.375C88.8125 24.1667 87.8333 23.1875 86.625 23.1875H82.25C81.0417 23.1875 80.0625 24.1667 80.0625 25.375V29.75C80.0625 30.9583 81.0417 31.9375 82.25 31.9375Z" fill="white"/>
<path d="M82.25 88.8125H86.625C87.8333 88.8125 88.8125 87.8333 88.8125 86.625V82.25C88.8125 81.0417 87.8333 80.0625 86.625 80.0625H82.25C81.0417 80.0625 80.0625 81.0417 80.0625 82.25V86.625C80.0625 87.8333 81.0417 88.8125 82.25 88.8125Z" fill="white"/>
<path d="M23.1875 60.375C23.1875 61.5833 24.1667 62.5625 25.375 62.5625H53.8125V73.5C53.8125 74.7083 54.7917 75.6875 56 75.6875C57.2083 75.6875 58.1875 74.7083 58.1875 73.5V60.375C58.1875 59.1667 57.2083 58.1875 56 58.1875H25.375C24.1667 58.1875 23.1875 59.1667 23.1875 60.375Z" fill="white"/>
<path d="M38.5 53.8125C39.7083 53.8125 40.6875 52.8333 40.6875 51.625C40.6875 50.4167 39.7083 49.4375 38.5 49.4375H16.625C15.4167 49.4375 14.4375 50.4167 14.4375 51.625C14.4375 52.8333 15.4167 53.8125 16.625 53.8125H38.5Z" fill="white"/>
<path d="M47.25 53.8125H56C57.2083 53.8125 58.1875 52.8333 58.1875 51.625C58.1875 50.4167 57.2083 49.4375 56 49.4375H47.25C46.0417 49.4375 45.0625 50.4167 45.0625 51.625C45.0625 52.8333 46.0417 53.8125 47.25 53.8125Z" fill="white"/>
<path d="M47.25 14.4375C46.0417 14.4375 45.0625 15.4167 45.0625 16.625V38.5C45.0625 39.7083 46.0417 40.6875 47.25 40.6875H62.5625V51.625C62.5625 52.8333 63.5417 53.8125 64.75 53.8125H73.5C74.7083 53.8125 75.6875 52.8333 75.6875 51.625C75.6875 50.4167 74.7083 49.4375 73.5 49.4375H66.9375V38.5C66.9375 37.2917 65.9583 36.3125 64.75 36.3125H49.4375V16.625C49.4375 15.4167 48.4583 14.4375 47.25 14.4375Z" fill="white"/>
<path d="M95.375 49.4375H82.25C81.0417 49.4375 80.0625 50.4167 80.0625 51.625C80.0625 52.8333 81.0417 53.8125 82.25 53.8125H95.375C96.5833 53.8125 97.5625 52.8333 97.5625 51.625C97.5625 50.4167 96.5833 49.4375 95.375 49.4375Z" fill="white"/>
<path d="M95.375 58.1875H73.5C72.2917 58.1875 71.3125 59.1667 71.3125 60.375C71.3125 61.5833 72.2917 62.5625 73.5 62.5625H95.375C96.5833 62.5625 97.5625 61.5833 97.5625 60.375C97.5625 59.1667 96.5833 58.1875 95.375 58.1875Z" fill="white"/>
<path d="M56 80.0625H47.25C46.0417 80.0625 45.0625 81.0417 45.0625 82.25V95.375C45.0625 96.5833 46.0417 97.5625 47.25 97.5625C48.4583 97.5625 49.4375 96.5833 49.4375 95.375V84.4375H56C57.2083 84.4375 58.1875 83.4583 58.1875 82.25C58.1875 81.0417 57.2083 80.0625 56 80.0625Z" fill="white"/>
<path d="M62.5625 93.1875H56C54.7917 93.1875 53.8125 94.1667 53.8125 95.375C53.8125 96.5833 54.7917 97.5625 56 97.5625H64.75C65.9583 97.5625 66.9375 96.5833 66.9375 95.375V69.125C66.9375 67.9167 65.9583 66.9375 64.75 66.9375C63.5417 66.9375 62.5625 67.9167 62.5625 69.125V93.1875Z" fill="white"/>
<path d="M64.75 31.9375C65.9583 31.9375 66.9375 30.9583 66.9375 29.75V16.625C66.9375 15.4167 65.9583 14.4375 64.75 14.4375C63.5417 14.4375 62.5625 15.4167 62.5625 16.625V27.5625H56C54.7917 27.5625 53.8125 28.5417 53.8125 29.75C53.8125 30.9583 54.7917 31.9375 56 31.9375H64.75Z" fill="white"/>
</svg>
