<svg width="16" height="16" viewBox="0 0 16 16" fill="none" xmlns="http://www.w3.org/2000/svg">
<path d="M15.6667 15.3334H0.333333C0.149333 15.3334 0 15.1841 0 15.0001C0 14.8161 0.149333 14.6667 0.333333 14.6667H15.6667C15.8507 14.6667 16 14.8161 16 15.0001C16 15.1841 15.8507 15.3334 15.6667 15.3334Z" fill="black"/>
<path fill-rule="evenodd" clip-rule="evenodd" d="M0.666626 8C0.666626 9.10267 1.56396 10 2.66663 10C3.76929 10 4.66663 9.10267 4.66663 8C4.66663 6.89733 3.76929 6 2.66663 6C1.56396 6 0.666626 6.89733 0.666626 8ZM1.33329 8C1.33329 7.26467 1.93129 6.66667 2.66663 6.66667C3.40196 6.66667 3.99996 7.26467 3.99996 8C3.99996 8.73533 3.40196 9.33333 2.66663 9.33333C1.93129 9.33333 1.33329 8.73533 1.33329 8Z" fill="black"/>
<path fill-rule="evenodd" clip-rule="evenodd" d="M6 3.33325C6 4.43592 6.89733 5.33325 8 5.33325C9.10267 5.33325 10 4.43592 10 3.33325C10 2.23059 9.10267 1.33325 8 1.33325C6.89733 1.33325 6 2.23059 6 3.33325ZM6.66667 3.33325C6.66667 2.59792 7.26467 1.99992 8 1.99992C8.73533 1.99992 9.33333 2.59792 9.33333 3.33325C9.33333 4.06859 8.73533 4.66659 8 4.66659C7.26467 4.66659 6.66667 4.06859 6.66667 3.33325Z" fill="black"/>
<path fill-rule="evenodd" clip-rule="evenodd" d="M11.3334 2C11.3334 3.10267 12.2307 4 13.3334 4C14.436 4 15.3334 3.10267 15.3334 2C15.3334 0.897333 14.436 0 13.3334 0C12.2307 0 11.3334 0.897333 11.3334 2ZM12 2C12 1.26467 12.598 0.666667 13.3334 0.666667C14.0687 0.666667 14.6667 1.26467 14.6667 2C14.6667 2.73533 14.0687 3.33333 13.3334 3.33333C12.598 3.33333 12 2.73533 12 2Z" fill="black"/>
<path d="M13.3333 15.3333C13.1493 15.3333 13 15.1839 13 14.9999V5.66659C13 5.48259 13.1493 5.33325 13.3333 5.33325C13.5173 5.33325 13.6667 5.48259 13.6667 5.66659V14.9999C13.6667 15.1839 13.5173 15.3333 13.3333 15.3333Z" fill="black"/>
<path d="M7.99996 15.3334C7.81596 15.3334 7.66663 15.1841 7.66663 15.0001V7.00008C7.66663 6.81608 7.81596 6.66675 7.99996 6.66675C8.18396 6.66675 8.33329 6.81608 8.33329 7.00008V15.0001C8.33329 15.1841 8.18396 15.3334 7.99996 15.3334Z" fill="black"/>
<path d="M2.66671 15.3333C2.48271 15.3333 2.33337 15.1839 2.33337 14.9999V11.6666C2.33337 11.4826 2.48271 11.3333 2.66671 11.3333C2.85071 11.3333 3.00004 11.4826 3.00004 11.6666V14.9999C3.00004 15.1839 2.85071 15.3333 2.66671 15.3333Z" fill="black"/>
<path d="M3.92004 7.23325C3.82671 7.23325 3.73471 7.19458 3.66871 7.11925C3.54738 6.98058 3.56204 6.76992 3.70071 6.64858L6.52738 4.18258C6.66538 4.06192 6.87671 4.07525 6.99804 4.21458C7.11938 4.35325 7.10471 4.56392 6.96604 4.68525L4.13938 7.15125C4.07604 7.20592 3.99804 7.23325 3.92004 7.23325Z" fill="black"/>
<path d="M9.61334 3.25989C9.46334 3.25989 9.32668 3.15856 9.29001 3.00656C9.24601 2.82723 9.35534 2.64723 9.53334 2.60323L11.64 2.08389C11.8227 2.03723 12 2.14856 12.0433 2.32656C12.0873 2.50589 11.978 2.68589 11.8 2.72989L9.69334 3.24923C9.66601 3.25656 9.63934 3.25989 9.61334 3.25989Z" fill="black"/>
</svg>
