<svg width="15" height="16" viewBox="0 0 15 16" fill="none" xmlns="http://www.w3.org/2000/svg">
<path d="M3.66667 16H1.66667C0.748 16 0 15.2527 0 14.3333V1.66667C0 0.747333 0.748 0 1.66667 0H10.3333C11.252 0 12 0.747333 12 1.66667V10.3333C12 10.5173 11.8507 10.6667 11.6667 10.6667C11.4827 10.6667 11.3333 10.5173 11.3333 10.3333V1.66667C11.3333 1.11533 10.8847 0.666667 10.3333 0.666667H1.66667C1.11533 0.666667 0.666667 1.11533 0.666667 1.66667V14.3333C0.666667 14.8847 1.11533 15.3333 1.66667 15.3333H3.66667C3.85067 15.3333 4 15.4827 4 15.6667C4 15.8507 3.85067 16 3.66667 16Z" fill="black"/>
<path d="M7.66671 16C7.48271 16 7.33337 15.8507 7.33337 15.6667V13.3333C7.33337 12.9653 7.03404 12.6667 6.66671 12.6667C6.29937 12.6667 6.00004 12.9653 6.00004 13.3333V15.6667C6.00004 15.8507 5.85071 16 5.66671 16C5.48271 16 5.33337 15.8507 5.33337 15.6667V13.3333C5.33337 12.598 5.93137 12 6.66671 12C7.40204 12 8.00004 12.598 8.00004 13.3333V15.6667C8.00004 15.8507 7.85071 16 7.66671 16Z" fill="black"/>
<path d="M7.66671 14.6667H5.66671C5.48271 14.6667 5.33337 14.5173 5.33337 14.3333C5.33337 14.1493 5.48271 14 5.66671 14H7.66671C7.85071 14 8.00004 14.1493 8.00004 14.3333C8.00004 14.5173 7.85071 14.6667 7.66671 14.6667Z" fill="black"/>
<path fill-rule="evenodd" clip-rule="evenodd" d="M10.1666 16H8.99996C8.81596 16 8.66663 15.8507 8.66663 15.6667V12.3333C8.66663 12.1493 8.81596 12 8.99996 12H10.1666C10.81 12 11.3333 12.5233 11.3333 13.1667C11.3333 13.4927 11.1986 13.788 10.9826 14C11.1986 14.212 11.3333 14.5073 11.3333 14.8333C11.3333 15.4767 10.81 16 10.1666 16ZM9.33329 15.3333H10.1666C10.4426 15.3333 10.6666 15.1087 10.6666 14.8333C10.6666 14.558 10.4426 14.3333 10.1666 14.3333H9.33329V15.3333ZM10.1666 13.6667H9.33329V12.6667H10.1666C10.4426 12.6667 10.6666 12.8913 10.6666 13.1667C10.6666 13.442 10.4426 13.6667 10.1666 13.6667Z" fill="black"/>
<path d="M14.3333 16H13C12.4487 16 12 15.5513 12 15V13C12 12.4487 12.4487 12 13 12H14.3333C14.5173 12 14.6667 12.1493 14.6667 12.3333C14.6667 12.5173 14.5173 12.6667 14.3333 12.6667H13C12.816 12.6667 12.6667 12.8167 12.6667 13V15C12.6667 15.1833 12.816 15.3333 13 15.3333H14.3333C14.5173 15.3333 14.6667 15.4827 14.6667 15.6667C14.6667 15.8507 14.5173 16 14.3333 16Z" fill="black"/>
</svg>
