<svg width="22" height="22" viewBox="0 0 22 22" fill="none" xmlns="http://www.w3.org/2000/svg">
<path fill-rule="evenodd" clip-rule="evenodd" d="M3.95136 0H18.0486C20.2275 0 22 1.7725 22 3.95136V18.0486C22 20.2275 20.2275 22 18.0486 22H3.95136C1.7725 22 0 20.2275 0 18.0486V3.95136C0 1.7725 1.7725 0 3.95136 0ZM11.5414 17.1686H18.5921C19.4484 17.1686 19.4482 15.8745 18.5921 15.8745H11.5414C10.9208 14.0374 8.3175 14.0402 7.69785 15.8745H3.40785C2.55161 15.8745 2.55183 17.1686 3.40785 17.1686H7.69785C8.31845 19.0058 10.9217 19.003 11.5414 17.1686ZM18.5921 11.6471H17.0629C16.4432 13.4814 13.84 13.4842 13.2194 11.6471H3.40785C2.55183 11.6471 2.55161 10.3529 3.40785 10.3529H13.2194C13.8391 8.5186 16.4423 8.51581 17.063 10.3529H18.5922C19.4482 10.3529 19.4484 11.6471 18.5921 11.6471ZM8.78058 6.1255H18.5921C19.4484 6.1255 19.4482 4.83136 18.5921 4.83136H8.78058C8.15998 2.99423 5.55672 2.99703 4.93707 4.83136H3.40785C2.55161 4.83136 2.55183 6.1255 3.40785 6.1255H4.93707C5.55766 7.96263 8.16088 7.95983 8.78058 6.1255Z" fill="black"/>
<path d="M9.6196 15.7881C8.64933 15.7881 8.64984 17.2547 9.6196 17.2547C10.5898 17.2548 10.5893 15.7881 9.6196 15.7881Z" fill="#5DC2A7"/>
<path d="M6.85886 4.74512C5.88858 4.74512 5.8891 6.21177 6.85886 6.21177C7.8291 6.21181 7.82858 4.74512 6.85886 4.74512V4.74512Z" fill="#5DC2A7"/>
<path d="M15.1411 10.2666C14.1708 10.2666 14.1713 11.7333 15.1411 11.7333C16.1114 11.7333 16.1109 10.2666 15.1411 10.2666V10.2666Z" fill="#5DC2A7"/>
</svg>
