<svg width="16" height="16" viewBox="0 0 16 16" fill="none" xmlns="http://www.w3.org/2000/svg">
<path fill-rule="evenodd" clip-rule="evenodd" d="M4.18433 12.3334C4.18433 10.3121 5.89584 8.66675 8.00003 8.66675C10.1035 8.66675 11.8157 10.3121 11.8157 12.3334C11.8157 14.3547 10.1035 16.0001 8.00003 16.0001C5.89584 16.0001 4.18433 14.3547 4.18433 12.3334ZM4.87808 12.3334C4.87808 13.9874 6.2788 15.3334 8.00003 15.3334C9.72127 15.3334 11.122 13.9874 11.122 12.3334C11.122 10.6794 9.72127 9.33344 8.00003 9.33344C6.2788 9.33344 4.87808 10.6794 4.87808 12.3334Z" fill="black"/>
<path d="M14.2439 3.33325H6.22469C5.77653 3.33325 5.37968 3.0586 5.23747 2.64925L5.17643 2.4726C4.93984 1.79125 4.2787 1.33325 3.53152 1.33325H1.75613C0.800135 1.33325 0.0217285 2.08125 0.0217285 2.99991V10.9999C0.0217285 11.9193 0.800135 12.6666 1.75613 12.6666H3.14368C3.33516 12.6666 3.49057 12.5172 3.49057 12.3332C3.49057 12.1492 3.33516 11.9999 3.14368 11.9999H1.75613C1.18238 11.9999 0.715485 11.5513 0.715485 10.9999V2.99991C0.715485 2.44856 1.18238 1.99991 1.75613 1.99991H3.53148C3.97965 1.99991 4.37649 2.27456 4.51802 2.68325L4.57978 2.8606C4.81633 3.54191 5.4775 3.99991 6.22469 3.99991H14.2439C14.8177 3.99991 15.2846 4.44856 15.2846 4.99991V10.9999C15.2846 11.5513 14.8177 11.9999 14.2439 11.9999H12.8564C12.6649 11.9999 12.5095 12.1493 12.5095 12.3333C12.5095 12.5173 12.6649 12.6666 12.8564 12.6666H14.2439C15.2007 12.6666 15.9783 11.9193 15.9783 10.9999V4.99991C15.9783 4.08125 15.2007 3.33325 14.2439 3.33325Z" fill="black"/>
<path d="M13.5502 0H2.44986C1.49386 0 0.715454 0.748 0.715454 1.66666C0.715454 1.85066 0.870869 2 1.06235 2C1.25383 2 1.40924 1.85066 1.40924 1.66666C1.40924 1.11531 1.87614 0.666656 2.44989 0.666656H13.5502C14.1239 0.666656 14.5908 1.11531 14.5908 1.66666V3.66666C14.5908 3.85066 14.7462 4 14.9377 4C15.1292 4 15.2846 3.85066 15.2846 3.66666V1.66666C15.2846 0.748 14.5068 0 13.5502 0Z" fill="black"/>
<path fill-rule="evenodd" clip-rule="evenodd" d="M7.49841 10.7226L9.57971 12.056C9.67613 12.118 9.73441 12.222 9.73441 12.3333C9.73441 12.4446 9.67613 12.5486 9.57971 12.6106L7.49841 13.944C7.44085 13.9813 7.37353 14 7.30624 14C7.25005 14 7.19385 13.9866 7.14251 13.96C7.02943 13.902 6.95935 13.7893 6.95935 13.6666V11C6.95935 10.8766 7.03011 10.764 7.14251 10.7066C7.2549 10.648 7.39226 10.6553 7.49841 10.7226ZM7.65311 11.6233V13.044L8.76244 12.334L7.65311 11.6233Z" fill="black"/>
</svg>
