<svg width="16" height="16" viewBox="0 0 16 16" fill="none" xmlns="http://www.w3.org/2000/svg">
<path d="M6.76112 0H0.614647C0.275176 0 0 0.275176 0 0.614647V6.76112C0 7.10059 0.275176 7.37576 0.614647 7.37576H6.76112C7.10059 7.37576 7.37576 7.10059 7.37576 6.76112V0.614647C7.37576 0.275176 7.10059 0 6.76112 0Z" fill="white"/>
<path d="M15.3661 0H9.21963C8.88016 0 8.60498 0.275176 8.60498 0.614647V6.76112C8.60498 7.10059 8.88016 7.37576 9.21963 7.37576H15.3661C15.7056 7.37576 15.9807 7.10059 15.9807 6.76112V0.614647C15.9807 0.275176 15.7056 0 15.3661 0Z" fill="white"/>
<path d="M6.76112 8.60547H0.614647C0.275176 8.60547 0 8.88065 0 9.22012V15.3666C0 15.7061 0.275176 15.9812 0.614647 15.9812H6.76112C7.10059 15.9812 7.37576 15.7061 7.37576 15.3666V9.22012C7.37576 8.88065 7.10059 8.60547 6.76112 8.60547Z" fill="white"/>
<path d="M15.3661 8.60547H9.21963C8.88016 8.60547 8.60498 8.88065 8.60498 9.22012V15.3666C8.60498 15.7061 8.88016 15.9812 9.21963 15.9812H15.3661C15.7056 15.9812 15.9807 15.7061 15.9807 15.3666V9.22012C15.9807 8.88065 15.7056 8.60547 15.3661 8.60547Z" fill="white"/>
</svg>
