<svg width="26" height="26" viewBox="0 0 26 26" fill="none" xmlns="http://www.w3.org/2000/svg">
<g filter="url(#filter0_d)">
<circle cx="14" cy="12" r="12" fill="url(#paint0_linear)"/>
</g>
<path d="M12.2418 12.609C12.2418 12.459 12.12 12.3374 11.9699 12.3374H11.021C10.871 12.3374 10.7493 12.459 10.7493 12.609V13.5577C10.7493 13.708 10.871 13.8296 11.021 13.8296H11.9699C12.12 13.8296 12.2418 13.708 12.2418 13.5577V12.609Z" fill="white"/>
<path d="M14.6129 12.609C14.6129 12.459 14.4912 12.3374 14.3413 12.3374H13.3924C13.2423 12.3374 13.1206 12.459 13.1206 12.609V13.5577C13.1206 13.708 13.2423 13.8296 13.3924 13.8296H14.3413C14.4912 13.8296 14.6129 13.708 14.6129 13.5577V12.609Z" fill="white"/>
<path d="M16.9844 12.609C16.9844 12.459 16.8627 12.3374 16.7127 12.3374H15.7638C15.6137 12.3374 15.4919 12.459 15.4919 12.609V13.5577C15.4919 13.708 15.6137 13.8296 15.7638 13.8296H16.7127C16.8627 13.8296 16.9844 13.708 16.9844 13.5577V12.609Z" fill="white"/>
<path d="M12.2418 14.9803C12.2418 14.83 12.12 14.7085 11.9699 14.7085H11.021C10.871 14.7085 10.7493 14.83 10.7493 14.9803V15.9288C10.7493 16.079 10.871 16.2006 11.021 16.2006H11.9699C12.12 16.2006 12.2418 16.079 12.2418 15.9288V14.9803Z" fill="white"/>
<path d="M14.6129 14.9803C14.6129 14.83 14.4912 14.7085 14.3413 14.7085H13.3924C13.2423 14.7085 13.1206 14.83 13.1206 14.9803V15.9288C13.1206 16.079 13.2423 16.2006 13.3924 16.2006H14.3413C14.4912 16.2006 14.6129 16.079 14.6129 15.9288V14.9803Z" fill="white"/>
<path d="M16.9844 14.9803C16.9844 14.83 16.8627 14.7085 16.7128 14.7085H15.7638C15.6137 14.7085 15.4919 14.83 15.4919 14.9803V15.9288C15.4919 16.079 15.6137 16.2006 15.7638 16.2006H16.7128C16.8627 16.2006 16.9844 16.079 16.9844 15.9288V14.9803Z" fill="white"/>
<path fill-rule="evenodd" clip-rule="evenodd" d="M18.681 8.7829V7.33382C19.2533 7.35107 19.7236 7.82466 19.7236 8.40677V16.8991C19.7236 17.4911 19.2421 17.9792 18.6499 17.9792H9.08375C8.4907 17.9792 8.01001 17.4921 8.01001 16.8991V8.40677C8.01001 7.82466 8.48032 7.35107 9.05266 7.33382V8.7829C9.05266 9.43786 9.58397 9.96567 10.2388 9.96567H10.9873C11.6421 9.96567 12.1804 9.43786 12.1804 8.7829V7.32861H15.5532V8.7829C15.5532 9.43786 16.0916 9.96567 16.7465 9.96567H17.4948C18.1497 9.96567 18.681 9.43786 18.681 8.7829ZM17.8692 16.8345C18.1256 16.8345 18.3334 16.6265 18.3334 16.3702L18.3334 11.9837C18.3334 11.7273 18.1256 11.5193 17.8692 11.5193H9.84395C9.58753 11.5193 9.37975 11.7273 9.37975 11.9837V16.3702C9.37975 16.6265 9.58756 16.8345 9.84395 16.8345H17.8692Z" fill="white"/>
<path d="M10.2362 9.18883H10.9763C11.201 9.18883 11.3832 9.00694 11.3832 8.78228V6.4067C11.3832 6.18201 11.201 6 10.9763 6H10.2362C10.0115 6 9.82935 6.18201 9.82935 6.4067V8.78228C9.82935 9.00694 10.0115 9.18883 10.2362 9.18883Z" fill="white"/>
<path d="M16.7369 9.18883H17.477C17.7016 9.18883 17.8837 9.00694 17.8837 8.78228V6.4067C17.8837 6.18201 17.7016 6 17.477 6H16.7369C16.5122 6 16.3301 6.18201 16.3301 6.4067V8.78228C16.3301 9.00694 16.5122 9.18883 16.7369 9.18883Z" fill="white"/>
<defs>
<filter id="filter0_d" x="0" y="-2" width="28" height="28" filterUnits="userSpaceOnUse" color-interpolation-filters="sRGB">
<feFlood flood-opacity="0" result="BackgroundImageFix"/>
<feColorMatrix in="SourceAlpha" type="matrix" values="0 0 0 0 0 0 0 0 0 0 0 0 0 0 0 0 0 0 127 0"/>
<feOffset/>
<feGaussianBlur stdDeviation="1"/>
<feColorMatrix type="matrix" values="0 0 0 0 0 0 0 0 0 0 0 0 0 0 0 0 0 0 0.2 0"/>
<feBlend mode="normal" in2="BackgroundImageFix" result="effect1_dropShadow"/>
<feBlend mode="normal" in="SourceGraphic" in2="effect1_dropShadow" result="shape"/>
</filter>
<linearGradient id="paint0_linear" x1="2.08143" y1="0" x2="2.08143" y2="23.8371" gradientUnits="userSpaceOnUse">
<stop stop-color="#7ECEFF"/>
<stop offset="1" stop-color="#50B4F0"/>
</linearGradient>
</defs>
</svg>
