<svg width="19" height="22" viewBox="0 0 19 22" fill="none" xmlns="http://www.w3.org/2000/svg">
<path d="M10.6452 20.2258C10.6447 20.7756 10.3269 21.2757 9.82925 21.5094C9.33163 21.7432 8.74377 21.6685 8.32038 21.3178C7.89698 20.9671 7.71421 20.4034 7.85125 19.871H10.6004C10.6302 19.9869 10.6452 20.1061 10.6452 20.2258Z" fill="#FCF055"/>
<path d="M16.6774 18.4517H1.77417L3.07111 15.5979C3.38562 14.9063 3.54836 14.1554 3.54836 13.3957V8.17643C3.54836 5.39538 5.52836 3.04679 8.16127 2.54026H8.1626C8.51286 2.47313 8.8687 2.43941 9.22534 2.43958C10.7312 2.43946 12.1753 3.03756 13.2402 4.1023C14.305 5.16703 14.9032 6.61117 14.9032 8.117V13.3957C14.9032 14.1554 15.0659 14.9063 15.3805 15.5979L16.6774 18.4517Z" fill="#5DC2A7"/>
<path d="M10.2903 2.53937L8.1626 2.54026C8.51286 2.47313 8.8687 2.43941 9.22534 2.43958C9.58267 2.43934 9.93923 2.47276 10.2903 2.53937V2.53937Z" fill="#57A4FF"/>
<rect x="0.300049" y="18.3" width="18" height="1.8" fill="#FCF055"/>
<path fill-rule="evenodd" clip-rule="evenodd" d="M18.0968 18.0968H16.9058L15.7034 15.451C15.409 14.8058 15.2571 14.1048 15.2581 13.3956V8.11694C15.2575 5.33198 13.3516 2.90894 10.6452 2.25234V1.41935C10.6452 0.635467 10.0097 0 9.22581 0C8.44192 0 7.80645 0.635467 7.80645 1.41935V2.25544C5.1629 2.90169 3.19355 5.31105 3.19355 8.17637V13.3956C3.19452 14.1048 3.04263 14.8058 2.74823 15.451L1.54577 18.0968H0.354839C0.158867 18.0968 0 18.2556 0 18.4516V19.871C0 20.0669 0.158867 20.2258 0.354839 20.2258H7.45161C7.45161 21.2057 8.24595 22 9.22581 22C10.2057 22 11 21.2057 11 20.2258H18.0968C18.2927 20.2258 18.4516 20.0669 18.4516 19.871V18.4516C18.4516 18.2556 18.2927 18.0968 18.0968 18.0968ZM8.51613 1.41935C8.51613 1.02741 8.83386 0.709677 9.22581 0.709677C9.61775 0.709677 9.93548 1.02741 9.93548 1.41935V2.12593C9.69991 2.09855 9.46296 2.08478 9.22581 2.08468H9.22536C8.98831 2.08472 8.75148 2.09894 8.51613 2.12726V1.41935ZM3.90323 13.3956C3.90434 14.2061 3.73082 15.0073 3.39448 15.7446L2.32508 18.0968H16.1265L15.0571 15.7446C14.7208 15.0073 14.5473 14.2061 14.5484 13.3956V8.11694C14.5475 5.56325 12.7343 3.36952 10.2265 2.88794L10.2209 2.88706L10.2154 2.88617C9.88908 2.82491 9.55779 2.79418 9.22581 2.79435H9.22536C6.29085 2.79435 3.90323 5.20903 3.90323 8.17637V13.3956ZM9.22581 21.2903C8.63821 21.2895 8.16207 20.8134 8.16129 20.2258H10.2903C10.2895 20.8134 9.8134 21.2895 9.22581 21.2903ZM0.709677 18.8065V19.5161H17.7419V18.8065H0.709677Z" fill="black"/>
</svg>
