<svg width="32" height="32" viewBox="0 0 32 32" fill="none" xmlns="http://www.w3.org/2000/svg">
<path d="M26 32H6C2.686 32 0 29.314 0 26V6C0 2.686 2.686 0 6 0H26C29.314 0 32 2.686 32 6V26C32 29.314 29.314 32 26 32Z" fill="#F5E6FE"/>
<path d="M19.333 21.998C19.264 21.998 19.196 21.984 19.132 21.956L14.965 20.123C14.784 20.043 14.666 19.864 14.666 19.665C14.666 19.466 14.783 19.287 14.965 19.207L19.132 17.374C19.26 17.318 19.407 17.318 19.535 17.374L23.702 19.207C23.883 19.287 24 19.466 24 19.665C24 19.864 23.883 20.043 23.701 20.123L19.534 21.956C19.471 21.984 19.402 21.998 19.333 21.998Z" fill="#D9A4FC"/>
<path d="M19.938 22.871C19.744 22.956 19.542 22.998 19.334 22.998C19.126 22.998 18.924 22.956 18.732 22.872L16 21.67V22.129C16 22.536 16.213 22.918 16.554 23.126C17.515 23.708 18.424 24 19.333 24C20.242 24 21.151 23.708 22.112 23.126C22.454 22.918 22.666 22.536 22.666 22.129V21.67L19.938 22.871Z" fill="#D9A4FC"/>
<path d="M14 14.667C12.162 14.667 10.667 13.172 10.667 11.334C10.667 9.496 12.162 8 14 8C15.838 8 17.333 9.495 17.333 11.333C17.333 13.171 15.838 14.667 14 14.667Z" fill="#BE63F9"/>
<path d="M13.333 19.667C13.333 18.94 13.76 18.28 14.426 17.987L18.279 16.287C17.893 16.1 17.46 16 17 16H11C9.347 16 8 17.347 8 19V21.667C8 21.853 8.147 22 8.333 22H14.666V21.447L14.426 21.34C13.76 21.047 13.333 20.387 13.333 19.667Z" fill="#BE63F9"/>
</svg>
