<svg width="32" height="32" viewBox="0 0 32 32" fill="none" xmlns="http://www.w3.org/2000/svg">
<circle cx="16" cy="16" r="16" fill="black"/>
<path fill-rule="evenodd" clip-rule="evenodd" d="M22.3593 8.74719H9.19652C8.13551 8.74719 7.27271 9.60971 7.27271 10.672V22.7694C7.27271 23.8304 8.13551 24.692 9.19652 24.692H22.3593C23.4203 24.692 24.2822 23.8304 24.2822 22.7694V10.672C24.2822 9.60971 23.4203 8.74719 22.3593 8.74719ZM18.2719 11.6097C19.298 11.6097 20.1301 12.4419 20.1301 13.4679C20.1301 14.4939 19.2979 15.326 18.2719 15.326C17.2456 15.326 16.4137 14.4939 16.4137 13.4679C16.4137 12.4419 17.2456 11.6097 18.2719 11.6097ZM15.7773 22.9137H21.756C22.2692 22.9137 22.4463 22.5727 22.1527 22.1518L20.1213 19.2502C19.8271 18.8299 19.296 18.7847 18.9355 19.1499L18.1511 19.9442C17.7903 20.3094 17.2452 20.2747 16.9334 19.8671L13.7267 15.6766C13.4149 15.2691 12.9745 15.31 12.7435 15.768L9.55451 22.0843C9.32316 22.5424 9.55172 22.9137 10.0649 22.9137H15.7773Z" fill="white"/>
</svg>
