<svg width="8" height="12" viewBox="0 0 8 12" fill="none" xmlns="http://www.w3.org/2000/svg">
<path d="M2.3807 6.00254L6.86987 1.51317C6.99348 1.38985 7.06148 1.22498 7.06148 1.04917C7.06148 0.873268 6.99348 0.708488 6.86987 0.584976L6.4765 0.191805C6.35309 0.0680976 6.18811 0 6.01231 0C5.8365 0 5.67172 0.0680976 5.54821 0.191805L0.203136 5.53678C0.079136 5.66068 0.0112336 5.82624 0.0117214 6.00224C0.0112336 6.17902 0.0790384 6.34439 0.203136 6.46839L5.54323 11.8082C5.66675 11.9319 5.83153 12 6.00743 12C6.18323 12 6.34801 11.9319 6.47162 11.8082L6.86489 11.415C7.12079 11.1591 7.12079 10.7425 6.86489 10.4867L2.3807 6.00254Z" fill="black"/>
</svg>
