<svg width="25" height="13" viewBox="0 0 25 13" fill="none" xmlns="http://www.w3.org/2000/svg">
<path d="M1.19353 5.53225H21.6883L18.2932 2.15367C17.9144 1.77664 17.913 1.16392 18.29 0.785093C18.667 0.406222 19.2798 0.404819 19.6586 0.781803L24.7153 5.81406C24.7156 5.81435 24.7159 5.81469 24.7161 5.81498C25.094 6.19201 25.0952 6.80672 24.7162 7.18501C24.7159 7.1853 24.7157 7.18564 24.7154 7.18593L19.6587 12.2182C19.2799 12.5951 18.6672 12.5938 18.2901 12.2149C17.9131 11.8361 17.9145 11.2234 18.2933 10.8463L21.6883 7.46774H1.19353C0.659046 7.46774 0.225788 7.03448 0.225788 6.5C0.225788 5.96551 0.659046 5.53225 1.19353 5.53225Z" fill="black"/>
</svg>
