<svg width="16" height="16" viewBox="0 0 16 16" fill="none" xmlns="http://www.w3.org/2000/svg">
<path fill-rule="evenodd" clip-rule="evenodd" d="M14.8333 5.33301H1.16668C0.526677 5.33301 0 5.85968 0 6.49968V14.833C0 15.473 0.526677 15.9997 1.16668 15.9997H14.8334C15.4734 15.9997 16 15.473 16 14.833V6.49968C16 5.85968 15.4733 5.33301 14.8333 5.33301ZM14 8.49968V12.833C14 13.473 13.48 13.9997 12.8333 13.9997H9.16668C8.52 13.9997 8 13.473 8 12.833V8.49968C8 7.85968 8.52 7.33301 9.16668 7.33301H12.8334C13.48 7.33301 14 7.85968 14 8.49968ZM2.5 10.9997H6.16668C6.44 10.9997 6.66668 10.773 6.66668 10.4997C6.66668 10.2264 6.44 9.99968 6.16668 9.99968H2.5C2.22668 9.99968 2 10.2264 2 10.4997C2 10.773 2.22668 10.9997 2.5 10.9997ZM6.66668 12.4997C6.66668 12.773 6.44 12.9997 6.16668 12.9997H2.5C2.22668 12.9997 2 12.773 2 12.4997C2 12.2264 2.22668 11.9997 2.5 11.9997H6.16668C6.44 11.9997 6.66668 12.2264 6.66668 12.4997ZM2.5 8.99969H6.16668C6.44 8.99969 6.66668 8.77301 6.66668 8.49969C6.66668 8.22636 6.44 7.99969 6.16668 7.99969H2.5C2.22668 7.99969 2 8.22636 2 8.49969C2 8.77301 2.22668 8.99969 2.5 8.99969Z" fill="black"/>
<path d="M14.8335 0H6.50017C5.85683 0 5.3335 0.523339 5.3335 1.16668V2.83335C5.3335 3.47669 5.85683 4.00003 6.50017 4.00003H14.8335C15.4768 4 16.0002 3.47666 16.0002 2.83332V1.16668C16.0002 0.523339 15.4768 0 14.8335 0Z" fill="black"/>
<circle cx="2" cy="2" r="2" fill="black"/>
</svg>
