<svg width="22" height="22" viewBox="0 0 22 22" fill="none" xmlns="http://www.w3.org/2000/svg">
<circle cx="11" cy="11" r="11" fill="#FCF055"/>
<path fill-rule="evenodd" clip-rule="evenodd" d="M18.7515 3.21263C23.035 7.49613 23.035 14.468 18.7515 18.7515C14.468 23.035 7.49613 23.035 3.21263 18.7515C-1.07088 14.468 -1.07088 7.49613 3.21263 3.21263C7.49613 -1.07088 14.468 -1.07088 18.7515 3.21263ZM17.9764 3.98778C14.1185 0.129939 7.84562 0.129939 3.98778 3.98778C0.13442 7.84562 0.129939 14.1185 3.98778 17.9764C7.84562 21.8342 14.1185 21.8342 17.9764 17.9764C21.8342 14.1185 21.8342 7.84562 17.9764 3.98778Z" fill="#5DC2A7"/>
<path d="M14.5486 11.5285C14.7009 11.5285 14.8354 11.4658 14.9384 11.3672C15.037 11.2686 15.0997 11.1297 15.0997 10.9774C15.0997 10.6727 14.8533 10.4262 14.5531 10.4307H7.42884C7.12415 10.4307 6.87772 10.6772 6.8822 10.9774C6.8822 11.282 7.12863 11.5285 7.42884 11.524L14.5486 11.5285Z" fill="#5DC2A7"/>
</svg>
