<svg width="11" height="19" viewBox="0 0 11 19" fill="none" xmlns="http://www.w3.org/2000/svg">
<mask id="path-1-outside-1" maskUnits="userSpaceOnUse" x="0.0200195" y="0.5" width="11" height="18" fill="black">
<rect fill="white" x="0.0200195" y="0.5" width="11" height="18"/>
<path fill-rule="evenodd" clip-rule="evenodd" d="M8.48102 4.67243C8.86945 4.31229 9.06273 3.87429 9.06273 3.36143C9.06273 2.84971 8.86973 2.41086 8.48102 2.04614C8.09359 1.68243 7.62659 1.5 7.08059 1.5C6.53288 1.5 6.06402 1.682 5.67288 2.04614C5.28173 2.41086 5.08573 2.84957 5.08573 3.36143C5.08573 3.87429 5.28173 4.31214 5.67288 4.67243C6.06473 5.03386 6.53273 5.21471 7.08059 5.21471C7.62673 5.21471 8.09359 5.03386 8.48102 4.67243ZM8.62916 16.6299L8.85188 15.7194C8.73659 15.7736 8.55073 15.8354 8.29588 15.9059C8.04031 15.9763 7.81031 16.0121 7.60816 16.0121C7.17759 16.0121 6.87445 15.9416 6.69845 15.7997C6.52373 15.6579 6.43659 15.391 6.43659 15.0001C6.43659 14.8453 6.46288 14.6144 6.51788 14.3123C6.57116 14.0081 6.63245 13.7379 6.70059 13.5014L7.53202 10.5579C7.61345 10.2877 7.6693 9.99071 7.69931 9.66657C7.73002 9.34314 7.74431 9.11686 7.74431 8.98843C7.74431 8.36771 7.52673 7.864 7.09145 7.47543C6.65616 7.08714 6.03631 6.893 5.23302 6.893C4.78602 6.893 4.31345 6.97243 3.81331 7.13114C3.31316 7.28943 2.79031 7.48014 2.24331 7.70286L2.02002 8.614C2.18302 8.55371 2.37716 8.48886 2.60431 8.42171C2.83045 8.35486 3.05231 8.32029 3.26816 8.32029C3.70888 8.32029 4.00573 8.39543 4.16131 8.54343C4.31688 8.69186 4.39502 8.95586 4.39502 9.33329C4.39502 9.542 4.37031 9.77386 4.31902 10.0259C4.26845 10.2794 4.20531 10.5476 4.13102 10.8306L3.29602 13.786C3.22173 14.0966 3.16745 14.3744 3.13331 14.6211C3.09945 14.8676 3.08316 15.1094 3.08316 15.3446C3.08316 15.952 3.30759 16.4527 3.75631 16.8479C4.20502 17.2414 4.83416 17.4396 5.64302 17.4396C6.16973 17.4396 6.63202 17.3707 7.02988 17.2323C7.42731 17.0943 7.96102 16.8936 8.62916 16.6299Z"/>
</mask>
<path fill-rule="evenodd" clip-rule="evenodd" d="M8.48102 4.67243C8.86945 4.31229 9.06273 3.87429 9.06273 3.36143C9.06273 2.84971 8.86973 2.41086 8.48102 2.04614C8.09359 1.68243 7.62659 1.5 7.08059 1.5C6.53288 1.5 6.06402 1.682 5.67288 2.04614C5.28173 2.41086 5.08573 2.84957 5.08573 3.36143C5.08573 3.87429 5.28173 4.31214 5.67288 4.67243C6.06473 5.03386 6.53273 5.21471 7.08059 5.21471C7.62673 5.21471 8.09359 5.03386 8.48102 4.67243ZM8.62916 16.6299L8.85188 15.7194C8.73659 15.7736 8.55073 15.8354 8.29588 15.9059C8.04031 15.9763 7.81031 16.0121 7.60816 16.0121C7.17759 16.0121 6.87445 15.9416 6.69845 15.7997C6.52373 15.6579 6.43659 15.391 6.43659 15.0001C6.43659 14.8453 6.46288 14.6144 6.51788 14.3123C6.57116 14.0081 6.63245 13.7379 6.70059 13.5014L7.53202 10.5579C7.61345 10.2877 7.6693 9.99071 7.69931 9.66657C7.73002 9.34314 7.74431 9.11686 7.74431 8.98843C7.74431 8.36771 7.52673 7.864 7.09145 7.47543C6.65616 7.08714 6.03631 6.893 5.23302 6.893C4.78602 6.893 4.31345 6.97243 3.81331 7.13114C3.31316 7.28943 2.79031 7.48014 2.24331 7.70286L2.02002 8.614C2.18302 8.55371 2.37716 8.48886 2.60431 8.42171C2.83045 8.35486 3.05231 8.32029 3.26816 8.32029C3.70888 8.32029 4.00573 8.39543 4.16131 8.54343C4.31688 8.69186 4.39502 8.95586 4.39502 9.33329C4.39502 9.542 4.37031 9.77386 4.31902 10.0259C4.26845 10.2794 4.20531 10.5476 4.13102 10.8306L3.29602 13.786C3.22173 14.0966 3.16745 14.3744 3.13331 14.6211C3.09945 14.8676 3.08316 15.1094 3.08316 15.3446C3.08316 15.952 3.30759 16.4527 3.75631 16.8479C4.20502 17.2414 4.83416 17.4396 5.64302 17.4396C6.16973 17.4396 6.63202 17.3707 7.02988 17.2323C7.42731 17.0943 7.96102 16.8936 8.62916 16.6299Z" fill="black"/>
<path d="M8.48102 4.67243L7.80111 3.93912L7.79887 3.94121L8.48102 4.67243ZM8.48102 2.04614L7.79658 2.77521L7.79678 2.7754L8.48102 2.04614ZM5.67288 2.04614L4.99148 1.31423L4.99091 1.31476L5.67288 2.04614ZM5.67288 4.67243L6.35087 3.93736L6.35038 3.9369L5.67288 4.67243ZM8.85188 15.7194L9.82324 15.957L10.3203 13.925L8.42679 14.8143L8.85188 15.7194ZM8.62916 16.6299L8.9963 17.56L9.47757 17.3701L9.60052 16.8675L8.62916 16.6299ZM8.29588 15.9059L8.56155 16.8699L8.56224 16.8697L8.29588 15.9059ZM6.69845 15.7997L6.06811 16.576L6.07091 16.5783L6.69845 15.7997ZM6.51788 14.3123L7.50173 14.4914L7.50287 14.4849L6.51788 14.3123ZM6.70059 13.5014L7.66149 13.7784L7.66294 13.7732L6.70059 13.5014ZM7.53202 10.5579L6.57457 10.2693L6.57205 10.2776L6.56967 10.286L7.53202 10.5579ZM7.69931 9.66657L6.70378 9.57203L6.70356 9.57441L7.69931 9.66657ZM7.09145 7.47543L7.75739 6.72943L7.75712 6.72918L7.09145 7.47543ZM3.81331 7.13114L4.11504 8.08454L4.11578 8.0843L3.81331 7.13114ZM2.24331 7.70286L1.86621 6.77668L1.39352 6.96914L1.27204 7.46484L2.24331 7.70286ZM2.02002 8.614L1.04876 8.37598L0.600483 10.2052L2.36691 9.55191L2.02002 8.614ZM2.60431 8.42171L2.88778 9.38069L2.88781 9.38068L2.60431 8.42171ZM4.16131 8.54343L4.85161 7.81991L4.85056 7.81891L4.16131 8.54343ZM4.31902 10.0259L3.3391 9.82643L3.33833 9.83027L4.31902 10.0259ZM4.13102 10.8306L5.09335 11.1025L5.09588 11.0935L5.09825 11.0845L4.13102 10.8306ZM3.29602 13.786L2.33369 13.5141L2.32817 13.5336L2.32345 13.5534L3.29602 13.786ZM3.13331 14.6211L2.14275 14.4841L2.14261 14.485L3.13331 14.6211ZM3.75631 16.8479L3.09542 17.5983L3.0969 17.5996L3.75631 16.8479ZM7.02988 17.2323L6.70186 16.2876L6.70127 16.2878L7.02988 17.2323ZM8.06273 3.36143C8.06273 3.58797 7.99138 3.76272 7.80112 3.93913L9.16092 5.40573C9.74752 4.86185 10.0627 4.1606 10.0627 3.36143H8.06273ZM7.79678 2.7754C7.99179 2.95837 8.06273 3.13645 8.06273 3.36143H10.0627C10.0627 2.56298 9.74768 1.86334 9.16525 1.31688L7.79678 2.7754ZM7.08059 2.5C7.37942 2.5 7.59968 2.59036 7.79658 2.77521L9.16546 1.31708C8.58751 0.774496 7.87377 0.5 7.08059 0.5V2.5ZM6.35427 2.77806C6.55545 2.59077 6.77896 2.5 7.08059 2.5V0.5C6.28679 0.5 5.57259 0.773229 4.99148 1.31423L6.35427 2.77806ZM6.08573 3.36143C6.08573 3.14095 6.15606 2.96288 6.35484 2.77753L4.99091 1.31476C4.40741 1.85883 4.08573 2.5582 4.08573 3.36143H6.08573ZM6.35038 3.9369C6.15636 3.75819 6.08573 3.58356 6.08573 3.36143H4.08573C4.08573 4.16502 4.40711 4.86609 4.99538 5.40795L6.35038 3.9369ZM7.08059 4.21471C6.77745 4.21471 6.55328 4.12406 6.35087 3.93736L4.99489 5.4075C5.57619 5.94366 6.28802 6.21471 7.08059 6.21471V4.21471ZM7.79887 3.94121C7.60269 4.12423 7.38199 4.21471 7.08059 4.21471V6.21471C7.87148 6.21471 8.58449 5.94349 9.16316 5.40365L7.79887 3.94121ZM7.88052 15.4818L7.6578 16.3922L9.60052 16.8675L9.82324 15.957L7.88052 15.4818ZM8.56224 16.8697C8.82364 16.7975 9.07955 16.7173 9.27697 16.6246L8.42679 14.8143C8.39363 14.8298 8.27783 14.8734 8.02952 14.942L8.56224 16.8697ZM7.60816 17.0121C7.92409 17.0121 8.24613 16.9568 8.56155 16.8699L8.03021 14.9418C7.83448 14.9957 7.69652 15.0121 7.60816 15.0121V17.0121ZM6.07091 16.5783C6.52664 16.9456 7.12864 17.0121 7.60816 17.0121V15.0121C7.44237 15.0121 7.33982 14.9981 7.28507 14.9853C7.22759 14.9719 7.26129 14.969 7.32599 15.0211L6.07091 16.5783ZM5.43659 15.0001C5.43659 15.4781 5.53278 16.1414 6.06812 16.576L7.32878 15.0234C7.37406 15.0602 7.40553 15.0988 7.42571 15.1302C7.44517 15.1606 7.45189 15.1807 7.4524 15.1823C7.45282 15.1836 7.4485 15.1705 7.44426 15.1386C7.44005 15.1068 7.43659 15.0614 7.43659 15.0001H5.43659ZM5.53404 14.1332C5.47558 14.4544 5.43659 14.7549 5.43659 15.0001H7.43659C7.43659 14.9356 7.45017 14.7745 7.50171 14.4914L5.53404 14.1332ZM5.73971 13.2245C5.65988 13.5014 5.59111 13.8073 5.53288 14.1397L7.50287 14.4849C7.55121 14.2089 7.60501 13.9743 7.66148 13.7784L5.73971 13.2245ZM6.56967 10.286L5.73824 13.2296L7.66294 13.7732L8.49437 10.8297L6.56967 10.286ZM6.70356 9.57441C6.67884 9.84149 6.63412 10.0717 6.57457 10.2693L8.48947 10.8465C8.59278 10.5037 8.65977 10.1399 8.69505 9.75873L6.70356 9.57441ZM6.74431 8.98843C6.74431 9.06573 6.73424 9.25135 6.70378 9.57203L8.69483 9.76111C8.7258 9.43493 8.74431 9.16798 8.74431 8.98843H6.74431ZM6.42551 8.22143C6.63369 8.40728 6.74431 8.6325 6.74431 8.98843H8.74431C8.74431 8.10293 8.41977 7.32072 7.75739 6.72943L6.42551 8.22143ZM5.23302 7.893C5.88397 7.893 6.23301 8.04972 6.42578 8.22167L7.75712 6.72918C7.07931 6.12456 6.18864 5.893 5.23302 5.893V7.893ZM4.11578 8.0843C4.535 7.95126 4.905 7.893 5.23302 7.893V5.893C4.66704 5.893 4.09189 5.99359 3.51083 6.17799L4.11578 8.0843ZM2.6204 8.62903C3.1462 8.41495 3.64378 8.23368 4.11504 8.08454L3.51157 6.17775C2.98255 6.34518 2.43441 6.54534 1.86621 6.77668L2.6204 8.62903ZM2.99128 8.85202L3.21457 7.94088L1.27204 7.46484L1.04876 8.37598L2.99128 8.85202ZM2.32083 7.46273C2.07466 7.5355 1.8592 7.60728 1.67313 7.67609L2.36691 9.55191C2.50684 9.50015 2.67966 9.44221 2.88778 9.38069L2.32083 7.46273ZM3.26816 7.32029C2.94504 7.32029 2.6275 7.37207 2.3208 7.46274L2.88781 9.38068C3.0334 9.33764 3.15957 9.32029 3.26816 9.32029V7.32029ZM4.85056 7.81891C4.393 7.38362 3.74022 7.32029 3.26816 7.32029V9.32029C3.43826 9.32029 3.53507 9.33546 3.57852 9.34635C3.62615 9.35829 3.5609 9.35248 3.47205 9.26795L4.85056 7.81891ZM5.39502 9.33329C5.39502 8.87447 5.3105 8.25773 4.85161 7.81991L3.471 9.26695C3.3918 9.19138 3.37465 9.12624 3.37761 9.13624C3.37889 9.14056 3.38354 9.15809 3.38771 9.19236C3.39186 9.22643 3.39502 9.27281 3.39502 9.33329H5.39502ZM5.29893 10.2253C5.36131 9.91876 5.39502 9.61944 5.39502 9.33329H3.39502C3.39502 9.46456 3.3793 9.62895 3.33911 9.82643L5.29893 10.2253ZM5.09825 11.0845C5.17647 10.7865 5.24445 10.4985 5.29971 10.2214L3.33833 9.83027C3.29245 10.0604 3.23414 10.3087 3.16379 10.5767L5.09825 11.0845ZM4.25835 14.0579L5.09335 11.1025L3.16869 10.5587L2.33369 13.5141L4.25835 14.0579ZM4.12386 14.7582C4.15247 14.5515 4.19972 14.3065 4.26859 14.0186L2.32345 13.5534C2.24374 13.8866 2.18243 14.1973 2.14275 14.4841L4.12386 14.7582ZM4.08316 15.3446C4.08316 15.1555 4.09626 14.9592 4.124 14.7573L2.14261 14.485C2.10264 14.776 2.08316 15.0633 2.08316 15.3446H4.08316ZM4.41719 16.0974C4.18767 15.8953 4.08316 15.6696 4.08316 15.3446H2.08316C2.08316 16.2344 2.42751 17.0102 3.09542 17.5983L4.41719 16.0974ZM5.64302 16.4396C4.99144 16.4396 4.6267 16.2811 4.41571 16.0961L3.0969 17.5996C3.78334 18.2017 4.67688 18.4396 5.64302 18.4396V16.4396ZM6.70127 16.2878C6.43217 16.3814 6.08526 16.4396 5.64302 16.4396V18.4396C6.2542 18.4396 6.83187 18.36 7.35849 18.1768L6.70127 16.2878ZM8.26203 15.6997C7.5998 15.9611 7.08056 16.1561 6.70186 16.2876L7.3579 18.177C7.77405 18.0325 8.32223 17.8261 8.9963 17.56L8.26203 15.6997Z" fill="white" mask="url(#path-1-outside-1)"/>
</svg>
