<svg width="22" height="22" viewBox="0 0 22 22" fill="none" xmlns="http://www.w3.org/2000/svg">
<path fill-rule="evenodd" clip-rule="evenodd" d="M0 11C0 4.93515 4.93515 0 11 0C17.0648 0 22 4.93515 22 11C22 17.0648 17.0648 22 11 22C4.93515 22 0 17.0648 0 11ZM12.9052 15.2658L15.8378 11.8123C16.236 11.3438 16.236 10.6562 15.8378 10.1888L12.9052 6.7353C12.4564 6.20675 11.6644 6.14185 11.1364 6.5901C10.6084 7.03945 10.5435 7.8309 10.9917 8.35945L12.1698 9.746H7.11755C6.42455 9.746 5.863 10.3075 5.863 11.0005C5.863 11.6936 6.42455 12.2551 7.11755 12.2551H12.1698L10.9917 13.6416C10.5435 14.1702 10.6084 14.9628 11.1364 15.4099C11.3729 15.6101 11.6622 15.7085 11.9487 15.7085C12.3035 15.7085 12.6577 15.5578 12.9052 15.2658Z" fill="black"/>
</svg>
