<svg width="24" height="22" viewBox="0 0 24 22" fill="none" xmlns="http://www.w3.org/2000/svg">
<path d="M22.7334 3.02507V5.86673H0.733398V3.02507C0.733398 1.75961 1.75961 0.733398 3.02507 0.733398H20.4417C21.7072 0.733398 22.7334 1.75961 22.7334 3.02507Z" fill="#FCF055"/>
<path d="M22.7334 5.8667V16.8667H19.7084C18.9489 16.8667 18.3334 17.4822 18.3334 18.2417V21.2667H3.02507C1.75961 21.2667 0.733398 20.2405 0.733398 18.975V5.8667H22.7334Z" fill="#FCF055"/>
<path d="M22.7333 16.8667C22.7333 17.2187 22.6636 17.5638 22.5311 17.8828C22.3991 18.2023 22.2043 18.4956 21.9555 18.7445L20.211 20.4889C19.7128 20.9871 19.0377 21.2667 18.3333 21.2667V18.2417C18.3333 17.4822 18.9488 16.8667 19.7083 16.8667H22.7333Z" fill="#FBA800"/>
<path d="M22.7334 3.02507V5.86673H20.9001V3.02507C20.9001 1.75961 19.8739 0.733398 18.6084 0.733398H20.4417C21.7072 0.733398 22.7334 1.75961 22.7334 3.02507Z" fill="#FBA800"/>
<path d="M20.8999 5.8667H22.7332V16.8667H20.8999V5.8667Z" fill="#FBA800"/>
<path fill-rule="evenodd" clip-rule="evenodd" d="M3.025 0H20.4417C22.1097 0 23.4667 1.35699 23.4667 3.025V16.8667C23.4667 17.7719 23.1142 18.623 22.4741 19.263L20.7297 21.0074C20.0896 21.6475 19.2385 22 18.3333 22H3.025C1.35699 22 0 20.643 0 18.975V3.025C0 1.35699 1.35699 0 3.025 0ZM20.4417 1.46667H3.025C2.16572 1.46667 1.46667 2.16572 1.46667 3.025V5.13333H22V3.025C22 2.16572 21.301 1.46667 20.4417 1.46667ZM1.46667 18.975V6.6H22V16.1333H19.7083C18.5458 16.1333 17.6 17.0791 17.6 18.2417V20.5333H3.025C2.16572 20.5333 1.46667 19.8343 1.46667 18.975ZM19.6926 19.9703L21.437 18.2259C21.6192 18.0437 21.7603 17.8313 21.8558 17.6H19.7083C19.3545 17.6 19.0667 17.8878 19.0667 18.2417V20.3891C19.298 20.2937 19.5103 20.1525 19.6926 19.9703Z" fill="black"/>
<path d="M17.6 10.2665H5.86663C5.4616 10.2665 5.1333 9.93812 5.1333 9.53314C5.1333 9.12815 5.4616 8.7998 5.86663 8.7998H17.6C18.005 8.7998 18.3333 9.12815 18.3333 9.53314C18.3333 9.93812 18.005 10.2665 17.6 10.2665Z" fill="black"/>
<path d="M16.1334 13.9335H7.33343C6.9284 13.9335 6.6001 13.6051 6.6001 13.2001C6.6001 12.7951 6.9284 12.4668 7.33343 12.4668H16.1334C16.5385 12.4668 16.8668 12.7951 16.8668 13.2001C16.8668 13.6051 16.5385 13.9335 16.1334 13.9335Z" fill="black"/>
</svg>
