<svg width="13" height="16" viewBox="0 0 13 16" fill="none" xmlns="http://www.w3.org/2000/svg">
<path fill-rule="evenodd" clip-rule="evenodd" d="M10.6786 5.33332H9.91675V3.8095C9.91675 1.70668 8.21007 0 6.10721 0C4.00436 0 2.29768 1.70668 2.29768 3.80954V5.33336H1.53578C0.693892 5.33336 0.0119629 6.01525 0.0119629 6.85718V14.4762C0.0119629 15.3181 0.693892 16 1.53578 16H10.6786C11.5205 16 12.2025 15.3181 12.2025 14.4762V6.85714C12.2025 6.01525 11.5205 5.33332 10.6786 5.33332ZM6.10721 12.1905C5.26532 12.1905 4.58339 11.5086 4.58339 10.6666C4.58339 9.82475 5.26532 9.14286 6.10721 9.14286C6.94911 9.14286 7.63103 9.82475 7.63103 10.6667C7.63103 11.5086 6.94911 12.1905 6.10721 12.1905ZM3.74532 5.33332H8.46911V3.8095C8.46911 2.50664 7.41007 1.44761 6.10721 1.44761C4.80436 1.44761 3.74532 2.50664 3.74532 3.8095V5.33332Z" fill="black"/>
</svg>
