<svg width="16" height="16" viewBox="0 0 16 16" fill="none" xmlns="http://www.w3.org/2000/svg">
<path fill-rule="evenodd" clip-rule="evenodd" d="M4.3528 15.3041H15.6522C15.8443 15.3041 16 15.4598 16 15.6519C16 15.844 15.8443 15.9998 15.6522 15.9998H0.347826C0.155727 15.9998 0 15.844 0 15.6519C0 15.4598 0.155727 15.3041 0.347826 15.3041H2.95155L3.3125 11.679C3.32164 11.5867 3.36729 11.5019 3.4393 11.4434L4.97769 10.1931L5.56045 9.18793L5.30862 9.04185C5.22542 8.99362 5.16591 8.91307 5.14426 8.81937C5.1226 8.72567 5.14073 8.62718 5.19434 8.54734L10.5326 0.587883C10.9078 0.0368777 11.6448 -0.13094 12.2217 0.203271C12.7985 0.537483 13.0194 1.26033 12.728 1.85993L12.408 2.5059L12.901 2.77581C13.0589 2.86209 13.1249 3.05464 13.053 3.21963L11.3884 7.04572C11.3329 7.17214 11.2079 7.25374 11.0698 7.25362C11.0219 7.25376 10.9745 7.24388 10.9307 7.2246C10.7548 7.14801 10.6742 6.94343 10.7506 6.76746L12.2884 3.23395L12.099 3.13019L8.47304 10.4481C8.43034 10.5343 8.35383 10.5989 8.26172 10.6267C8.1696 10.6544 8.07011 10.6428 7.98688 10.5945L7.73506 10.4487L7.1523 11.454L6.8317 13.4103C6.8168 13.5018 6.7659 13.5835 6.69038 13.6371L4.3528 15.3041ZM11.8723 0.804497C11.6129 0.654053 11.2815 0.727614 11.1102 0.973672L5.97883 8.62624L8.01451 9.80647L12.104 1.55007C12.2324 1.27913 12.1317 0.954941 11.8723 0.804497ZM7.13342 10.0996L6.69297 10.8593L5.72184 10.2964L6.16229 9.53675L7.13342 10.0996ZM6.43757 11.5152L5.2796 10.8442L3.99026 11.892L3.77163 14.0863L4.73361 12.4265C4.82999 12.2603 5.04285 12.2037 5.20904 12.3001C5.37524 12.3965 5.43183 12.6093 5.33545 12.7755L4.37347 14.4349L6.16865 13.1549L6.43757 11.5152Z" fill="black"/>
</svg>
