<svg width="16" height="16" viewBox="0 0 16 16" fill="none" xmlns="http://www.w3.org/2000/svg">
<circle cx="8" cy="8" r="8" fill="url(#paint0_linear)"/>
<path fill-rule="evenodd" clip-rule="evenodd" d="M8 3.28125C5.39803 3.28125 3.28125 5.39803 3.28125 8C3.28125 10.602 5.39803 12.7188 8 12.7188C10.602 12.7188 12.7188 10.602 12.7188 8C12.7188 5.39803 10.602 3.28125 8 3.28125ZM8.56678 7.00003L7.99996 5.8515L7.4329 7.00003C7.39253 7.0819 7.31443 7.13881 7.2239 7.15184L5.95665 7.33615L6.87396 8.23012C6.93928 8.29381 6.96912 8.38572 6.95365 8.47572L6.73706 9.73809L7.87093 9.14228C7.91131 9.12087 7.95549 9.11028 7.99996 9.11028C8.04443 9.11028 8.08859 9.12084 8.12899 9.14228L9.26287 9.73809L9.04628 8.47572C9.03081 8.38572 9.06065 8.29384 9.12596 8.23012L10.0433 7.33615L8.77574 7.15184C8.68521 7.13881 8.60715 7.0819 8.56678 7.00003ZM9.61791 8.52588L10.8337 7.34104C10.9093 7.26732 10.9364 7.15697 10.9038 7.05669C10.871 6.95613 10.7843 6.88294 10.6796 6.86775L8.99981 6.62354L8.24869 5.1015C8.20206 5.00663 8.10556 4.94672 7.99985 4.94672C7.89413 4.94672 7.79763 5.00663 7.751 5.1015L6.9996 6.62354L5.32006 6.86775C5.21544 6.88294 5.12872 6.95613 5.09591 7.05669C5.06341 7.15697 5.0905 7.26732 5.16613 7.34104L6.38188 8.52588L6.09481 10.1986C6.07694 10.3027 6.11978 10.4079 6.20516 10.47C6.2911 10.5326 6.40494 10.541 6.49738 10.4911L7.99991 9.7015L9.50241 10.4911C9.59453 10.54 9.7086 10.5328 9.79463 10.47C9.88003 10.4079 9.92288 10.3027 9.90497 10.1986L9.61791 8.52588Z" fill="url(#paint1_linear)"/>
<defs>
<linearGradient id="paint0_linear" x1="16" y1="16" x2="16" y2="0" gradientUnits="userSpaceOnUse">
<stop stop-color="#FFE59A"/>
<stop offset="1" stop-color="#FFFFD5"/>
</linearGradient>
<linearGradient id="paint1_linear" x1="3.28125" y1="3.28125" x2="3.28125" y2="12.7188" gradientUnits="userSpaceOnUse">
<stop stop-color="#FD5900"/>
<stop offset="1" stop-color="#FFDE00"/>
</linearGradient>
</defs>
</svg>
