<svg width="48" height="47" viewBox="0 0 48 47" fill="none" xmlns="http://www.w3.org/2000/svg">
<path d="M15.2747 15.6548C15.2194 15.2414 15.1931 14.8248 15.1947 14.4074C15.1867 11.896 16.1694 9.48275 17.9293 7.6909C13.7755 6.18368 9.18588 8.32981 7.67857 12.4837C7.36198 13.3569 7.1996 14.278 7.19885 15.2071C7.1997 15.9843 7.31238 16.7576 7.53467 17.5019C8.8916 16.0371 10.7986 15.2047 12.7959 15.2071C13.6428 15.2031 14.4831 15.355 15.2747 15.6548Z" fill="#D9534F"/>
<path fill-rule="evenodd" clip-rule="evenodd" d="M37.5831 13.6079C36.7708 13.6063 35.9616 13.7006 35.1716 13.8877C34.8893 8.15864 30.0159 3.74254 24.286 4.02557C21.8425 4.14632 19.5197 5.12498 17.7278 6.79054C13.0902 5.38092 8.18793 7.99795 6.7783 12.6356C6.31696 14.1539 6.27533 15.7683 6.65915 17.3076C5.91955 18.1872 5.37983 19.217 5.07674 20.3252C1.27874 21.4966 -0.849761 25.5257 0.321645 29.323C1.2524 32.3399 4.04136 34.3979 7.19886 34.3979H37.5831C37.8798 34.3979 38.1677 34.3891 38.4491 34.3635C44.171 33.8974 48.4311 28.8808 47.965 23.1589C47.5245 17.7545 43.0052 13.5967 37.5831 13.6079ZM15.1947 8.01079C15.6313 8.01079 16.0671 8.04998 16.4964 8.12751C16.4291 8.21627 16.3672 8.30776 16.3053 8.39925C16.279 8.43802 16.2528 8.47679 16.2261 8.51536C16.2047 8.54596 16.1827 8.57656 16.1607 8.60717L16.1605 8.60746C16.1251 8.65673 16.0896 8.706 16.0566 8.75526C15.8887 9.01429 15.7312 9.27895 15.5873 9.55082C15.5782 9.56839 15.57 9.58637 15.5618 9.60435L15.5617 9.6044L15.5617 9.60445C15.5535 9.62243 15.5453 9.64042 15.5361 9.65798C15.4131 9.89789 15.2994 10.1417 15.1956 10.3904C15.1701 10.4515 15.1472 10.5133 15.1242 10.5753C15.1111 10.6107 15.098 10.6461 15.0844 10.6815C15.0108 10.875 14.9405 11.0694 14.8789 11.2668C14.8437 11.378 14.8125 11.4891 14.7821 11.601C14.7286 11.7929 14.6806 11.9872 14.6382 12.1831L14.6285 12.2286L14.6285 12.2286C14.6076 12.3263 14.5868 12.4239 14.5695 12.5221C14.5311 12.7324 14.5024 12.9443 14.4768 13.157C14.4728 13.1903 14.4684 13.2235 14.4641 13.2568C14.4554 13.3232 14.4466 13.3897 14.4408 13.4568C14.4127 13.7734 14.3952 14.0877 14.3952 14.4075V14.5675C13.8691 14.4603 13.3334 14.4068 12.796 14.4075C12.545 14.4075 12.2955 14.4227 12.0468 14.4467C11.99 14.4519 11.9374 14.459 11.8844 14.4661L11.8844 14.4661C11.8627 14.469 11.8409 14.472 11.8189 14.4748C11.643 14.4963 11.4679 14.5235 11.2952 14.5547C11.2152 14.5699 11.1352 14.5859 11.0553 14.6043C10.8713 14.6451 10.6891 14.6947 10.5083 14.7491C10.4874 14.7551 10.4665 14.7608 10.4456 14.7665L10.4455 14.7665L10.4455 14.7665C10.4082 14.7767 10.371 14.7869 10.3341 14.7987C10.1022 14.8746 9.87346 14.9586 9.64958 15.0569C9.61058 15.0734 9.57289 15.0918 9.53502 15.1103C9.51391 15.1206 9.49275 15.1309 9.47127 15.1409C9.30655 15.2161 9.14427 15.2961 8.98433 15.3809C8.92333 15.4126 8.86603 15.4462 8.80857 15.4798L8.75483 15.5112C8.61093 15.5959 8.46936 15.6863 8.33108 15.7799L8.2965 15.8029C8.2385 15.8415 8.18069 15.8799 8.12399 15.9206C8.11168 15.9296 8.09901 15.938 8.08638 15.9464C8.07199 15.956 8.05766 15.9656 8.04402 15.9758C8.01524 15.7207 8.00005 15.464 7.99846 15.2074C8.00324 11.2348 11.2224 8.01557 15.1947 8.01079ZM37.5831 32.798C37.8303 32.798 38.0701 32.7908 38.31 32.7692C42.8828 32.399 46.4034 28.5746 46.3947 23.9866C46.3859 19.1291 42.4407 15.1983 37.5832 15.2071C36.5806 15.2032 35.5843 15.3743 34.64 15.7117C34.5415 15.747 34.4376 15.7629 34.3337 15.7581C33.8923 15.7389 33.5509 15.3655 33.5701 14.9241C33.5781 14.7522 33.5853 14.5802 33.5853 14.4075C33.5797 9.55251 29.645 5.61773 24.7898 5.61211C20.5872 5.60404 16.9675 8.57376 16.1543 12.6964C16.0463 13.2601 15.9928 13.8334 15.9944 14.4075C15.9928 14.7882 16.0168 15.1687 16.0671 15.5461C16.0847 15.6797 16.0695 15.8156 16.0207 15.9419C15.8625 16.3538 15.3995 16.5593 14.9877 16.4009C14.2872 16.1354 13.5444 16.0019 12.796 16.0067C9.75599 16.0147 7.13811 18.1552 6.52724 21.1336C6.46405 21.4399 6.22902 21.6813 5.92433 21.7517C3.39599 22.345 1.60733 24.5999 1.60574 27.1969C1.6034 30.2881 4.10765 32.7956 7.19886 32.798H37.5831Z" fill="#231F20"/>
<path d="M15.1947 4.81212C14.7534 4.81212 14.3951 4.4539 14.3951 4.01252V0.814242C14.3951 0.372867 14.7534 0.0146484 15.1947 0.0146484C15.6361 0.0146484 15.9943 0.372867 15.9943 0.814242V4.01262C15.9943 4.45474 15.6361 4.81212 15.1947 4.81212Z" fill="black"/>
<path d="M10.789 5.85202C10.4652 5.85286 10.1733 5.65768 10.0494 5.35871L8.82604 2.40015C8.66929 1.98755 8.87638 1.52536 9.28897 1.36871C9.68479 1.21843 10.1293 1.40227 10.3029 1.78852L11.5271 4.74699C11.6958 5.1548 11.5015 5.62252 11.0937 5.79127C10.9969 5.83121 10.8937 5.85202 10.789 5.85202Z" fill="black"/>
<path d="M7.11418 8.49018C6.90231 8.49018 6.6984 8.40618 6.54887 8.2559L4.28687 5.99465C3.96943 5.68836 3.96062 5.1823 4.26765 4.86402C4.57393 4.54658 5.08 4.53777 5.39828 4.8448C5.40465 4.85118 5.41187 4.85755 5.41825 4.86477L7.6795 7.12677C7.99131 7.43943 7.99131 7.94558 7.6795 8.2574C7.52837 8.40702 7.32531 8.49102 7.11418 8.49018Z" fill="black"/>
<path d="M4.72978 12.3391C4.62506 12.3391 4.5211 12.3182 4.42435 12.2783L1.46588 11.0541C1.05806 10.8838 0.864564 10.4152 1.03491 10.0075C1.20525 9.59977 1.67381 9.40618 2.08153 9.57652L5.04 10.8007C5.44781 10.9695 5.64206 11.4372 5.47341 11.845C5.34947 12.1441 5.05763 12.3391 4.73381 12.3391H4.72978V12.3391Z" fill="black"/>
<path d="M4.00056 16.8062H0.802279C0.360904 16.8062 0.00268555 16.448 0.00268555 16.0066C0.00268555 15.5653 0.360904 15.207 0.802279 15.207H4.00065C4.44203 15.207 4.80025 15.5653 4.80025 16.0066C4.80025 16.448 4.44194 16.8062 4.00056 16.8062Z" fill="black"/>
<path d="M21.2604 40.3254C20.819 40.3254 20.4608 39.9672 20.4608 39.5259C20.4608 39.314 20.5448 39.1108 20.6951 38.9605L22.9563 36.6993C23.2738 36.3923 23.7799 36.4011 24.087 36.7185C24.386 37.0287 24.386 37.5197 24.087 37.8299L21.8257 40.0912C21.6762 40.2414 21.4723 40.3254 21.2604 40.3254Z" fill="black"/>
<path d="M16.4629 40.3252C16.0215 40.3252 15.6633 39.967 15.6633 39.5256C15.6633 39.3138 15.7473 39.1106 15.8976 38.9603L18.1589 36.6991C18.4659 36.3816 18.972 36.3728 19.2895 36.6791C19.6069 36.9861 19.6157 37.4923 19.3095 37.8097C19.3031 37.8161 19.2967 37.8233 19.2895 37.8297L17.0282 40.091C16.8787 40.2412 16.6748 40.3252 16.4629 40.3252Z" fill="black"/>
<path d="M11.6654 40.3252C11.2241 40.3252 10.8658 39.967 10.8658 39.5256C10.8658 39.3138 10.9498 39.1106 11.1001 38.9603L13.3614 36.6991C13.6684 36.3816 14.1746 36.3728 14.492 36.6791C14.8094 36.9861 14.8183 37.4923 14.512 37.8097C14.5056 37.8161 14.4992 37.8233 14.492 37.8297L12.2308 40.091C12.0812 40.2412 11.8773 40.3252 11.6654 40.3252Z" fill="black"/>
<path d="M26.0579 40.3254C25.6165 40.3254 25.2583 39.9672 25.2583 39.5259C25.2583 39.314 25.3423 39.1108 25.4926 38.9605L27.7538 36.6993C28.0713 36.3923 28.5774 36.4011 28.8845 36.7185C29.1835 37.0287 29.1835 37.5197 28.8845 37.8299L26.6232 40.0912C26.4737 40.2414 26.2699 40.3254 26.0579 40.3254Z" fill="black"/>
<path d="M30.8555 40.3254C30.4141 40.3254 30.0559 39.9672 30.0559 39.5259C30.0559 39.314 30.1399 39.1108 30.2902 38.9605L32.5514 36.6993C32.8689 36.3923 33.375 36.4011 33.6821 36.7185C33.9811 37.0287 33.9811 37.5197 33.6821 37.8299L31.4208 40.0912C31.2713 40.2414 31.0674 40.3254 30.8555 40.3254Z" fill="black"/>
<path d="M15.6632 45.9229C15.2219 45.9229 14.8636 45.5647 14.8636 45.1233C14.8636 44.9114 14.9476 44.7083 15.0979 44.558L17.3592 42.2967C17.6662 41.9793 18.1724 41.9705 18.4898 42.2768C18.8072 42.5838 18.8161 43.09 18.5098 43.4074C18.5034 43.4138 18.497 43.421 18.4898 43.4274L16.2286 45.6886C16.079 45.839 15.8752 45.9229 15.6632 45.9229Z" fill="black"/>
<path d="M10.8658 45.9229C10.4244 45.9229 10.0662 45.5647 10.0662 45.1233C10.0662 44.9114 10.1502 44.7083 10.3004 44.558L12.5617 42.2967C12.8687 41.9793 13.3749 41.9705 13.6923 42.2768C14.0098 42.5838 14.0186 43.09 13.7123 43.4074C13.7059 43.4138 13.6995 43.421 13.6923 43.4274L11.4311 45.6886C11.2815 45.839 11.0776 45.9229 10.8658 45.9229Z" fill="black"/>
<path d="M6.06827 45.9229C5.6269 45.9229 5.26868 45.5647 5.26868 45.1233C5.26868 44.9114 5.35268 44.7083 5.50296 44.558L7.76421 42.2967C8.07124 41.9793 8.5774 41.9705 8.89483 42.2768C9.21227 42.5838 9.22108 43.09 8.9148 43.4074C8.90843 43.4138 8.90205 43.421 8.89483 43.4274L6.63358 45.6886C6.48405 45.839 6.28015 45.9229 6.06827 45.9229Z" fill="black"/>
<path d="M20.4608 45.9229C20.0195 45.9229 19.6613 45.5647 19.6613 45.1233C19.6613 44.9114 19.7453 44.7083 19.8955 44.558L22.1568 42.2967C22.4638 41.9793 22.97 41.9705 23.2874 42.2768C23.6048 42.5838 23.6137 43.09 23.3074 43.4074C23.301 43.4138 23.2946 43.421 23.2874 43.4274L21.0262 45.6886C20.8766 45.839 20.6727 45.9229 20.4608 45.9229Z" fill="black"/>
<path d="M25.2583 45.9221C24.817 45.9221 24.4587 45.5639 24.4587 45.1225C24.4587 44.9107 24.5427 44.7075 24.693 44.5572L26.9543 42.296C27.2717 41.9889 27.7779 41.9978 28.0849 42.3152C28.384 42.6254 28.384 43.1164 28.0849 43.4266L25.8236 45.6878C25.6742 45.8382 25.4703 45.9221 25.2583 45.9221Z" fill="black"/>
</svg>
