<svg width="49" height="49" viewBox="0 0 49 49" fill="none" xmlns="http://www.w3.org/2000/svg">
<circle cx="24.875" cy="24.8438" r="24" fill="url(#paint0_linear)"/>
<path fill-rule="evenodd" clip-rule="evenodd" d="M11.5514 16.5H38.1986C38.6588 16.5 39.0312 16.8732 39.0312 17.3344V32.3531C39.0312 32.8143 38.6588 33.1875 38.1985 33.1875H11.5514C11.0912 33.1875 10.7188 32.8143 10.7188 32.3531V17.3344C10.7188 16.8732 11.0911 16.5 11.5514 16.5ZM14.8824 29.85C15.3426 29.85 15.7151 29.4768 15.7151 29.0156V20.6719C15.7151 20.2106 15.3426 19.8375 14.8824 19.8375C14.4222 19.8375 14.0497 20.2107 14.0497 20.6719V29.0156C14.0497 29.4769 14.4222 29.85 14.8824 29.85ZM18.2132 29.85C17.7534 29.85 17.3805 29.4764 17.3805 29.0156C17.3805 28.5547 17.7534 28.1812 18.2132 28.1812C18.6731 28.1812 19.0459 28.5547 19.0459 29.0156C19.0459 29.4764 18.6731 29.85 18.2132 29.85ZM18.2132 26.5125C18.6734 26.5125 19.0459 26.1393 19.0459 25.6781V20.6719C19.0459 20.2106 18.6735 19.8375 18.2132 19.8375C17.753 19.8375 17.3805 20.2107 17.3805 20.6719V25.6781C17.3805 26.1393 17.7529 26.5125 18.2132 26.5125ZM21.5442 29.85C21.0843 29.85 20.7115 29.4764 20.7115 29.0156C20.7115 28.5547 21.0843 28.1812 21.5442 28.1812C22.004 28.1812 22.3768 28.5547 22.3768 29.0156C22.3768 29.4764 22.004 29.85 21.5442 29.85ZM21.5442 26.5125C22.0044 26.5125 22.3768 26.1393 22.3768 25.6781V20.6719C22.3768 20.2106 22.0044 19.8375 21.5442 19.8375C21.0839 19.8375 20.7115 20.2107 20.7115 20.6719V25.6781C20.7115 26.1393 21.0839 26.5125 21.5442 26.5125ZM25.7077 29.0156C25.7077 29.4768 25.3352 29.85 24.875 29.85C24.4148 29.85 24.0423 29.4769 24.0423 29.0156V20.6719C24.0423 20.2107 24.4148 19.8375 24.875 19.8375C25.3352 19.8375 25.7077 20.2106 25.7077 20.6719V29.0156ZM27.3732 29.0156C27.3732 29.4764 27.746 29.85 28.2058 29.85C28.6658 29.85 29.0386 29.4764 29.0385 29.0156C29.0385 28.5547 28.6657 28.1812 28.2058 28.1812C27.746 28.1812 27.3732 28.5547 27.3732 29.0156ZM29.0386 25.6781C29.0386 26.1393 28.6662 26.5125 28.2059 26.5125C27.7457 26.5125 27.3732 26.1393 27.3732 25.6781V20.6719C27.3732 20.2107 27.7457 19.8375 28.2059 19.8375C28.6662 19.8375 29.0386 20.2106 29.0386 20.6719V25.6781ZM30.7041 29.0156C30.7041 29.4764 31.0769 29.85 31.5368 29.85C31.9966 29.85 32.3695 29.4764 32.3695 29.0156C32.3695 28.5547 31.9966 28.1812 31.5368 28.1812C31.0769 28.1812 30.7041 28.5547 30.7041 29.0156ZM32.3695 25.6781C32.3695 26.1393 31.997 26.5125 31.5368 26.5125C31.0765 26.5125 30.7041 26.1393 30.7041 25.6781V20.6719C30.7041 20.2107 31.0766 19.8375 31.5368 19.8375C31.9971 19.8375 32.3695 20.2106 32.3695 20.6719V25.6781ZM34.8677 29.85C35.3279 29.85 35.7004 29.4768 35.7004 29.0156V20.6719C35.7004 20.2106 35.3279 19.8375 34.8677 19.8375C34.4075 19.8375 34.035 20.2107 34.035 20.6719V29.0156C34.035 29.4769 34.4075 29.85 34.8677 29.85Z" fill="url(#paint1_linear)"/>
<defs>
<linearGradient id="paint0_linear" x1="48.875" y1="48.8438" x2="48.875" y2="0.84375" gradientUnits="userSpaceOnUse">
<stop stop-color="#FFC8D1"/>
<stop offset="1" stop-color="#FFF6F7"/>
</linearGradient>
<linearGradient id="paint1_linear" x1="39.0312" y1="33.1875" x2="39.0312" y2="16.5" gradientUnits="userSpaceOnUse">
<stop stop-color="#FFA68D"/>
<stop offset="1" stop-color="#FD3A84"/>
</linearGradient>
</defs>
</svg>
