<svg width="49" height="49" viewBox="0 0 49 49" fill="none" xmlns="http://www.w3.org/2000/svg">
<circle cx="24.875" cy="24.8438" r="24" fill="url(#paint0_linear)"/>
<path fill-rule="evenodd" clip-rule="evenodd" d="M34.4538 31.8633C33.5038 30.9322 32.3708 29.409 32.3708 27.4418V24.8438C32.3708 22.4773 31.2466 20.3892 29.5282 19.0147H29.8722C31.25 19.0147 32.3708 17.8941 32.3708 16.5165C32.3708 16.0562 31.9982 15.6838 31.5379 15.6838C31.0776 15.6838 30.705 16.0563 30.705 16.5165C30.705 16.976 30.3317 17.3492 29.8722 17.3492H28.0791C28.4004 16.899 29.1006 15.8462 29.7484 14.8722C30.0455 14.4255 30.3316 13.9953 30.5651 13.6475C30.8107 13.2791 30.7253 12.7822 30.369 12.518C30.2691 12.4433 27.8762 10.6875 24.8749 10.6875C21.8736 10.6875 19.4807 12.4432 19.3807 12.5181C19.0244 12.7823 18.939 13.2792 19.1847 13.6476C20.143 15.0568 20.706 15.9177 21.0738 16.4801L21.0738 16.4801C21.6486 17.3589 21.747 17.5094 22.1326 17.8853C19.3551 18.9835 17.3789 21.6806 17.3789 24.8438V27.4419C17.3789 29.4091 16.246 30.9322 15.2959 31.8634C14.3158 32.8253 13.8815 34.1615 14.1035 35.5284C14.4304 37.5407 16.2687 39 18.3898 39H31.3596C33.4808 39 35.3231 37.5078 35.6459 35.5293C35.8682 34.1615 35.4339 32.8253 34.4538 31.8633ZM23.2092 35.6692C21.8313 35.6692 20.7105 34.5486 20.7105 33.171C20.7105 31.7934 21.8313 30.6728 23.2092 30.6728C24.587 30.6728 25.7078 31.7934 25.7078 33.171C25.7078 34.5486 24.587 35.6692 23.2092 35.6692ZM24.042 26.5092C24.042 27.8868 25.1628 29.0074 26.5407 29.0074C27.9185 29.0074 29.0393 27.8868 29.0393 26.5092C29.0393 25.1317 27.9185 24.0111 26.5407 24.0111C25.1628 24.0111 24.042 25.1317 24.042 26.5092ZM26.5407 25.6764C26.0811 25.6764 25.7078 26.0497 25.7078 26.5091C25.7078 26.9686 26.0811 27.3418 26.5407 27.3418C27.0002 27.3418 27.3735 26.9686 27.3735 26.5091C27.3735 26.0497 27.0002 25.6764 26.5407 25.6764ZM22.3763 33.1709C22.3763 32.7114 22.7496 32.3382 23.2092 32.3382C23.6687 32.3382 24.042 32.7114 24.042 33.1709C24.042 33.6304 23.6687 34.0036 23.2092 34.0036C22.7496 34.0036 22.3763 33.6304 22.3763 33.1709Z" fill="url(#paint1_linear)"/>
<defs>
<linearGradient id="paint0_linear" x1="48.875" y1="48.8438" x2="48.875" y2="0.84375" gradientUnits="userSpaceOnUse">
<stop stop-color="#FFE59A"/>
<stop offset="1" stop-color="#FFFFD5"/>
</linearGradient>
<linearGradient id="paint1_linear" x1="35.703" y1="39" x2="35.703" y2="10.6875" gradientUnits="userSpaceOnUse">
<stop stop-color="#FFDE00"/>
<stop offset="1" stop-color="#FD5900"/>
</linearGradient>
</defs>
</svg>
