<svg width="49" height="49" viewBox="0 0 49 49" fill="none" xmlns="http://www.w3.org/2000/svg">
<circle cx="24.875" cy="24.8438" r="24" fill="url(#paint0_linear)"/>
<path fill-rule="evenodd" clip-rule="evenodd" d="M24.8369 10.6875C17.031 10.6875 10.6807 17.0378 10.6807 24.8438C10.6807 32.6497 17.031 39 24.8369 39C32.6428 39 38.9932 32.6497 38.9932 24.8438C38.9932 17.0378 32.6428 10.6875 24.8369 10.6875ZM22.3388 19.8474C22.3388 18.4699 23.4594 17.3493 24.8369 17.3493C26.2145 17.3493 27.3351 18.4699 27.3351 19.8474C27.3351 21.225 26.2145 22.3456 24.8369 22.3456C23.4594 22.3456 22.3388 21.225 22.3388 19.8474ZM19.0078 31.5055C19.0078 28.2917 21.6232 25.6764 24.8369 25.6764C28.0507 25.6764 30.6659 28.2918 30.6659 31.5055V31.9048C27.3838 34.6168 22.2883 34.6168 19.0078 31.9048V31.5055ZM32.0541 32.9066C32.2305 32.7489 32.3314 32.5228 32.3314 32.2862V31.5055C32.3314 27.3728 28.9696 24.0111 24.8369 24.0111C27.1326 24.0111 29.0005 22.1431 29.0005 19.8474C29.0005 17.5518 27.1326 15.6838 24.8369 15.6838C22.5413 15.6838 20.6733 17.5518 20.6733 19.8474C20.6733 22.1431 22.5413 24.0111 24.8369 24.0111C20.7042 24.0111 17.3424 27.3728 17.3424 31.5055V32.2862C17.3424 32.5228 17.4433 32.7481 17.6198 32.9066C19.608 34.6875 22.1712 35.6691 24.8369 35.6691C27.5018 35.6691 30.065 34.6883 32.0541 32.9066Z" fill="url(#paint1_linear)"/>
<defs>
<linearGradient id="paint0_linear" x1="48.875" y1="48.8438" x2="48.875" y2="0.84375" gradientUnits="userSpaceOnUse">
<stop stop-color="#ADDCFF"/>
<stop offset="0.5028" stop-color="#EAF6FF"/>
<stop offset="1" stop-color="#EAF6FF"/>
</linearGradient>
<linearGradient id="paint1_linear" x1="10.6807" y1="10.6875" x2="10.6807" y2="39" gradientUnits="userSpaceOnUse">
<stop stop-color="#5558FF"/>
<stop offset="1" stop-color="#00C0FF"/>
</linearGradient>
</defs>
</svg>
