<svg width="49" height="49" viewBox="0 0 49 49" fill="none" xmlns="http://www.w3.org/2000/svg">
<circle cx="24.8726" cy="24.5857" r="24" fill="url(#paint0_linear)"/>
<path fill-rule="evenodd" clip-rule="evenodd" d="M24.8726 10.4294C24.4122 10.4294 24.0399 10.8019 24.0399 11.2621V14.593C24.0399 15.0533 24.4123 15.4257 24.8726 15.4257C29.9233 15.4257 34.0325 19.5348 34.0325 24.5856C34.0325 29.6364 29.9233 33.7455 24.8726 33.7455C19.8218 33.7455 15.7126 29.6365 15.7126 24.5857C15.7126 24.1254 15.3402 23.753 14.8798 23.753H11.549C11.0887 23.753 10.7163 24.1255 10.7163 24.5857C10.7163 32.3916 17.0667 38.7419 24.8726 38.7419C32.6785 38.7419 39.0288 32.3916 39.0288 24.5857C39.0288 16.7798 32.6785 10.4294 24.8726 10.4294ZM24.8726 27.0839C23.495 27.0839 22.3744 25.9633 22.3744 24.5857C22.3744 24.1254 22.0019 23.753 21.5417 23.753H18.2108C17.7506 23.753 17.3781 24.1255 17.3781 24.5857C17.3781 28.7184 20.7399 32.0802 24.8726 32.0802C29.0052 32.0802 32.367 28.7184 32.367 24.5857C32.367 20.453 29.0052 17.0912 24.8726 17.0912C24.4122 17.0912 24.0399 17.4637 24.0399 17.9239V21.2548C24.0399 21.7151 24.4123 22.0874 24.8726 22.0874C26.2501 22.0874 27.3707 23.208 27.3707 24.5856C27.3707 25.9633 26.2501 27.0839 24.8726 27.0839ZM21.5416 18.7566H11.549C11.0888 18.7566 10.7163 18.3841 10.7163 17.9239C10.7163 17.4637 11.0887 17.0912 11.549 17.0912H21.5416C22.0018 17.0912 22.3743 17.4637 22.3743 17.9239C22.3743 18.3841 22.0018 18.7566 21.5416 18.7566ZM14.8799 15.4258H21.5417C22.0019 15.4258 22.3744 15.0533 22.3744 14.5931C22.3744 14.1328 22.0019 13.7604 21.5417 13.7604H14.8799C14.4197 13.7604 14.0472 14.1328 14.0472 14.5931C14.0472 15.0533 14.4196 15.4258 14.8799 15.4258ZM12.3817 14.593C12.3817 15.0529 12.0088 15.4257 11.549 15.4257C11.0891 15.4257 10.7163 15.0529 10.7163 14.593C10.7163 14.1331 11.0891 13.7603 11.549 13.7603C12.0088 13.7603 12.3817 14.1331 12.3817 14.593Z" fill="url(#paint1_linear)"/>
<defs>
<linearGradient id="paint0_linear" x1="48.8726" y1="48.5857" x2="48.8726" y2="0.585693" gradientUnits="userSpaceOnUse">
<stop stop-color="#ADDCFF"/>
<stop offset="0.5028" stop-color="#EAF6FF"/>
<stop offset="1" stop-color="#EAF6FF"/>
</linearGradient>
<linearGradient id="paint1_linear" x1="10.7163" y1="10.4294" x2="10.7163" y2="38.7419" gradientUnits="userSpaceOnUse">
<stop stop-color="#5558FF"/>
<stop offset="1" stop-color="#00C0FF"/>
</linearGradient>
</defs>
</svg>
