<svg width="16" height="16" viewBox="0 0 16 16" fill="none" xmlns="http://www.w3.org/2000/svg">
<path d="M14.5938 6.59375H12.25V12.2184L13.1012 12.2188C12.907 12.7632 12.3916 13.1562 11.7812 13.1562H9.875C8.58272 13.1562 7.53125 14.239 7.53125 15.5312V16H8.46875V15.5312C8.46875 14.7558 9.09956 14.0938 9.875 14.0938H11.7812C12.913 14.0938 13.8598 13.2872 14.0776 12.2188H14.5938C15.3692 12.2188 16 11.5879 16 10.8125V8C16 7.22456 15.3692 6.59375 14.5938 6.59375Z" fill="white"/>
<path d="M1.40625 12.2188H3.75V6.59375H1.40625C0.630813 6.59375 0 7.22456 0 8V10.8125C0 11.5879 0.630813 12.2188 1.40625 12.2188Z" fill="white"/>
<path d="M7.99975 1.875C10.1656 1.875 11.9657 3.55266 12.2024 5.65625H14.1011C13.8609 2.51056 11.207 0 7.99975 0C4.79253 0 2.13859 2.51056 1.89844 5.65625H3.79712C4.03378 3.55266 5.83391 1.875 7.99975 1.875Z" fill="white"/>
</svg>
