<svg width="49" height="49" viewBox="0 0 49 49" fill="none" xmlns="http://www.w3.org/2000/svg">
<circle cx="24.8726" cy="24.5857" r="24" fill="url(#paint0_linear)"/>
<path fill-rule="evenodd" clip-rule="evenodd" d="M12.3569 17.0912C12.3569 13.412 15.3454 10.4294 19.0319 10.4294C22.7185 10.4294 25.7069 13.412 25.7069 17.0912C25.7069 20.7703 22.7185 23.753 19.0319 23.753C15.3454 23.753 12.3569 20.7703 12.3569 17.0912ZM21.5351 14.593C21.5351 14.133 21.1615 13.7603 20.7007 13.7603C20.2399 13.7603 19.8663 14.133 19.8663 14.593C19.8663 15.0528 20.2399 15.4257 20.7007 15.4257C21.1615 15.4257 21.5351 15.0528 21.5351 14.593ZM17.3632 13.7603C17.824 13.7603 18.1976 14.133 18.1976 14.593C18.1976 15.0528 17.824 15.4257 17.3632 15.4257C16.9024 15.4257 16.5288 15.0528 16.5288 14.593C16.5288 14.133 16.9024 13.7603 17.3632 13.7603ZM19.0319 20.4221C20.4432 20.4221 21.7077 19.53 22.1787 18.2021C22.3319 17.7686 22.1038 17.292 21.6702 17.1392C21.2335 16.9896 20.7592 17.2124 20.6044 17.6458C20.3697 18.3103 19.7375 18.7567 19.0318 18.7567C18.3263 18.7567 17.6939 18.3103 17.4593 17.6458C17.3029 17.2108 16.8286 16.9863 16.3935 17.1392C15.9601 17.2921 15.7319 17.7687 15.8851 18.2021C16.356 19.5299 17.6207 20.4221 19.0319 20.4221ZM30.7132 20.4221C27.0267 20.4221 24.0382 23.4046 24.0382 27.0839C24.0382 30.763 27.0267 33.7456 30.7132 33.7456C34.3997 33.7456 37.3882 30.763 37.3882 27.0839C37.3882 23.4046 34.3997 20.4221 30.7132 20.4221ZM33.2163 24.5857C33.2163 24.1258 32.8427 23.753 32.3819 23.753C31.9212 23.753 31.5476 24.1258 31.5476 24.5857C31.5476 25.0455 31.9212 25.4184 32.3819 25.4184C32.8427 25.4184 33.2163 25.0455 33.2163 24.5857ZM29.0444 23.753C29.5052 23.753 29.8788 24.1258 29.8788 24.5857C29.8788 25.0455 29.5052 25.4184 29.0444 25.4184C28.5837 25.4184 28.2101 25.0455 28.2101 24.5857C28.2101 24.1258 28.5837 23.753 29.0444 23.753ZM32.2858 29.8602C32.4398 30.2904 32.9118 30.5208 33.3516 30.3668C33.7851 30.2139 34.0132 29.7373 33.8602 29.3039C33.3893 27.9761 32.1246 27.0839 30.7134 27.0839C29.3022 27.0839 28.0376 27.976 27.5666 29.3039C27.4134 29.7373 27.6415 30.2139 28.075 30.3668C28.5133 30.5213 28.9859 30.2944 29.1407 29.8602C29.3754 29.1958 30.0076 28.7493 30.7133 28.7493C31.4188 28.7493 32.0512 29.1958 32.2858 29.8602ZM27.3757 34.7052V37.9092C27.3757 38.3695 27.7489 38.7418 28.2101 38.7418H33.2163C33.6775 38.7418 34.0507 38.3694 34.0507 37.9092V34.7052C33.0267 35.1538 31.901 35.411 30.7132 35.411C29.5254 35.4111 28.3996 35.1538 27.3757 34.7052ZM15.6944 37.9093V24.7125C16.7184 25.1611 17.8441 25.4184 19.0319 25.4184C20.2197 25.4184 21.3455 25.1611 22.3694 24.7125V37.9093C22.3694 38.3695 21.9962 38.7419 21.5351 38.7419H16.5288C16.0677 38.7419 15.6944 38.3696 15.6944 37.9093Z" fill="url(#paint1_linear)"/>
<defs>
<linearGradient id="paint0_linear" x1="48.8726" y1="48.5857" x2="48.8726" y2="0.585693" gradientUnits="userSpaceOnUse">
<stop stop-color="#FFBEF9"/>
<stop offset="1" stop-color="#FFF1FF"/>
</linearGradient>
<linearGradient id="paint1_linear" x1="37.3882" y1="38.7419" x2="37.3882" y2="10.4294" gradientUnits="userSpaceOnUse">
<stop stop-color="#FF81FF"/>
<stop offset="1" stop-color="#A93AFF"/>
</linearGradient>
</defs>
</svg>
