<svg width="32" height="32" viewBox="0 0 32 32" fill="none" xmlns="http://www.w3.org/2000/svg">
<path d="M26 32H6C2.686 32 0 29.314 0 26V6C0 2.686 2.686 0 6 0H26C29.314 0 32 2.686 32 6V26C32 29.314 29.314 32 26 32Z" fill="#FFF9DD"/>
<path d="M12 11C11.816 11 11.667 11.149 11.667 11.333V12H12.334V11.333C12.333 11.149 12.184 11 12 11Z" fill="#FFD200"/>
<path fill-rule="evenodd" clip-rule="evenodd" d="M9.833 8H14.167C15.178 8 16 8.822 16 9.833V14.167C16 15.178 15.178 16 14.166 16H9.833C8.822 16 8 15.178 8 14.166V9.833C8 8.822 8.822 8 9.833 8ZM12.833 14C13.109 14 13.333 13.776 13.333 13.5V11.333C13.333 10.598 12.735 10 12 10C11.265 10 10.667 10.598 10.666 11.333V13.5C10.666 13.776 10.89 14 11.166 14C11.442 14 11.666 13.776 11.666 13.5V13H12.333V13.5C12.333 13.776 12.557 14 12.833 14Z" fill="#FFD200"/>
<path d="M20.667 14C20.299 14 20 13.701 20 13.333V12.666C20 12.299 19.701 12 19.333 12H18.666C18.299 12 18 11.701 18 11.333C18 10.965 18.299 10.666 18.667 10.666H19.334C20.437 10.666 21.334 11.563 21.334 12.666V13.333C21.333 13.701 21.035 14 20.667 14Z" fill="#FFD200"/>
<path d="M13.333 21.333H12.666C11.563 21.333 10.666 20.436 10.666 19.333V18.666C10.666 18.298 10.965 17.999 11.333 17.999C11.701 17.999 12 18.299 12 18.667V19.334C12 19.701 12.299 20 12.667 20H13.334C13.701 20 14 20.299 14 20.667C14 21.035 13.701 21.333 13.333 21.333Z" fill="#FFD200"/>
<path d="M20 20.283C20.147 20.113 20.231 19.911 20.278 19.667H19.722C19.769 19.911 19.853 20.113 20 20.283Z" fill="#FFE777"/>
<path fill-rule="evenodd" clip-rule="evenodd" d="M17.834 16H22.167C23.178 16 24 16.822 24 17.834V22.167C24 23.178 23.178 24 22.166 24H17.833C16.822 24 16 23.178 16 22.166V17.833C16 16.822 16.822 16 17.834 16ZM21.987 21.613C22.049 21.344 21.882 21.076 21.613 21.013C21.318 20.944 21.08 20.872 20.866 20.798C21.078 20.501 21.216 20.128 21.283 19.667H21.5C21.776 19.667 22 19.443 22 19.167C22 18.891 21.776 18.667 21.5 18.667H20.5V18.5C20.5 18.224 20.276 18 20 18C19.724 18 19.5 18.224 19.5 18.5V18.666H18.5C18.224 18.666 18 18.89 18 19.166C18 19.442 18.224 19.666 18.5 19.666H18.717C18.784 20.128 18.922 20.501 19.134 20.797C18.92 20.872 18.682 20.944 18.387 21.013C18.117 21.075 17.95 21.344 18.013 21.613C18.067 21.844 18.273 22 18.5 22C18.537 22 18.575 21.996 18.612 21.987C19.152 21.861 19.611 21.71 19.999 21.509C20.388 21.71 20.846 21.861 21.386 21.987C21.424 21.996 21.463 22 21.5 22C21.728 22 21.933 21.844 21.987 21.613Z" fill="#FFE777"/>
</svg>
