<svg width="32" height="32" viewBox="0 0 32 32" fill="none" xmlns="http://www.w3.org/2000/svg">
<path d="M26 32H6C2.686 32 0 29.314 0 26V6C0 2.686 2.686 0 6 0H26C29.314 0 32 2.686 32 6V26C32 29.314 29.314 32 26 32Z" fill="#FFE6E2"/>
<path fill-rule="evenodd" clip-rule="evenodd" d="M10.666 17.666C10.666 19.688 12.311 21.333 14.333 21.333C16.355 21.333 18 19.689 18 17.667C18 15.645 16.354 14 14.333 14C12.312 14 10.666 15.644 10.666 17.666ZM12 17.666C12 16.38 13.047 15.333 14.333 15.333C15.62 15.333 16.666 16.381 16.666 17.667C16.666 18.953 15.619 20 14.333 20C13.047 20 12 18.952 12 17.666Z" fill="#FD907E"/>
<path d="M20.667 15.333C20.299 15.333 20 15.034 20 14.666V12H17.333C16.965 12 16.666 11.701 16.666 11.333C16.666 10.965 16.965 10.666 17.333 10.666H20.666C21.034 10.666 21.333 10.965 21.333 11.333V14.666C21.333 15.035 21.035 15.333 20.667 15.333V15.333Z" fill="#FD907E"/>
<path d="M15.8591 15.1957L20.1916 10.8632L21.1341 11.8056L16.8016 16.1381L15.8591 15.1957Z" fill="#FD907E"/>
<path fill-rule="evenodd" clip-rule="evenodd" d="M10 24H22C23.103 24 24 23.103 24 22V10C24 8.897 23.103 8 22 8H10C8.897 8 8 8.897 8 10V22C8 23.103 8.897 24 10 24ZM9.333 10C9.333 9.632 9.632 9.333 10 9.333H22C22.368 9.333 22.667 9.632 22.667 10V22C22.667 22.368 22.368 22.667 22 22.667H10C9.632 22.667 9.333 22.368 9.333 22V10Z" fill="#FC573B"/>
</svg>
