<svg width="32" height="32" viewBox="0 0 32 32" fill="none" xmlns="http://www.w3.org/2000/svg">
<path d="M26 32H6C2.686 32 0 29.314 0 26V6C0 2.686 2.686 0 6 0H26C29.314 0 32 2.686 32 6V26C32 29.314 29.314 32 26 32Z" fill="#FFF9DD"/>
<path d="M21.496 12.051C21.364 12.051 21.233 11.999 21.135 11.897C19.759 10.459 17.933 9.667 15.996 9.667C14.059 9.667 12.234 10.459 10.857 11.897C10.666 12.096 10.349 12.103 10.15 11.913C9.95097 11.722 9.94397 11.406 10.134 11.206C11.701 9.569 13.783 8.667 15.995 8.667C18.207 8.667 20.289 9.569 21.856 11.206C22.047 11.406 22.04 11.722 21.84 11.913C21.745 12.005 21.62 12.051 21.496 12.051Z" fill="#FFE777"/>
<path d="M19.924 13.692C19.792 13.692 19.661 13.64 19.563 13.538C18.607 12.539 17.34 11.989 15.996 11.989C14.652 11.989 13.385 12.539 12.429 13.538C12.238 13.737 11.921 13.744 11.722 13.554C11.523 13.363 11.516 13.047 11.706 12.847C12.852 11.649 14.376 10.99 15.996 10.99C17.616 10.99 19.139 11.65 20.286 12.847C20.477 13.047 20.47 13.363 20.27 13.554C20.173 13.646 20.049 13.692 19.924 13.692Z" fill="#FFE777"/>
<path d="M18.353 15.333C18.22 15.333 18.088 15.281 17.99 15.177C17.462 14.619 16.754 14.311 15.996 14.311C15.238 14.311 14.53 14.618 14.002 15.177C13.812 15.378 13.495 15.386 13.295 15.196C13.094 15.006 13.086 14.69 13.275 14.489C13.994 13.729 14.961 13.311 15.996 13.311C17.031 13.311 17.997 13.729 18.717 14.489C18.906 14.69 18.898 15.006 18.697 15.196C18.601 15.288 18.477 15.333 18.353 15.333V15.333Z" fill="#FFE777"/>
<path d="M10.892 23.334C10.572 23.334 10.257 23.21 10.018 22.972L8.34695 21.3C8.10295 21.056 7.97495 20.731 7.98895 20.385C8.00295 20.033 8.16495 19.698 8.43695 19.466C12.767 15.758 19.264 15.758 23.548 19.462C23.814 19.691 23.973 20.022 23.987 20.369C24.001 20.714 23.874 21.04 23.632 21.286L22.01 22.93C21.604 23.336 20.981 23.414 20.493 23.122L18.797 22.108C18.367 21.851 18.137 21.364 18.21 20.868L18.361 19.838C16.847 19.414 15.213 19.41 13.68 19.826L13.828 20.891C13.896 21.385 13.665 21.871 13.236 22.129L11.533 23.155C11.334 23.275 11.112 23.334 10.892 23.334Z" fill="#FFD200"/>
</svg>
