<svg width="32" height="32" viewBox="0 0 32 32" fill="none" xmlns="http://www.w3.org/2000/svg">
<path d="M26 32H6C2.68604 32 0 29.314 0 26V6C0 2.68604 2.68604 0 6 0H26C29.314 0 32 2.68604 32 6V26C32 29.314 29.314 32 26 32Z" fill="#E3F8FA"/>
<path d="M12.167 15.333H10.5C10.2241 15.333 10 15.5569 10 15.833V17.5C10 17.7759 10.2241 18 10.5 18H12.167C12.4431 18 12.667 17.7759 12.667 17.5V15.833C12.667 15.5569 12.4431 15.333 12.167 15.333Z" fill="#8CE1EB"/>
<path d="M12.167 19.333H10.5C10.2241 19.333 10 19.5569 10 19.833V21.5C10 21.7759 10.2241 22 10.5 22H12.167C12.4431 22 12.667 21.7759 12.667 21.5V19.833C12.667 19.5569 12.4431 19.333 12.167 19.333Z" fill="#8CE1EB"/>
<path d="M16.833 15.333H15.166C14.8899 15.333 14.666 15.5569 14.666 15.833V17.5C14.666 17.7759 14.8899 18 15.166 18H16.833C17.1089 18 17.333 17.7759 17.333 17.5V15.833C17.333 15.5569 17.1089 15.333 16.833 15.333Z" fill="#8CE1EB"/>
<path d="M16.833 19.333H15.166C14.8899 19.333 14.666 19.5569 14.666 19.833V21.5C14.666 21.7759 14.8899 22 15.166 22H16.833C17.1089 22 17.333 21.7759 17.333 21.5V19.833C17.333 19.5569 17.1089 19.333 16.833 19.333Z" fill="#26C6DA"/>
<path d="M21.5 15.333H19.833C19.5569 15.333 19.333 15.5569 19.333 15.833V17.5C19.333 17.7759 19.5569 18 19.833 18H21.5C21.7759 18 22 17.7759 22 17.5V15.833C22 15.5569 21.7759 15.333 21.5 15.333Z" fill="#8CE1EB"/>
<path fill-rule="evenodd" clip-rule="evenodd" d="M10 10H22C23.103 10 24 10.897 24 12V22C24 23.103 23.103 24 22 24H10C8.89697 24 8 23.103 8 22V12C8 10.897 8.89697 10 10 10ZM22 22.667C22.3679 22.667 22.667 22.3679 22.667 22H22.666V14.6931H9.33301V22C9.33301 22.3679 9.63208 22.667 10 22.667H22Z" fill="#26C6DA"/>
<path d="M12 8H11.333C10.9651 8 10.666 8.2981 10.666 8.66699V11.334C10.666 11.7019 10.9641 12.001 11.333 12.001H12C12.3679 12.001 12.667 11.7029 12.667 11.334V8.66699C12.667 8.2981 12.3679 8 12 8Z" fill="#8CE1EB"/>
<path d="M20.667 8H20C19.6321 8 19.333 8.2981 19.333 8.66699V11.334C19.333 11.7019 19.6321 12 20 12H20.667C21.0349 12 21.334 11.7019 21.334 11.333V8.66699C21.333 8.2981 21.0349 8 20.667 8Z" fill="#8CE1EB"/>
</svg>
