<svg width="48" height="48" viewBox="0 0 48 48" fill="none" xmlns="http://www.w3.org/2000/svg">
<circle cx="24" cy="24" r="24" fill="url(#paint0_linear)"/>
<path fill-rule="evenodd" clip-rule="evenodd" d="M24 9.84375C16.1941 9.84375 9.84375 16.1941 9.84375 24C9.84375 31.8059 16.1941 38.1562 24 38.1562C31.8059 38.1562 38.1562 31.8059 38.1562 24C38.1562 16.1941 31.8059 9.84375 24 9.84375ZM25.7004 21.0001L24 17.5545L22.2988 21.0001C22.1777 21.2457 21.9434 21.4164 21.6718 21.4555L17.8701 22.0085L20.622 24.6904C20.8179 24.8814 20.9075 25.1572 20.8611 25.4272L20.2113 29.2143L23.6129 27.4268C23.734 27.3626 23.8666 27.3308 24 27.3308C24.1334 27.3308 24.2659 27.3625 24.3871 27.4268L27.7887 29.2143L27.1389 25.4272C27.0925 25.1572 27.1821 24.8815 27.378 24.6904L30.1299 22.0085L26.3273 21.4555C26.0557 21.4164 25.8216 21.2457 25.7004 21.0001ZM28.854 25.5776L32.5013 22.0231C32.7281 21.8019 32.8094 21.4709 32.7116 21.1701C32.6133 20.8684 32.353 20.6488 32.0392 20.6033L26.9997 19.8706L24.7463 15.3045C24.6065 15.0199 24.317 14.8402 23.9998 14.8402C23.6827 14.8402 23.3932 15.0199 23.2533 15.3045L20.9991 19.8706L15.9605 20.6033C15.6466 20.6488 15.3864 20.8684 15.288 21.1701C15.1905 21.4709 15.2718 21.8019 15.4987 22.0231L19.1459 25.5776L18.2847 30.5959C18.2311 30.9082 18.3596 31.2237 18.6158 31.4099C18.8736 31.5978 19.2151 31.623 19.4924 31.4734L24 29.1045L28.5075 31.4734C28.7839 31.6199 29.1261 31.5984 29.3842 31.4099C29.6404 31.2236 29.7689 30.9082 29.7152 30.5959L28.854 25.5776Z" fill="url(#paint1_linear)"/>
<defs>
<linearGradient id="paint0_linear" x1="48" y1="48" x2="48" y2="0" gradientUnits="userSpaceOnUse">
<stop stop-color="#FFE59A"/>
<stop offset="1" stop-color="#FFFFD5"/>
</linearGradient>
<linearGradient id="paint1_linear" x1="9.84375" y1="9.84375" x2="9.84375" y2="38.1562" gradientUnits="userSpaceOnUse">
<stop stop-color="#FD5900"/>
<stop offset="1" stop-color="#FFDE00"/>
</linearGradient>
</defs>
</svg>
