<svg width="16" height="17" viewBox="0 0 16 17" fill="none" xmlns="http://www.w3.org/2000/svg">
<path d="M7.03125 7.25C5.03241 7.25 3.40625 5.62384 3.40625 3.625C3.40625 1.62616 5.03241 0 7.03125 0C9.03009 0 10.6562 1.62616 10.6562 3.625C10.6562 5.62384 9.03009 7.25 7.03125 7.25Z" fill="black"/>
<path d="M8.4375 9.90622C8.4375 9.10372 8.66281 8.35287 9.05338 7.7135C8.44353 8.01641 7.75712 8.18747 7.03125 8.18747C6.08975 8.18747 5.214 7.90078 4.48659 7.41016C3.58716 7.75881 2.76203 8.29425 2.05944 8.99684C0.731375 10.3249 0 12.0906 0 13.9687V15.5312C0 15.7901 0.209875 16 0.46875 16H13.5938C13.8526 16 14.0625 15.7901 14.0625 15.5312V13.9687C14.0625 13.9405 14.0617 13.9123 14.0614 13.8841C13.6216 14.0399 13.1487 14.125 12.6562 14.125C10.33 14.125 8.4375 12.2324 8.4375 9.90622Z" fill="black"/>
<path fill-rule="evenodd" clip-rule="evenodd" d="M9.375 9.90625C9.375 8.09697 10.847 6.625 12.6562 6.625C14.4655 6.625 15.9375 8.09697 15.9375 9.90625C15.9375 11.7155 14.4655 13.1875 12.6562 13.1875C10.847 13.1875 9.375 11.7155 9.375 9.90625ZM13.125 10.375H13.5938C13.8526 10.375 14.0625 10.1651 14.0625 9.90625C14.0625 9.64738 13.8526 9.4375 13.5938 9.4375H13.125V8.96875C13.125 8.70988 12.9151 8.5 12.6562 8.5C12.3974 8.5 12.1875 8.70988 12.1875 8.96875V9.4375H11.7188C11.4599 9.4375 11.25 9.64738 11.25 9.90625C11.25 10.1651 11.4599 10.375 11.7188 10.375H12.1875V10.8438C12.1875 11.1026 12.3974 11.3125 12.6562 11.3125C12.9151 11.3125 13.125 11.1026 13.125 10.8438V10.375Z" fill="black"/>
</svg>
