<svg width="16" height="16" viewBox="0 0 16 16" fill="none" xmlns="http://www.w3.org/2000/svg">
<path fill-rule="evenodd" clip-rule="evenodd" d="M14.1784 0.0185547H1.808C0.810863 0.0185547 0 0.82915 0 1.82746V13.1966C0 14.1938 0.810863 15.0035 1.808 15.0035H14.1784C15.1755 15.0035 15.9855 14.1938 15.9855 13.1966V1.82746C15.9856 0.82915 15.1755 0.0185547 14.1784 0.0185547ZM10.3371 2.70875C11.3014 2.70875 12.0834 3.49082 12.0834 4.45505C12.0834 5.41928 11.3013 6.20135 10.3371 6.20135C9.37252 6.20135 8.59077 5.41928 8.59077 4.45505C8.59077 3.49082 9.37252 2.70875 10.3371 2.70875ZM7.99262 13.3322H13.6114C14.0937 13.3322 14.2602 13.0117 13.9842 12.6162L12.0752 9.88927C11.7987 9.4943 11.2995 9.45181 10.9607 9.79498L10.2235 10.5415C9.88447 10.8847 9.3722 10.8521 9.07912 10.4691L6.06555 6.53082C5.77247 6.14784 5.35861 6.18626 5.14146 6.61671L2.14448 12.5528C1.92706 12.9833 2.14186 13.3322 2.62416 13.3322H7.99262Z" fill="black"/>
</svg>
