<svg width="32" height="32" viewBox="0 0 32 32" fill="none" xmlns="http://www.w3.org/2000/svg">
<circle cx="16" cy="16" r="16" fill="url(#paint0_linear)"/>
<path fill-rule="evenodd" clip-rule="evenodd" d="M15.7819 17.0649L8.00882 13.7361C7.80495 13.6484 7.6727 13.4479 7.6727 13.2264C7.6727 13.0042 7.80501 12.8039 8.00939 12.7166L15.7814 9.38842C15.9202 9.32886 16.0796 9.32886 16.2184 9.38842L23.9904 12.7166C24.1948 12.8039 24.3271 13.0043 24.3271 13.2264C24.3271 13.4479 24.1948 13.6484 23.991 13.7361L23.2168 14.0676V16.5545C23.2168 16.8612 22.9685 17.1092 22.6617 17.1092C22.3548 17.1092 22.1065 16.8612 22.1065 16.5545V14.5431L16.2178 17.0649C16.0797 17.1242 15.9198 17.124 15.7819 17.0649ZM16.5551 12.6717H15.4448C15.138 12.6717 14.8896 12.9197 14.8897 13.2264C14.8897 13.533 15.138 13.781 15.4448 13.781H16.5551C16.862 13.781 17.1103 13.533 17.1103 13.2264C17.1103 12.9198 16.862 12.6717 16.5551 12.6717ZM24.8823 18.2187H22.019L22.0567 18.3687C22.2633 19.1894 21.8203 20.0334 21.0266 20.3313L16.5849 21.9959C16.1986 22.1385 15.7902 22.1347 15.4188 21.997L10.9738 20.3319C10.1796 20.0334 9.73719 19.1894 9.94375 18.3682L9.98125 18.2187H7.11762C6.81075 18.2187 6.5625 18.4668 6.5625 18.7734V22.1016C6.5625 22.4082 6.81081 22.6563 7.11762 22.6563H24.8823C25.1892 22.6563 25.4374 22.4082 25.4374 22.1016V18.7734C25.4374 18.4667 25.1891 18.2187 24.8823 18.2187ZM15.3439 18.0843C15.7654 18.2646 16.2398 18.2625 16.6554 18.0843L20.4344 16.466L20.9794 18.6385C21.0482 18.912 20.9002 19.1937 20.6362 19.2929L16.195 20.9569C16.0641 21.0054 15.9271 21.0023 15.8047 20.9569L11.3635 19.2929C11.0995 19.1937 10.9515 18.912 11.0204 18.6385L11.5654 16.4661L15.3439 18.0843Z" fill="url(#paint1_linear)"/>
<defs>
<linearGradient id="paint0_linear" x1="32" y1="32" x2="32" y2="0" gradientUnits="userSpaceOnUse">
<stop stop-color="#FFBEF9"/>
<stop offset="1" stop-color="#FFF1FF"/>
</linearGradient>
<linearGradient id="paint1_linear" x1="25.4374" y1="22.6562" x2="25.4374" y2="9.34373" gradientUnits="userSpaceOnUse">
<stop stop-color="#FF81FF"/>
<stop offset="1" stop-color="#A93AFF"/>
</linearGradient>
</defs>
</svg>
