<svg width="22" height="22" viewBox="0 0 22 22" fill="none" xmlns="http://www.w3.org/2000/svg">
<path d="M15.4 11C14.995 11 14.6667 10.6717 14.6667 10.2666C14.6667 8.64661 13.3534 7.3333 11.7333 7.3333C11.3283 7.3333 11 7.005 11 6.59997C11 6.19494 11.3283 5.86664 11.7333 5.86664C14.1634 5.86664 16.1333 7.8366 16.1333 10.2666C16.1333 10.6717 15.805 11 15.4 11Z" fill="black"/>
<path d="M18.3333 11C17.9283 11 17.6 10.6717 17.6 10.2667C17.6 7.02663 14.9734 4.40002 11.7333 4.40002C11.3283 4.40002 11 4.07171 11 3.66668C11 3.26165 11.3283 2.93335 11.7333 2.93335C15.7814 2.93821 19.0618 6.21859 19.0667 10.2667C19.0667 10.6717 18.7384 11 18.3333 11Z" fill="black"/>
<path d="M21.2667 11C20.8616 11 20.5333 10.6717 20.5333 10.2667C20.5285 5.40856 16.5914 1.47153 11.7333 1.46667C11.3283 1.46667 11 1.13836 11 0.733333C11 0.328304 11.3283 0 11.7333 0C17.4008 0.0064625 21.9935 4.59924 22 10.2667C22 10.6717 21.6717 11 21.2667 11Z" fill="black"/>
<path d="M6.58541 8.55068L2.61074 10.472C1.37178 7.89063 0.730157 5.06331 0.733411 2.20001H5.13341C5.12672 4.39992 5.62337 6.57224 6.58541 8.55068Z" fill="#5DC2A7"/>
<path fill-rule="evenodd" clip-rule="evenodd" d="M1.95072 10.7888C2.07245 11.0429 2.32898 11.2048 2.61072 11.2053C2.72251 11.2063 2.83301 11.1812 2.93339 11.132L6.90512 9.21067L6.9081 9.20921C7.27179 9.03101 7.42212 8.5917 7.24392 8.22801C6.32854 6.3509 5.85728 4.2884 5.86672 2.20001C5.86672 1.79498 5.53842 1.46667 5.13339 1.46667H0.733388C0.328359 1.46667 5.47289e-05 1.79498 5.47289e-05 2.20001C-0.00695777 5.17354 0.660009 8.10999 1.95072 10.7888ZM2.96712 9.48494C2.06975 7.41213 1.56595 5.19045 1.48139 2.93334H4.41619C4.49562 4.7483 4.90358 6.53378 5.62032 8.20307L2.96712 9.48494Z" fill="black"/>
<path d="M19.8001 16.8667V21.2667C16.9368 21.27 14.1095 20.6283 11.5281 19.3893L13.4494 15.4147C15.4279 16.3767 17.6002 16.8734 19.8001 16.8667Z" fill="#5DC2A7"/>
<path fill-rule="evenodd" clip-rule="evenodd" d="M11.2113 20.0493C13.8901 21.3401 16.8266 22.007 19.8001 22C20.2051 22 20.5334 21.6717 20.5334 21.2667V16.8667C20.5334 16.4616 20.2051 16.1333 19.8001 16.1333C17.7115 16.1419 15.6489 15.6696 13.7721 14.7532L13.7691 14.7517C13.4046 14.5752 12.966 14.7275 12.7894 15.092L10.8681 19.0667L10.8658 19.0715C10.6912 19.437 10.8459 19.8747 11.2113 20.0493ZM19.0668 20.5187C16.8096 20.4341 14.588 19.9303 12.5152 19.0329L13.797 16.3812C15.4663 17.098 17.2518 17.5059 19.0668 17.5853V20.5187Z" fill="black"/>
<path d="M11.2098 20.0493C7.16991 18.0922 3.90786 14.8301 1.95068 10.7903L3.27068 10.1537C5.0844 13.8947 8.10532 16.9156 11.8463 18.7293L11.2098 20.0493Z" fill="black"/>
</svg>
