<svg width="28" height="22" viewBox="0 0 28 22" fill="none" xmlns="http://www.w3.org/2000/svg">
<path d="M4.046 0.0175781H23.6979C25.9324 0.0175781 27.7438 1.82906 27.7438 4.06357V17.9355C27.7438 20.17 25.9324 21.9815 23.6978 21.9815H4.046C1.81142 21.9815 0 20.17 0 17.9355V4.06357C0 1.82906 1.81142 0.0175781 4.046 0.0175781Z" fill="#5DC2A7"/>
<path d="M27.1658 6.95312H22.5418C20.3073 6.95312 18.4958 8.76455 18.4958 10.9991C18.4958 13.2337 20.3073 15.0451 22.5418 15.0451H27.1658C27.485 15.0451 27.7438 14.7863 27.7438 14.4671V7.53114C27.7438 7.21192 27.485 6.95312 27.1658 6.95312Z" fill="#FCF055"/>
<circle cx="22.5419" cy="10.9996" r="1.73399" fill="#EB9138"/>
<path fill-rule="evenodd" clip-rule="evenodd" d="M4.046 21.9815H23.6978C25.9324 21.9815 27.7438 20.17 27.7438 17.9355V4.06357C27.7438 1.82906 25.9324 0.0175781 23.6979 0.0175781H4.046C1.81142 0.0175781 0 1.82906 0 4.06357V17.9355C0 20.17 1.81142 21.9815 4.046 21.9815ZM1.15603 4.06357C1.15603 2.46749 2.44991 1.17361 4.046 1.17361H23.6979C25.294 1.17361 26.5879 2.46749 26.5879 4.06357V17.9355C26.5879 19.5316 25.294 20.8255 23.6979 20.8255H4.046C2.44991 20.8255 1.15603 19.5316 1.15603 17.9355V4.06357Z" fill="black"/>
<path fill-rule="evenodd" clip-rule="evenodd" d="M20.8079 10.9996C20.8079 11.9573 21.5842 12.7336 22.5419 12.7336C23.4995 12.7336 24.2758 11.9573 24.2758 10.9996C24.2758 10.042 23.4995 9.26562 22.5419 9.26562C21.5842 9.26562 20.8079 10.042 20.8079 10.9996ZM21.9638 10.9996C21.9638 10.6804 22.2226 10.4216 22.5419 10.4216C22.8611 10.4216 23.1199 10.6804 23.1199 10.9996C23.1199 11.3188 22.8611 11.5776 22.5419 11.5776C22.2226 11.5776 21.9638 11.3188 21.9638 10.9996Z" fill="black"/>
<path fill-rule="evenodd" clip-rule="evenodd" d="M22.5418 15.0451H27.1658C27.485 15.0451 27.7438 14.7863 27.7438 14.4671V7.53114C27.7438 7.21192 27.485 6.95312 27.1658 6.95312H22.5418C20.3073 6.95312 18.4958 8.76455 18.4958 10.9991C18.4958 13.2337 20.3073 15.0451 22.5418 15.0451ZM19.6519 10.9991C19.6519 9.40304 20.9458 8.10915 22.5418 8.10915H26.5878V13.8891H22.5418C20.9458 13.8891 19.6519 12.5952 19.6519 10.9991Z" fill="black"/>
</svg>
