<svg width="22" height="22" viewBox="0 0 22 22" fill="none" xmlns="http://www.w3.org/2000/svg">
<circle cx="11" cy="11" r="10.5" fill="white" stroke="#D9534F"/>
<circle cx="11" cy="11" r="8" fill="#D9534F"/>
<path d="M10.9353 14.043V15.9135C11.452 15.9135 11.8706 15.4949 11.8706 14.9782C11.8706 14.4616 11.452 14.043 10.9353 14.043Z" fill="black"/>
<path d="M10.9353 14.043C11.0386 14.043 11.1224 14.4616 11.1224 14.9783C11.1224 15.4949 11.0386 15.9136 10.9353 15.9136C10.4186 15.9136 10 15.4949 10 14.9783C10 14.4616 10.4186 14.043 10.9353 14.043Z" fill="black"/>
<path d="M10.9353 6V12.9212C11.452 12.9212 11.8706 12.5022 11.8706 11.9859V6.93531C11.8706 6.41865 11.452 6 10.9353 6Z" fill="black"/>
<path d="M10.9353 6C11.0386 6 11.1224 6.41865 11.1224 6.93531V11.9859C11.1224 12.5021 11.0386 12.9212 10.9353 12.9212C10.4186 12.9212 10 12.5022 10 11.9859V6.93531C10 6.41865 10.4186 6 10.9353 6Z" fill="black"/>
</svg>
